%TF.GenerationSoftware,KiCad,Pcbnew,9.0.0*%
%TF.CreationDate,2025-03-28T14:04:11+02:00*%
%TF.ProjectId,,58585858-5858-4585-9858-585858585858,rev?*%
%TF.SameCoordinates,Original*%
%TF.FileFunction,Copper,L2,Bot*%
%TF.FilePolarity,Positive*%
%FSLAX46Y46*%
G04 Gerber Fmt 4.6, Leading zero omitted, Abs format (unit mm)*
G04 Created by KiCad (PCBNEW 9.0.0) date 2025-03-28 14:04:11*
%MOMM*%
%LPD*%
G01*
G04 APERTURE LIST*
G04 Aperture macros list*
%AMRoundRect*
0 Rectangle with rounded corners*
0 $1 Rounding radius*
0 $2 $3 $4 $5 $6 $7 $8 $9 X,Y pos of 4 corners*
0 Add a 4 corners polygon primitive as box body*
4,1,4,$2,$3,$4,$5,$6,$7,$8,$9,$2,$3,0*
0 Add four circle primitives for the rounded corners*
1,1,$1+$1,$2,$3*
1,1,$1+$1,$4,$5*
1,1,$1+$1,$6,$7*
1,1,$1+$1,$8,$9*
0 Add four rect primitives between the rounded corners*
20,1,$1+$1,$2,$3,$4,$5,0*
20,1,$1+$1,$4,$5,$6,$7,0*
20,1,$1+$1,$6,$7,$8,$9,0*
20,1,$1+$1,$8,$9,$2,$3,0*%
G04 Aperture macros list end*
%TA.AperFunction,ComponentPad*%
%ADD10C,0.300000*%
%TD*%
%TA.AperFunction,HeatsinkPad*%
%ADD11C,0.500000*%
%TD*%
%TA.AperFunction,HeatsinkPad*%
%ADD12R,2.000000X3.500000*%
%TD*%
%TA.AperFunction,HeatsinkPad*%
%ADD13R,1.900000X2.900000*%
%TD*%
%TA.AperFunction,ComponentPad*%
%ADD14RoundRect,0.249999X-1.025001X-1.025001X1.025001X-1.025001X1.025001X1.025001X-1.025001X1.025001X0*%
%TD*%
%TA.AperFunction,ComponentPad*%
%ADD15C,2.550000*%
%TD*%
%TA.AperFunction,ComponentPad*%
%ADD16RoundRect,0.250000X-0.350000X-0.625000X0.350000X-0.625000X0.350000X0.625000X-0.350000X0.625000X0*%
%TD*%
%TA.AperFunction,ComponentPad*%
%ADD17O,1.200000X1.750000*%
%TD*%
%TA.AperFunction,HeatsinkPad*%
%ADD18O,1.000000X2.100000*%
%TD*%
%TA.AperFunction,HeatsinkPad*%
%ADD19O,1.000000X1.600000*%
%TD*%
%TA.AperFunction,ComponentPad*%
%ADD20R,1.700000X1.700000*%
%TD*%
%TA.AperFunction,ComponentPad*%
%ADD21O,1.700000X1.700000*%
%TD*%
G04 APERTURE END LIST*
D10*
%TO.P,U5,27,PGND*%
%TO.N,GND*%
X167760000Y-72940000D03*
%TO.P,U5,26,PGND*%
X166985000Y-72940000D03*
%TO.P,U5,28,PGND*%
X168535000Y-72940000D03*
%TO.P,U5,24,PGND*%
X167760000Y-71890000D03*
%TO.P,U5,23,PGND*%
X166985000Y-71890000D03*
%TO.P,U5,25,PGND*%
X168535000Y-71890000D03*
%TO.P,U5,29,PGND*%
X167760000Y-73690000D03*
%TO.P,U5,22,PGND*%
X167760000Y-71140000D03*
%TD*%
D11*
%TO.P,U3,17,GND(PPAD)*%
%TO.N,GND*%
X165975000Y-85115000D03*
X165975000Y-86615000D03*
X165975000Y-88115000D03*
D12*
X166725000Y-86615000D03*
D11*
X167475000Y-85115000D03*
X167475000Y-86615000D03*
X167475000Y-88115000D03*
%TD*%
%TO.P,U2,17,GND(PPAD)*%
%TO.N,GND*%
X165975000Y-78475000D03*
X165975000Y-79975000D03*
X165975000Y-81475000D03*
D12*
X166725000Y-79975000D03*
D11*
X167475000Y-78475000D03*
X167475000Y-79975000D03*
X167475000Y-81475000D03*
%TD*%
%TO.P,U1,9,EPAD*%
%TO.N,GND*%
X146570000Y-93560000D03*
X146570000Y-94760000D03*
X146570000Y-95960000D03*
D13*
X147270000Y-94760000D03*
D11*
X147970000Y-93560000D03*
X147970000Y-94760000D03*
X147970000Y-95960000D03*
%TD*%
D14*
%TO.P,SW1,1,A*%
%TO.N,unconnected-(SW1-A-Pad1)*%
X161510000Y-66410000D03*
D15*
%TO.P,SW1,2,B*%
%TO.N,/BATTERY*%
X166310000Y-66410000D03*
%TO.P,SW1,3,C*%
%TO.N,/SWITCH_OUT*%
X171110000Y-66410000D03*
%TD*%
D16*
%TO.P,J3,1,Pin_1*%
%TO.N,GND*%
X175000000Y-92310000D03*
D17*
%TO.P,J3,2,Pin_2*%
%TO.N,/BATTERY*%
X177000000Y-92310000D03*
%TD*%
D18*
%TO.P,J2,S1,SHIELD*%
%TO.N,GND*%
X172670000Y-79320000D03*
D19*
X172670000Y-83500000D03*
D18*
X181310000Y-79320000D03*
D19*
X181310000Y-83500000D03*
%TD*%
D20*
%TO.P,J1,1,Pin_1*%
%TO.N,/Motor2_B_OUT*%
X138170000Y-66430000D03*
D21*
%TO.P,J1,2,Pin_2*%
%TO.N,/Motor2_A_OUT*%
X140710000Y-66430000D03*
%TO.P,J1,3,Pin_3*%
%TO.N,/Motor4_A_OUT*%
X138170000Y-68970000D03*
%TO.P,J1,4,Pin_4*%
%TO.N,/MOTOR2_CTRL1*%
X140710000Y-68970000D03*
%TO.P,J1,5,Pin_5*%
%TO.N,/Motor4_B_OUT*%
X138170000Y-71510000D03*
%TO.P,J1,6,Pin_6*%
%TO.N,/MOTOR2_CTRL2*%
X140710000Y-71510000D03*
%TO.P,J1,7,Pin_7*%
%TO.N,/CTRL_EXT_LOAD2*%
X138170000Y-74050000D03*
%TO.P,J1,8,Pin_8*%
%TO.N,/MOTOR4_CTRL1*%
X140710000Y-74050000D03*
%TO.P,J1,9,Pin_9*%
%TO.N,unconnected-(J1-Pin_9-Pad9)*%
X138170000Y-76590000D03*
%TO.P,J1,10,Pin_10*%
%TO.N,/MOTOR4_CTRL2*%
X140710000Y-76590000D03*
%TO.P,J1,11,Pin_11*%
%TO.N,/EXT_LOAD2_OUT*%
X138170000Y-79130000D03*
%TO.P,J1,12,Pin_12*%
%TO.N,/USART2_TX *%
X140710000Y-79130000D03*
%TO.P,J1,13,Pin_13*%
%TO.N,/FAST_CHARGE_CTRL *%
X138170000Y-81670000D03*
%TO.P,J1,14,Pin_14*%
%TO.N,/Battery *%
X140710000Y-81670000D03*
%TO.P,J1,15,Pin_15*%
%TO.N,unconnected-(J1-Pin_15-Pad15)*%
X138170000Y-84210000D03*
%TO.P,J1,16,Pin_16*%
%TO.N,/I2C1_SCL *%
X140710000Y-84210000D03*
%TO.P,J1,17,Pin_17*%
%TO.N,/I2C1_SDA *%
X138170000Y-86750000D03*
%TO.P,J1,18,Pin_18*%
%TO.N,/3V3 Out *%
X140710000Y-86750000D03*
%TO.P,J1,19,Pin_19*%
%TO.N,unconnected-(J1-Pin_19-Pad19)*%
X138170000Y-89290000D03*
%TO.P,J1,20,Pin_20*%
%TO.N,/5V Out *%
X140710000Y-89290000D03*
%TO.P,J1,21,Pin_21*%
%TO.N,/EXT_LOAD1_OUT*%
X138170000Y-91830000D03*
%TO.P,J1,22,Pin_22*%
%TO.N,/HV (9V)*%
X140710000Y-91830000D03*
%TO.P,J1,23,Pin_23*%
%TO.N,unconnected-(J1-Pin_23-Pad23)*%
X138170000Y-94370000D03*
%TO.P,J1,24,Pin_24*%
%TO.N,/MOTOR3_CTRL1*%
X140710000Y-94370000D03*
%TO.P,J1,25,Pin_25*%
%TO.N,/CTRL_EXT_LOAD1*%
X138170000Y-96910000D03*
%TO.P,J1,26,Pin_26*%
%TO.N,/MOTOR3_CTRL2*%
X140710000Y-96910000D03*
%TO.P,J1,27,Pin_27*%
%TO.N,/MOTOR3_A_OUT*%
X138170000Y-99450000D03*
%TO.P,J1,28,Pin_28*%
%TO.N,/MOTOR1_CTRL1*%
X140710000Y-99450000D03*
%TO.P,J1,29,Pin_29*%
%TO.N,/MOTOR3_B_OUT*%
X138170000Y-101990000D03*
%TO.P,J1,30,Pin_30*%
%TO.N,/MOTOR1_CTRL2*%
X140710000Y-101990000D03*
%TO.P,J1,31,Pin_31*%
%TO.N,/MOTOR1_B_OUT*%
X138170000Y-104530000D03*
%TO.P,J1,32,Pin_32*%
%TO.N,/MOTOR1_A_OUT *%
X140710000Y-104530000D03*
%TD*%
M02*
