%TF.GenerationSoftware,KiCad,Pcbnew,9.0.0*%
%TF.CreationDate,2025-03-28T14:04:11+02:00*%
%TF.ProjectId,,58585858-5858-4585-9858-585858585858,rev?*%
%TF.SameCoordinates,Original*%
%TF.FileFunction,Copper,L1,Top*%
%TF.FilePolarity,Positive*%
%FSLAX46Y46*%
G04 Gerber Fmt 4.6, Leading zero omitted, Abs format (unit mm)*
G04 Created by KiCad (PCBNEW 9.0.0) date 2025-03-28 14:04:11*
%MOMM*%
%LPD*%
G01*
G04 APERTURE LIST*
G04 Aperture macros list*
%AMRoundRect*
0 Rectangle with rounded corners*
0 $1 Rounding radius*
0 $2 $3 $4 $5 $6 $7 $8 $9 X,Y pos of 4 corners*
0 Add a 4 corners polygon primitive as box body*
4,1,4,$2,$3,$4,$5,$6,$7,$8,$9,$2,$3,0*
0 Add four circle primitives for the rounded corners*
1,1,$1+$1,$2,$3*
1,1,$1+$1,$4,$5*
1,1,$1+$1,$6,$7*
1,1,$1+$1,$8,$9*
0 Add four rect primitives between the rounded corners*
20,1,$1+$1,$2,$3,$4,$5,0*
20,1,$1+$1,$4,$5,$6,$7,0*
20,1,$1+$1,$6,$7,$8,$9,0*
20,1,$1+$1,$8,$9,$2,$3,0*%
%AMFreePoly0*
4,1,413,-0.218419,2.454743,-0.216190,2.454000,-0.215000,2.454000,-0.213419,2.453743,-0.211190,2.453000,-0.210000,2.453000,-0.208419,2.452743,-0.205419,2.451743,-0.204764,2.451472,-0.203080,2.450630,-0.200419,2.449743,-0.198464,2.448536,-0.197036,2.447108,-0.195764,2.446472,-0.194464,2.445536,-0.193036,2.444108,-0.191764,2.443472,-0.190464,2.442536,-0.182464,2.434536,-0.181528,2.433236,
-0.180892,2.431964,-0.179464,2.430536,-0.178528,2.429236,-0.177892,2.427964,-0.176464,2.426536,-0.175257,2.424581,-0.174370,2.421920,-0.173528,2.420236,-0.173257,2.419581,-0.172257,2.416581,-0.172000,2.415000,-0.172000,2.413810,-0.171257,2.411581,-0.171000,2.410000,-0.171000,2.408810,-0.170257,2.406581,-0.170000,2.405000,-0.170000,1.930000,0.170000,1.930000,0.170000,2.405000,
0.170257,2.406581,0.171000,2.408810,0.171000,2.410000,0.171257,2.411581,0.172000,2.413810,0.172000,2.415000,0.172257,2.416581,0.173257,2.419581,0.173528,2.420236,0.174370,2.421920,0.175257,2.424581,0.176464,2.426536,0.177892,2.427964,0.178528,2.429236,0.179464,2.430536,0.180892,2.431964,0.181528,2.433236,0.182464,2.434536,0.190464,2.442536,0.191764,2.443472,
0.193036,2.444108,0.194464,2.445536,0.195764,2.446472,0.197036,2.447108,0.198464,2.448536,0.200419,2.449743,0.203080,2.450630,0.204764,2.451472,0.205419,2.451743,0.208419,2.452743,0.210000,2.453000,0.211190,2.453000,0.213419,2.453743,0.215000,2.454000,0.216190,2.454000,0.218419,2.454743,0.220000,2.455000,0.330000,2.455000,0.331581,2.454743,0.333810,2.454000,
0.335000,2.454000,0.336581,2.453743,0.338810,2.453000,0.340000,2.453000,0.341581,2.452743,0.344581,2.451743,0.345236,2.451472,0.346920,2.450630,0.349581,2.449743,0.351536,2.448536,0.352964,2.447108,0.354236,2.446472,0.355536,2.445536,0.356964,2.444108,0.358236,2.443472,0.359536,2.442536,0.367536,2.434536,0.368472,2.433236,0.369108,2.431964,0.370536,2.430536,
0.371472,2.429236,0.372108,2.427964,0.373536,2.426536,0.374743,2.424581,0.375630,2.421920,0.376472,2.420236,0.376743,2.419581,0.377743,2.416581,0.378000,2.415000,0.378000,2.413810,0.378743,2.411581,0.379000,2.410000,0.379000,2.408810,0.379743,2.406581,0.380000,2.405000,0.380000,1.530000,0.980000,1.530000,0.981581,1.529743,0.983810,1.529000,0.985000,1.529000,
0.986581,1.528743,0.988810,1.528000,0.990000,1.528000,0.991581,1.527743,0.994581,1.526743,0.995236,1.526472,0.996920,1.525630,0.998810,1.525000,1.025000,1.525000,1.025000,1.498810,1.025630,1.496920,1.026472,1.495236,1.026743,1.494581,1.027743,1.491581,1.028000,1.490000,1.028000,1.488810,1.028743,1.486581,1.029000,1.485000,1.029000,1.483810,1.029743,1.481581,
1.030000,1.480000,1.030000,-1.480000,1.029743,-1.481581,1.029000,-1.483810,1.029000,-1.485000,1.028743,-1.486581,1.028000,-1.488810,1.028000,-1.490000,1.027743,-1.491581,1.026743,-1.494581,1.026472,-1.495236,1.025630,-1.496920,1.025000,-1.498810,1.025000,-1.525000,0.998810,-1.525000,0.996920,-1.525630,0.995236,-1.526472,0.994581,-1.526743,0.991581,-1.527743,0.990000,-1.528000,
0.988810,-1.528000,0.986581,-1.528743,0.985000,-1.529000,0.983810,-1.529000,0.981581,-1.529743,0.980000,-1.530000,0.380000,-1.530000,0.380000,-2.405000,0.379743,-2.406581,0.379000,-2.408810,0.379000,-2.410000,0.378743,-2.411581,0.378000,-2.413810,0.378000,-2.415000,0.377743,-2.416581,0.376743,-2.419581,0.376472,-2.420236,0.375630,-2.421920,0.374743,-2.424581,0.373536,-2.426536,
0.372108,-2.427964,0.371472,-2.429236,0.370536,-2.430536,0.369108,-2.431964,0.368472,-2.433236,0.367536,-2.434536,0.359536,-2.442536,0.358236,-2.443472,0.356964,-2.444108,0.355536,-2.445536,0.354236,-2.446472,0.352964,-2.447108,0.351536,-2.448536,0.349581,-2.449743,0.346920,-2.450630,0.345236,-2.451472,0.344581,-2.451743,0.341581,-2.452743,0.340000,-2.453000,0.338810,-2.453000,
0.336581,-2.453743,0.335000,-2.454000,0.333810,-2.454000,0.331581,-2.454743,0.330000,-2.455000,0.220000,-2.455000,0.218419,-2.454743,0.216190,-2.454000,0.215000,-2.454000,0.213419,-2.453743,0.211190,-2.453000,0.210000,-2.453000,0.208419,-2.452743,0.205419,-2.451743,0.204764,-2.451472,0.203080,-2.450630,0.200419,-2.449743,0.198464,-2.448536,0.197036,-2.447108,0.195764,-2.446472,
0.194464,-2.445536,0.193036,-2.444108,0.191764,-2.443472,0.190464,-2.442536,0.182464,-2.434536,0.181528,-2.433236,0.180892,-2.431964,0.179464,-2.430536,0.178528,-2.429236,0.177892,-2.427964,0.176464,-2.426536,0.175257,-2.424581,0.174370,-2.421920,0.173528,-2.420236,0.173257,-2.419581,0.172257,-2.416581,0.172000,-2.415000,0.172000,-2.413810,0.171257,-2.411581,0.171000,-2.410000,
0.171000,-2.408810,0.170257,-2.406581,0.170000,-2.405000,0.170000,-1.930000,-0.170000,-1.930000,-0.170000,-2.405000,-0.170257,-2.406581,-0.171000,-2.408810,-0.171000,-2.410000,-0.171257,-2.411581,-0.172000,-2.413810,-0.172000,-2.415000,-0.172257,-2.416581,-0.173257,-2.419581,-0.173528,-2.420236,-0.174370,-2.421920,-0.175257,-2.424581,-0.176464,-2.426536,-0.177892,-2.427964,-0.178528,-2.429236,
-0.179464,-2.430536,-0.180892,-2.431964,-0.181528,-2.433236,-0.182464,-2.434536,-0.190464,-2.442536,-0.191764,-2.443472,-0.193036,-2.444108,-0.194464,-2.445536,-0.195764,-2.446472,-0.197036,-2.447108,-0.198464,-2.448536,-0.200419,-2.449743,-0.203080,-2.450630,-0.204764,-2.451472,-0.205419,-2.451743,-0.208419,-2.452743,-0.210000,-2.453000,-0.211190,-2.453000,-0.213419,-2.453743,-0.215000,-2.454000,
-0.216190,-2.454000,-0.218419,-2.454743,-0.220000,-2.455000,-0.330000,-2.455000,-0.331581,-2.454743,-0.333810,-2.454000,-0.335000,-2.454000,-0.336581,-2.453743,-0.338810,-2.453000,-0.340000,-2.453000,-0.341581,-2.452743,-0.344581,-2.451743,-0.345236,-2.451472,-0.346920,-2.450630,-0.349581,-2.449743,-0.351536,-2.448536,-0.352964,-2.447108,-0.354236,-2.446472,-0.355536,-2.445536,-0.356964,-2.444108,
-0.358236,-2.443472,-0.359536,-2.442536,-0.367536,-2.434536,-0.368472,-2.433236,-0.369108,-2.431964,-0.370536,-2.430536,-0.371472,-2.429236,-0.372108,-2.427964,-0.373536,-2.426536,-0.374743,-2.424581,-0.375630,-2.421920,-0.376472,-2.420236,-0.376743,-2.419581,-0.377743,-2.416581,-0.378000,-2.415000,-0.378000,-2.413810,-0.378743,-2.411581,-0.379000,-2.410000,-0.379000,-2.408810,-0.379743,-2.406581,
-0.380000,-2.405000,-0.380000,-1.530000,-0.980000,-1.530000,-0.981581,-1.529743,-0.983810,-1.529000,-0.985000,-1.529000,-0.986581,-1.528743,-0.988810,-1.528000,-0.990000,-1.528000,-0.991581,-1.527743,-0.994581,-1.526743,-0.995236,-1.526472,-0.996920,-1.525630,-0.998810,-1.525000,-1.025000,-1.525000,-1.025000,-1.498810,-1.025630,-1.496920,-1.026472,-1.495236,-1.026743,-1.494581,-1.027743,-1.491581,
-1.028000,-1.490000,-1.028000,-1.488810,-1.028743,-1.486581,-1.029000,-1.485000,-1.029000,-1.483810,-1.029743,-1.481581,-1.030000,-1.480000,-1.030000,1.480000,-1.029743,1.481581,-1.029000,1.483810,-1.029000,1.485000,-1.028743,1.486581,-1.028000,1.488810,-1.028000,1.490000,-1.027743,1.491581,-1.026743,1.494581,-1.026472,1.495236,-1.025630,1.496920,-1.025000,1.498810,-1.025000,1.525000,
-0.998810,1.525000,-0.996920,1.525630,-0.995236,1.526472,-0.994581,1.526743,-0.991581,1.527743,-0.990000,1.528000,-0.988810,1.528000,-0.986581,1.528743,-0.985000,1.529000,-0.983810,1.529000,-0.981581,1.529743,-0.980000,1.530000,-0.380000,1.530000,-0.380000,2.405000,-0.379743,2.406581,-0.379000,2.408810,-0.379000,2.410000,-0.378743,2.411581,-0.378000,2.413810,-0.378000,2.415000,
-0.377743,2.416581,-0.376743,2.419581,-0.376472,2.420236,-0.375630,2.421920,-0.374743,2.424581,-0.373536,2.426536,-0.372108,2.427964,-0.371472,2.429236,-0.370536,2.430536,-0.369108,2.431964,-0.368472,2.433236,-0.367536,2.434536,-0.359536,2.442536,-0.358236,2.443472,-0.356964,2.444108,-0.355536,2.445536,-0.354236,2.446472,-0.352964,2.447108,-0.351536,2.448536,-0.349581,2.449743,
-0.346920,2.450630,-0.345236,2.451472,-0.344581,2.451743,-0.341581,2.452743,-0.340000,2.453000,-0.338810,2.453000,-0.336581,2.453743,-0.335000,2.454000,-0.333810,2.454000,-0.331581,2.454743,-0.330000,2.455000,-0.220000,2.455000,-0.218419,2.454743,-0.218419,2.454743,$1*%
G04 Aperture macros list end*
%TA.AperFunction,SMDPad,CuDef*%
%ADD10RoundRect,0.150000X-0.825000X-0.150000X0.825000X-0.150000X0.825000X0.150000X-0.825000X0.150000X0*%
%TD*%
%TA.AperFunction,SMDPad,CuDef*%
%ADD11RoundRect,0.125000X-0.537500X-0.125000X0.537500X-0.125000X0.537500X0.125000X-0.537500X0.125000X0*%
%TD*%
%TA.AperFunction,SMDPad,CuDef*%
%ADD12RoundRect,0.050400X-0.069600X-0.249600X0.069600X-0.249600X0.069600X0.249600X-0.069600X0.249600X0*%
%TD*%
%TA.AperFunction,SMDPad,CuDef*%
%ADD13RoundRect,0.050400X-0.249600X-0.069600X0.249600X-0.069600X0.249600X0.069600X-0.249600X0.069600X0*%
%TD*%
%TA.AperFunction,SMDPad,CuDef*%
%ADD14FreePoly0,0.000000*%
%TD*%
%TA.AperFunction,ComponentPad*%
%ADD15C,0.300000*%
%TD*%
%TA.AperFunction,SMDPad,CuDef*%
%ADD16R,0.650000X0.350000*%
%TD*%
%TA.AperFunction,SMDPad,CuDef*%
%ADD17R,1.000000X1.600000*%
%TD*%
%TA.AperFunction,SMDPad,CuDef*%
%ADD18RoundRect,0.100000X-0.687500X-0.100000X0.687500X-0.100000X0.687500X0.100000X-0.687500X0.100000X0*%
%TD*%
%TA.AperFunction,HeatsinkPad*%
%ADD19C,0.500000*%
%TD*%
%TA.AperFunction,HeatsinkPad*%
%ADD20R,3.400000X5.000000*%
%TD*%
%TA.AperFunction,HeatsinkPad*%
%ADD21R,2.410000X3.300000*%
%TD*%
%TA.AperFunction,SMDPad,CuDef*%
%ADD22R,1.500000X1.500000*%
%TD*%
%TA.AperFunction,ComponentPad*%
%ADD23RoundRect,0.249999X-1.025001X-1.025001X1.025001X-1.025001X1.025001X1.025001X-1.025001X1.025001X0*%
%TD*%
%TA.AperFunction,ComponentPad*%
%ADD24C,2.550000*%
%TD*%
%TA.AperFunction,SMDPad,CuDef*%
%ADD25RoundRect,0.250000X-0.262500X-0.450000X0.262500X-0.450000X0.262500X0.450000X-0.262500X0.450000X0*%
%TD*%
%TA.AperFunction,SMDPad,CuDef*%
%ADD26RoundRect,0.200000X-0.200000X-0.275000X0.200000X-0.275000X0.200000X0.275000X-0.200000X0.275000X0*%
%TD*%
%TA.AperFunction,SMDPad,CuDef*%
%ADD27RoundRect,0.250000X-0.400000X-0.625000X0.400000X-0.625000X0.400000X0.625000X-0.400000X0.625000X0*%
%TD*%
%TA.AperFunction,SMDPad,CuDef*%
%ADD28RoundRect,0.250000X-0.350000X-0.450000X0.350000X-0.450000X0.350000X0.450000X-0.350000X0.450000X0*%
%TD*%
%TA.AperFunction,SMDPad,CuDef*%
%ADD29RoundRect,0.150000X-0.587500X-0.150000X0.587500X-0.150000X0.587500X0.150000X-0.587500X0.150000X0*%
%TD*%
%TA.AperFunction,SMDPad,CuDef*%
%ADD30RoundRect,0.150000X-0.512500X-0.150000X0.512500X-0.150000X0.512500X0.150000X-0.512500X0.150000X0*%
%TD*%
%TA.AperFunction,SMDPad,CuDef*%
%ADD31RoundRect,0.218750X-0.218750X-0.256250X0.218750X-0.256250X0.218750X0.256250X-0.218750X0.256250X0*%
%TD*%
%TA.AperFunction,SMDPad,CuDef*%
%ADD32RoundRect,0.218750X-0.218750X-0.381250X0.218750X-0.381250X0.218750X0.381250X-0.218750X0.381250X0*%
%TD*%
%TA.AperFunction,ComponentPad*%
%ADD33RoundRect,0.250000X-0.350000X-0.625000X0.350000X-0.625000X0.350000X0.625000X-0.350000X0.625000X0*%
%TD*%
%TA.AperFunction,ComponentPad*%
%ADD34O,1.200000X1.750000*%
%TD*%
%TA.AperFunction,SMDPad,CuDef*%
%ADD35R,0.600000X1.450000*%
%TD*%
%TA.AperFunction,SMDPad,CuDef*%
%ADD36R,0.300000X1.450000*%
%TD*%
%TA.AperFunction,HeatsinkPad*%
%ADD37O,1.000000X2.100000*%
%TD*%
%TA.AperFunction,HeatsinkPad*%
%ADD38O,1.000000X1.600000*%
%TD*%
%TA.AperFunction,ComponentPad*%
%ADD39R,1.700000X1.700000*%
%TD*%
%TA.AperFunction,ComponentPad*%
%ADD40O,1.700000X1.700000*%
%TD*%
%TA.AperFunction,SMDPad,CuDef*%
%ADD41RoundRect,0.250000X-1.000000X-0.650000X1.000000X-0.650000X1.000000X0.650000X-1.000000X0.650000X0*%
%TD*%
%TA.AperFunction,SMDPad,CuDef*%
%ADD42RoundRect,0.250000X-0.250000X-0.475000X0.250000X-0.475000X0.250000X0.475000X-0.250000X0.475000X0*%
%TD*%
%TA.AperFunction,SMDPad,CuDef*%
%ADD43RoundRect,0.225000X-0.225000X-0.250000X0.225000X-0.250000X0.225000X0.250000X-0.225000X0.250000X0*%
%TD*%
%TA.AperFunction,SMDPad,CuDef*%
%ADD44RoundRect,0.250000X-0.325000X-0.650000X0.325000X-0.650000X0.325000X0.650000X-0.325000X0.650000X0*%
%TD*%
%TA.AperFunction,SMDPad,CuDef*%
%ADD45RoundRect,0.250000X-0.325000X-1.100000X0.325000X-1.100000X0.325000X1.100000X-0.325000X1.100000X0*%
%TD*%
G04 APERTURE END LIST*
D10*
%TO.P,U8,1,VIN*%
%TO.N,/9V_INPUT*%
X144795000Y-106015000D03*
%TO.P,U8,2,OUT*%
%TO.N,Net-(D4-K)*%
X144795000Y-107285000D03*
%TO.P,U8,3,FB*%
%TO.N,/5V_BAT_CHARGE*%
X144795000Y-108555000D03*
%TO.P,U8,4,~{EN}*%
%TO.N,GND*%
X144795000Y-109825000D03*
%TO.P,U8,5,GND*%
X149745000Y-109825000D03*
%TO.P,U8,6,GND*%
X149745000Y-108555000D03*
%TO.P,U8,7,GND*%
X149745000Y-107285000D03*
%TO.P,U8,8,GND*%
X149745000Y-106015000D03*
%TD*%
%TO.P,U7,1,VIN*%
%TO.N,/5V_OUT*%
X144795000Y-99435000D03*
%TO.P,U7,2,OUT*%
%TO.N,Net-(D3-K)*%
X144795000Y-100705000D03*
%TO.P,U7,3,FB*%
%TO.N,/3.3V_OUT*%
X144795000Y-101975000D03*
%TO.P,U7,4,~{EN}*%
%TO.N,GND*%
X144795000Y-103245000D03*
%TO.P,U7,5,GND*%
X149745000Y-103245000D03*
%TO.P,U7,6,GND*%
X149745000Y-101975000D03*
%TO.P,U7,7,GND*%
X149745000Y-100705000D03*
%TO.P,U7,8,GND*%
X149745000Y-99435000D03*
%TD*%
D11*
%TO.P,U6,1,IN+*%
%TO.N,/BATTERY*%
X173462500Y-110085000D03*
%TO.P,U6,2,IN-*%
%TO.N,/SWITCH_OUT*%
X173462500Y-110735000D03*
%TO.P,U6,3,GND*%
%TO.N,GND*%
X173462500Y-111385000D03*
%TO.P,U6,4,VS*%
%TO.N,Net-(U6-VS)*%
X173462500Y-112035000D03*
%TO.P,U6,5,SCL*%
%TO.N,Net-(U6-SCL)*%
X175737500Y-112035000D03*
%TO.P,U6,6,SDA*%
%TO.N,Net-(U6-SDA)*%
X175737500Y-111385000D03*
%TO.P,U6,7,A0*%
%TO.N,GND*%
X175737500Y-110735000D03*
%TO.P,U6,8,A1*%
%TO.N,/3.3V_OUT*%
X175737500Y-110085000D03*
%TD*%
D12*
%TO.P,U5,1,VCC*%
%TO.N,GND*%
X167010000Y-70265000D03*
%TO.P,U5,20,AGND*%
X168510000Y-70265000D03*
%TO.P,U5,10,SS*%
%TO.N,Net-(U5-SS)*%
X167010000Y-74565000D03*
%TO.P,U5,11,NC_11*%
%TO.N,unconnected-(U5-NC_11-Pad11)*%
X168510000Y-74565000D03*
D13*
%TO.P,U5,5,SW_4*%
%TO.N,/BOOT*%
X166110000Y-72165000D03*
%TO.P,U5,6,SW_5*%
%TO.N,unconnected-(U5-SW_5-Pad6)*%
X166110000Y-72665000D03*
%TO.P,U5,7,SW_6*%
%TO.N,unconnected-(U5-SW_6-Pad7)*%
X166110000Y-73165000D03*
%TO.P,U5,8,BOOT*%
%TO.N,Net-(U5-BOOT)*%
X166110000Y-73665000D03*
%TO.P,U5,9,VIN*%
%TO.N,/SWITCH_OUT*%
X166110000Y-74165000D03*
%TO.P,U5,4,SW_7*%
%TO.N,unconnected-(U5-SW_7-Pad4)*%
X166110000Y-71665000D03*
%TO.P,U5,3,FSW*%
%TO.N,Net-(U5-FSW)*%
X166110000Y-71165000D03*
%TO.P,U5,2,EN*%
%TO.N,/BATTERY*%
X166110000Y-70665000D03*
%TO.P,U5,16,VOUT_15*%
%TO.N,unconnected-(U5-VOUT_15-Pad16)*%
X169410000Y-72165000D03*
%TO.P,U5,15,VOUT_14*%
%TO.N,/5V_OUT*%
X169410000Y-72665000D03*
%TO.P,U5,14,VOUT_16*%
%TO.N,unconnected-(U5-VOUT_16-Pad14)*%
X169410000Y-73165000D03*
%TO.P,U5,13,MODE*%
%TO.N,unconnected-(U5-MODE-Pad13)*%
X169410000Y-73665000D03*
%TO.P,U5,12,NC_12*%
%TO.N,unconnected-(U5-NC_12-Pad12)*%
X169410000Y-74165000D03*
%TO.P,U5,17,FB*%
%TO.N,/FB*%
X169410000Y-71665000D03*
%TO.P,U5,18,COMP*%
%TO.N,Net-(U5-COMP)*%
X169410000Y-71165000D03*
%TO.P,U5,19,ILIM*%
%TO.N,Net-(U5-ILIM)*%
X169410000Y-70665000D03*
D14*
%TO.P,U5,21,PGND*%
%TO.N,GND*%
X167760000Y-72415000D03*
D15*
%TO.P,U5,27,PGND*%
X167760000Y-72940000D03*
%TO.P,U5,26,PGND*%
X166985000Y-72940000D03*
%TO.P,U5,28,PGND*%
X168535000Y-72940000D03*
%TO.P,U5,24,PGND*%
X167760000Y-71890000D03*
%TO.P,U5,23,PGND*%
X166985000Y-71890000D03*
%TO.P,U5,25,PGND*%
X168535000Y-71890000D03*
%TO.P,U5,29,PGND*%
X167760000Y-73690000D03*
%TO.P,U5,22,PGND*%
X167760000Y-71140000D03*
%TD*%
D16*
%TO.P,U4,1,CC1*%
%TO.N,Net-(J2-CC1)*%
X178525000Y-109885000D03*
%TO.P,U4,2,VBUS*%
%TO.N,/HV (9V)*%
X178525000Y-110535000D03*
%TO.P,U4,3,VSET*%
%TO.N,Net-(U4-VSET)*%
X178525000Y-111185000D03*
%TO.P,U4,4,D+*%
%TO.N,Net-(J2-DP1)*%
X180625000Y-111185000D03*
%TO.P,U4,5,D-*%
%TO.N,Net-(J2-DN1)*%
X180625000Y-110535000D03*
%TO.P,U4,6,CC2*%
%TO.N,Net-(J2-CC2)*%
X180625000Y-109885000D03*
D17*
%TO.P,U4,7,GND*%
%TO.N,GND*%
X179575000Y-110535000D03*
%TD*%
D18*
%TO.P,U3,1,nSLEEP*%
%TO.N,/5V Out *%
X163862500Y-84340000D03*
%TO.P,U3,2,AOUT1*%
%TO.N,/MOTOR3_A_OUT*%
X163862500Y-84990000D03*
%TO.P,U3,3,AISEN*%
%TO.N,Net-(U3-AISEN)*%
X163862500Y-85640000D03*
%TO.P,U3,4,AOUT2*%
%TO.N,/MOTOR3_B_OUT*%
X163862500Y-86290000D03*
%TO.P,U3,5,BOUT2*%
%TO.N,/MOTOR4_B_OUT*%
X163862500Y-86940000D03*
%TO.P,U3,6,BISEN*%
%TO.N,Net-(U3-BISEN)*%
X163862500Y-87590000D03*
%TO.P,U3,7,BOUT1*%
%TO.N,/MOTOR4_A_OUT*%
X163862500Y-88240000D03*
%TO.P,U3,8,nFAULT*%
%TO.N,Net-(U3-nFAULT)*%
X163862500Y-88890000D03*
%TO.P,U3,9,BIN1*%
%TO.N,/MOTOR4_CTRL1*%
X169587500Y-88890000D03*
%TO.P,U3,10,BIN2*%
%TO.N,/MOTOR4_CTRL2*%
X169587500Y-88240000D03*
%TO.P,U3,11,VCP*%
%TO.N,Net-(U3-VCP)*%
X169587500Y-87590000D03*
%TO.P,U3,12,VM*%
%TO.N,/5V Out *%
X169587500Y-86940000D03*
%TO.P,U3,13,GND*%
%TO.N,GND*%
X169587500Y-86290000D03*
%TO.P,U3,14,VINT*%
%TO.N,Net-(U3-VINT)*%
X169587500Y-85640000D03*
%TO.P,U3,15,AIN2*%
%TO.N,/MOTOR3_CTRL2*%
X169587500Y-84990000D03*
%TO.P,U3,16,AIN1*%
%TO.N,/MOTOR3_CTRL1*%
X169587500Y-84340000D03*
D19*
%TO.P,U3,17,GND(PPAD)*%
%TO.N,GND*%
X165975000Y-85115000D03*
X165975000Y-86615000D03*
X165975000Y-88115000D03*
D20*
X166725000Y-86615000D03*
D19*
X167475000Y-85115000D03*
X167475000Y-86615000D03*
X167475000Y-88115000D03*
%TD*%
D18*
%TO.P,U2,1,nSLEEP*%
%TO.N,/5V Out *%
X163862500Y-77700000D03*
%TO.P,U2,2,AOUT1*%
%TO.N,/MOTOR1_A_OUT*%
X163862500Y-78350000D03*
%TO.P,U2,3,AISEN*%
%TO.N,Net-(U2-AISEN)*%
X163862500Y-79000000D03*
%TO.P,U2,4,AOUT2*%
%TO.N,/MOTOR1_B_OUT*%
X163862500Y-79650000D03*
%TO.P,U2,5,BOUT2*%
%TO.N,/MOTOR2_B_OUT*%
X163862500Y-80300000D03*
%TO.P,U2,6,BISEN*%
%TO.N,Net-(U2-BISEN)*%
X163862500Y-80950000D03*
%TO.P,U2,7,BOUT1*%
%TO.N,/MOTOR2_A_OUT*%
X163862500Y-81600000D03*
%TO.P,U2,8,nFAULT*%
%TO.N,Net-(U2-nFAULT)*%
X163862500Y-82250000D03*
%TO.P,U2,9,BIN1*%
%TO.N,/MOTOR2_CTRL1*%
X169587500Y-82250000D03*
%TO.P,U2,10,BIN2*%
%TO.N,/MOTOR2_CTRL2*%
X169587500Y-81600000D03*
%TO.P,U2,11,VCP*%
%TO.N,Net-(U2-VCP)*%
X169587500Y-80950000D03*
%TO.P,U2,12,VM*%
%TO.N,/5V Out *%
X169587500Y-80300000D03*
%TO.P,U2,13,GND*%
%TO.N,GND*%
X169587500Y-79650000D03*
%TO.P,U2,14,VINT*%
%TO.N,Net-(U2-VINT)*%
X169587500Y-79000000D03*
%TO.P,U2,15,AIN2*%
%TO.N,/MOTOR1_CTRL2*%
X169587500Y-78350000D03*
%TO.P,U2,16,AIN1*%
%TO.N,/MOTOR1_CTRL1*%
X169587500Y-77700000D03*
D19*
%TO.P,U2,17,GND(PPAD)*%
%TO.N,GND*%
X165975000Y-78475000D03*
X165975000Y-79975000D03*
X165975000Y-81475000D03*
D20*
X166725000Y-79975000D03*
D19*
X167475000Y-78475000D03*
X167475000Y-79975000D03*
X167475000Y-81475000D03*
%TD*%
D10*
%TO.P,U1,1,TEMP*%
%TO.N,GND*%
X144795000Y-92855000D03*
%TO.P,U1,2,PROG*%
%TO.N,Net-(U1-PROG)*%
X144795000Y-94125000D03*
%TO.P,U1,3,GND*%
%TO.N,GND*%
X144795000Y-95395000D03*
%TO.P,U1,4,V_{CC}*%
%TO.N,Net-(U1-CE)*%
X144795000Y-96665000D03*
%TO.P,U1,5,BAT*%
%TO.N,/BATTERY*%
X149745000Y-96665000D03*
%TO.P,U1,6,~{STDBY}*%
%TO.N,GND*%
X149745000Y-95395000D03*
%TO.P,U1,7,~{CHRG}*%
X149745000Y-94125000D03*
%TO.P,U1,8,CE*%
%TO.N,Net-(U1-CE)*%
X149745000Y-92855000D03*
D19*
%TO.P,U1,9,EPAD*%
%TO.N,GND*%
X146570000Y-93560000D03*
X146570000Y-94760000D03*
X146570000Y-95960000D03*
D21*
X147270000Y-94760000D03*
D19*
X147970000Y-93560000D03*
X147970000Y-94760000D03*
X147970000Y-95960000D03*
%TD*%
D22*
%TO.P,TP5,1,1*%
%TO.N,/HV (9V)*%
X153270000Y-107380000D03*
%TD*%
%TO.P,TP4,1,1*%
%TO.N,Net-(U3-nFAULT)*%
X153270000Y-103830000D03*
%TD*%
%TO.P,TP3,1,1*%
%TO.N,Net-(U2-nFAULT)*%
X153270000Y-100280000D03*
%TD*%
%TO.P,TP2,1,1*%
%TO.N,Net-(Q4-D)*%
X153270000Y-96730000D03*
%TD*%
%TO.P,TP1,1,1*%
%TO.N,Net-(Q2-G)*%
X153270000Y-93180000D03*
%TD*%
D23*
%TO.P,SW1,1,A*%
%TO.N,unconnected-(SW1-A-Pad1)*%
X161510000Y-66410000D03*
D24*
%TO.P,SW1,2,B*%
%TO.N,/BATTERY*%
X166310000Y-66410000D03*
%TO.P,SW1,3,C*%
%TO.N,/SWITCH_OUT*%
X171110000Y-66410000D03*
%TD*%
D25*
%TO.P,R_{SHUNT}1,1*%
%TO.N,/SWITCH_OUT*%
X153157500Y-84030000D03*
%TO.P,R_{SHUNT}1,2*%
%TO.N,/BATTERY*%
X154982500Y-84030000D03*
%TD*%
%TO.P,R_{SDA}1,1*%
%TO.N,/I2C1_SDA*%
X153157500Y-81080000D03*
%TO.P,R_{SDA}1,2*%
%TO.N,Net-(U6-SDA)*%
X154982500Y-81080000D03*
%TD*%
%TO.P,R_{SCL}1,1*%
%TO.N,Net-(U6-SCL)*%
X153157500Y-78130000D03*
%TO.P,R_{SCL}1,2*%
%TO.N,/I2C1_SCL*%
X154982500Y-78130000D03*
%TD*%
D26*
%TO.P,R_{PULL_DOWN}1,1*%
%TO.N,Net-(Q1-G)*%
X156255000Y-75400000D03*
%TO.P,R_{PULL_DOWN}1,2*%
%TO.N,GND*%
X157905000Y-75400000D03*
%TD*%
%TO.P,R_{PROG}2,1*%
%TO.N,Net-(U1-PROG)*%
X156255000Y-72890000D03*
%TO.P,R_{PROG}2,2*%
%TO.N,Net-(Q1-D)*%
X157905000Y-72890000D03*
%TD*%
%TO.P,R_{PROG}1,1*%
%TO.N,Net-(U1-PROG)*%
X156255000Y-70380000D03*
%TO.P,R_{PROG}1,2*%
%TO.N,GND*%
X157905000Y-70380000D03*
%TD*%
%TO.P,R_{LIMIT}1,1*%
%TO.N,/FAST_CHARGE_CTRL*%
X156255000Y-67870000D03*
%TO.P,R_{LIMIT}1,2*%
%TO.N,Net-(Q1-G)*%
X157905000Y-67870000D03*
%TD*%
D25*
%TO.P,R_{ILIM}1,1*%
%TO.N,Net-(U5-ILIM)*%
X148747500Y-89930000D03*
%TO.P,R_{ILIM}1,2*%
%TO.N,GND*%
X150572500Y-89930000D03*
%TD*%
%TO.P,R_{FSW}2,1*%
%TO.N,Net-(R_{FSW}1-Pad2)*%
X148747500Y-86980000D03*
%TO.P,R_{FSW}2,2*%
%TO.N,Net-(U5-FSW)*%
X150572500Y-86980000D03*
%TD*%
%TO.P,R_{FSW}1,1*%
%TO.N,/BOOT*%
X148747500Y-84030000D03*
%TO.P,R_{FSW}1,2*%
%TO.N,Net-(R_{FSW}1-Pad2)*%
X150572500Y-84030000D03*
%TD*%
%TO.P,R_{FB}2,1*%
%TO.N,GND*%
X148747500Y-81080000D03*
%TO.P,R_{FB}2,2*%
%TO.N,/FB*%
X150572500Y-81080000D03*
%TD*%
%TO.P,R_{FB}1,1*%
%TO.N,/FB*%
X148747500Y-78130000D03*
%TO.P,R_{FB}1,2*%
%TO.N,/5V_OUT*%
X150572500Y-78130000D03*
%TD*%
%TO.P,R_{COMP}1,1*%
%TO.N,Net-(U5-COMP)*%
X144337500Y-89930000D03*
%TO.P,R_{COMP}1,2*%
%TO.N,Net-(C_{COMP}1-Pad1)*%
X146162500Y-89930000D03*
%TD*%
D26*
%TO.P,R9,1*%
%TO.N,Net-(U4-VSET)*%
X156255000Y-65360000D03*
%TO.P,R9,2*%
%TO.N,GND*%
X157905000Y-65360000D03*
%TD*%
D27*
%TO.P,R8,1*%
%TO.N,GND*%
X160510000Y-73650000D03*
%TO.P,R8,2*%
%TO.N,Net-(U3-BISEN)*%
X163610000Y-73650000D03*
%TD*%
%TO.P,R7,1*%
%TO.N,GND*%
X160510000Y-70360000D03*
%TO.P,R7,2*%
%TO.N,Net-(U3-AISEN)*%
X163610000Y-70360000D03*
%TD*%
D28*
%TO.P,R6,1*%
%TO.N,GND*%
X167750000Y-111360000D03*
%TO.P,R6,2*%
%TO.N,Net-(U2-BISEN)*%
X169750000Y-111360000D03*
%TD*%
%TO.P,R5,1*%
%TO.N,GND*%
X167750000Y-108410000D03*
%TO.P,R5,2*%
%TO.N,Net-(U2-AISEN)*%
X169750000Y-108410000D03*
%TD*%
D25*
%TO.P,R4,1*%
%TO.N,/5V Out *%
X144337500Y-86980000D03*
%TO.P,R4,2*%
%TO.N,Net-(Q4-D)*%
X146162500Y-86980000D03*
%TD*%
%TO.P,R3,1*%
%TO.N,/CTRL_EXT_LOAD2*%
X144337500Y-84030000D03*
%TO.P,R3,2*%
%TO.N,Net-(Q4-G)*%
X146162500Y-84030000D03*
%TD*%
%TO.P,R2,1*%
%TO.N,/CTRL_EXT_LOAD1*%
X144337500Y-81080000D03*
%TO.P,R2,2*%
%TO.N,Net-(Q3-G)*%
X146162500Y-81080000D03*
%TD*%
%TO.P,R1,1*%
%TO.N,/5V Out *%
X144337500Y-78130000D03*
%TO.P,R1,2*%
%TO.N,Net-(Q2-G)*%
X146162500Y-78130000D03*
%TD*%
D29*
%TO.P,Q5,1,G*%
%TO.N,Net-(Q4-D)*%
X157782500Y-110805000D03*
%TO.P,Q5,2,S*%
%TO.N,/EXT_LOAD2_OUT*%
X157782500Y-112705000D03*
%TO.P,Q5,3,D*%
%TO.N,/5V Out *%
X159657500Y-111755000D03*
%TD*%
D30*
%TO.P,Q4,1,G*%
%TO.N,Net-(Q4-G)*%
X174972500Y-70180000D03*
%TO.P,Q4,2,S*%
%TO.N,GND*%
X174972500Y-72080000D03*
%TO.P,Q4,3,D*%
%TO.N,Net-(Q4-D)*%
X177247500Y-71130000D03*
%TD*%
%TO.P,Q3,1,G*%
%TO.N,Net-(Q3-G)*%
X174972500Y-65555000D03*
%TO.P,Q3,2,S*%
%TO.N,GND*%
X174972500Y-67455000D03*
%TO.P,Q3,3,D*%
%TO.N,Net-(Q2-G)*%
X177247500Y-66505000D03*
%TD*%
D29*
%TO.P,Q2,1,G*%
%TO.N,Net-(Q2-G)*%
X157782500Y-106180000D03*
%TO.P,Q2,2,S*%
%TO.N,/EXT_LOAD1_OUT*%
X157782500Y-108080000D03*
%TO.P,Q2,3,D*%
%TO.N,/5V Out *%
X159657500Y-107130000D03*
%TD*%
%TO.P,Q1,1,G*%
%TO.N,Net-(Q1-G)*%
X157782500Y-101555000D03*
%TO.P,Q1,2,S*%
%TO.N,GND*%
X157782500Y-103455000D03*
%TO.P,Q1,3,D*%
%TO.N,Net-(Q1-D)*%
X159657500Y-102505000D03*
%TD*%
D31*
%TO.P,L4,1,1*%
%TO.N,Net-(D4-K)*%
X152282500Y-75400000D03*
%TO.P,L4,2,2*%
%TO.N,/5V_BAT_CHARGE*%
X153857500Y-75400000D03*
%TD*%
%TO.P,L2,1,1*%
%TO.N,Net-(D3-K)*%
X152282500Y-72890000D03*
%TO.P,L2,2,2*%
%TO.N,/3.3V_OUT*%
X153857500Y-72890000D03*
%TD*%
D32*
%TO.P,L1,1,1*%
%TO.N,/SWITCH_OUT*%
X152707500Y-110530000D03*
%TO.P,L1,2,2*%
%TO.N,/BOOT*%
X154832500Y-110530000D03*
%TD*%
D33*
%TO.P,J3,1,Pin_1*%
%TO.N,GND*%
X175000000Y-92310000D03*
D34*
%TO.P,J3,2,Pin_2*%
%TO.N,/BATTERY*%
X177000000Y-92310000D03*
%TD*%
D35*
%TO.P,J2,A1,GND*%
%TO.N,GND*%
X173740000Y-78405000D03*
%TO.P,J2,A4,VBUS*%
%TO.N,/HV (9V)*%
X174540000Y-78405000D03*
D36*
%TO.P,J2,A5,CC1*%
%TO.N,Net-(J2-CC1)*%
X175740000Y-78405000D03*
%TO.P,J2,A6,DP1*%
%TO.N,Net-(J2-DP1)*%
X176740000Y-78405000D03*
%TO.P,J2,A7,DN1*%
%TO.N,Net-(J2-DN1)*%
X177240000Y-78405000D03*
%TO.P,J2,A8,SBU1*%
%TO.N,unconnected-(J2-SBU1-PadA8)*%
X178240000Y-78405000D03*
D35*
%TO.P,J2,A9,VBUS*%
%TO.N,/HV (9V)*%
X179440000Y-78405000D03*
%TO.P,J2,A12,GND*%
%TO.N,GND*%
X180240000Y-78405000D03*
%TO.P,J2,B1,GND*%
X180240000Y-78405000D03*
%TO.P,J2,B4,VBUS*%
%TO.N,/HV (9V)*%
X179440000Y-78405000D03*
D36*
%TO.P,J2,B5,CC2*%
%TO.N,Net-(J2-CC2)*%
X178740000Y-78405000D03*
%TO.P,J2,B6,DP2*%
%TO.N,Net-(J2-DP1)*%
X177740000Y-78405000D03*
%TO.P,J2,B7,DN2*%
%TO.N,Net-(J2-DN1)*%
X176240000Y-78405000D03*
%TO.P,J2,B8,SBU2*%
%TO.N,unconnected-(J2-SBU2-PadB8)*%
X175240000Y-78405000D03*
D35*
%TO.P,J2,B9,VBUS*%
%TO.N,/HV (9V)*%
X174540000Y-78405000D03*
%TO.P,J2,B12,GND*%
%TO.N,GND*%
X173740000Y-78405000D03*
D37*
%TO.P,J2,S1,SHIELD*%
X172670000Y-79320000D03*
D38*
X172670000Y-83500000D03*
D37*
X181310000Y-79320000D03*
D38*
X181310000Y-83500000D03*
%TD*%
D39*
%TO.P,J1,1,Pin_1*%
%TO.N,/Motor2_B_OUT*%
X138170000Y-66430000D03*
D40*
%TO.P,J1,2,Pin_2*%
%TO.N,/Motor2_A_OUT*%
X140710000Y-66430000D03*
%TO.P,J1,3,Pin_3*%
%TO.N,/Motor4_A_OUT*%
X138170000Y-68970000D03*
%TO.P,J1,4,Pin_4*%
%TO.N,/MOTOR2_CTRL1*%
X140710000Y-68970000D03*
%TO.P,J1,5,Pin_5*%
%TO.N,/Motor4_B_OUT*%
X138170000Y-71510000D03*
%TO.P,J1,6,Pin_6*%
%TO.N,/MOTOR2_CTRL2*%
X140710000Y-71510000D03*
%TO.P,J1,7,Pin_7*%
%TO.N,/CTRL_EXT_LOAD2*%
X138170000Y-74050000D03*
%TO.P,J1,8,Pin_8*%
%TO.N,/MOTOR4_CTRL1*%
X140710000Y-74050000D03*
%TO.P,J1,9,Pin_9*%
%TO.N,unconnected-(J1-Pin_9-Pad9)*%
X138170000Y-76590000D03*
%TO.P,J1,10,Pin_10*%
%TO.N,/MOTOR4_CTRL2*%
X140710000Y-76590000D03*
%TO.P,J1,11,Pin_11*%
%TO.N,/EXT_LOAD2_OUT*%
X138170000Y-79130000D03*
%TO.P,J1,12,Pin_12*%
%TO.N,/USART2_TX *%
X140710000Y-79130000D03*
%TO.P,J1,13,Pin_13*%
%TO.N,/FAST_CHARGE_CTRL *%
X138170000Y-81670000D03*
%TO.P,J1,14,Pin_14*%
%TO.N,/Battery *%
X140710000Y-81670000D03*
%TO.P,J1,15,Pin_15*%
%TO.N,unconnected-(J1-Pin_15-Pad15)*%
X138170000Y-84210000D03*
%TO.P,J1,16,Pin_16*%
%TO.N,/I2C1_SCL *%
X140710000Y-84210000D03*
%TO.P,J1,17,Pin_17*%
%TO.N,/I2C1_SDA *%
X138170000Y-86750000D03*
%TO.P,J1,18,Pin_18*%
%TO.N,/3V3 Out *%
X140710000Y-86750000D03*
%TO.P,J1,19,Pin_19*%
%TO.N,unconnected-(J1-Pin_19-Pad19)*%
X138170000Y-89290000D03*
%TO.P,J1,20,Pin_20*%
%TO.N,/5V Out *%
X140710000Y-89290000D03*
%TO.P,J1,21,Pin_21*%
%TO.N,/EXT_LOAD1_OUT*%
X138170000Y-91830000D03*
%TO.P,J1,22,Pin_22*%
%TO.N,/HV (9V)*%
X140710000Y-91830000D03*
%TO.P,J1,23,Pin_23*%
%TO.N,unconnected-(J1-Pin_23-Pad23)*%
X138170000Y-94370000D03*
%TO.P,J1,24,Pin_24*%
%TO.N,/MOTOR3_CTRL1*%
X140710000Y-94370000D03*
%TO.P,J1,25,Pin_25*%
%TO.N,/CTRL_EXT_LOAD1*%
X138170000Y-96910000D03*
%TO.P,J1,26,Pin_26*%
%TO.N,/MOTOR3_CTRL2*%
X140710000Y-96910000D03*
%TO.P,J1,27,Pin_27*%
%TO.N,/MOTOR3_A_OUT*%
X138170000Y-99450000D03*
%TO.P,J1,28,Pin_28*%
%TO.N,/MOTOR1_CTRL1*%
X140710000Y-99450000D03*
%TO.P,J1,29,Pin_29*%
%TO.N,/MOTOR3_B_OUT*%
X138170000Y-101990000D03*
%TO.P,J1,30,Pin_30*%
%TO.N,/MOTOR1_CTRL2*%
X140710000Y-101990000D03*
%TO.P,J1,31,Pin_31*%
%TO.N,/MOTOR1_B_OUT*%
X138170000Y-104530000D03*
%TO.P,J1,32,Pin_32*%
%TO.N,/MOTOR1_A_OUT *%
X140710000Y-104530000D03*
%TD*%
D41*
%TO.P,D4,1,K*%
%TO.N,Net-(D4-K)*%
X174095000Y-106410000D03*
%TO.P,D4,2,A*%
%TO.N,GND*%
X178095000Y-106410000D03*
%TD*%
%TO.P,D3,1,K*%
%TO.N,Net-(D3-K)*%
X174095000Y-101860000D03*
%TO.P,D3,2,A*%
%TO.N,GND*%
X178095000Y-101860000D03*
%TD*%
D42*
%TO.P,C_{SS}1,1*%
%TO.N,Net-(U5-SS)*%
X163200000Y-112510000D03*
%TO.P,C_{SS}1,2*%
%TO.N,GND*%
X165100000Y-112510000D03*
%TD*%
D43*
%TO.P,C_{OUT}6,1*%
%TO.N,/5V_OUT*%
X152295000Y-70380000D03*
%TO.P,C_{OUT}6,2*%
%TO.N,GND*%
X153845000Y-70380000D03*
%TD*%
%TO.P,C_{OUT}5,1*%
%TO.N,/5V_OUT*%
X152295000Y-67870000D03*
%TO.P,C_{OUT}5,2*%
%TO.N,GND*%
X153845000Y-67870000D03*
%TD*%
%TO.P,C_{OUT}4,1*%
%TO.N,/5V_OUT*%
X152295000Y-65360000D03*
%TO.P,C_{OUT}4,2*%
%TO.N,GND*%
X153845000Y-65360000D03*
%TD*%
D44*
%TO.P,C_{OUT}3,1*%
%TO.N,/5V_BAT_CHARGE*%
X157625000Y-98430000D03*
%TO.P,C_{OUT}3,2*%
%TO.N,GND*%
X160575000Y-98430000D03*
%TD*%
D45*
%TO.P,C_{OUT}2,1*%
%TO.N,/5V_BAT_CHARGE*%
X167725000Y-104810000D03*
%TO.P,C_{OUT}2,2*%
%TO.N,GND*%
X170675000Y-104810000D03*
%TD*%
%TO.P,C_{OUT}1,1*%
%TO.N,/5V_BAT_CHARGE*%
X167725000Y-100560000D03*
%TO.P,C_{OUT}1,2*%
%TO.N,GND*%
X170675000Y-100560000D03*
%TD*%
D44*
%TO.P,C_{OUT_3.3}3,1*%
%TO.N,/3.3V_OUT*%
X157625000Y-95080000D03*
%TO.P,C_{OUT_3.3}3,2*%
%TO.N,GND*%
X160575000Y-95080000D03*
%TD*%
%TO.P,C_{OUT_3.3}2,1*%
%TO.N,/3.3V_OUT*%
X157625000Y-91730000D03*
%TO.P,C_{OUT_3.3}2,2*%
%TO.N,GND*%
X160575000Y-91730000D03*
%TD*%
%TO.P,C_{OUT_3.3}1,1*%
%TO.N,/3.3V_OUT*%
X157625000Y-88380000D03*
%TO.P,C_{OUT_3.3}1,2*%
%TO.N,GND*%
X160575000Y-88380000D03*
%TD*%
%TO.P,C_{IN}3,1*%
%TO.N,/9V_INPUT*%
X157625000Y-85030000D03*
%TO.P,C_{IN}3,2*%
%TO.N,GND*%
X160575000Y-85030000D03*
%TD*%
D45*
%TO.P,C_{IN}2,1*%
%TO.N,/9V_INPUT*%
X167725000Y-96310000D03*
%TO.P,C_{IN}2,2*%
%TO.N,GND*%
X170675000Y-96310000D03*
%TD*%
%TO.P,C_{IN}1,1*%
%TO.N,/9V_INPUT*%
X167725000Y-92060000D03*
%TO.P,C_{IN}1,2*%
%TO.N,GND*%
X170675000Y-92060000D03*
%TD*%
D42*
%TO.P,C_{IN_5}1,1*%
%TO.N,GND*%
X163200000Y-109500000D03*
%TO.P,C_{IN_5}1,2*%
%TO.N,/SWITCH_OUT*%
X165100000Y-109500000D03*
%TD*%
D43*
%TO.P,C_{IN_3.3}3,1*%
%TO.N,/5V_OUT*%
X148285000Y-75400000D03*
%TO.P,C_{IN_3.3}3,2*%
%TO.N,GND*%
X149835000Y-75400000D03*
%TD*%
D44*
%TO.P,C_{IN_3.3}2,1*%
%TO.N,/5V_OUT*%
X157625000Y-81680000D03*
%TO.P,C_{IN_3.3}2,2*%
%TO.N,GND*%
X160575000Y-81680000D03*
%TD*%
%TO.P,C_{IN_3.3}1,1*%
%TO.N,/5V_OUT*%
X157625000Y-78330000D03*
%TO.P,C_{IN_3.3}1,2*%
%TO.N,GND*%
X160575000Y-78330000D03*
%TD*%
D42*
%TO.P,C_{COMP}1,1*%
%TO.N,Net-(C_{COMP}1-Pad1)*%
X163200000Y-106490000D03*
%TO.P,C_{COMP}1,2*%
%TO.N,GND*%
X165100000Y-106490000D03*
%TD*%
D43*
%TO.P,C_{CHARGE_OUT}1,1*%
%TO.N,/BATTERY*%
X148285000Y-72890000D03*
%TO.P,C_{CHARGE_OUT}1,2*%
%TO.N,GND*%
X149835000Y-72890000D03*
%TD*%
%TO.P,C_{CHARGE_IN}1,1*%
%TO.N,Net-(U1-CE)*%
X148285000Y-70380000D03*
%TO.P,C_{CHARGE_IN}1,2*%
%TO.N,GND*%
X149835000Y-70380000D03*
%TD*%
D42*
%TO.P,C_{BY}1,1*%
%TO.N,/SWITCH_OUT*%
X163200000Y-103480000D03*
%TO.P,C_{BY}1,2*%
%TO.N,GND*%
X165100000Y-103480000D03*
%TD*%
%TO.P,C_{BYPASS}1,1*%
%TO.N,Net-(U6-VS)*%
X163200000Y-100470000D03*
%TO.P,C_{BYPASS}1,2*%
%TO.N,/3.3V_OUT*%
X165100000Y-100470000D03*
%TD*%
%TO.P,C_{BOOT}1,1*%
%TO.N,Net-(U5-BOOT)*%
X163200000Y-97460000D03*
%TO.P,C_{BOOT}1,2*%
%TO.N,/BOOT*%
X165100000Y-97460000D03*
%TD*%
%TO.P,C_{1}1,1*%
%TO.N,/9V_INPUT*%
X163200000Y-94450000D03*
%TO.P,C_{1}1,2*%
%TO.N,GND*%
X165100000Y-94450000D03*
%TD*%
%TO.P,C10,1*%
%TO.N,/5V_OUT*%
X163200000Y-91440000D03*
%TO.P,C10,2*%
%TO.N,GND*%
X165100000Y-91440000D03*
%TD*%
D43*
%TO.P,C9,1*%
%TO.N,/HV (9V)*%
X148285000Y-67870000D03*
%TO.P,C9,2*%
%TO.N,GND*%
X149835000Y-67870000D03*
%TD*%
%TO.P,C8,1*%
%TO.N,/5V Out *%
X148285000Y-65360000D03*
%TO.P,C8,2*%
%TO.N,GND*%
X149835000Y-65360000D03*
%TD*%
%TO.P,C7,1*%
%TO.N,GND*%
X144275000Y-75400000D03*
%TO.P,C7,2*%
%TO.N,Net-(U3-VINT)*%
X145825000Y-75400000D03*
%TD*%
%TO.P,C6,1*%
%TO.N,/5V Out *%
X144275000Y-72890000D03*
%TO.P,C6,2*%
%TO.N,Net-(U3-VCP)*%
X145825000Y-72890000D03*
%TD*%
%TO.P,C5,1*%
%TO.N,/5V Out *%
X144275000Y-70380000D03*
%TO.P,C5,2*%
%TO.N,Net-(U2-VCP)*%
X145825000Y-70380000D03*
%TD*%
%TO.P,C4,1*%
%TO.N,/5V Out *%
X144275000Y-67870000D03*
%TO.P,C4,2*%
%TO.N,GND*%
X145825000Y-67870000D03*
%TD*%
%TO.P,C3,1*%
%TO.N,GND*%
X144275000Y-65360000D03*
%TO.P,C3,2*%
%TO.N,Net-(U2-VINT)*%
X145825000Y-65360000D03*
%TD*%
M02*
