%TF.GenerationSoftware,KiCad,Pcbnew,9.0.0*%
%TF.CreationDate,2025-03-28T14:04:11+02:00*%
%TF.ProjectId,,58585858-5858-4585-9858-585858585858,rev?*%
%TF.SameCoordinates,Original*%
%TF.FileFunction,Soldermask,Top*%
%TF.FilePolarity,Negative*%
%FSLAX46Y46*%
G04 Gerber Fmt 4.6, Leading zero omitted, Abs format (unit mm)*
G04 Created by KiCad (PCBNEW 9.0.0) date 2025-03-28 14:04:11*
%MOMM*%
%LPD*%
G01*
G04 APERTURE LIST*
G04 Aperture macros list*
%AMRoundRect*
0 Rectangle with rounded corners*
0 $1 Rounding radius*
0 $2 $3 $4 $5 $6 $7 $8 $9 X,Y pos of 4 corners*
0 Add a 4 corners polygon primitive as box body*
4,1,4,$2,$3,$4,$5,$6,$7,$8,$9,$2,$3,0*
0 Add four circle primitives for the rounded corners*
1,1,$1+$1,$2,$3*
1,1,$1+$1,$4,$5*
1,1,$1+$1,$6,$7*
1,1,$1+$1,$8,$9*
0 Add four rect primitives between the rounded corners*
20,1,$1+$1,$2,$3,$4,$5,0*
20,1,$1+$1,$4,$5,$6,$7,0*
20,1,$1+$1,$6,$7,$8,$9,0*
20,1,$1+$1,$8,$9,$2,$3,0*%
%AMFreePoly0*
4,1,505,-0.203634,2.555678,-0.202053,2.555421,-0.199231,2.554726,-0.198634,2.554678,-0.197053,2.554421,-0.194231,2.553726,-0.193634,2.553678,-0.192053,2.553421,-0.176164,2.549509,-0.173164,2.548509,-0.166423,2.545994,-0.165768,2.545723,-0.159148,2.542704,-0.157464,2.541862,-0.157608,2.541572,-0.146835,2.536534,-0.144880,2.535327,-0.140541,2.531895,-0.136165,2.529249,-0.134865,2.528313,
-0.133109,2.526820,-0.132165,2.526249,-0.130865,2.525313,-0.118339,2.514661,-0.110339,2.506661,-0.099687,2.494135,-0.098751,2.492835,-0.098179,2.491890,-0.096687,2.490135,-0.095751,2.488835,-0.093104,2.484458,-0.089673,2.480120,-0.088466,2.478165,-0.083427,2.467391,-0.083138,2.467536,-0.082296,2.465852,-0.079277,2.459232,-0.079006,2.458577,-0.076491,2.451836,-0.075491,2.448836,
-0.071579,2.432947,-0.071322,2.431366,-0.071273,2.430768,-0.070579,2.427947,-0.070322,2.426366,-0.070273,2.425768,-0.069579,2.422947,-0.069322,2.421366,-0.068000,2.405000,-0.068000,2.032000,0.068000,2.032000,0.068000,2.405000,0.069322,2.421366,0.069579,2.422947,0.070273,2.425768,0.070322,2.426366,0.070579,2.427947,0.071273,2.430768,0.071322,2.431366,0.071579,2.432947,
0.075491,2.448836,0.076491,2.451836,0.079006,2.458577,0.079277,2.459232,0.082296,2.465852,0.083138,2.467536,0.083427,2.467391,0.088466,2.478165,0.089673,2.480120,0.093104,2.484458,0.095751,2.488835,0.096687,2.490135,0.098179,2.491890,0.098751,2.492835,0.099687,2.494135,0.110339,2.506661,0.118339,2.514661,0.130865,2.525313,0.132165,2.526249,0.133109,2.526820,
0.134865,2.528313,0.136165,2.529249,0.140541,2.531895,0.144880,2.535327,0.146835,2.536534,0.157608,2.541572,0.157464,2.541862,0.159148,2.542704,0.165768,2.545723,0.166423,2.545994,0.173164,2.548509,0.176164,2.549509,0.192053,2.553421,0.193634,2.553678,0.194231,2.553726,0.197053,2.554421,0.198634,2.554678,0.199231,2.554726,0.202053,2.555421,0.203634,2.555678,
0.220000,2.557000,0.330000,2.557000,0.346366,2.555678,0.347947,2.555421,0.350768,2.554726,0.351366,2.554678,0.352947,2.554421,0.355768,2.553726,0.356366,2.553678,0.357947,2.553421,0.373836,2.549509,0.376836,2.548509,0.383577,2.545994,0.384232,2.545723,0.390852,2.542704,0.392536,2.541862,0.392391,2.541572,0.403165,2.536534,0.405120,2.535327,0.409458,2.531895,
0.413835,2.529249,0.415135,2.528313,0.416890,2.526820,0.417835,2.526249,0.419135,2.525313,0.431661,2.514661,0.439661,2.506661,0.450313,2.494135,0.451249,2.492835,0.451820,2.491890,0.453313,2.490135,0.454249,2.488835,0.456895,2.484458,0.460327,2.480120,0.461534,2.478165,0.466572,2.467391,0.466862,2.467536,0.467704,2.465852,0.470723,2.459232,0.470994,2.458577,
0.473509,2.451836,0.474509,2.448836,0.478421,2.432947,0.478678,2.431366,0.478726,2.430768,0.479421,2.427947,0.479678,2.426366,0.479726,2.425768,0.480421,2.422947,0.480678,2.421366,0.482000,2.405000,0.482000,1.632000,0.980000,1.632000,0.996366,1.630678,0.997947,1.630421,1.000768,1.629726,1.001366,1.629678,1.002947,1.629421,1.005768,1.628726,1.006366,1.628678,
1.007947,1.628421,1.013719,1.627000,1.025000,1.627000,1.084954,1.607520,1.122008,1.556520,1.127000,1.525000,1.127000,1.513718,1.128421,1.507947,1.128678,1.506366,1.128726,1.505768,1.129421,1.502947,1.129678,1.501366,1.129726,1.500768,1.130421,1.497947,1.130678,1.496366,1.132000,1.480000,1.132000,-1.480000,1.130678,-1.496366,1.130421,-1.497947,1.129726,-1.500768,
1.129678,-1.501366,1.129421,-1.502947,1.128726,-1.505768,1.128678,-1.506366,1.128421,-1.507947,1.127000,-1.513718,1.127000,-1.525000,1.107520,-1.584954,1.056520,-1.622008,1.025000,-1.627000,1.013719,-1.627000,1.007947,-1.628421,1.006366,-1.628678,1.005768,-1.628726,1.002947,-1.629421,1.001366,-1.629678,1.000768,-1.629726,0.997947,-1.630421,0.996366,-1.630678,0.980000,-1.632000,
0.482000,-1.632000,0.482000,-2.405000,0.480678,-2.421366,0.480421,-2.422947,0.479726,-2.425768,0.479678,-2.426366,0.479421,-2.427947,0.478726,-2.430768,0.478678,-2.431366,0.478421,-2.432947,0.474509,-2.448836,0.473509,-2.451836,0.470994,-2.458577,0.470723,-2.459232,0.467704,-2.465852,0.466862,-2.467536,0.466572,-2.467391,0.461534,-2.478165,0.460327,-2.480120,0.456895,-2.484458,
0.454249,-2.488835,0.453313,-2.490135,0.451820,-2.491890,0.451249,-2.492835,0.450313,-2.494135,0.439661,-2.506661,0.431661,-2.514661,0.419135,-2.525313,0.417835,-2.526249,0.416890,-2.526820,0.415135,-2.528313,0.413835,-2.529249,0.409458,-2.531895,0.405120,-2.535327,0.403165,-2.536534,0.392391,-2.541572,0.392536,-2.541862,0.390852,-2.542704,0.384232,-2.545723,0.383577,-2.545994,
0.376836,-2.548509,0.373836,-2.549509,0.357947,-2.553421,0.356366,-2.553678,0.355768,-2.553726,0.352947,-2.554421,0.351366,-2.554678,0.350768,-2.554726,0.347947,-2.555421,0.346366,-2.555678,0.330000,-2.557000,0.220000,-2.557000,0.203634,-2.555678,0.202053,-2.555421,0.199231,-2.554726,0.198634,-2.554678,0.197053,-2.554421,0.194231,-2.553726,0.193634,-2.553678,0.192053,-2.553421,
0.176164,-2.549509,0.173164,-2.548509,0.166423,-2.545994,0.165768,-2.545723,0.159148,-2.542704,0.157464,-2.541862,0.157608,-2.541572,0.146835,-2.536534,0.144880,-2.535327,0.140541,-2.531895,0.136165,-2.529249,0.134865,-2.528313,0.133109,-2.526820,0.132165,-2.526249,0.130865,-2.525313,0.118339,-2.514661,0.110339,-2.506661,0.099687,-2.494135,0.098751,-2.492835,0.098179,-2.491890,
0.096687,-2.490135,0.095751,-2.488835,0.093104,-2.484458,0.089673,-2.480120,0.088466,-2.478165,0.083427,-2.467391,0.083138,-2.467536,0.082296,-2.465852,0.079277,-2.459232,0.079006,-2.458577,0.076491,-2.451836,0.075491,-2.448836,0.071579,-2.432947,0.071322,-2.431366,0.071273,-2.430768,0.070579,-2.427947,0.070322,-2.426366,0.070273,-2.425768,0.069579,-2.422947,0.069322,-2.421366,
0.068000,-2.405000,0.068000,-2.032000,-0.068000,-2.032000,-0.068000,-2.405000,-0.069322,-2.421366,-0.069579,-2.422947,-0.070273,-2.425768,-0.070322,-2.426366,-0.070579,-2.427947,-0.071273,-2.430768,-0.071322,-2.431366,-0.071579,-2.432947,-0.075491,-2.448836,-0.076491,-2.451836,-0.079006,-2.458577,-0.079277,-2.459232,-0.082296,-2.465852,-0.083138,-2.467536,-0.083427,-2.467391,-0.088466,-2.478165,
-0.089673,-2.480120,-0.093104,-2.484458,-0.095751,-2.488835,-0.096687,-2.490135,-0.098179,-2.491890,-0.098751,-2.492835,-0.099687,-2.494135,-0.110339,-2.506661,-0.118339,-2.514661,-0.130865,-2.525313,-0.132165,-2.526249,-0.133109,-2.526820,-0.134865,-2.528313,-0.136165,-2.529249,-0.140541,-2.531895,-0.144880,-2.535327,-0.146835,-2.536534,-0.157608,-2.541572,-0.157464,-2.541862,-0.159148,-2.542704,
-0.165768,-2.545723,-0.166423,-2.545994,-0.173164,-2.548509,-0.176164,-2.549509,-0.192053,-2.553421,-0.193634,-2.553678,-0.194231,-2.553726,-0.197053,-2.554421,-0.198634,-2.554678,-0.199231,-2.554726,-0.202053,-2.555421,-0.203634,-2.555678,-0.220000,-2.557000,-0.330000,-2.557000,-0.346366,-2.555678,-0.347947,-2.555421,-0.350768,-2.554726,-0.351366,-2.554678,-0.352947,-2.554421,-0.355768,-2.553726,
-0.356366,-2.553678,-0.357947,-2.553421,-0.373836,-2.549509,-0.376836,-2.548509,-0.383577,-2.545994,-0.384232,-2.545723,-0.390852,-2.542704,-0.392536,-2.541862,-0.392391,-2.541572,-0.403165,-2.536534,-0.405120,-2.535327,-0.409458,-2.531895,-0.413835,-2.529249,-0.415135,-2.528313,-0.416890,-2.526820,-0.417835,-2.526249,-0.419135,-2.525313,-0.431661,-2.514661,-0.439661,-2.506661,-0.450313,-2.494135,
-0.451249,-2.492835,-0.451820,-2.491890,-0.453313,-2.490135,-0.454249,-2.488835,-0.456895,-2.484458,-0.460327,-2.480120,-0.461534,-2.478165,-0.466572,-2.467391,-0.466862,-2.467536,-0.467704,-2.465852,-0.470723,-2.459232,-0.470994,-2.458577,-0.473509,-2.451836,-0.474509,-2.448836,-0.478421,-2.432947,-0.478678,-2.431366,-0.478726,-2.430768,-0.479421,-2.427947,-0.479678,-2.426366,-0.479726,-2.425768,
-0.480421,-2.422947,-0.480678,-2.421366,-0.482000,-2.405000,-0.482000,-1.632000,-0.980000,-1.632000,-0.996366,-1.630678,-0.997947,-1.630421,-1.000768,-1.629726,-1.001366,-1.629678,-1.002947,-1.629421,-1.005768,-1.628726,-1.006366,-1.628678,-1.007947,-1.628421,-1.013719,-1.627000,-1.025000,-1.627000,-1.084954,-1.607520,-1.122008,-1.556520,-1.127000,-1.525000,-1.127000,-1.513718,-1.128421,-1.507947,
-1.128678,-1.506366,-1.128726,-1.505768,-1.129421,-1.502947,-1.129678,-1.501366,-1.129726,-1.500768,-1.130421,-1.497947,-1.130678,-1.496366,-1.132000,-1.480000,-1.132000,1.480000,-1.130678,1.496366,-1.130421,1.497947,-1.129726,1.500768,-1.129678,1.501366,-1.129421,1.502947,-1.128726,1.505768,-1.128678,1.506366,-1.128421,1.507947,-1.127000,1.513718,-1.127000,1.525000,-1.107520,1.584954,
-1.056520,1.622008,-1.025000,1.627000,-1.013719,1.627000,-1.007947,1.628421,-1.006366,1.628678,-1.005768,1.628726,-1.002947,1.629421,-1.001366,1.629678,-1.000768,1.629726,-0.997947,1.630421,-0.996366,1.630678,-0.980000,1.632000,-0.482000,1.632000,-0.482000,2.405000,-0.480678,2.421366,-0.480421,2.422947,-0.479726,2.425768,-0.479678,2.426366,-0.479421,2.427947,-0.478726,2.430768,
-0.478678,2.431366,-0.478421,2.432947,-0.474509,2.448836,-0.473509,2.451836,-0.470994,2.458577,-0.470723,2.459232,-0.467704,2.465852,-0.466862,2.467536,-0.466572,2.467391,-0.461534,2.478165,-0.460327,2.480120,-0.456895,2.484458,-0.454249,2.488835,-0.453313,2.490135,-0.451820,2.491890,-0.451249,2.492835,-0.450313,2.494135,-0.439661,2.506661,-0.431661,2.514661,-0.419135,2.525313,
-0.417835,2.526249,-0.416890,2.526820,-0.415135,2.528313,-0.413835,2.529249,-0.409458,2.531895,-0.405120,2.535327,-0.403165,2.536534,-0.392391,2.541572,-0.392536,2.541862,-0.390852,2.542704,-0.384232,2.545723,-0.383577,2.545994,-0.376836,2.548509,-0.373836,2.549509,-0.357947,2.553421,-0.356366,2.553678,-0.355768,2.553726,-0.352947,2.554421,-0.351366,2.554678,-0.350768,2.554726,
-0.347947,2.555421,-0.346366,2.555678,-0.330000,2.557000,-0.220000,2.557000,-0.203634,2.555678,-0.203634,2.555678,$1*%
G04 Aperture macros list end*
%ADD10C,0.010000*%
%ADD11RoundRect,0.150000X-0.825000X-0.150000X0.825000X-0.150000X0.825000X0.150000X-0.825000X0.150000X0*%
%ADD12RoundRect,0.125000X-0.537500X-0.125000X0.537500X-0.125000X0.537500X0.125000X-0.537500X0.125000X0*%
%ADD13RoundRect,0.093240X-0.128760X-0.308760X0.128760X-0.308760X0.128760X0.308760X-0.128760X0.308760X0*%
%ADD14RoundRect,0.093240X-0.308760X-0.128760X0.308760X-0.128760X0.308760X0.128760X-0.308760X0.128760X0*%
%ADD15FreePoly0,0.000000*%
%ADD16C,0.504000*%
%ADD17R,0.650000X0.350000*%
%ADD18R,1.000000X1.600000*%
%ADD19R,2.460000X2.310000*%
%ADD20RoundRect,0.100000X-0.687500X-0.100000X0.687500X-0.100000X0.687500X0.100000X-0.687500X0.100000X0*%
%ADD21R,2.410000X3.300000*%
%ADD22R,1.500000X1.500000*%
%ADD23RoundRect,0.249999X-1.025001X-1.025001X1.025001X-1.025001X1.025001X1.025001X-1.025001X1.025001X0*%
%ADD24C,2.550000*%
%ADD25RoundRect,0.250000X-0.262500X-0.450000X0.262500X-0.450000X0.262500X0.450000X-0.262500X0.450000X0*%
%ADD26RoundRect,0.200000X-0.200000X-0.275000X0.200000X-0.275000X0.200000X0.275000X-0.200000X0.275000X0*%
%ADD27RoundRect,0.250000X-0.400000X-0.625000X0.400000X-0.625000X0.400000X0.625000X-0.400000X0.625000X0*%
%ADD28RoundRect,0.250000X-0.350000X-0.450000X0.350000X-0.450000X0.350000X0.450000X-0.350000X0.450000X0*%
%ADD29RoundRect,0.150000X-0.587500X-0.150000X0.587500X-0.150000X0.587500X0.150000X-0.587500X0.150000X0*%
%ADD30RoundRect,0.150000X-0.512500X-0.150000X0.512500X-0.150000X0.512500X0.150000X-0.512500X0.150000X0*%
%ADD31RoundRect,0.218750X-0.218750X-0.256250X0.218750X-0.256250X0.218750X0.256250X-0.218750X0.256250X0*%
%ADD32RoundRect,0.218750X-0.218750X-0.381250X0.218750X-0.381250X0.218750X0.381250X-0.218750X0.381250X0*%
%ADD33RoundRect,0.250000X-0.350000X-0.625000X0.350000X-0.625000X0.350000X0.625000X-0.350000X0.625000X0*%
%ADD34O,1.200000X1.750000*%
%ADD35R,0.600000X1.450000*%
%ADD36R,0.300000X1.450000*%
%ADD37O,1.000000X2.100000*%
%ADD38O,1.000000X1.600000*%
%ADD39R,1.700000X1.700000*%
%ADD40O,1.700000X1.700000*%
%ADD41RoundRect,0.250000X-1.000000X-0.650000X1.000000X-0.650000X1.000000X0.650000X-1.000000X0.650000X0*%
%ADD42RoundRect,0.250000X-0.250000X-0.475000X0.250000X-0.475000X0.250000X0.475000X-0.250000X0.475000X0*%
%ADD43RoundRect,0.225000X-0.225000X-0.250000X0.225000X-0.250000X0.225000X0.250000X-0.225000X0.250000X0*%
%ADD44RoundRect,0.250000X-0.325000X-0.650000X0.325000X-0.650000X0.325000X0.650000X-0.325000X0.650000X0*%
%ADD45RoundRect,0.250000X-0.325000X-1.100000X0.325000X-1.100000X0.325000X1.100000X-0.325000X1.100000X0*%
G04 APERTURE END LIST*
D10*
%TO.C,U5*%
X167551000Y-69864000D02*
X167559000Y-69865000D01*
X167567000Y-69866000D01*
X167574000Y-69868000D01*
X167582000Y-69870000D01*
X167589000Y-69873000D01*
X167597000Y-69876000D01*
X167604000Y-69880000D01*
X167611000Y-69883000D01*
X167618000Y-69888000D01*
X167624000Y-69892000D01*
X167631000Y-69897000D01*
X167637000Y-69902000D01*
X167642000Y-69908000D01*
X167648000Y-69913000D01*
X167653000Y-69919000D01*
X167658000Y-69926000D01*
X167662000Y-69932000D01*
X167667000Y-69939000D01*
X167670000Y-69946000D01*
X167674000Y-69953000D01*
X167677000Y-69961000D01*
X167680000Y-69968000D01*
X167682000Y-69976000D01*
X167684000Y-69983000D01*
X167685000Y-69991000D01*
X167686000Y-69999000D01*
X167687000Y-70007000D01*
X167687000Y-70015000D01*
X167687000Y-70388000D01*
X167832000Y-70388000D01*
X167833000Y-70388000D01*
X167833000Y-70013000D01*
X167833000Y-70005000D01*
X167834000Y-69997000D01*
X167835000Y-69990000D01*
X167836000Y-69982000D01*
X167838000Y-69974000D01*
X167840000Y-69967000D01*
X167843000Y-69959000D01*
X167846000Y-69952000D01*
X167849000Y-69945000D01*
X167853000Y-69938000D01*
X167857000Y-69931000D01*
X167862000Y-69925000D01*
X167866000Y-69919000D01*
X167872000Y-69913000D01*
X167877000Y-69907000D01*
X167883000Y-69902000D01*
X167889000Y-69896000D01*
X167895000Y-69892000D01*
X167901000Y-69887000D01*
X167908000Y-69883000D01*
X167915000Y-69879000D01*
X167922000Y-69876000D01*
X167929000Y-69873000D01*
X167937000Y-69870000D01*
X167944000Y-69868000D01*
X167952000Y-69866000D01*
X167960000Y-69865000D01*
X167967000Y-69864000D01*
X167975000Y-69863000D01*
X167983000Y-69863000D01*
X168086000Y-69863000D01*
X168094000Y-69863000D01*
X168102000Y-69864000D01*
X168110000Y-69865000D01*
X168117000Y-69866000D01*
X168125000Y-69868000D01*
X168133000Y-69870000D01*
X168140000Y-69873000D01*
X168147000Y-69876000D01*
X168155000Y-69879000D01*
X168161000Y-69883000D01*
X168168000Y-69887000D01*
X168175000Y-69892000D01*
X168181000Y-69897000D01*
X168187000Y-69902000D01*
X168193000Y-69907000D01*
X168198000Y-69913000D01*
X168203000Y-69919000D01*
X168208000Y-69925000D01*
X168213000Y-69932000D01*
X168217000Y-69939000D01*
X168221000Y-69945000D01*
X168224000Y-69953000D01*
X168227000Y-69960000D01*
X168230000Y-69967000D01*
X168232000Y-69975000D01*
X168234000Y-69983000D01*
X168235000Y-69990000D01*
X168236000Y-69998000D01*
X168237000Y-70006000D01*
X168237000Y-70014000D01*
X168237000Y-70788000D01*
X168735000Y-70788000D01*
X168743000Y-70788000D01*
X168751000Y-70789000D01*
X168759000Y-70790000D01*
X168767000Y-70791000D01*
X168774000Y-70793000D01*
X168782000Y-70795000D01*
X168789000Y-70798000D01*
X168797000Y-70801000D01*
X168804000Y-70805000D01*
X168811000Y-70808000D01*
X168818000Y-70813000D01*
X168824000Y-70817000D01*
X168831000Y-70822000D01*
X168837000Y-70827000D01*
X168842000Y-70833000D01*
X168848000Y-70838000D01*
X168853000Y-70844000D01*
X168858000Y-70851000D01*
X168862000Y-70857000D01*
X168867000Y-70864000D01*
X168870000Y-70871000D01*
X168874000Y-70878000D01*
X168877000Y-70886000D01*
X168880000Y-70893000D01*
X168882000Y-70901000D01*
X168884000Y-70908000D01*
X168885000Y-70916000D01*
X168886000Y-70924000D01*
X168887000Y-70932000D01*
X168887000Y-70940000D01*
X168887000Y-73891000D01*
X168887000Y-73899000D01*
X168886000Y-73907000D01*
X168885000Y-73914000D01*
X168884000Y-73922000D01*
X168882000Y-73930000D01*
X168880000Y-73937000D01*
X168877000Y-73945000D01*
X168874000Y-73952000D01*
X168871000Y-73959000D01*
X168867000Y-73966000D01*
X168863000Y-73973000D01*
X168858000Y-73979000D01*
X168854000Y-73985000D01*
X168848000Y-73991000D01*
X168843000Y-73997000D01*
X168837000Y-74002000D01*
X168831000Y-74008000D01*
X168825000Y-74012000D01*
X168819000Y-74017000D01*
X168812000Y-74021000D01*
X168805000Y-74025000D01*
X168798000Y-74028000D01*
X168791000Y-74031000D01*
X168783000Y-74034000D01*
X168776000Y-74036000D01*
X168768000Y-74038000D01*
X168760000Y-74039000D01*
X168753000Y-74040000D01*
X168745000Y-74041000D01*
X168737000Y-74041000D01*
X168238000Y-74041000D01*
X168237000Y-74041000D01*
X168237000Y-74042000D01*
X168237000Y-74816000D01*
X168237000Y-74824000D01*
X168236000Y-74832000D01*
X168235000Y-74839000D01*
X168234000Y-74847000D01*
X168232000Y-74855000D01*
X168230000Y-74862000D01*
X168227000Y-74870000D01*
X168224000Y-74877000D01*
X168221000Y-74884000D01*
X168217000Y-74891000D01*
X168213000Y-74898000D01*
X168208000Y-74904000D01*
X168204000Y-74910000D01*
X168198000Y-74916000D01*
X168193000Y-74922000D01*
X168187000Y-74927000D01*
X168181000Y-74933000D01*
X168175000Y-74937000D01*
X168169000Y-74942000D01*
X168162000Y-74946000D01*
X168155000Y-74950000D01*
X168148000Y-74953000D01*
X168141000Y-74956000D01*
X168133000Y-74959000D01*
X168126000Y-74961000D01*
X168118000Y-74963000D01*
X168110000Y-74964000D01*
X168103000Y-74965000D01*
X168095000Y-74966000D01*
X168087000Y-74966000D01*
X167982000Y-74966000D01*
X167974000Y-74966000D01*
X167966000Y-74965000D01*
X167959000Y-74964000D01*
X167951000Y-74963000D01*
X167943000Y-74961000D01*
X167936000Y-74959000D01*
X167929000Y-74956000D01*
X167921000Y-74953000D01*
X167914000Y-74950000D01*
X167907000Y-74946000D01*
X167901000Y-74942000D01*
X167894000Y-74938000D01*
X167888000Y-74933000D01*
X167882000Y-74928000D01*
X167877000Y-74922000D01*
X167871000Y-74917000D01*
X167866000Y-74911000D01*
X167861000Y-74905000D01*
X167857000Y-74898000D01*
X167853000Y-74892000D01*
X167849000Y-74885000D01*
X167846000Y-74878000D01*
X167843000Y-74870000D01*
X167840000Y-74863000D01*
X167838000Y-74856000D01*
X167836000Y-74848000D01*
X167835000Y-74840000D01*
X167834000Y-74833000D01*
X167833000Y-74825000D01*
X167833000Y-74817000D01*
X167833000Y-74442000D01*
X167688000Y-74442000D01*
X167687000Y-74442000D01*
X167687000Y-74443000D01*
X167687000Y-74816000D01*
X167687000Y-74824000D01*
X167686000Y-74832000D01*
X167685000Y-74839000D01*
X167684000Y-74847000D01*
X167682000Y-74855000D01*
X167680000Y-74862000D01*
X167677000Y-74870000D01*
X167674000Y-74877000D01*
X167671000Y-74884000D01*
X167667000Y-74891000D01*
X167663000Y-74898000D01*
X167658000Y-74904000D01*
X167654000Y-74910000D01*
X167648000Y-74916000D01*
X167643000Y-74922000D01*
X167637000Y-74927000D01*
X167631000Y-74933000D01*
X167625000Y-74937000D01*
X167619000Y-74942000D01*
X167612000Y-74946000D01*
X167605000Y-74950000D01*
X167598000Y-74953000D01*
X167591000Y-74956000D01*
X167583000Y-74959000D01*
X167576000Y-74961000D01*
X167568000Y-74963000D01*
X167560000Y-74964000D01*
X167553000Y-74965000D01*
X167545000Y-74966000D01*
X167537000Y-74966000D01*
X167431000Y-74966000D01*
X167423000Y-74966000D01*
X167416000Y-74965000D01*
X167408000Y-74964000D01*
X167400000Y-74963000D01*
X167393000Y-74961000D01*
X167385000Y-74959000D01*
X167378000Y-74956000D01*
X167371000Y-74953000D01*
X167364000Y-74950000D01*
X167357000Y-74946000D01*
X167350000Y-74942000D01*
X167344000Y-74938000D01*
X167338000Y-74933000D01*
X167332000Y-74928000D01*
X167326000Y-74923000D01*
X167321000Y-74917000D01*
X167316000Y-74911000D01*
X167311000Y-74905000D01*
X167307000Y-74899000D01*
X167303000Y-74892000D01*
X167299000Y-74885000D01*
X167296000Y-74878000D01*
X167293000Y-74871000D01*
X167290000Y-74864000D01*
X167288000Y-74856000D01*
X167286000Y-74849000D01*
X167285000Y-74841000D01*
X167284000Y-74833000D01*
X167283000Y-74826000D01*
X167283000Y-74818000D01*
X167283000Y-74042000D01*
X166785000Y-74042000D01*
X166777000Y-74042000D01*
X166769000Y-74041000D01*
X166761000Y-74040000D01*
X166753000Y-74039000D01*
X166746000Y-74037000D01*
X166738000Y-74035000D01*
X166731000Y-74032000D01*
X166723000Y-74029000D01*
X166716000Y-74025000D01*
X166709000Y-74022000D01*
X166702000Y-74017000D01*
X166696000Y-74013000D01*
X166689000Y-74008000D01*
X166683000Y-74003000D01*
X166678000Y-73997000D01*
X166672000Y-73992000D01*
X166667000Y-73986000D01*
X166662000Y-73979000D01*
X166658000Y-73973000D01*
X166653000Y-73966000D01*
X166650000Y-73959000D01*
X166646000Y-73952000D01*
X166643000Y-73944000D01*
X166640000Y-73937000D01*
X166638000Y-73929000D01*
X166636000Y-73922000D01*
X166635000Y-73914000D01*
X166634000Y-73906000D01*
X166633000Y-73898000D01*
X166633000Y-73890000D01*
X166633000Y-70941000D01*
X166633000Y-70933000D01*
X166634000Y-70925000D01*
X166635000Y-70917000D01*
X166636000Y-70909000D01*
X166638000Y-70902000D01*
X166640000Y-70894000D01*
X166643000Y-70887000D01*
X166646000Y-70879000D01*
X166650000Y-70872000D01*
X166653000Y-70865000D01*
X166658000Y-70858000D01*
X166662000Y-70852000D01*
X166667000Y-70845000D01*
X166672000Y-70839000D01*
X166678000Y-70834000D01*
X166683000Y-70828000D01*
X166689000Y-70823000D01*
X166696000Y-70818000D01*
X166702000Y-70814000D01*
X166709000Y-70809000D01*
X166716000Y-70806000D01*
X166723000Y-70802000D01*
X166731000Y-70799000D01*
X166738000Y-70796000D01*
X166746000Y-70794000D01*
X166753000Y-70792000D01*
X166761000Y-70791000D01*
X166769000Y-70790000D01*
X166777000Y-70789000D01*
X166785000Y-70789000D01*
X167282000Y-70789000D01*
X167283000Y-70789000D01*
X167283000Y-70788000D01*
X167283000Y-70015000D01*
X167283000Y-70007000D01*
X167284000Y-69999000D01*
X167285000Y-69991000D01*
X167286000Y-69983000D01*
X167288000Y-69976000D01*
X167290000Y-69968000D01*
X167293000Y-69961000D01*
X167296000Y-69953000D01*
X167300000Y-69946000D01*
X167303000Y-69939000D01*
X167308000Y-69932000D01*
X167312000Y-69926000D01*
X167317000Y-69919000D01*
X167322000Y-69913000D01*
X167328000Y-69908000D01*
X167333000Y-69902000D01*
X167339000Y-69897000D01*
X167346000Y-69892000D01*
X167352000Y-69888000D01*
X167359000Y-69883000D01*
X167366000Y-69880000D01*
X167373000Y-69876000D01*
X167381000Y-69873000D01*
X167388000Y-69870000D01*
X167396000Y-69868000D01*
X167403000Y-69866000D01*
X167411000Y-69865000D01*
X167419000Y-69864000D01*
X167427000Y-69863000D01*
X167435000Y-69863000D01*
X167535000Y-69863000D01*
X167543000Y-69863000D01*
X167551000Y-69864000D01*
G36*
X167551000Y-69864000D02*
G01*
X167559000Y-69865000D01*
X167567000Y-69866000D01*
X167574000Y-69868000D01*
X167582000Y-69870000D01*
X167589000Y-69873000D01*
X167597000Y-69876000D01*
X167604000Y-69880000D01*
X167611000Y-69883000D01*
X167618000Y-69888000D01*
X167624000Y-69892000D01*
X167631000Y-69897000D01*
X167637000Y-69902000D01*
X167642000Y-69908000D01*
X167648000Y-69913000D01*
X167653000Y-69919000D01*
X167658000Y-69926000D01*
X167662000Y-69932000D01*
X167667000Y-69939000D01*
X167670000Y-69946000D01*
X167674000Y-69953000D01*
X167677000Y-69961000D01*
X167680000Y-69968000D01*
X167682000Y-69976000D01*
X167684000Y-69983000D01*
X167685000Y-69991000D01*
X167686000Y-69999000D01*
X167687000Y-70007000D01*
X167687000Y-70015000D01*
X167687000Y-70388000D01*
X167832000Y-70388000D01*
X167833000Y-70388000D01*
X167833000Y-70013000D01*
X167833000Y-70005000D01*
X167834000Y-69997000D01*
X167835000Y-69990000D01*
X167836000Y-69982000D01*
X167838000Y-69974000D01*
X167840000Y-69967000D01*
X167843000Y-69959000D01*
X167846000Y-69952000D01*
X167849000Y-69945000D01*
X167853000Y-69938000D01*
X167857000Y-69931000D01*
X167862000Y-69925000D01*
X167866000Y-69919000D01*
X167872000Y-69913000D01*
X167877000Y-69907000D01*
X167883000Y-69902000D01*
X167889000Y-69896000D01*
X167895000Y-69892000D01*
X167901000Y-69887000D01*
X167908000Y-69883000D01*
X167915000Y-69879000D01*
X167922000Y-69876000D01*
X167929000Y-69873000D01*
X167937000Y-69870000D01*
X167944000Y-69868000D01*
X167952000Y-69866000D01*
X167960000Y-69865000D01*
X167967000Y-69864000D01*
X167975000Y-69863000D01*
X167983000Y-69863000D01*
X168086000Y-69863000D01*
X168094000Y-69863000D01*
X168102000Y-69864000D01*
X168110000Y-69865000D01*
X168117000Y-69866000D01*
X168125000Y-69868000D01*
X168133000Y-69870000D01*
X168140000Y-69873000D01*
X168147000Y-69876000D01*
X168155000Y-69879000D01*
X168161000Y-69883000D01*
X168168000Y-69887000D01*
X168175000Y-69892000D01*
X168181000Y-69897000D01*
X168187000Y-69902000D01*
X168193000Y-69907000D01*
X168198000Y-69913000D01*
X168203000Y-69919000D01*
X168208000Y-69925000D01*
X168213000Y-69932000D01*
X168217000Y-69939000D01*
X168221000Y-69945000D01*
X168224000Y-69953000D01*
X168227000Y-69960000D01*
X168230000Y-69967000D01*
X168232000Y-69975000D01*
X168234000Y-69983000D01*
X168235000Y-69990000D01*
X168236000Y-69998000D01*
X168237000Y-70006000D01*
X168237000Y-70014000D01*
X168237000Y-70788000D01*
X168735000Y-70788000D01*
X168743000Y-70788000D01*
X168751000Y-70789000D01*
X168759000Y-70790000D01*
X168767000Y-70791000D01*
X168774000Y-70793000D01*
X168782000Y-70795000D01*
X168789000Y-70798000D01*
X168797000Y-70801000D01*
X168804000Y-70805000D01*
X168811000Y-70808000D01*
X168818000Y-70813000D01*
X168824000Y-70817000D01*
X168831000Y-70822000D01*
X168837000Y-70827000D01*
X168842000Y-70833000D01*
X168848000Y-70838000D01*
X168853000Y-70844000D01*
X168858000Y-70851000D01*
X168862000Y-70857000D01*
X168867000Y-70864000D01*
X168870000Y-70871000D01*
X168874000Y-70878000D01*
X168877000Y-70886000D01*
X168880000Y-70893000D01*
X168882000Y-70901000D01*
X168884000Y-70908000D01*
X168885000Y-70916000D01*
X168886000Y-70924000D01*
X168887000Y-70932000D01*
X168887000Y-70940000D01*
X168887000Y-73891000D01*
X168887000Y-73899000D01*
X168886000Y-73907000D01*
X168885000Y-73914000D01*
X168884000Y-73922000D01*
X168882000Y-73930000D01*
X168880000Y-73937000D01*
X168877000Y-73945000D01*
X168874000Y-73952000D01*
X168871000Y-73959000D01*
X168867000Y-73966000D01*
X168863000Y-73973000D01*
X168858000Y-73979000D01*
X168854000Y-73985000D01*
X168848000Y-73991000D01*
X168843000Y-73997000D01*
X168837000Y-74002000D01*
X168831000Y-74008000D01*
X168825000Y-74012000D01*
X168819000Y-74017000D01*
X168812000Y-74021000D01*
X168805000Y-74025000D01*
X168798000Y-74028000D01*
X168791000Y-74031000D01*
X168783000Y-74034000D01*
X168776000Y-74036000D01*
X168768000Y-74038000D01*
X168760000Y-74039000D01*
X168753000Y-74040000D01*
X168745000Y-74041000D01*
X168737000Y-74041000D01*
X168238000Y-74041000D01*
X168237000Y-74041000D01*
X168237000Y-74042000D01*
X168237000Y-74816000D01*
X168237000Y-74824000D01*
X168236000Y-74832000D01*
X168235000Y-74839000D01*
X168234000Y-74847000D01*
X168232000Y-74855000D01*
X168230000Y-74862000D01*
X168227000Y-74870000D01*
X168224000Y-74877000D01*
X168221000Y-74884000D01*
X168217000Y-74891000D01*
X168213000Y-74898000D01*
X168208000Y-74904000D01*
X168204000Y-74910000D01*
X168198000Y-74916000D01*
X168193000Y-74922000D01*
X168187000Y-74927000D01*
X168181000Y-74933000D01*
X168175000Y-74937000D01*
X168169000Y-74942000D01*
X168162000Y-74946000D01*
X168155000Y-74950000D01*
X168148000Y-74953000D01*
X168141000Y-74956000D01*
X168133000Y-74959000D01*
X168126000Y-74961000D01*
X168118000Y-74963000D01*
X168110000Y-74964000D01*
X168103000Y-74965000D01*
X168095000Y-74966000D01*
X168087000Y-74966000D01*
X167982000Y-74966000D01*
X167974000Y-74966000D01*
X167966000Y-74965000D01*
X167959000Y-74964000D01*
X167951000Y-74963000D01*
X167943000Y-74961000D01*
X167936000Y-74959000D01*
X167929000Y-74956000D01*
X167921000Y-74953000D01*
X167914000Y-74950000D01*
X167907000Y-74946000D01*
X167901000Y-74942000D01*
X167894000Y-74938000D01*
X167888000Y-74933000D01*
X167882000Y-74928000D01*
X167877000Y-74922000D01*
X167871000Y-74917000D01*
X167866000Y-74911000D01*
X167861000Y-74905000D01*
X167857000Y-74898000D01*
X167853000Y-74892000D01*
X167849000Y-74885000D01*
X167846000Y-74878000D01*
X167843000Y-74870000D01*
X167840000Y-74863000D01*
X167838000Y-74856000D01*
X167836000Y-74848000D01*
X167835000Y-74840000D01*
X167834000Y-74833000D01*
X167833000Y-74825000D01*
X167833000Y-74817000D01*
X167833000Y-74442000D01*
X167688000Y-74442000D01*
X167687000Y-74442000D01*
X167687000Y-74443000D01*
X167687000Y-74816000D01*
X167687000Y-74824000D01*
X167686000Y-74832000D01*
X167685000Y-74839000D01*
X167684000Y-74847000D01*
X167682000Y-74855000D01*
X167680000Y-74862000D01*
X167677000Y-74870000D01*
X167674000Y-74877000D01*
X167671000Y-74884000D01*
X167667000Y-74891000D01*
X167663000Y-74898000D01*
X167658000Y-74904000D01*
X167654000Y-74910000D01*
X167648000Y-74916000D01*
X167643000Y-74922000D01*
X167637000Y-74927000D01*
X167631000Y-74933000D01*
X167625000Y-74937000D01*
X167619000Y-74942000D01*
X167612000Y-74946000D01*
X167605000Y-74950000D01*
X167598000Y-74953000D01*
X167591000Y-74956000D01*
X167583000Y-74959000D01*
X167576000Y-74961000D01*
X167568000Y-74963000D01*
X167560000Y-74964000D01*
X167553000Y-74965000D01*
X167545000Y-74966000D01*
X167537000Y-74966000D01*
X167431000Y-74966000D01*
X167423000Y-74966000D01*
X167416000Y-74965000D01*
X167408000Y-74964000D01*
X167400000Y-74963000D01*
X167393000Y-74961000D01*
X167385000Y-74959000D01*
X167378000Y-74956000D01*
X167371000Y-74953000D01*
X167364000Y-74950000D01*
X167357000Y-74946000D01*
X167350000Y-74942000D01*
X167344000Y-74938000D01*
X167338000Y-74933000D01*
X167332000Y-74928000D01*
X167326000Y-74923000D01*
X167321000Y-74917000D01*
X167316000Y-74911000D01*
X167311000Y-74905000D01*
X167307000Y-74899000D01*
X167303000Y-74892000D01*
X167299000Y-74885000D01*
X167296000Y-74878000D01*
X167293000Y-74871000D01*
X167290000Y-74864000D01*
X167288000Y-74856000D01*
X167286000Y-74849000D01*
X167285000Y-74841000D01*
X167284000Y-74833000D01*
X167283000Y-74826000D01*
X167283000Y-74818000D01*
X167283000Y-74042000D01*
X166785000Y-74042000D01*
X166777000Y-74042000D01*
X166769000Y-74041000D01*
X166761000Y-74040000D01*
X166753000Y-74039000D01*
X166746000Y-74037000D01*
X166738000Y-74035000D01*
X166731000Y-74032000D01*
X166723000Y-74029000D01*
X166716000Y-74025000D01*
X166709000Y-74022000D01*
X166702000Y-74017000D01*
X166696000Y-74013000D01*
X166689000Y-74008000D01*
X166683000Y-74003000D01*
X166678000Y-73997000D01*
X166672000Y-73992000D01*
X166667000Y-73986000D01*
X166662000Y-73979000D01*
X166658000Y-73973000D01*
X166653000Y-73966000D01*
X166650000Y-73959000D01*
X166646000Y-73952000D01*
X166643000Y-73944000D01*
X166640000Y-73937000D01*
X166638000Y-73929000D01*
X166636000Y-73922000D01*
X166635000Y-73914000D01*
X166634000Y-73906000D01*
X166633000Y-73898000D01*
X166633000Y-73890000D01*
X166633000Y-70941000D01*
X166633000Y-70933000D01*
X166634000Y-70925000D01*
X166635000Y-70917000D01*
X166636000Y-70909000D01*
X166638000Y-70902000D01*
X166640000Y-70894000D01*
X166643000Y-70887000D01*
X166646000Y-70879000D01*
X166650000Y-70872000D01*
X166653000Y-70865000D01*
X166658000Y-70858000D01*
X166662000Y-70852000D01*
X166667000Y-70845000D01*
X166672000Y-70839000D01*
X166678000Y-70834000D01*
X166683000Y-70828000D01*
X166689000Y-70823000D01*
X166696000Y-70818000D01*
X166702000Y-70814000D01*
X166709000Y-70809000D01*
X166716000Y-70806000D01*
X166723000Y-70802000D01*
X166731000Y-70799000D01*
X166738000Y-70796000D01*
X166746000Y-70794000D01*
X166753000Y-70792000D01*
X166761000Y-70791000D01*
X166769000Y-70790000D01*
X166777000Y-70789000D01*
X166785000Y-70789000D01*
X167282000Y-70789000D01*
X167283000Y-70789000D01*
X167283000Y-70788000D01*
X167283000Y-70015000D01*
X167283000Y-70007000D01*
X167284000Y-69999000D01*
X167285000Y-69991000D01*
X167286000Y-69983000D01*
X167288000Y-69976000D01*
X167290000Y-69968000D01*
X167293000Y-69961000D01*
X167296000Y-69953000D01*
X167300000Y-69946000D01*
X167303000Y-69939000D01*
X167308000Y-69932000D01*
X167312000Y-69926000D01*
X167317000Y-69919000D01*
X167322000Y-69913000D01*
X167328000Y-69908000D01*
X167333000Y-69902000D01*
X167339000Y-69897000D01*
X167346000Y-69892000D01*
X167352000Y-69888000D01*
X167359000Y-69883000D01*
X167366000Y-69880000D01*
X167373000Y-69876000D01*
X167381000Y-69873000D01*
X167388000Y-69870000D01*
X167396000Y-69868000D01*
X167403000Y-69866000D01*
X167411000Y-69865000D01*
X167419000Y-69864000D01*
X167427000Y-69863000D01*
X167435000Y-69863000D01*
X167535000Y-69863000D01*
X167543000Y-69863000D01*
X167551000Y-69864000D01*
G37*
%TD*%
D11*
%TO.C,U8*%
X144795000Y-106015000D03*
X144795000Y-107285000D03*
X144795000Y-108555000D03*
X144795000Y-109825000D03*
X149745000Y-109825000D03*
X149745000Y-108555000D03*
X149745000Y-107285000D03*
X149745000Y-106015000D03*
%TD*%
%TO.C,U7*%
X144795000Y-99435000D03*
X144795000Y-100705000D03*
X144795000Y-101975000D03*
X144795000Y-103245000D03*
X149745000Y-103245000D03*
X149745000Y-101975000D03*
X149745000Y-100705000D03*
X149745000Y-99435000D03*
%TD*%
D12*
%TO.C,U6*%
X173462500Y-110085000D03*
X173462500Y-110735000D03*
X173462500Y-111385000D03*
X173462500Y-112035000D03*
X175737500Y-112035000D03*
X175737500Y-111385000D03*
X175737500Y-110735000D03*
X175737500Y-110085000D03*
%TD*%
D13*
%TO.C,U5*%
X167010000Y-70265000D03*
X168510000Y-70265000D03*
X167010000Y-74565000D03*
X168510000Y-74565000D03*
D14*
X166110000Y-72165000D03*
X166110000Y-72665000D03*
X166110000Y-73165000D03*
X166110000Y-73665000D03*
X166110000Y-74165000D03*
X166110000Y-71665000D03*
X166110000Y-71165000D03*
X166110000Y-70665000D03*
X169410000Y-72165000D03*
X169410000Y-72665000D03*
X169410000Y-73165000D03*
X169410000Y-73665000D03*
X169410000Y-74165000D03*
X169410000Y-71665000D03*
X169410000Y-71165000D03*
X169410000Y-70665000D03*
D15*
X167760000Y-72415000D03*
D16*
X167760000Y-72940000D03*
X166985000Y-72940000D03*
X168535000Y-72940000D03*
X167760000Y-71890000D03*
X166985000Y-71890000D03*
X168535000Y-71890000D03*
X167760000Y-73690000D03*
X167760000Y-71140000D03*
%TD*%
D17*
%TO.C,U4*%
X178525000Y-109885000D03*
X178525000Y-110535000D03*
X178525000Y-111185000D03*
X180625000Y-111185000D03*
X180625000Y-110535000D03*
X180625000Y-109885000D03*
D18*
X179575000Y-110535000D03*
%TD*%
D19*
%TO.C,U3*%
X166725000Y-86615000D03*
D20*
X163862500Y-84340000D03*
X163862500Y-84990000D03*
X163862500Y-85640000D03*
X163862500Y-86290000D03*
X163862500Y-86940000D03*
X163862500Y-87590000D03*
X163862500Y-88240000D03*
X163862500Y-88890000D03*
X169587500Y-88890000D03*
X169587500Y-88240000D03*
X169587500Y-87590000D03*
X169587500Y-86940000D03*
X169587500Y-86290000D03*
X169587500Y-85640000D03*
X169587500Y-84990000D03*
X169587500Y-84340000D03*
%TD*%
D19*
%TO.C,U2*%
X166725000Y-79975000D03*
D20*
X163862500Y-77700000D03*
X163862500Y-78350000D03*
X163862500Y-79000000D03*
X163862500Y-79650000D03*
X163862500Y-80300000D03*
X163862500Y-80950000D03*
X163862500Y-81600000D03*
X163862500Y-82250000D03*
X169587500Y-82250000D03*
X169587500Y-81600000D03*
X169587500Y-80950000D03*
X169587500Y-80300000D03*
X169587500Y-79650000D03*
X169587500Y-79000000D03*
X169587500Y-78350000D03*
X169587500Y-77700000D03*
%TD*%
D11*
%TO.C,U1*%
X144795000Y-92855000D03*
X144795000Y-94125000D03*
X144795000Y-95395000D03*
X144795000Y-96665000D03*
X149745000Y-96665000D03*
X149745000Y-95395000D03*
X149745000Y-94125000D03*
X149745000Y-92855000D03*
D21*
X147270000Y-94760000D03*
%TD*%
D22*
%TO.C,TP5*%
X153270000Y-107380000D03*
%TD*%
%TO.C,TP4*%
X153270000Y-103830000D03*
%TD*%
%TO.C,TP3*%
X153270000Y-100280000D03*
%TD*%
%TO.C,TP2*%
X153270000Y-96730000D03*
%TD*%
%TO.C,TP1*%
X153270000Y-93180000D03*
%TD*%
D23*
%TO.C,SW1*%
X161510000Y-66410000D03*
D24*
X166310000Y-66410000D03*
X171110000Y-66410000D03*
%TD*%
D25*
%TO.C,R_{SHUNT}1*%
X153157500Y-84030000D03*
X154982500Y-84030000D03*
%TD*%
%TO.C,R_{SDA}1*%
X153157500Y-81080000D03*
X154982500Y-81080000D03*
%TD*%
%TO.C,R_{SCL}1*%
X153157500Y-78130000D03*
X154982500Y-78130000D03*
%TD*%
D26*
%TO.C,R_{PULL_DOWN}1*%
X156255000Y-75400000D03*
X157905000Y-75400000D03*
%TD*%
%TO.C,R_{PROG}2*%
X156255000Y-72890000D03*
X157905000Y-72890000D03*
%TD*%
%TO.C,R_{PROG}1*%
X156255000Y-70380000D03*
X157905000Y-70380000D03*
%TD*%
%TO.C,R_{LIMIT}1*%
X156255000Y-67870000D03*
X157905000Y-67870000D03*
%TD*%
D25*
%TO.C,R_{ILIM}1*%
X148747500Y-89930000D03*
X150572500Y-89930000D03*
%TD*%
%TO.C,R_{FSW}2*%
X148747500Y-86980000D03*
X150572500Y-86980000D03*
%TD*%
%TO.C,R_{FSW}1*%
X148747500Y-84030000D03*
X150572500Y-84030000D03*
%TD*%
%TO.C,R_{FB}2*%
X148747500Y-81080000D03*
X150572500Y-81080000D03*
%TD*%
%TO.C,R_{FB}1*%
X148747500Y-78130000D03*
X150572500Y-78130000D03*
%TD*%
%TO.C,R_{COMP}1*%
X144337500Y-89930000D03*
X146162500Y-89930000D03*
%TD*%
D26*
%TO.C,R9*%
X156255000Y-65360000D03*
X157905000Y-65360000D03*
%TD*%
D27*
%TO.C,R8*%
X160510000Y-73650000D03*
X163610000Y-73650000D03*
%TD*%
%TO.C,R7*%
X160510000Y-70360000D03*
X163610000Y-70360000D03*
%TD*%
D28*
%TO.C,R6*%
X167750000Y-111360000D03*
X169750000Y-111360000D03*
%TD*%
%TO.C,R5*%
X167750000Y-108410000D03*
X169750000Y-108410000D03*
%TD*%
D25*
%TO.C,R4*%
X144337500Y-86980000D03*
X146162500Y-86980000D03*
%TD*%
%TO.C,R3*%
X144337500Y-84030000D03*
X146162500Y-84030000D03*
%TD*%
%TO.C,R2*%
X144337500Y-81080000D03*
X146162500Y-81080000D03*
%TD*%
%TO.C,R1*%
X144337500Y-78130000D03*
X146162500Y-78130000D03*
%TD*%
D29*
%TO.C,Q5*%
X157782500Y-110805000D03*
X157782500Y-112705000D03*
X159657500Y-111755000D03*
%TD*%
D30*
%TO.C,Q4*%
X174972500Y-70180000D03*
X174972500Y-72080000D03*
X177247500Y-71130000D03*
%TD*%
%TO.C,Q3*%
X174972500Y-65555000D03*
X174972500Y-67455000D03*
X177247500Y-66505000D03*
%TD*%
D29*
%TO.C,Q2*%
X157782500Y-106180000D03*
X157782500Y-108080000D03*
X159657500Y-107130000D03*
%TD*%
%TO.C,Q1*%
X157782500Y-101555000D03*
X157782500Y-103455000D03*
X159657500Y-102505000D03*
%TD*%
D31*
%TO.C,L4*%
X152282500Y-75400000D03*
X153857500Y-75400000D03*
%TD*%
%TO.C,L2*%
X152282500Y-72890000D03*
X153857500Y-72890000D03*
%TD*%
D32*
%TO.C,L1*%
X152707500Y-110530000D03*
X154832500Y-110530000D03*
%TD*%
D33*
%TO.C,J3*%
X175000000Y-92310000D03*
D34*
X177000000Y-92310000D03*
%TD*%
D35*
%TO.C,J2*%
X173740000Y-78405000D03*
X174540000Y-78405000D03*
D36*
X175740000Y-78405000D03*
X176740000Y-78405000D03*
X177240000Y-78405000D03*
X178240000Y-78405000D03*
D35*
X179440000Y-78405000D03*
X180240000Y-78405000D03*
X180240000Y-78405000D03*
X179440000Y-78405000D03*
D36*
X178740000Y-78405000D03*
X177740000Y-78405000D03*
X176240000Y-78405000D03*
X175240000Y-78405000D03*
D35*
X174540000Y-78405000D03*
X173740000Y-78405000D03*
D37*
X172670000Y-79320000D03*
D38*
X172670000Y-83500000D03*
D37*
X181310000Y-79320000D03*
D38*
X181310000Y-83500000D03*
%TD*%
D39*
%TO.C,J1*%
X138170000Y-66430000D03*
D40*
X140710000Y-66430000D03*
X138170000Y-68970000D03*
X140710000Y-68970000D03*
X138170000Y-71510000D03*
X140710000Y-71510000D03*
X138170000Y-74050000D03*
X140710000Y-74050000D03*
X138170000Y-76590000D03*
X140710000Y-76590000D03*
X138170000Y-79130000D03*
X140710000Y-79130000D03*
X138170000Y-81670000D03*
X140710000Y-81670000D03*
X138170000Y-84210000D03*
X140710000Y-84210000D03*
X138170000Y-86750000D03*
X140710000Y-86750000D03*
X138170000Y-89290000D03*
X140710000Y-89290000D03*
X138170000Y-91830000D03*
X140710000Y-91830000D03*
X138170000Y-94370000D03*
X140710000Y-94370000D03*
X138170000Y-96910000D03*
X140710000Y-96910000D03*
X138170000Y-99450000D03*
X140710000Y-99450000D03*
X138170000Y-101990000D03*
X140710000Y-101990000D03*
X138170000Y-104530000D03*
X140710000Y-104530000D03*
%TD*%
D41*
%TO.C,D4*%
X174095000Y-106410000D03*
X178095000Y-106410000D03*
%TD*%
%TO.C,D3*%
X174095000Y-101860000D03*
X178095000Y-101860000D03*
%TD*%
D42*
%TO.C,C_{SS}1*%
X163200000Y-112510000D03*
X165100000Y-112510000D03*
%TD*%
D43*
%TO.C,C_{OUT}6*%
X152295000Y-70380000D03*
X153845000Y-70380000D03*
%TD*%
%TO.C,C_{OUT}5*%
X152295000Y-67870000D03*
X153845000Y-67870000D03*
%TD*%
%TO.C,C_{OUT}4*%
X152295000Y-65360000D03*
X153845000Y-65360000D03*
%TD*%
D44*
%TO.C,C_{OUT}3*%
X157625000Y-98430000D03*
X160575000Y-98430000D03*
%TD*%
D45*
%TO.C,C_{OUT}2*%
X167725000Y-104810000D03*
X170675000Y-104810000D03*
%TD*%
%TO.C,C_{OUT}1*%
X167725000Y-100560000D03*
X170675000Y-100560000D03*
%TD*%
D44*
%TO.C,C_{OUT_3.3}3*%
X157625000Y-95080000D03*
X160575000Y-95080000D03*
%TD*%
%TO.C,C_{OUT_3.3}2*%
X157625000Y-91730000D03*
X160575000Y-91730000D03*
%TD*%
%TO.C,C_{OUT_3.3}1*%
X157625000Y-88380000D03*
X160575000Y-88380000D03*
%TD*%
%TO.C,C_{IN}3*%
X157625000Y-85030000D03*
X160575000Y-85030000D03*
%TD*%
D45*
%TO.C,C_{IN}2*%
X167725000Y-96310000D03*
X170675000Y-96310000D03*
%TD*%
%TO.C,C_{IN}1*%
X167725000Y-92060000D03*
X170675000Y-92060000D03*
%TD*%
D42*
%TO.C,C_{IN_5}1*%
X163200000Y-109500000D03*
X165100000Y-109500000D03*
%TD*%
D43*
%TO.C,C_{IN_3.3}3*%
X148285000Y-75400000D03*
X149835000Y-75400000D03*
%TD*%
D44*
%TO.C,C_{IN_3.3}2*%
X157625000Y-81680000D03*
X160575000Y-81680000D03*
%TD*%
%TO.C,C_{IN_3.3}1*%
X157625000Y-78330000D03*
X160575000Y-78330000D03*
%TD*%
D42*
%TO.C,C_{COMP}1*%
X163200000Y-106490000D03*
X165100000Y-106490000D03*
%TD*%
D43*
%TO.C,C_{CHARGE_OUT}1*%
X148285000Y-72890000D03*
X149835000Y-72890000D03*
%TD*%
%TO.C,C_{CHARGE_IN}1*%
X148285000Y-70380000D03*
X149835000Y-70380000D03*
%TD*%
D42*
%TO.C,C_{BY}1*%
X163200000Y-103480000D03*
X165100000Y-103480000D03*
%TD*%
%TO.C,C_{BYPASS}1*%
X163200000Y-100470000D03*
X165100000Y-100470000D03*
%TD*%
%TO.C,C_{BOOT}1*%
X163200000Y-97460000D03*
X165100000Y-97460000D03*
%TD*%
%TO.C,C_{1}1*%
X163200000Y-94450000D03*
X165100000Y-94450000D03*
%TD*%
%TO.C,C10*%
X163200000Y-91440000D03*
X165100000Y-91440000D03*
%TD*%
D43*
%TO.C,C9*%
X148285000Y-67870000D03*
X149835000Y-67870000D03*
%TD*%
%TO.C,C8*%
X148285000Y-65360000D03*
X149835000Y-65360000D03*
%TD*%
%TO.C,C7*%
X144275000Y-75400000D03*
X145825000Y-75400000D03*
%TD*%
%TO.C,C6*%
X144275000Y-72890000D03*
X145825000Y-72890000D03*
%TD*%
%TO.C,C5*%
X144275000Y-70380000D03*
X145825000Y-70380000D03*
%TD*%
%TO.C,C4*%
X144275000Y-67870000D03*
X145825000Y-67870000D03*
%TD*%
%TO.C,C3*%
X144275000Y-65360000D03*
X145825000Y-65360000D03*
%TD*%
M02*
