M48
; DRILL file {KiCad 9.0.0} date 2025-03-28T14:04:11+0200
; FORMAT={-:-/ absolute / inch / decimal}
; #@! TF.CreationDate,2025-03-28T14:04:11+02:00
; #@! TF.GenerationSoftware,Kicad,Pcbnew,9.0.0
; #@! TF.FileFunction,Plated,1,2,PTH
FMAT,2
INCH
; #@! TA.AperFunction,Plated,PTH,ComponentDrill
T1C0.0079
; #@! TA.AperFunction,Plated,PTH,ComponentDrill
T2C0.0236
; #@! TA.AperFunction,Plated,PTH,ComponentDrill
T3C0.0295
; #@! TA.AperFunction,Plated,PTH,ComponentDrill
T4C0.0394
; #@! TA.AperFunction,Plated,PTH,ComponentDrill
T5C0.0610
%
G90
G05
T1
X5.7705Y-3.6835
X5.7705Y-3.7307
X5.7705Y-3.778
X5.8256Y-3.6835
X5.8256Y-3.7307
X5.8256Y-3.778
X6.5344Y-3.0896
X6.5344Y-3.1486
X6.5344Y-3.2077
X6.5344Y-3.351
X6.5344Y-3.41
X6.5344Y-3.4691
X6.5742Y-2.8303
X6.5742Y-2.8717
X6.5935Y-3.0896
X6.5935Y-3.1486
X6.5935Y-3.2077
X6.5935Y-3.351
X6.5935Y-3.41
X6.5935Y-3.4691
X6.6047Y-2.8008
X6.6047Y-2.8303
X6.6047Y-2.8717
X6.6047Y-2.9012
X6.6352Y-2.8303
X6.6352Y-2.8717
T3
X6.8898Y-3.6343
X6.9685Y-3.6343
T4
X5.4398Y-2.6154
X5.4398Y-2.7154
X5.4398Y-2.8154
X5.4398Y-2.9154
X5.4398Y-3.0154
X5.4398Y-3.1154
X5.4398Y-3.2154
X5.4398Y-3.3154
X5.4398Y-3.4154
X5.4398Y-3.5154
X5.4398Y-3.6154
X5.4398Y-3.7154
X5.4398Y-3.8154
X5.4398Y-3.9154
X5.4398Y-4.0154
X5.4398Y-4.1154
X5.5398Y-2.6154
X5.5398Y-2.7154
X5.5398Y-2.8154
X5.5398Y-2.9154
X5.5398Y-3.0154
X5.5398Y-3.1154
X5.5398Y-3.2154
X5.5398Y-3.3154
X5.5398Y-3.4154
X5.5398Y-3.5154
X5.5398Y-3.6154
X5.5398Y-3.7154
X5.5398Y-3.8154
X5.5398Y-3.9154
X5.5398Y-4.0154
X5.5398Y-4.1154
T5
X6.3587Y-2.6146
X6.5476Y-2.6146
X6.7366Y-2.6146
T2
G00X6.798Y-3.1012
M15
G01X6.798Y-3.1445
M16
G05
G00X6.798Y-3.2756
M15
G01X6.798Y-3.2992
M16
G05
G00X7.1382Y-3.1012
M15
G01X7.1382Y-3.1445
M16
G05
G00X7.1382Y-3.2756
M15
G01X7.1382Y-3.2992
M16
G05
M30
