%TF.GenerationSoftware,KiCad,Pcbnew,9.0.0*%
%TF.CreationDate,2025-03-28T14:04:11+02:00*%
%TF.ProjectId,,58585858-5858-4585-9858-585858585858,rev?*%
%TF.SameCoordinates,Original*%
%TF.FileFunction,Legend,Bot*%
%TF.FilePolarity,Positive*%
%FSLAX46Y46*%
G04 Gerber Fmt 4.6, Leading zero omitted, Abs format (unit mm)*
G04 Created by KiCad (PCBNEW 9.0.0) date 2025-03-28 14:04:11*
%MOMM*%
%LPD*%
G01*
G04 APERTURE LIST*
G04 Aperture macros list*
%AMRoundRect*
0 Rectangle with rounded corners*
0 $1 Rounding radius*
0 $2 $3 $4 $5 $6 $7 $8 $9 X,Y pos of 4 corners*
0 Add a 4 corners polygon primitive as box body*
4,1,4,$2,$3,$4,$5,$6,$7,$8,$9,$2,$3,0*
0 Add four circle primitives for the rounded corners*
1,1,$1+$1,$2,$3*
1,1,$1+$1,$4,$5*
1,1,$1+$1,$6,$7*
1,1,$1+$1,$8,$9*
0 Add four rect primitives between the rounded corners*
20,1,$1+$1,$2,$3,$4,$5,0*
20,1,$1+$1,$4,$5,$6,$7,0*
20,1,$1+$1,$6,$7,$8,$9,0*
20,1,$1+$1,$8,$9,$2,$3,0*%
G04 Aperture macros list end*
%ADD10C,0.300000*%
%ADD11RoundRect,0.249999X-1.025001X-1.025001X1.025001X-1.025001X1.025001X1.025001X-1.025001X1.025001X0*%
%ADD12C,2.550000*%
%ADD13RoundRect,0.250000X-0.350000X-0.625000X0.350000X-0.625000X0.350000X0.625000X-0.350000X0.625000X0*%
%ADD14O,1.200000X1.750000*%
%ADD15C,0.650000*%
%ADD16O,1.000000X2.100000*%
%ADD17O,1.000000X1.600000*%
%ADD18R,1.700000X1.700000*%
%ADD19O,1.700000X1.700000*%
G04 APERTURE END LIST*
%LPC*%
D10*
%TO.C,U5*%
X167760000Y-72940000D03*
X166985000Y-72940000D03*
X168535000Y-72940000D03*
X167760000Y-71890000D03*
X166985000Y-71890000D03*
X168535000Y-71890000D03*
X167760000Y-73690000D03*
X167760000Y-71140000D03*
%TD*%
D11*
%TO.C,SW1*%
X161510000Y-66410000D03*
D12*
X166310000Y-66410000D03*
X171110000Y-66410000D03*
%TD*%
D13*
%TO.C,J3*%
X175000000Y-92310000D03*
D14*
X177000000Y-92310000D03*
%TD*%
D15*
%TO.C,J2*%
X174100000Y-79850000D03*
X179880000Y-79850000D03*
D16*
X172670000Y-79320000D03*
D17*
X172670000Y-83500000D03*
D16*
X181310000Y-79320000D03*
D17*
X181310000Y-83500000D03*
%TD*%
D18*
%TO.C,J1*%
X138170000Y-66430000D03*
D19*
X140710000Y-66430000D03*
X138170000Y-68970000D03*
X140710000Y-68970000D03*
X138170000Y-71510000D03*
X140710000Y-71510000D03*
X138170000Y-74050000D03*
X140710000Y-74050000D03*
X138170000Y-76590000D03*
X140710000Y-76590000D03*
X138170000Y-79130000D03*
X140710000Y-79130000D03*
X138170000Y-81670000D03*
X140710000Y-81670000D03*
X138170000Y-84210000D03*
X140710000Y-84210000D03*
X138170000Y-86750000D03*
X140710000Y-86750000D03*
X138170000Y-89290000D03*
X140710000Y-89290000D03*
X138170000Y-91830000D03*
X140710000Y-91830000D03*
X138170000Y-94370000D03*
X140710000Y-94370000D03*
X138170000Y-96910000D03*
X140710000Y-96910000D03*
X138170000Y-99450000D03*
X140710000Y-99450000D03*
X138170000Y-101990000D03*
X140710000Y-101990000D03*
X138170000Y-104530000D03*
X140710000Y-104530000D03*
%TD*%
%LPD*%
M02*
