%TF.GenerationSoftware,KiCad,Pcbnew,9.0.0*%
%TF.CreationDate,2025-03-28T16:41:01+02:00*%
%TF.ProjectId,Micro-Mouse Power Subsystem,4d696372-6f2d-44d6-9f75-736520506f77,rev?*%
%TF.SameCoordinates,Original*%
%TF.FileFunction,Copper,L1,Top*%
%TF.FilePolarity,Positive*%
%FSLAX46Y46*%
G04 Gerber Fmt 4.6, Leading zero omitted, Abs format (unit mm)*
G04 Created by KiCad (PCBNEW 9.0.0) date 2025-03-28 16:41:01*
%MOMM*%
%LPD*%
G01*
G04 APERTURE LIST*
G04 Aperture macros list*
%AMRoundRect*
0 Rectangle with rounded corners*
0 $1 Rounding radius*
0 $2 $3 $4 $5 $6 $7 $8 $9 X,Y pos of 4 corners*
0 Add a 4 corners polygon primitive as box body*
4,1,4,$2,$3,$4,$5,$6,$7,$8,$9,$2,$3,0*
0 Add four circle primitives for the rounded corners*
1,1,$1+$1,$2,$3*
1,1,$1+$1,$4,$5*
1,1,$1+$1,$6,$7*
1,1,$1+$1,$8,$9*
0 Add four rect primitives between the rounded corners*
20,1,$1+$1,$2,$3,$4,$5,0*
20,1,$1+$1,$4,$5,$6,$7,0*
20,1,$1+$1,$6,$7,$8,$9,0*
20,1,$1+$1,$8,$9,$2,$3,0*%
%AMFreePoly0*
4,1,413,-0.218419,2.454743,-0.216190,2.454000,-0.215000,2.454000,-0.213419,2.453743,-0.211190,2.453000,-0.210000,2.453000,-0.208419,2.452743,-0.205419,2.451743,-0.204764,2.451472,-0.203080,2.450630,-0.200419,2.449743,-0.198464,2.448536,-0.197036,2.447108,-0.195764,2.446472,-0.194464,2.445536,-0.193036,2.444108,-0.191764,2.443472,-0.190464,2.442536,-0.182464,2.434536,-0.181528,2.433236,
-0.180892,2.431964,-0.179464,2.430536,-0.178528,2.429236,-0.177892,2.427964,-0.176464,2.426536,-0.175257,2.424581,-0.174370,2.421920,-0.173528,2.420236,-0.173257,2.419581,-0.172257,2.416581,-0.172000,2.415000,-0.172000,2.413810,-0.171257,2.411581,-0.171000,2.410000,-0.171000,2.408810,-0.170257,2.406581,-0.170000,2.405000,-0.170000,1.930000,0.170000,1.930000,0.170000,2.405000,
0.170257,2.406581,0.171000,2.408810,0.171000,2.410000,0.171257,2.411581,0.172000,2.413810,0.172000,2.415000,0.172257,2.416581,0.173257,2.419581,0.173528,2.420236,0.174370,2.421920,0.175257,2.424581,0.176464,2.426536,0.177892,2.427964,0.178528,2.429236,0.179464,2.430536,0.180892,2.431964,0.181528,2.433236,0.182464,2.434536,0.190464,2.442536,0.191764,2.443472,
0.193036,2.444108,0.194464,2.445536,0.195764,2.446472,0.197036,2.447108,0.198464,2.448536,0.200419,2.449743,0.203080,2.450630,0.204764,2.451472,0.205419,2.451743,0.208419,2.452743,0.210000,2.453000,0.211190,2.453000,0.213419,2.453743,0.215000,2.454000,0.216190,2.454000,0.218419,2.454743,0.220000,2.455000,0.330000,2.455000,0.331581,2.454743,0.333810,2.454000,
0.335000,2.454000,0.336581,2.453743,0.338810,2.453000,0.340000,2.453000,0.341581,2.452743,0.344581,2.451743,0.345236,2.451472,0.346920,2.450630,0.349581,2.449743,0.351536,2.448536,0.352964,2.447108,0.354236,2.446472,0.355536,2.445536,0.356964,2.444108,0.358236,2.443472,0.359536,2.442536,0.367536,2.434536,0.368472,2.433236,0.369108,2.431964,0.370536,2.430536,
0.371472,2.429236,0.372108,2.427964,0.373536,2.426536,0.374743,2.424581,0.375630,2.421920,0.376472,2.420236,0.376743,2.419581,0.377743,2.416581,0.378000,2.415000,0.378000,2.413810,0.378743,2.411581,0.379000,2.410000,0.379000,2.408810,0.379743,2.406581,0.380000,2.405000,0.380000,1.530000,0.980000,1.530000,0.981581,1.529743,0.983810,1.529000,0.985000,1.529000,
0.986581,1.528743,0.988810,1.528000,0.990000,1.528000,0.991581,1.527743,0.994581,1.526743,0.995236,1.526472,0.996920,1.525630,0.998810,1.525000,1.025000,1.525000,1.025000,1.498810,1.025630,1.496920,1.026472,1.495236,1.026743,1.494581,1.027743,1.491581,1.028000,1.490000,1.028000,1.488810,1.028743,1.486581,1.029000,1.485000,1.029000,1.483810,1.029743,1.481581,
1.030000,1.480000,1.030000,-1.480000,1.029743,-1.481581,1.029000,-1.483810,1.029000,-1.485000,1.028743,-1.486581,1.028000,-1.488810,1.028000,-1.490000,1.027743,-1.491581,1.026743,-1.494581,1.026472,-1.495236,1.025630,-1.496920,1.025000,-1.498810,1.025000,-1.525000,0.998810,-1.525000,0.996920,-1.525630,0.995236,-1.526472,0.994581,-1.526743,0.991581,-1.527743,0.990000,-1.528000,
0.988810,-1.528000,0.986581,-1.528743,0.985000,-1.529000,0.983810,-1.529000,0.981581,-1.529743,0.980000,-1.530000,0.380000,-1.530000,0.380000,-2.405000,0.379743,-2.406581,0.379000,-2.408810,0.379000,-2.410000,0.378743,-2.411581,0.378000,-2.413810,0.378000,-2.415000,0.377743,-2.416581,0.376743,-2.419581,0.376472,-2.420236,0.375630,-2.421920,0.374743,-2.424581,0.373536,-2.426536,
0.372108,-2.427964,0.371472,-2.429236,0.370536,-2.430536,0.369108,-2.431964,0.368472,-2.433236,0.367536,-2.434536,0.359536,-2.442536,0.358236,-2.443472,0.356964,-2.444108,0.355536,-2.445536,0.354236,-2.446472,0.352964,-2.447108,0.351536,-2.448536,0.349581,-2.449743,0.346920,-2.450630,0.345236,-2.451472,0.344581,-2.451743,0.341581,-2.452743,0.340000,-2.453000,0.338810,-2.453000,
0.336581,-2.453743,0.335000,-2.454000,0.333810,-2.454000,0.331581,-2.454743,0.330000,-2.455000,0.220000,-2.455000,0.218419,-2.454743,0.216190,-2.454000,0.215000,-2.454000,0.213419,-2.453743,0.211190,-2.453000,0.210000,-2.453000,0.208419,-2.452743,0.205419,-2.451743,0.204764,-2.451472,0.203080,-2.450630,0.200419,-2.449743,0.198464,-2.448536,0.197036,-2.447108,0.195764,-2.446472,
0.194464,-2.445536,0.193036,-2.444108,0.191764,-2.443472,0.190464,-2.442536,0.182464,-2.434536,0.181528,-2.433236,0.180892,-2.431964,0.179464,-2.430536,0.178528,-2.429236,0.177892,-2.427964,0.176464,-2.426536,0.175257,-2.424581,0.174370,-2.421920,0.173528,-2.420236,0.173257,-2.419581,0.172257,-2.416581,0.172000,-2.415000,0.172000,-2.413810,0.171257,-2.411581,0.171000,-2.410000,
0.171000,-2.408810,0.170257,-2.406581,0.170000,-2.405000,0.170000,-1.930000,-0.170000,-1.930000,-0.170000,-2.405000,-0.170257,-2.406581,-0.171000,-2.408810,-0.171000,-2.410000,-0.171257,-2.411581,-0.172000,-2.413810,-0.172000,-2.415000,-0.172257,-2.416581,-0.173257,-2.419581,-0.173528,-2.420236,-0.174370,-2.421920,-0.175257,-2.424581,-0.176464,-2.426536,-0.177892,-2.427964,-0.178528,-2.429236,
-0.179464,-2.430536,-0.180892,-2.431964,-0.181528,-2.433236,-0.182464,-2.434536,-0.190464,-2.442536,-0.191764,-2.443472,-0.193036,-2.444108,-0.194464,-2.445536,-0.195764,-2.446472,-0.197036,-2.447108,-0.198464,-2.448536,-0.200419,-2.449743,-0.203080,-2.450630,-0.204764,-2.451472,-0.205419,-2.451743,-0.208419,-2.452743,-0.210000,-2.453000,-0.211190,-2.453000,-0.213419,-2.453743,-0.215000,-2.454000,
-0.216190,-2.454000,-0.218419,-2.454743,-0.220000,-2.455000,-0.330000,-2.455000,-0.331581,-2.454743,-0.333810,-2.454000,-0.335000,-2.454000,-0.336581,-2.453743,-0.338810,-2.453000,-0.340000,-2.453000,-0.341581,-2.452743,-0.344581,-2.451743,-0.345236,-2.451472,-0.346920,-2.450630,-0.349581,-2.449743,-0.351536,-2.448536,-0.352964,-2.447108,-0.354236,-2.446472,-0.355536,-2.445536,-0.356964,-2.444108,
-0.358236,-2.443472,-0.359536,-2.442536,-0.367536,-2.434536,-0.368472,-2.433236,-0.369108,-2.431964,-0.370536,-2.430536,-0.371472,-2.429236,-0.372108,-2.427964,-0.373536,-2.426536,-0.374743,-2.424581,-0.375630,-2.421920,-0.376472,-2.420236,-0.376743,-2.419581,-0.377743,-2.416581,-0.378000,-2.415000,-0.378000,-2.413810,-0.378743,-2.411581,-0.379000,-2.410000,-0.379000,-2.408810,-0.379743,-2.406581,
-0.380000,-2.405000,-0.380000,-1.530000,-0.980000,-1.530000,-0.981581,-1.529743,-0.983810,-1.529000,-0.985000,-1.529000,-0.986581,-1.528743,-0.988810,-1.528000,-0.990000,-1.528000,-0.991581,-1.527743,-0.994581,-1.526743,-0.995236,-1.526472,-0.996920,-1.525630,-0.998810,-1.525000,-1.025000,-1.525000,-1.025000,-1.498810,-1.025630,-1.496920,-1.026472,-1.495236,-1.026743,-1.494581,-1.027743,-1.491581,
-1.028000,-1.490000,-1.028000,-1.488810,-1.028743,-1.486581,-1.029000,-1.485000,-1.029000,-1.483810,-1.029743,-1.481581,-1.030000,-1.480000,-1.030000,1.480000,-1.029743,1.481581,-1.029000,1.483810,-1.029000,1.485000,-1.028743,1.486581,-1.028000,1.488810,-1.028000,1.490000,-1.027743,1.491581,-1.026743,1.494581,-1.026472,1.495236,-1.025630,1.496920,-1.025000,1.498810,-1.025000,1.525000,
-0.998810,1.525000,-0.996920,1.525630,-0.995236,1.526472,-0.994581,1.526743,-0.991581,1.527743,-0.990000,1.528000,-0.988810,1.528000,-0.986581,1.528743,-0.985000,1.529000,-0.983810,1.529000,-0.981581,1.529743,-0.980000,1.530000,-0.380000,1.530000,-0.380000,2.405000,-0.379743,2.406581,-0.379000,2.408810,-0.379000,2.410000,-0.378743,2.411581,-0.378000,2.413810,-0.378000,2.415000,
-0.377743,2.416581,-0.376743,2.419581,-0.376472,2.420236,-0.375630,2.421920,-0.374743,2.424581,-0.373536,2.426536,-0.372108,2.427964,-0.371472,2.429236,-0.370536,2.430536,-0.369108,2.431964,-0.368472,2.433236,-0.367536,2.434536,-0.359536,2.442536,-0.358236,2.443472,-0.356964,2.444108,-0.355536,2.445536,-0.354236,2.446472,-0.352964,2.447108,-0.351536,2.448536,-0.349581,2.449743,
-0.346920,2.450630,-0.345236,2.451472,-0.344581,2.451743,-0.341581,2.452743,-0.340000,2.453000,-0.338810,2.453000,-0.336581,2.453743,-0.335000,2.454000,-0.333810,2.454000,-0.331581,2.454743,-0.330000,2.455000,-0.220000,2.455000,-0.218419,2.454743,-0.218419,2.454743,$1*%
G04 Aperture macros list end*
%TA.AperFunction,SMDPad,CuDef*%
%ADD10RoundRect,0.150000X-0.825000X-0.150000X0.825000X-0.150000X0.825000X0.150000X-0.825000X0.150000X0*%
%TD*%
%TA.AperFunction,SMDPad,CuDef*%
%ADD11RoundRect,0.125000X-0.537500X-0.125000X0.537500X-0.125000X0.537500X0.125000X-0.537500X0.125000X0*%
%TD*%
%TA.AperFunction,SMDPad,CuDef*%
%ADD12RoundRect,0.050400X-0.069600X-0.249600X0.069600X-0.249600X0.069600X0.249600X-0.069600X0.249600X0*%
%TD*%
%TA.AperFunction,SMDPad,CuDef*%
%ADD13RoundRect,0.050400X-0.249600X-0.069600X0.249600X-0.069600X0.249600X0.069600X-0.249600X0.069600X0*%
%TD*%
%TA.AperFunction,SMDPad,CuDef*%
%ADD14FreePoly0,0.000000*%
%TD*%
%TA.AperFunction,ComponentPad*%
%ADD15C,0.300000*%
%TD*%
%TA.AperFunction,SMDPad,CuDef*%
%ADD16R,0.650000X0.350000*%
%TD*%
%TA.AperFunction,SMDPad,CuDef*%
%ADD17R,1.000000X1.600000*%
%TD*%
%TA.AperFunction,SMDPad,CuDef*%
%ADD18RoundRect,0.100000X-0.687500X-0.100000X0.687500X-0.100000X0.687500X0.100000X-0.687500X0.100000X0*%
%TD*%
%TA.AperFunction,HeatsinkPad*%
%ADD19C,0.500000*%
%TD*%
%TA.AperFunction,HeatsinkPad*%
%ADD20R,3.400000X5.000000*%
%TD*%
%TA.AperFunction,HeatsinkPad*%
%ADD21R,2.410000X3.300000*%
%TD*%
%TA.AperFunction,SMDPad,CuDef*%
%ADD22R,1.500000X1.500000*%
%TD*%
%TA.AperFunction,ComponentPad*%
%ADD23RoundRect,0.249999X-1.025001X-1.025001X1.025001X-1.025001X1.025001X1.025001X-1.025001X1.025001X0*%
%TD*%
%TA.AperFunction,ComponentPad*%
%ADD24C,2.550000*%
%TD*%
%TA.AperFunction,SMDPad,CuDef*%
%ADD25RoundRect,0.250000X-0.262500X-0.450000X0.262500X-0.450000X0.262500X0.450000X-0.262500X0.450000X0*%
%TD*%
%TA.AperFunction,SMDPad,CuDef*%
%ADD26RoundRect,0.200000X-0.200000X-0.275000X0.200000X-0.275000X0.200000X0.275000X-0.200000X0.275000X0*%
%TD*%
%TA.AperFunction,SMDPad,CuDef*%
%ADD27RoundRect,0.250000X-0.400000X-0.625000X0.400000X-0.625000X0.400000X0.625000X-0.400000X0.625000X0*%
%TD*%
%TA.AperFunction,SMDPad,CuDef*%
%ADD28RoundRect,0.250000X-0.350000X-0.450000X0.350000X-0.450000X0.350000X0.450000X-0.350000X0.450000X0*%
%TD*%
%TA.AperFunction,SMDPad,CuDef*%
%ADD29RoundRect,0.150000X-0.587500X-0.150000X0.587500X-0.150000X0.587500X0.150000X-0.587500X0.150000X0*%
%TD*%
%TA.AperFunction,SMDPad,CuDef*%
%ADD30RoundRect,0.150000X-0.512500X-0.150000X0.512500X-0.150000X0.512500X0.150000X-0.512500X0.150000X0*%
%TD*%
%TA.AperFunction,SMDPad,CuDef*%
%ADD31RoundRect,0.218750X-0.218750X-0.256250X0.218750X-0.256250X0.218750X0.256250X-0.218750X0.256250X0*%
%TD*%
%TA.AperFunction,SMDPad,CuDef*%
%ADD32RoundRect,0.218750X-0.218750X-0.381250X0.218750X-0.381250X0.218750X0.381250X-0.218750X0.381250X0*%
%TD*%
%TA.AperFunction,ComponentPad*%
%ADD33RoundRect,0.250000X-0.350000X-0.625000X0.350000X-0.625000X0.350000X0.625000X-0.350000X0.625000X0*%
%TD*%
%TA.AperFunction,ComponentPad*%
%ADD34O,1.200000X1.750000*%
%TD*%
%TA.AperFunction,SMDPad,CuDef*%
%ADD35R,0.600000X1.450000*%
%TD*%
%TA.AperFunction,SMDPad,CuDef*%
%ADD36R,0.300000X1.450000*%
%TD*%
%TA.AperFunction,HeatsinkPad*%
%ADD37O,1.000000X2.100000*%
%TD*%
%TA.AperFunction,HeatsinkPad*%
%ADD38O,1.000000X1.600000*%
%TD*%
%TA.AperFunction,ComponentPad*%
%ADD39R,1.700000X1.700000*%
%TD*%
%TA.AperFunction,ComponentPad*%
%ADD40O,1.700000X1.700000*%
%TD*%
%TA.AperFunction,SMDPad,CuDef*%
%ADD41RoundRect,0.250000X-1.000000X-0.650000X1.000000X-0.650000X1.000000X0.650000X-1.000000X0.650000X0*%
%TD*%
%TA.AperFunction,SMDPad,CuDef*%
%ADD42RoundRect,0.250000X-0.250000X-0.475000X0.250000X-0.475000X0.250000X0.475000X-0.250000X0.475000X0*%
%TD*%
%TA.AperFunction,SMDPad,CuDef*%
%ADD43RoundRect,0.225000X-0.225000X-0.250000X0.225000X-0.250000X0.225000X0.250000X-0.225000X0.250000X0*%
%TD*%
%TA.AperFunction,SMDPad,CuDef*%
%ADD44RoundRect,0.250000X-0.325000X-0.650000X0.325000X-0.650000X0.325000X0.650000X-0.325000X0.650000X0*%
%TD*%
%TA.AperFunction,SMDPad,CuDef*%
%ADD45RoundRect,0.250000X-0.325000X-1.100000X0.325000X-1.100000X0.325000X1.100000X-0.325000X1.100000X0*%
%TD*%
G04 APERTURE END LIST*
D10*
%TO.P,U8,1,VIN*%
%TO.N,/9V_INPUT*%
X25130000Y-45630000D03*
%TO.P,U8,2,OUT*%
%TO.N,Net-(D4-K)*%
X25130000Y-46900000D03*
%TO.P,U8,3,FB*%
%TO.N,/5V_BAT_CHARGE*%
X25130000Y-48170000D03*
%TO.P,U8,4,~{EN}*%
%TO.N,GND*%
X25130000Y-49440000D03*
%TO.P,U8,5,GND*%
X30080000Y-49440000D03*
%TO.P,U8,6,GND*%
X30080000Y-48170000D03*
%TO.P,U8,7,GND*%
X30080000Y-46900000D03*
%TO.P,U8,8,GND*%
X30080000Y-45630000D03*
%TD*%
%TO.P,U7,1,VIN*%
%TO.N,/5V_OUT*%
X25130000Y-39050000D03*
%TO.P,U7,2,OUT*%
%TO.N,Net-(D3-K)*%
X25130000Y-40320000D03*
%TO.P,U7,3,FB*%
%TO.N,/3.3V_OUT*%
X25130000Y-41590000D03*
%TO.P,U7,4,~{EN}*%
%TO.N,GND*%
X25130000Y-42860000D03*
%TO.P,U7,5,GND*%
X30080000Y-42860000D03*
%TO.P,U7,6,GND*%
X30080000Y-41590000D03*
%TO.P,U7,7,GND*%
X30080000Y-40320000D03*
%TO.P,U7,8,GND*%
X30080000Y-39050000D03*
%TD*%
D11*
%TO.P,U6,1,IN+*%
%TO.N,/BATTERY*%
X53797500Y-49700000D03*
%TO.P,U6,2,IN-*%
%TO.N,/SWITCH_OUT*%
X53797500Y-50350000D03*
%TO.P,U6,3,GND*%
%TO.N,GND*%
X53797500Y-51000000D03*
%TO.P,U6,4,VS*%
%TO.N,Net-(U6-VS)*%
X53797500Y-51650000D03*
%TO.P,U6,5,SCL*%
%TO.N,Net-(U6-SCL)*%
X56072500Y-51650000D03*
%TO.P,U6,6,SDA*%
%TO.N,Net-(U6-SDA)*%
X56072500Y-51000000D03*
%TO.P,U6,7,A0*%
%TO.N,GND*%
X56072500Y-50350000D03*
%TO.P,U6,8,A1*%
%TO.N,/3.3V_OUT*%
X56072500Y-49700000D03*
%TD*%
D12*
%TO.P,U5,1,VCC*%
%TO.N,GND*%
X47345000Y-9880000D03*
%TO.P,U5,20,AGND*%
X48845000Y-9880000D03*
%TO.P,U5,10,SS*%
%TO.N,Net-(U5-SS)*%
X47345000Y-14180000D03*
%TO.P,U5,11,NC_11*%
%TO.N,unconnected-(U5-NC_11-Pad11)*%
X48845000Y-14180000D03*
D13*
%TO.P,U5,5,SW_4*%
%TO.N,/BOOT*%
X46445000Y-11780000D03*
%TO.P,U5,6,SW_5*%
%TO.N,unconnected-(U5-SW_5-Pad6)*%
X46445000Y-12280000D03*
%TO.P,U5,7,SW_6*%
%TO.N,unconnected-(U5-SW_6-Pad7)*%
X46445000Y-12780000D03*
%TO.P,U5,8,BOOT*%
%TO.N,Net-(U5-BOOT)*%
X46445000Y-13280000D03*
%TO.P,U5,9,VIN*%
%TO.N,/SWITCH_OUT*%
X46445000Y-13780000D03*
%TO.P,U5,4,SW_7*%
%TO.N,unconnected-(U5-SW_7-Pad4)*%
X46445000Y-11280000D03*
%TO.P,U5,3,FSW*%
%TO.N,Net-(U5-FSW)*%
X46445000Y-10780000D03*
%TO.P,U5,2,EN*%
%TO.N,/BATTERY*%
X46445000Y-10280000D03*
%TO.P,U5,16,VOUT_15*%
%TO.N,unconnected-(U5-VOUT_15-Pad16)*%
X49745000Y-11780000D03*
%TO.P,U5,15,VOUT_14*%
%TO.N,/5V_OUT*%
X49745000Y-12280000D03*
%TO.P,U5,14,VOUT_16*%
%TO.N,unconnected-(U5-VOUT_16-Pad14)*%
X49745000Y-12780000D03*
%TO.P,U5,13,MODE*%
%TO.N,unconnected-(U5-MODE-Pad13)*%
X49745000Y-13280000D03*
%TO.P,U5,12,NC_12*%
%TO.N,unconnected-(U5-NC_12-Pad12)*%
X49745000Y-13780000D03*
%TO.P,U5,17,FB*%
%TO.N,/FB*%
X49745000Y-11280000D03*
%TO.P,U5,18,COMP*%
%TO.N,Net-(U5-COMP)*%
X49745000Y-10780000D03*
%TO.P,U5,19,ILIM*%
%TO.N,Net-(U5-ILIM)*%
X49745000Y-10280000D03*
D14*
%TO.P,U5,21,PGND*%
%TO.N,GND*%
X48095000Y-12030000D03*
D15*
%TO.P,U5,27,PGND*%
X48095000Y-12555000D03*
%TO.P,U5,26,PGND*%
X47320000Y-12555000D03*
%TO.P,U5,28,PGND*%
X48870000Y-12555000D03*
%TO.P,U5,24,PGND*%
X48095000Y-11505000D03*
%TO.P,U5,23,PGND*%
X47320000Y-11505000D03*
%TO.P,U5,25,PGND*%
X48870000Y-11505000D03*
%TO.P,U5,29,PGND*%
X48095000Y-13305000D03*
%TO.P,U5,22,PGND*%
X48095000Y-10755000D03*
%TD*%
D16*
%TO.P,U4,1,CC1*%
%TO.N,Net-(J2-CC1)*%
X58860000Y-49500000D03*
%TO.P,U4,2,VBUS*%
%TO.N,/HV (9V)*%
X58860000Y-50150000D03*
%TO.P,U4,3,VSET*%
%TO.N,Net-(U4-VSET)*%
X58860000Y-50800000D03*
%TO.P,U4,4,D+*%
%TO.N,Net-(J2-DP1)*%
X60960000Y-50800000D03*
%TO.P,U4,5,D-*%
%TO.N,Net-(J2-DN1)*%
X60960000Y-50150000D03*
%TO.P,U4,6,CC2*%
%TO.N,Net-(J2-CC2)*%
X60960000Y-49500000D03*
D17*
%TO.P,U4,7,GND*%
%TO.N,GND*%
X59910000Y-50150000D03*
%TD*%
D18*
%TO.P,U3,1,nSLEEP*%
%TO.N,/5V Out *%
X44197500Y-23955000D03*
%TO.P,U3,2,AOUT1*%
%TO.N,/MOTOR3_A_OUT*%
X44197500Y-24605000D03*
%TO.P,U3,3,AISEN*%
%TO.N,Net-(U3-AISEN)*%
X44197500Y-25255000D03*
%TO.P,U3,4,AOUT2*%
%TO.N,/MOTOR3_B_OUT*%
X44197500Y-25905000D03*
%TO.P,U3,5,BOUT2*%
%TO.N,/MOTOR4_B_OUT*%
X44197500Y-26555000D03*
%TO.P,U3,6,BISEN*%
%TO.N,Net-(U3-BISEN)*%
X44197500Y-27205000D03*
%TO.P,U3,7,BOUT1*%
%TO.N,/MOTOR4_A_OUT*%
X44197500Y-27855000D03*
%TO.P,U3,8,nFAULT*%
%TO.N,Net-(U3-nFAULT)*%
X44197500Y-28505000D03*
%TO.P,U3,9,BIN1*%
%TO.N,/MOTOR4_CTRL1*%
X49922500Y-28505000D03*
%TO.P,U3,10,BIN2*%
%TO.N,/MOTOR4_CTRL2*%
X49922500Y-27855000D03*
%TO.P,U3,11,VCP*%
%TO.N,Net-(U3-VCP)*%
X49922500Y-27205000D03*
%TO.P,U3,12,VM*%
%TO.N,/5V Out *%
X49922500Y-26555000D03*
%TO.P,U3,13,GND*%
%TO.N,GND*%
X49922500Y-25905000D03*
%TO.P,U3,14,VINT*%
%TO.N,Net-(U3-VINT)*%
X49922500Y-25255000D03*
%TO.P,U3,15,AIN2*%
%TO.N,/MOTOR3_CTRL2*%
X49922500Y-24605000D03*
%TO.P,U3,16,AIN1*%
%TO.N,/MOTOR3_CTRL1*%
X49922500Y-23955000D03*
D19*
%TO.P,U3,17,GND(PPAD)*%
%TO.N,GND*%
X46310000Y-24730000D03*
X46310000Y-26230000D03*
X46310000Y-27730000D03*
D20*
X47060000Y-26230000D03*
D19*
X47810000Y-24730000D03*
X47810000Y-26230000D03*
X47810000Y-27730000D03*
%TD*%
D18*
%TO.P,U2,1,nSLEEP*%
%TO.N,/5V Out *%
X44197500Y-17315000D03*
%TO.P,U2,2,AOUT1*%
%TO.N,/MOTOR1_A_OUT*%
X44197500Y-17965000D03*
%TO.P,U2,3,AISEN*%
%TO.N,Net-(U2-AISEN)*%
X44197500Y-18615000D03*
%TO.P,U2,4,AOUT2*%
%TO.N,/MOTOR1_B_OUT*%
X44197500Y-19265000D03*
%TO.P,U2,5,BOUT2*%
%TO.N,/MOTOR2_B_OUT*%
X44197500Y-19915000D03*
%TO.P,U2,6,BISEN*%
%TO.N,Net-(U2-BISEN)*%
X44197500Y-20565000D03*
%TO.P,U2,7,BOUT1*%
%TO.N,/MOTOR2_A_OUT*%
X44197500Y-21215000D03*
%TO.P,U2,8,nFAULT*%
%TO.N,Net-(U2-nFAULT)*%
X44197500Y-21865000D03*
%TO.P,U2,9,BIN1*%
%TO.N,/MOTOR2_CTRL1*%
X49922500Y-21865000D03*
%TO.P,U2,10,BIN2*%
%TO.N,/MOTOR2_CTRL2*%
X49922500Y-21215000D03*
%TO.P,U2,11,VCP*%
%TO.N,Net-(U2-VCP)*%
X49922500Y-20565000D03*
%TO.P,U2,12,VM*%
%TO.N,/5V Out *%
X49922500Y-19915000D03*
%TO.P,U2,13,GND*%
%TO.N,GND*%
X49922500Y-19265000D03*
%TO.P,U2,14,VINT*%
%TO.N,Net-(U2-VINT)*%
X49922500Y-18615000D03*
%TO.P,U2,15,AIN2*%
%TO.N,/MOTOR1_CTRL2*%
X49922500Y-17965000D03*
%TO.P,U2,16,AIN1*%
%TO.N,/MOTOR1_CTRL1*%
X49922500Y-17315000D03*
D19*
%TO.P,U2,17,GND(PPAD)*%
%TO.N,GND*%
X46310000Y-18090000D03*
X46310000Y-19590000D03*
X46310000Y-21090000D03*
D20*
X47060000Y-19590000D03*
D19*
X47810000Y-18090000D03*
X47810000Y-19590000D03*
X47810000Y-21090000D03*
%TD*%
D10*
%TO.P,U1,1,TEMP*%
%TO.N,GND*%
X25130000Y-32470000D03*
%TO.P,U1,2,PROG*%
%TO.N,Net-(U1-PROG)*%
X25130000Y-33740000D03*
%TO.P,U1,3,GND*%
%TO.N,GND*%
X25130000Y-35010000D03*
%TO.P,U1,4,V_{CC}*%
%TO.N,Net-(U1-CE)*%
X25130000Y-36280000D03*
%TO.P,U1,5,BAT*%
%TO.N,/BATTERY*%
X30080000Y-36280000D03*
%TO.P,U1,6,~{STDBY}*%
%TO.N,GND*%
X30080000Y-35010000D03*
%TO.P,U1,7,~{CHRG}*%
X30080000Y-33740000D03*
%TO.P,U1,8,CE*%
%TO.N,Net-(U1-CE)*%
X30080000Y-32470000D03*
D19*
%TO.P,U1,9,EPAD*%
%TO.N,GND*%
X26905000Y-33175000D03*
X26905000Y-34375000D03*
X26905000Y-35575000D03*
D21*
X27605000Y-34375000D03*
D19*
X28305000Y-33175000D03*
X28305000Y-34375000D03*
X28305000Y-35575000D03*
%TD*%
D22*
%TO.P,TP5,1,1*%
%TO.N,/HV (9V)*%
X33605000Y-46995000D03*
%TD*%
%TO.P,TP4,1,1*%
%TO.N,Net-(U3-nFAULT)*%
X33605000Y-43445000D03*
%TD*%
%TO.P,TP3,1,1*%
%TO.N,Net-(U2-nFAULT)*%
X33605000Y-39895000D03*
%TD*%
%TO.P,TP2,1,1*%
%TO.N,Net-(Q4-D)*%
X33605000Y-36345000D03*
%TD*%
%TO.P,TP1,1,1*%
%TO.N,Net-(Q2-G)*%
X33605000Y-32795000D03*
%TD*%
D23*
%TO.P,SW1,1,A*%
%TO.N,unconnected-(SW1-A-Pad1)*%
X41845000Y-6025000D03*
D24*
%TO.P,SW1,2,B*%
%TO.N,/BATTERY*%
X46645000Y-6025000D03*
%TO.P,SW1,3,C*%
%TO.N,/SWITCH_OUT*%
X51445000Y-6025000D03*
%TD*%
D25*
%TO.P,R_{SHUNT}1,1*%
%TO.N,/SWITCH_OUT*%
X33492500Y-23645000D03*
%TO.P,R_{SHUNT}1,2*%
%TO.N,/BATTERY*%
X35317500Y-23645000D03*
%TD*%
%TO.P,R_{SDA}1,1*%
%TO.N,/I2C1_SDA*%
X33492500Y-20695000D03*
%TO.P,R_{SDA}1,2*%
%TO.N,Net-(U6-SDA)*%
X35317500Y-20695000D03*
%TD*%
%TO.P,R_{SCL}1,1*%
%TO.N,Net-(U6-SCL)*%
X33492500Y-17745000D03*
%TO.P,R_{SCL}1,2*%
%TO.N,/I2C1_SCL*%
X35317500Y-17745000D03*
%TD*%
D26*
%TO.P,R_{PULL_DOWN}1,1*%
%TO.N,Net-(Q1-G)*%
X36590000Y-15015000D03*
%TO.P,R_{PULL_DOWN}1,2*%
%TO.N,GND*%
X38240000Y-15015000D03*
%TD*%
%TO.P,R_{PROG}2,1*%
%TO.N,Net-(U1-PROG)*%
X36590000Y-12505000D03*
%TO.P,R_{PROG}2,2*%
%TO.N,Net-(Q1-D)*%
X38240000Y-12505000D03*
%TD*%
%TO.P,R_{PROG}1,1*%
%TO.N,Net-(U1-PROG)*%
X36590000Y-9995000D03*
%TO.P,R_{PROG}1,2*%
%TO.N,GND*%
X38240000Y-9995000D03*
%TD*%
%TO.P,R_{LIMIT}1,1*%
%TO.N,/FAST_CHARGE_CTRL*%
X36590000Y-7485000D03*
%TO.P,R_{LIMIT}1,2*%
%TO.N,Net-(Q1-G)*%
X38240000Y-7485000D03*
%TD*%
D25*
%TO.P,R_{ILIM}1,1*%
%TO.N,Net-(U5-ILIM)*%
X29082500Y-29545000D03*
%TO.P,R_{ILIM}1,2*%
%TO.N,GND*%
X30907500Y-29545000D03*
%TD*%
%TO.P,R_{FSW}2,1*%
%TO.N,Net-(R_{FSW}1-Pad2)*%
X29082500Y-26595000D03*
%TO.P,R_{FSW}2,2*%
%TO.N,Net-(U5-FSW)*%
X30907500Y-26595000D03*
%TD*%
%TO.P,R_{FSW}1,1*%
%TO.N,/BOOT*%
X29082500Y-23645000D03*
%TO.P,R_{FSW}1,2*%
%TO.N,Net-(R_{FSW}1-Pad2)*%
X30907500Y-23645000D03*
%TD*%
%TO.P,R_{FB}2,1*%
%TO.N,GND*%
X29082500Y-20695000D03*
%TO.P,R_{FB}2,2*%
%TO.N,/FB*%
X30907500Y-20695000D03*
%TD*%
%TO.P,R_{FB}1,1*%
%TO.N,/FB*%
X29082500Y-17745000D03*
%TO.P,R_{FB}1,2*%
%TO.N,/5V_OUT*%
X30907500Y-17745000D03*
%TD*%
%TO.P,R_{COMP}1,1*%
%TO.N,Net-(U5-COMP)*%
X24672500Y-29545000D03*
%TO.P,R_{COMP}1,2*%
%TO.N,Net-(C_{COMP}1-Pad1)*%
X26497500Y-29545000D03*
%TD*%
D26*
%TO.P,R9,1*%
%TO.N,Net-(U4-VSET)*%
X36590000Y-4975000D03*
%TO.P,R9,2*%
%TO.N,GND*%
X38240000Y-4975000D03*
%TD*%
D27*
%TO.P,R8,1*%
%TO.N,GND*%
X40845000Y-13265000D03*
%TO.P,R8,2*%
%TO.N,Net-(U3-BISEN)*%
X43945000Y-13265000D03*
%TD*%
%TO.P,R7,1*%
%TO.N,GND*%
X40845000Y-9975000D03*
%TO.P,R7,2*%
%TO.N,Net-(U3-AISEN)*%
X43945000Y-9975000D03*
%TD*%
D28*
%TO.P,R6,1*%
%TO.N,GND*%
X48085000Y-50975000D03*
%TO.P,R6,2*%
%TO.N,Net-(U2-BISEN)*%
X50085000Y-50975000D03*
%TD*%
%TO.P,R5,1*%
%TO.N,GND*%
X48085000Y-48025000D03*
%TO.P,R5,2*%
%TO.N,Net-(U2-AISEN)*%
X50085000Y-48025000D03*
%TD*%
D25*
%TO.P,R4,1*%
%TO.N,/5V Out *%
X24672500Y-26595000D03*
%TO.P,R4,2*%
%TO.N,Net-(Q4-D)*%
X26497500Y-26595000D03*
%TD*%
%TO.P,R3,1*%
%TO.N,/CTRL_EXT_LOAD2*%
X24672500Y-23645000D03*
%TO.P,R3,2*%
%TO.N,Net-(Q4-G)*%
X26497500Y-23645000D03*
%TD*%
%TO.P,R2,1*%
%TO.N,/CTRL_EXT_LOAD1*%
X24672500Y-20695000D03*
%TO.P,R2,2*%
%TO.N,Net-(Q3-G)*%
X26497500Y-20695000D03*
%TD*%
%TO.P,R1,1*%
%TO.N,/5V Out *%
X24672500Y-17745000D03*
%TO.P,R1,2*%
%TO.N,Net-(Q2-G)*%
X26497500Y-17745000D03*
%TD*%
D29*
%TO.P,Q5,1,G*%
%TO.N,Net-(Q4-D)*%
X38117500Y-50420000D03*
%TO.P,Q5,2,S*%
%TO.N,/EXT_LOAD2_OUT*%
X38117500Y-52320000D03*
%TO.P,Q5,3,D*%
%TO.N,/5V Out *%
X39992500Y-51370000D03*
%TD*%
D30*
%TO.P,Q4,1,G*%
%TO.N,Net-(Q4-G)*%
X55307500Y-9795000D03*
%TO.P,Q4,2,S*%
%TO.N,GND*%
X55307500Y-11695000D03*
%TO.P,Q4,3,D*%
%TO.N,Net-(Q4-D)*%
X57582500Y-10745000D03*
%TD*%
%TO.P,Q3,1,G*%
%TO.N,Net-(Q3-G)*%
X55307500Y-5170000D03*
%TO.P,Q3,2,S*%
%TO.N,GND*%
X55307500Y-7070000D03*
%TO.P,Q3,3,D*%
%TO.N,Net-(Q2-G)*%
X57582500Y-6120000D03*
%TD*%
D29*
%TO.P,Q2,1,G*%
%TO.N,Net-(Q2-G)*%
X38117500Y-45795000D03*
%TO.P,Q2,2,S*%
%TO.N,/EXT_LOAD1_OUT*%
X38117500Y-47695000D03*
%TO.P,Q2,3,D*%
%TO.N,/5V Out *%
X39992500Y-46745000D03*
%TD*%
%TO.P,Q1,1,G*%
%TO.N,Net-(Q1-G)*%
X38117500Y-41170000D03*
%TO.P,Q1,2,S*%
%TO.N,GND*%
X38117500Y-43070000D03*
%TO.P,Q1,3,D*%
%TO.N,Net-(Q1-D)*%
X39992500Y-42120000D03*
%TD*%
D31*
%TO.P,L4,1,1*%
%TO.N,Net-(D4-K)*%
X32617500Y-15015000D03*
%TO.P,L4,2,2*%
%TO.N,/5V_BAT_CHARGE*%
X34192500Y-15015000D03*
%TD*%
%TO.P,L2,1,1*%
%TO.N,Net-(D3-K)*%
X32617500Y-12505000D03*
%TO.P,L2,2,2*%
%TO.N,/3.3V_OUT*%
X34192500Y-12505000D03*
%TD*%
D32*
%TO.P,L1,1,1*%
%TO.N,/SWITCH_OUT*%
X33042500Y-50145000D03*
%TO.P,L1,2,2*%
%TO.N,/BOOT*%
X35167500Y-50145000D03*
%TD*%
D33*
%TO.P,J3,1,Pin_1*%
%TO.N,GND*%
X55335000Y-31925000D03*
D34*
%TO.P,J3,2,Pin_2*%
%TO.N,/BATTERY*%
X57335000Y-31925000D03*
%TD*%
D35*
%TO.P,J2,A1,GND*%
%TO.N,GND*%
X54075000Y-18020000D03*
%TO.P,J2,A4,VBUS*%
%TO.N,/HV (9V)*%
X54875000Y-18020000D03*
D36*
%TO.P,J2,A5,CC1*%
%TO.N,Net-(J2-CC1)*%
X56075000Y-18020000D03*
%TO.P,J2,A6,DP1*%
%TO.N,Net-(J2-DP1)*%
X57075000Y-18020000D03*
%TO.P,J2,A7,DN1*%
%TO.N,Net-(J2-DN1)*%
X57575000Y-18020000D03*
%TO.P,J2,A8,SBU1*%
%TO.N,unconnected-(J2-SBU1-PadA8)*%
X58575000Y-18020000D03*
D35*
%TO.P,J2,A9,VBUS*%
%TO.N,/HV (9V)*%
X59775000Y-18020000D03*
%TO.P,J2,A12,GND*%
%TO.N,GND*%
X60575000Y-18020000D03*
%TO.P,J2,B1,GND*%
X60575000Y-18020000D03*
%TO.P,J2,B4,VBUS*%
%TO.N,/HV (9V)*%
X59775000Y-18020000D03*
D36*
%TO.P,J2,B5,CC2*%
%TO.N,Net-(J2-CC2)*%
X59075000Y-18020000D03*
%TO.P,J2,B6,DP2*%
%TO.N,Net-(J2-DP1)*%
X58075000Y-18020000D03*
%TO.P,J2,B7,DN2*%
%TO.N,Net-(J2-DN1)*%
X56575000Y-18020000D03*
%TO.P,J2,B8,SBU2*%
%TO.N,unconnected-(J2-SBU2-PadB8)*%
X55575000Y-18020000D03*
D35*
%TO.P,J2,B9,VBUS*%
%TO.N,/HV (9V)*%
X54875000Y-18020000D03*
%TO.P,J2,B12,GND*%
%TO.N,GND*%
X54075000Y-18020000D03*
D37*
%TO.P,J2,S1,SHIELD*%
X53005000Y-18935000D03*
D38*
X53005000Y-23115000D03*
D37*
X61645000Y-18935000D03*
D38*
X61645000Y-23115000D03*
%TD*%
D39*
%TO.P,J1,1,Pin_1*%
%TO.N,/Motor2_B_OUT*%
X2540000Y-10160000D03*
D40*
%TO.P,J1,2,Pin_2*%
%TO.N,/Motor2_A_OUT*%
X5080000Y-10160000D03*
%TO.P,J1,3,Pin_3*%
%TO.N,/Motor4_A_OUT*%
X2540000Y-12700000D03*
%TO.P,J1,4,Pin_4*%
%TO.N,/MOTOR2_CTRL1*%
X5080000Y-12700000D03*
%TO.P,J1,5,Pin_5*%
%TO.N,/Motor4_B_OUT*%
X2540000Y-15240000D03*
%TO.P,J1,6,Pin_6*%
%TO.N,/MOTOR2_CTRL2*%
X5080000Y-15240000D03*
%TO.P,J1,7,Pin_7*%
%TO.N,/CTRL_EXT_LOAD2*%
X2540000Y-17780000D03*
%TO.P,J1,8,Pin_8*%
%TO.N,/MOTOR4_CTRL1*%
X5080000Y-17780000D03*
%TO.P,J1,9,Pin_9*%
%TO.N,unconnected-(J1-Pin_9-Pad9)*%
X2540000Y-20320000D03*
%TO.P,J1,10,Pin_10*%
%TO.N,/MOTOR4_CTRL2*%
X5080000Y-20320000D03*
%TO.P,J1,11,Pin_11*%
%TO.N,/EXT_LOAD2_OUT*%
X2540000Y-22860000D03*
%TO.P,J1,12,Pin_12*%
%TO.N,/USART2_TX *%
X5080000Y-22860000D03*
%TO.P,J1,13,Pin_13*%
%TO.N,/FAST_CHARGE_CTRL *%
X2540000Y-25400000D03*
%TO.P,J1,14,Pin_14*%
%TO.N,/Battery *%
X5080000Y-25400000D03*
%TO.P,J1,15,Pin_15*%
%TO.N,unconnected-(J1-Pin_15-Pad15)*%
X2540000Y-27940000D03*
%TO.P,J1,16,Pin_16*%
%TO.N,/I2C1_SCL *%
X5080000Y-27940000D03*
%TO.P,J1,17,Pin_17*%
%TO.N,/I2C1_SDA *%
X2540000Y-30480000D03*
%TO.P,J1,18,Pin_18*%
%TO.N,/3V3 Out *%
X5080000Y-30480000D03*
%TO.P,J1,19,Pin_19*%
%TO.N,unconnected-(J1-Pin_19-Pad19)*%
X2540000Y-33020000D03*
%TO.P,J1,20,Pin_20*%
%TO.N,/5V Out *%
X5080000Y-33020000D03*
%TO.P,J1,21,Pin_21*%
%TO.N,/EXT_LOAD1_OUT*%
X2540000Y-35560000D03*
%TO.P,J1,22,Pin_22*%
%TO.N,/HV (9V)*%
X5080000Y-35560000D03*
%TO.P,J1,23,Pin_23*%
%TO.N,unconnected-(J1-Pin_23-Pad23)*%
X2540000Y-38100000D03*
%TO.P,J1,24,Pin_24*%
%TO.N,/MOTOR3_CTRL1*%
X5080000Y-38100000D03*
%TO.P,J1,25,Pin_25*%
%TO.N,/CTRL_EXT_LOAD1*%
X2540000Y-40640000D03*
%TO.P,J1,26,Pin_26*%
%TO.N,/MOTOR3_CTRL2*%
X5080000Y-40640000D03*
%TO.P,J1,27,Pin_27*%
%TO.N,/MOTOR3_A_OUT*%
X2540000Y-43180000D03*
%TO.P,J1,28,Pin_28*%
%TO.N,/MOTOR1_CTRL1*%
X5080000Y-43180000D03*
%TO.P,J1,29,Pin_29*%
%TO.N,/MOTOR3_B_OUT*%
X2540000Y-45720000D03*
%TO.P,J1,30,Pin_30*%
%TO.N,/MOTOR1_CTRL2*%
X5080000Y-45720000D03*
%TO.P,J1,31,Pin_31*%
%TO.N,/MOTOR1_B_OUT*%
X2540000Y-48260000D03*
%TO.P,J1,32,Pin_32*%
%TO.N,/MOTOR1_A_OUT *%
X5080000Y-48260000D03*
%TD*%
D41*
%TO.P,D4,1,K*%
%TO.N,Net-(D4-K)*%
X54430000Y-46025000D03*
%TO.P,D4,2,A*%
%TO.N,GND*%
X58430000Y-46025000D03*
%TD*%
%TO.P,D3,1,K*%
%TO.N,Net-(D3-K)*%
X54430000Y-41475000D03*
%TO.P,D3,2,A*%
%TO.N,GND*%
X58430000Y-41475000D03*
%TD*%
D42*
%TO.P,C_{SS}1,1*%
%TO.N,Net-(U5-SS)*%
X43535000Y-52125000D03*
%TO.P,C_{SS}1,2*%
%TO.N,GND*%
X45435000Y-52125000D03*
%TD*%
D43*
%TO.P,C_{OUT}6,1*%
%TO.N,/5V_OUT*%
X32630000Y-9995000D03*
%TO.P,C_{OUT}6,2*%
%TO.N,GND*%
X34180000Y-9995000D03*
%TD*%
%TO.P,C_{OUT}5,1*%
%TO.N,/5V_OUT*%
X32630000Y-7485000D03*
%TO.P,C_{OUT}5,2*%
%TO.N,GND*%
X34180000Y-7485000D03*
%TD*%
%TO.P,C_{OUT}4,1*%
%TO.N,/5V_OUT*%
X32630000Y-4975000D03*
%TO.P,C_{OUT}4,2*%
%TO.N,GND*%
X34180000Y-4975000D03*
%TD*%
D44*
%TO.P,C_{OUT}3,1*%
%TO.N,/5V_BAT_CHARGE*%
X37960000Y-38045000D03*
%TO.P,C_{OUT}3,2*%
%TO.N,GND*%
X40910000Y-38045000D03*
%TD*%
D45*
%TO.P,C_{OUT}2,1*%
%TO.N,/5V_BAT_CHARGE*%
X48060000Y-44425000D03*
%TO.P,C_{OUT}2,2*%
%TO.N,GND*%
X51010000Y-44425000D03*
%TD*%
%TO.P,C_{OUT}1,1*%
%TO.N,/5V_BAT_CHARGE*%
X48060000Y-40175000D03*
%TO.P,C_{OUT}1,2*%
%TO.N,GND*%
X51010000Y-40175000D03*
%TD*%
D44*
%TO.P,C_{OUT_3.3}3,1*%
%TO.N,/3.3V_OUT*%
X37960000Y-34695000D03*
%TO.P,C_{OUT_3.3}3,2*%
%TO.N,GND*%
X40910000Y-34695000D03*
%TD*%
%TO.P,C_{OUT_3.3}2,1*%
%TO.N,/3.3V_OUT*%
X37960000Y-31345000D03*
%TO.P,C_{OUT_3.3}2,2*%
%TO.N,GND*%
X40910000Y-31345000D03*
%TD*%
%TO.P,C_{OUT_3.3}1,1*%
%TO.N,/3.3V_OUT*%
X37960000Y-27995000D03*
%TO.P,C_{OUT_3.3}1,2*%
%TO.N,GND*%
X40910000Y-27995000D03*
%TD*%
%TO.P,C_{IN}3,1*%
%TO.N,/9V_INPUT*%
X37960000Y-24645000D03*
%TO.P,C_{IN}3,2*%
%TO.N,GND*%
X40910000Y-24645000D03*
%TD*%
D45*
%TO.P,C_{IN}2,1*%
%TO.N,/9V_INPUT*%
X48060000Y-35925000D03*
%TO.P,C_{IN}2,2*%
%TO.N,GND*%
X51010000Y-35925000D03*
%TD*%
%TO.P,C_{IN}1,1*%
%TO.N,/9V_INPUT*%
X48060000Y-31675000D03*
%TO.P,C_{IN}1,2*%
%TO.N,GND*%
X51010000Y-31675000D03*
%TD*%
D42*
%TO.P,C_{IN_5}1,1*%
%TO.N,GND*%
X43535000Y-49115000D03*
%TO.P,C_{IN_5}1,2*%
%TO.N,/SWITCH_OUT*%
X45435000Y-49115000D03*
%TD*%
D43*
%TO.P,C_{IN_3.3}3,1*%
%TO.N,/5V_OUT*%
X28620000Y-15015000D03*
%TO.P,C_{IN_3.3}3,2*%
%TO.N,GND*%
X30170000Y-15015000D03*
%TD*%
D44*
%TO.P,C_{IN_3.3}2,1*%
%TO.N,/5V_OUT*%
X37960000Y-21295000D03*
%TO.P,C_{IN_3.3}2,2*%
%TO.N,GND*%
X40910000Y-21295000D03*
%TD*%
%TO.P,C_{IN_3.3}1,1*%
%TO.N,/5V_OUT*%
X37960000Y-17945000D03*
%TO.P,C_{IN_3.3}1,2*%
%TO.N,GND*%
X40910000Y-17945000D03*
%TD*%
D42*
%TO.P,C_{COMP}1,1*%
%TO.N,Net-(C_{COMP}1-Pad1)*%
X43535000Y-46105000D03*
%TO.P,C_{COMP}1,2*%
%TO.N,GND*%
X45435000Y-46105000D03*
%TD*%
D43*
%TO.P,C_{CHARGE_OUT}1,1*%
%TO.N,/BATTERY*%
X28620000Y-12505000D03*
%TO.P,C_{CHARGE_OUT}1,2*%
%TO.N,GND*%
X30170000Y-12505000D03*
%TD*%
%TO.P,C_{CHARGE_IN}1,1*%
%TO.N,Net-(U1-CE)*%
X28620000Y-9995000D03*
%TO.P,C_{CHARGE_IN}1,2*%
%TO.N,GND*%
X30170000Y-9995000D03*
%TD*%
D42*
%TO.P,C_{BY}1,1*%
%TO.N,/SWITCH_OUT*%
X43535000Y-43095000D03*
%TO.P,C_{BY}1,2*%
%TO.N,GND*%
X45435000Y-43095000D03*
%TD*%
%TO.P,C_{BYPASS}1,1*%
%TO.N,Net-(U6-VS)*%
X43535000Y-40085000D03*
%TO.P,C_{BYPASS}1,2*%
%TO.N,/3.3V_OUT*%
X45435000Y-40085000D03*
%TD*%
%TO.P,C_{BOOT}1,1*%
%TO.N,Net-(U5-BOOT)*%
X43535000Y-37075000D03*
%TO.P,C_{BOOT}1,2*%
%TO.N,/BOOT*%
X45435000Y-37075000D03*
%TD*%
%TO.P,C_{1}1,1*%
%TO.N,/9V_INPUT*%
X43535000Y-34065000D03*
%TO.P,C_{1}1,2*%
%TO.N,GND*%
X45435000Y-34065000D03*
%TD*%
%TO.P,C10,1*%
%TO.N,/5V_OUT*%
X43535000Y-31055000D03*
%TO.P,C10,2*%
%TO.N,GND*%
X45435000Y-31055000D03*
%TD*%
D43*
%TO.P,C9,1*%
%TO.N,/HV (9V)*%
X28620000Y-7485000D03*
%TO.P,C9,2*%
%TO.N,GND*%
X30170000Y-7485000D03*
%TD*%
%TO.P,C8,1*%
%TO.N,/5V Out *%
X28620000Y-4975000D03*
%TO.P,C8,2*%
%TO.N,GND*%
X30170000Y-4975000D03*
%TD*%
%TO.P,C7,1*%
%TO.N,GND*%
X24610000Y-15015000D03*
%TO.P,C7,2*%
%TO.N,Net-(U3-VINT)*%
X26160000Y-15015000D03*
%TD*%
%TO.P,C6,1*%
%TO.N,/5V Out *%
X24610000Y-12505000D03*
%TO.P,C6,2*%
%TO.N,Net-(U3-VCP)*%
X26160000Y-12505000D03*
%TD*%
%TO.P,C5,1*%
%TO.N,/5V Out *%
X24610000Y-9995000D03*
%TO.P,C5,2*%
%TO.N,Net-(U2-VCP)*%
X26160000Y-9995000D03*
%TD*%
%TO.P,C4,1*%
%TO.N,/5V Out *%
X24610000Y-7485000D03*
%TO.P,C4,2*%
%TO.N,GND*%
X26160000Y-7485000D03*
%TD*%
%TO.P,C3,1*%
%TO.N,GND*%
X24610000Y-4975000D03*
%TO.P,C3,2*%
%TO.N,Net-(U2-VINT)*%
X26160000Y-4975000D03*
%TD*%
M02*
