%TF.GenerationSoftware,KiCad,Pcbnew,9.0.0*%
%TF.CreationDate,2025-03-28T16:41:01+02:00*%
%TF.ProjectId,Micro-Mouse Power Subsystem,4d696372-6f2d-44d6-9f75-736520506f77,rev?*%
%TF.SameCoordinates,Original*%
%TF.FileFunction,Soldermask,Bot*%
%TF.FilePolarity,Negative*%
%FSLAX46Y46*%
G04 Gerber Fmt 4.6, Leading zero omitted, Abs format (unit mm)*
G04 Created by KiCad (PCBNEW 9.0.0) date 2025-03-28 16:41:01*
%MOMM*%
%LPD*%
G01*
G04 APERTURE LIST*
G04 Aperture macros list*
%AMRoundRect*
0 Rectangle with rounded corners*
0 $1 Rounding radius*
0 $2 $3 $4 $5 $6 $7 $8 $9 X,Y pos of 4 corners*
0 Add a 4 corners polygon primitive as box body*
4,1,4,$2,$3,$4,$5,$6,$7,$8,$9,$2,$3,0*
0 Add four circle primitives for the rounded corners*
1,1,$1+$1,$2,$3*
1,1,$1+$1,$4,$5*
1,1,$1+$1,$6,$7*
1,1,$1+$1,$8,$9*
0 Add four rect primitives between the rounded corners*
20,1,$1+$1,$2,$3,$4,$5,0*
20,1,$1+$1,$4,$5,$6,$7,0*
20,1,$1+$1,$6,$7,$8,$9,0*
20,1,$1+$1,$8,$9,$2,$3,0*%
G04 Aperture macros list end*
%ADD10C,0.300000*%
%ADD11RoundRect,0.249999X-1.025001X-1.025001X1.025001X-1.025001X1.025001X1.025001X-1.025001X1.025001X0*%
%ADD12C,2.550000*%
%ADD13RoundRect,0.250000X-0.350000X-0.625000X0.350000X-0.625000X0.350000X0.625000X-0.350000X0.625000X0*%
%ADD14O,1.200000X1.750000*%
%ADD15C,0.650000*%
%ADD16O,1.000000X2.100000*%
%ADD17O,1.000000X1.600000*%
%ADD18R,1.700000X1.700000*%
%ADD19O,1.700000X1.700000*%
G04 APERTURE END LIST*
D10*
%TO.C,U5*%
X48095000Y-12555000D03*
X47320000Y-12555000D03*
X48870000Y-12555000D03*
X48095000Y-11505000D03*
X47320000Y-11505000D03*
X48870000Y-11505000D03*
X48095000Y-13305000D03*
X48095000Y-10755000D03*
%TD*%
D11*
%TO.C,SW1*%
X41845000Y-6025000D03*
D12*
X46645000Y-6025000D03*
X51445000Y-6025000D03*
%TD*%
D13*
%TO.C,J3*%
X55335000Y-31925000D03*
D14*
X57335000Y-31925000D03*
%TD*%
D15*
%TO.C,J2*%
X54435000Y-19465000D03*
X60215000Y-19465000D03*
D16*
X53005000Y-18935000D03*
D17*
X53005000Y-23115000D03*
D16*
X61645000Y-18935000D03*
D17*
X61645000Y-23115000D03*
%TD*%
D18*
%TO.C,J1*%
X2540000Y-10160000D03*
D19*
X5080000Y-10160000D03*
X2540000Y-12700000D03*
X5080000Y-12700000D03*
X2540000Y-15240000D03*
X5080000Y-15240000D03*
X2540000Y-17780000D03*
X5080000Y-17780000D03*
X2540000Y-20320000D03*
X5080000Y-20320000D03*
X2540000Y-22860000D03*
X5080000Y-22860000D03*
X2540000Y-25400000D03*
X5080000Y-25400000D03*
X2540000Y-27940000D03*
X5080000Y-27940000D03*
X2540000Y-30480000D03*
X5080000Y-30480000D03*
X2540000Y-33020000D03*
X5080000Y-33020000D03*
X2540000Y-35560000D03*
X5080000Y-35560000D03*
X2540000Y-38100000D03*
X5080000Y-38100000D03*
X2540000Y-40640000D03*
X5080000Y-40640000D03*
X2540000Y-43180000D03*
X5080000Y-43180000D03*
X2540000Y-45720000D03*
X5080000Y-45720000D03*
X2540000Y-48260000D03*
X5080000Y-48260000D03*
%TD*%
M02*
