%TF.GenerationSoftware,KiCad,Pcbnew,9.0.0*%
%TF.CreationDate,2025-03-28T16:41:01+02:00*%
%TF.ProjectId,Micro-Mouse Power Subsystem,4d696372-6f2d-44d6-9f75-736520506f77,rev?*%
%TF.SameCoordinates,Original*%
%TF.FileFunction,Soldermask,Top*%
%TF.FilePolarity,Negative*%
%FSLAX46Y46*%
G04 Gerber Fmt 4.6, Leading zero omitted, Abs format (unit mm)*
G04 Created by KiCad (PCBNEW 9.0.0) date 2025-03-28 16:41:01*
%MOMM*%
%LPD*%
G01*
G04 APERTURE LIST*
G04 Aperture macros list*
%AMRoundRect*
0 Rectangle with rounded corners*
0 $1 Rounding radius*
0 $2 $3 $4 $5 $6 $7 $8 $9 X,Y pos of 4 corners*
0 Add a 4 corners polygon primitive as box body*
4,1,4,$2,$3,$4,$5,$6,$7,$8,$9,$2,$3,0*
0 Add four circle primitives for the rounded corners*
1,1,$1+$1,$2,$3*
1,1,$1+$1,$4,$5*
1,1,$1+$1,$6,$7*
1,1,$1+$1,$8,$9*
0 Add four rect primitives between the rounded corners*
20,1,$1+$1,$2,$3,$4,$5,0*
20,1,$1+$1,$4,$5,$6,$7,0*
20,1,$1+$1,$6,$7,$8,$9,0*
20,1,$1+$1,$8,$9,$2,$3,0*%
%AMFreePoly0*
4,1,505,-0.203634,2.555678,-0.202053,2.555421,-0.199231,2.554726,-0.198634,2.554678,-0.197053,2.554421,-0.194231,2.553726,-0.193634,2.553678,-0.192053,2.553421,-0.176164,2.549509,-0.173164,2.548509,-0.166423,2.545994,-0.165768,2.545723,-0.159148,2.542704,-0.157464,2.541862,-0.157608,2.541572,-0.146835,2.536534,-0.144880,2.535327,-0.140541,2.531895,-0.136165,2.529249,-0.134865,2.528313,
-0.133109,2.526820,-0.132165,2.526249,-0.130865,2.525313,-0.118339,2.514661,-0.110339,2.506661,-0.099687,2.494135,-0.098751,2.492835,-0.098179,2.491890,-0.096687,2.490135,-0.095751,2.488835,-0.093104,2.484458,-0.089673,2.480120,-0.088466,2.478165,-0.083427,2.467391,-0.083138,2.467536,-0.082296,2.465852,-0.079277,2.459232,-0.079006,2.458577,-0.076491,2.451836,-0.075491,2.448836,
-0.071579,2.432947,-0.071322,2.431366,-0.071273,2.430768,-0.070579,2.427947,-0.070322,2.426366,-0.070273,2.425768,-0.069579,2.422947,-0.069322,2.421366,-0.068000,2.405000,-0.068000,2.032000,0.068000,2.032000,0.068000,2.405000,0.069322,2.421366,0.069579,2.422947,0.070273,2.425768,0.070322,2.426366,0.070579,2.427947,0.071273,2.430768,0.071322,2.431366,0.071579,2.432947,
0.075491,2.448836,0.076491,2.451836,0.079006,2.458577,0.079277,2.459232,0.082296,2.465852,0.083138,2.467536,0.083427,2.467391,0.088466,2.478165,0.089673,2.480120,0.093104,2.484458,0.095751,2.488835,0.096687,2.490135,0.098179,2.491890,0.098751,2.492835,0.099687,2.494135,0.110339,2.506661,0.118339,2.514661,0.130865,2.525313,0.132165,2.526249,0.133109,2.526820,
0.134865,2.528313,0.136165,2.529249,0.140541,2.531895,0.144880,2.535327,0.146835,2.536534,0.157608,2.541572,0.157464,2.541862,0.159148,2.542704,0.165768,2.545723,0.166423,2.545994,0.173164,2.548509,0.176164,2.549509,0.192053,2.553421,0.193634,2.553678,0.194231,2.553726,0.197053,2.554421,0.198634,2.554678,0.199231,2.554726,0.202053,2.555421,0.203634,2.555678,
0.220000,2.557000,0.330000,2.557000,0.346366,2.555678,0.347947,2.555421,0.350768,2.554726,0.351366,2.554678,0.352947,2.554421,0.355768,2.553726,0.356366,2.553678,0.357947,2.553421,0.373836,2.549509,0.376836,2.548509,0.383577,2.545994,0.384232,2.545723,0.390852,2.542704,0.392536,2.541862,0.392391,2.541572,0.403165,2.536534,0.405120,2.535327,0.409458,2.531895,
0.413835,2.529249,0.415135,2.528313,0.416890,2.526820,0.417835,2.526249,0.419135,2.525313,0.431661,2.514661,0.439661,2.506661,0.450313,2.494135,0.451249,2.492835,0.451820,2.491890,0.453313,2.490135,0.454249,2.488835,0.456895,2.484458,0.460327,2.480120,0.461534,2.478165,0.466572,2.467391,0.466862,2.467536,0.467704,2.465852,0.470723,2.459232,0.470994,2.458577,
0.473509,2.451836,0.474509,2.448836,0.478421,2.432947,0.478678,2.431366,0.478726,2.430768,0.479421,2.427947,0.479678,2.426366,0.479726,2.425768,0.480421,2.422947,0.480678,2.421366,0.482000,2.405000,0.482000,1.632000,0.980000,1.632000,0.996366,1.630678,0.997947,1.630421,1.000768,1.629726,1.001366,1.629678,1.002947,1.629421,1.005768,1.628726,1.006366,1.628678,
1.007947,1.628421,1.013719,1.627000,1.025000,1.627000,1.084954,1.607520,1.122008,1.556520,1.127000,1.525000,1.127000,1.513718,1.128421,1.507947,1.128678,1.506366,1.128726,1.505768,1.129421,1.502947,1.129678,1.501366,1.129726,1.500768,1.130421,1.497947,1.130678,1.496366,1.132000,1.480000,1.132000,-1.480000,1.130678,-1.496366,1.130421,-1.497947,1.129726,-1.500768,
1.129678,-1.501366,1.129421,-1.502947,1.128726,-1.505768,1.128678,-1.506366,1.128421,-1.507947,1.127000,-1.513718,1.127000,-1.525000,1.107520,-1.584954,1.056520,-1.622008,1.025000,-1.627000,1.013719,-1.627000,1.007947,-1.628421,1.006366,-1.628678,1.005768,-1.628726,1.002947,-1.629421,1.001366,-1.629678,1.000768,-1.629726,0.997947,-1.630421,0.996366,-1.630678,0.980000,-1.632000,
0.482000,-1.632000,0.482000,-2.405000,0.480678,-2.421366,0.480421,-2.422947,0.479726,-2.425768,0.479678,-2.426366,0.479421,-2.427947,0.478726,-2.430768,0.478678,-2.431366,0.478421,-2.432947,0.474509,-2.448836,0.473509,-2.451836,0.470994,-2.458577,0.470723,-2.459232,0.467704,-2.465852,0.466862,-2.467536,0.466572,-2.467391,0.461534,-2.478165,0.460327,-2.480120,0.456895,-2.484458,
0.454249,-2.488835,0.453313,-2.490135,0.451820,-2.491890,0.451249,-2.492835,0.450313,-2.494135,0.439661,-2.506661,0.431661,-2.514661,0.419135,-2.525313,0.417835,-2.526249,0.416890,-2.526820,0.415135,-2.528313,0.413835,-2.529249,0.409458,-2.531895,0.405120,-2.535327,0.403165,-2.536534,0.392391,-2.541572,0.392536,-2.541862,0.390852,-2.542704,0.384232,-2.545723,0.383577,-2.545994,
0.376836,-2.548509,0.373836,-2.549509,0.357947,-2.553421,0.356366,-2.553678,0.355768,-2.553726,0.352947,-2.554421,0.351366,-2.554678,0.350768,-2.554726,0.347947,-2.555421,0.346366,-2.555678,0.330000,-2.557000,0.220000,-2.557000,0.203634,-2.555678,0.202053,-2.555421,0.199231,-2.554726,0.198634,-2.554678,0.197053,-2.554421,0.194231,-2.553726,0.193634,-2.553678,0.192053,-2.553421,
0.176164,-2.549509,0.173164,-2.548509,0.166423,-2.545994,0.165768,-2.545723,0.159148,-2.542704,0.157464,-2.541862,0.157608,-2.541572,0.146835,-2.536534,0.144880,-2.535327,0.140541,-2.531895,0.136165,-2.529249,0.134865,-2.528313,0.133109,-2.526820,0.132165,-2.526249,0.130865,-2.525313,0.118339,-2.514661,0.110339,-2.506661,0.099687,-2.494135,0.098751,-2.492835,0.098179,-2.491890,
0.096687,-2.490135,0.095751,-2.488835,0.093104,-2.484458,0.089673,-2.480120,0.088466,-2.478165,0.083427,-2.467391,0.083138,-2.467536,0.082296,-2.465852,0.079277,-2.459232,0.079006,-2.458577,0.076491,-2.451836,0.075491,-2.448836,0.071579,-2.432947,0.071322,-2.431366,0.071273,-2.430768,0.070579,-2.427947,0.070322,-2.426366,0.070273,-2.425768,0.069579,-2.422947,0.069322,-2.421366,
0.068000,-2.405000,0.068000,-2.032000,-0.068000,-2.032000,-0.068000,-2.405000,-0.069322,-2.421366,-0.069579,-2.422947,-0.070273,-2.425768,-0.070322,-2.426366,-0.070579,-2.427947,-0.071273,-2.430768,-0.071322,-2.431366,-0.071579,-2.432947,-0.075491,-2.448836,-0.076491,-2.451836,-0.079006,-2.458577,-0.079277,-2.459232,-0.082296,-2.465852,-0.083138,-2.467536,-0.083427,-2.467391,-0.088466,-2.478165,
-0.089673,-2.480120,-0.093104,-2.484458,-0.095751,-2.488835,-0.096687,-2.490135,-0.098179,-2.491890,-0.098751,-2.492835,-0.099687,-2.494135,-0.110339,-2.506661,-0.118339,-2.514661,-0.130865,-2.525313,-0.132165,-2.526249,-0.133109,-2.526820,-0.134865,-2.528313,-0.136165,-2.529249,-0.140541,-2.531895,-0.144880,-2.535327,-0.146835,-2.536534,-0.157608,-2.541572,-0.157464,-2.541862,-0.159148,-2.542704,
-0.165768,-2.545723,-0.166423,-2.545994,-0.173164,-2.548509,-0.176164,-2.549509,-0.192053,-2.553421,-0.193634,-2.553678,-0.194231,-2.553726,-0.197053,-2.554421,-0.198634,-2.554678,-0.199231,-2.554726,-0.202053,-2.555421,-0.203634,-2.555678,-0.220000,-2.557000,-0.330000,-2.557000,-0.346366,-2.555678,-0.347947,-2.555421,-0.350768,-2.554726,-0.351366,-2.554678,-0.352947,-2.554421,-0.355768,-2.553726,
-0.356366,-2.553678,-0.357947,-2.553421,-0.373836,-2.549509,-0.376836,-2.548509,-0.383577,-2.545994,-0.384232,-2.545723,-0.390852,-2.542704,-0.392536,-2.541862,-0.392391,-2.541572,-0.403165,-2.536534,-0.405120,-2.535327,-0.409458,-2.531895,-0.413835,-2.529249,-0.415135,-2.528313,-0.416890,-2.526820,-0.417835,-2.526249,-0.419135,-2.525313,-0.431661,-2.514661,-0.439661,-2.506661,-0.450313,-2.494135,
-0.451249,-2.492835,-0.451820,-2.491890,-0.453313,-2.490135,-0.454249,-2.488835,-0.456895,-2.484458,-0.460327,-2.480120,-0.461534,-2.478165,-0.466572,-2.467391,-0.466862,-2.467536,-0.467704,-2.465852,-0.470723,-2.459232,-0.470994,-2.458577,-0.473509,-2.451836,-0.474509,-2.448836,-0.478421,-2.432947,-0.478678,-2.431366,-0.478726,-2.430768,-0.479421,-2.427947,-0.479678,-2.426366,-0.479726,-2.425768,
-0.480421,-2.422947,-0.480678,-2.421366,-0.482000,-2.405000,-0.482000,-1.632000,-0.980000,-1.632000,-0.996366,-1.630678,-0.997947,-1.630421,-1.000768,-1.629726,-1.001366,-1.629678,-1.002947,-1.629421,-1.005768,-1.628726,-1.006366,-1.628678,-1.007947,-1.628421,-1.013719,-1.627000,-1.025000,-1.627000,-1.084954,-1.607520,-1.122008,-1.556520,-1.127000,-1.525000,-1.127000,-1.513718,-1.128421,-1.507947,
-1.128678,-1.506366,-1.128726,-1.505768,-1.129421,-1.502947,-1.129678,-1.501366,-1.129726,-1.500768,-1.130421,-1.497947,-1.130678,-1.496366,-1.132000,-1.480000,-1.132000,1.480000,-1.130678,1.496366,-1.130421,1.497947,-1.129726,1.500768,-1.129678,1.501366,-1.129421,1.502947,-1.128726,1.505768,-1.128678,1.506366,-1.128421,1.507947,-1.127000,1.513718,-1.127000,1.525000,-1.107520,1.584954,
-1.056520,1.622008,-1.025000,1.627000,-1.013719,1.627000,-1.007947,1.628421,-1.006366,1.628678,-1.005768,1.628726,-1.002947,1.629421,-1.001366,1.629678,-1.000768,1.629726,-0.997947,1.630421,-0.996366,1.630678,-0.980000,1.632000,-0.482000,1.632000,-0.482000,2.405000,-0.480678,2.421366,-0.480421,2.422947,-0.479726,2.425768,-0.479678,2.426366,-0.479421,2.427947,-0.478726,2.430768,
-0.478678,2.431366,-0.478421,2.432947,-0.474509,2.448836,-0.473509,2.451836,-0.470994,2.458577,-0.470723,2.459232,-0.467704,2.465852,-0.466862,2.467536,-0.466572,2.467391,-0.461534,2.478165,-0.460327,2.480120,-0.456895,2.484458,-0.454249,2.488835,-0.453313,2.490135,-0.451820,2.491890,-0.451249,2.492835,-0.450313,2.494135,-0.439661,2.506661,-0.431661,2.514661,-0.419135,2.525313,
-0.417835,2.526249,-0.416890,2.526820,-0.415135,2.528313,-0.413835,2.529249,-0.409458,2.531895,-0.405120,2.535327,-0.403165,2.536534,-0.392391,2.541572,-0.392536,2.541862,-0.390852,2.542704,-0.384232,2.545723,-0.383577,2.545994,-0.376836,2.548509,-0.373836,2.549509,-0.357947,2.553421,-0.356366,2.553678,-0.355768,2.553726,-0.352947,2.554421,-0.351366,2.554678,-0.350768,2.554726,
-0.347947,2.555421,-0.346366,2.555678,-0.330000,2.557000,-0.220000,2.557000,-0.203634,2.555678,-0.203634,2.555678,$1*%
G04 Aperture macros list end*
%ADD10C,0.010000*%
%ADD11RoundRect,0.150000X-0.825000X-0.150000X0.825000X-0.150000X0.825000X0.150000X-0.825000X0.150000X0*%
%ADD12RoundRect,0.125000X-0.537500X-0.125000X0.537500X-0.125000X0.537500X0.125000X-0.537500X0.125000X0*%
%ADD13RoundRect,0.093240X-0.128760X-0.308760X0.128760X-0.308760X0.128760X0.308760X-0.128760X0.308760X0*%
%ADD14RoundRect,0.093240X-0.308760X-0.128760X0.308760X-0.128760X0.308760X0.128760X-0.308760X0.128760X0*%
%ADD15FreePoly0,0.000000*%
%ADD16C,0.504000*%
%ADD17R,0.650000X0.350000*%
%ADD18R,1.000000X1.600000*%
%ADD19R,2.460000X2.310000*%
%ADD20RoundRect,0.100000X-0.687500X-0.100000X0.687500X-0.100000X0.687500X0.100000X-0.687500X0.100000X0*%
%ADD21R,2.410000X3.300000*%
%ADD22R,1.500000X1.500000*%
%ADD23RoundRect,0.249999X-1.025001X-1.025001X1.025001X-1.025001X1.025001X1.025001X-1.025001X1.025001X0*%
%ADD24C,2.550000*%
%ADD25RoundRect,0.250000X-0.262500X-0.450000X0.262500X-0.450000X0.262500X0.450000X-0.262500X0.450000X0*%
%ADD26RoundRect,0.200000X-0.200000X-0.275000X0.200000X-0.275000X0.200000X0.275000X-0.200000X0.275000X0*%
%ADD27RoundRect,0.250000X-0.400000X-0.625000X0.400000X-0.625000X0.400000X0.625000X-0.400000X0.625000X0*%
%ADD28RoundRect,0.250000X-0.350000X-0.450000X0.350000X-0.450000X0.350000X0.450000X-0.350000X0.450000X0*%
%ADD29RoundRect,0.150000X-0.587500X-0.150000X0.587500X-0.150000X0.587500X0.150000X-0.587500X0.150000X0*%
%ADD30RoundRect,0.150000X-0.512500X-0.150000X0.512500X-0.150000X0.512500X0.150000X-0.512500X0.150000X0*%
%ADD31RoundRect,0.218750X-0.218750X-0.256250X0.218750X-0.256250X0.218750X0.256250X-0.218750X0.256250X0*%
%ADD32RoundRect,0.218750X-0.218750X-0.381250X0.218750X-0.381250X0.218750X0.381250X-0.218750X0.381250X0*%
%ADD33RoundRect,0.250000X-0.350000X-0.625000X0.350000X-0.625000X0.350000X0.625000X-0.350000X0.625000X0*%
%ADD34O,1.200000X1.750000*%
%ADD35R,0.600000X1.450000*%
%ADD36R,0.300000X1.450000*%
%ADD37O,1.000000X2.100000*%
%ADD38O,1.000000X1.600000*%
%ADD39R,1.700000X1.700000*%
%ADD40O,1.700000X1.700000*%
%ADD41RoundRect,0.250000X-1.000000X-0.650000X1.000000X-0.650000X1.000000X0.650000X-1.000000X0.650000X0*%
%ADD42RoundRect,0.250000X-0.250000X-0.475000X0.250000X-0.475000X0.250000X0.475000X-0.250000X0.475000X0*%
%ADD43RoundRect,0.225000X-0.225000X-0.250000X0.225000X-0.250000X0.225000X0.250000X-0.225000X0.250000X0*%
%ADD44RoundRect,0.250000X-0.325000X-0.650000X0.325000X-0.650000X0.325000X0.650000X-0.325000X0.650000X0*%
%ADD45RoundRect,0.250000X-0.325000X-1.100000X0.325000X-1.100000X0.325000X1.100000X-0.325000X1.100000X0*%
G04 APERTURE END LIST*
D10*
%TO.C,U5*%
X47886000Y-9479000D02*
X47894000Y-9480000D01*
X47902000Y-9481000D01*
X47909000Y-9483000D01*
X47917000Y-9485000D01*
X47924000Y-9488000D01*
X47932000Y-9491000D01*
X47939000Y-9495000D01*
X47946000Y-9498000D01*
X47953000Y-9503000D01*
X47959000Y-9507000D01*
X47966000Y-9512000D01*
X47972000Y-9517000D01*
X47977000Y-9523000D01*
X47983000Y-9528000D01*
X47988000Y-9534000D01*
X47993000Y-9541000D01*
X47997000Y-9547000D01*
X48002000Y-9554000D01*
X48005000Y-9561000D01*
X48009000Y-9568000D01*
X48012000Y-9576000D01*
X48015000Y-9583000D01*
X48017000Y-9591000D01*
X48019000Y-9598000D01*
X48020000Y-9606000D01*
X48021000Y-9614000D01*
X48022000Y-9622000D01*
X48022000Y-9630000D01*
X48022000Y-10003000D01*
X48167000Y-10003000D01*
X48168000Y-10003000D01*
X48168000Y-9628000D01*
X48168000Y-9620000D01*
X48169000Y-9612000D01*
X48170000Y-9605000D01*
X48171000Y-9597000D01*
X48173000Y-9589000D01*
X48175000Y-9582000D01*
X48178000Y-9574000D01*
X48181000Y-9567000D01*
X48184000Y-9560000D01*
X48188000Y-9553000D01*
X48192000Y-9546000D01*
X48197000Y-9540000D01*
X48201000Y-9534000D01*
X48207000Y-9528000D01*
X48212000Y-9522000D01*
X48218000Y-9517000D01*
X48224000Y-9511000D01*
X48230000Y-9507000D01*
X48236000Y-9502000D01*
X48243000Y-9498000D01*
X48250000Y-9494000D01*
X48257000Y-9491000D01*
X48264000Y-9488000D01*
X48272000Y-9485000D01*
X48279000Y-9483000D01*
X48287000Y-9481000D01*
X48295000Y-9480000D01*
X48302000Y-9479000D01*
X48310000Y-9478000D01*
X48318000Y-9478000D01*
X48421000Y-9478000D01*
X48429000Y-9478000D01*
X48437000Y-9479000D01*
X48445000Y-9480000D01*
X48452000Y-9481000D01*
X48460000Y-9483000D01*
X48468000Y-9485000D01*
X48475000Y-9488000D01*
X48482000Y-9491000D01*
X48490000Y-9494000D01*
X48496000Y-9498000D01*
X48503000Y-9502000D01*
X48510000Y-9507000D01*
X48516000Y-9512000D01*
X48522000Y-9517000D01*
X48528000Y-9522000D01*
X48533000Y-9528000D01*
X48538000Y-9534000D01*
X48543000Y-9540000D01*
X48548000Y-9547000D01*
X48552000Y-9554000D01*
X48556000Y-9560000D01*
X48559000Y-9568000D01*
X48562000Y-9575000D01*
X48565000Y-9582000D01*
X48567000Y-9590000D01*
X48569000Y-9598000D01*
X48570000Y-9605000D01*
X48571000Y-9613000D01*
X48572000Y-9621000D01*
X48572000Y-9629000D01*
X48572000Y-10403000D01*
X49070000Y-10403000D01*
X49078000Y-10403000D01*
X49086000Y-10404000D01*
X49094000Y-10405000D01*
X49102000Y-10406000D01*
X49109000Y-10408000D01*
X49117000Y-10410000D01*
X49124000Y-10413000D01*
X49132000Y-10416000D01*
X49139000Y-10420000D01*
X49146000Y-10423000D01*
X49153000Y-10428000D01*
X49159000Y-10432000D01*
X49166000Y-10437000D01*
X49172000Y-10442000D01*
X49177000Y-10448000D01*
X49183000Y-10453000D01*
X49188000Y-10459000D01*
X49193000Y-10466000D01*
X49197000Y-10472000D01*
X49202000Y-10479000D01*
X49205000Y-10486000D01*
X49209000Y-10493000D01*
X49212000Y-10501000D01*
X49215000Y-10508000D01*
X49217000Y-10516000D01*
X49219000Y-10523000D01*
X49220000Y-10531000D01*
X49221000Y-10539000D01*
X49222000Y-10547000D01*
X49222000Y-10555000D01*
X49222000Y-13506000D01*
X49222000Y-13514000D01*
X49221000Y-13522000D01*
X49220000Y-13529000D01*
X49219000Y-13537000D01*
X49217000Y-13545000D01*
X49215000Y-13552000D01*
X49212000Y-13560000D01*
X49209000Y-13567000D01*
X49206000Y-13574000D01*
X49202000Y-13581000D01*
X49198000Y-13588000D01*
X49193000Y-13594000D01*
X49189000Y-13600000D01*
X49183000Y-13606000D01*
X49178000Y-13612000D01*
X49172000Y-13617000D01*
X49166000Y-13623000D01*
X49160000Y-13627000D01*
X49154000Y-13632000D01*
X49147000Y-13636000D01*
X49140000Y-13640000D01*
X49133000Y-13643000D01*
X49126000Y-13646000D01*
X49118000Y-13649000D01*
X49111000Y-13651000D01*
X49103000Y-13653000D01*
X49095000Y-13654000D01*
X49088000Y-13655000D01*
X49080000Y-13656000D01*
X49072000Y-13656000D01*
X48573000Y-13656000D01*
X48572000Y-13656000D01*
X48572000Y-13657000D01*
X48572000Y-14431000D01*
X48572000Y-14439000D01*
X48571000Y-14447000D01*
X48570000Y-14454000D01*
X48569000Y-14462000D01*
X48567000Y-14470000D01*
X48565000Y-14477000D01*
X48562000Y-14485000D01*
X48559000Y-14492000D01*
X48556000Y-14499000D01*
X48552000Y-14506000D01*
X48548000Y-14513000D01*
X48543000Y-14519000D01*
X48539000Y-14525000D01*
X48533000Y-14531000D01*
X48528000Y-14537000D01*
X48522000Y-14542000D01*
X48516000Y-14548000D01*
X48510000Y-14552000D01*
X48504000Y-14557000D01*
X48497000Y-14561000D01*
X48490000Y-14565000D01*
X48483000Y-14568000D01*
X48476000Y-14571000D01*
X48468000Y-14574000D01*
X48461000Y-14576000D01*
X48453000Y-14578000D01*
X48445000Y-14579000D01*
X48438000Y-14580000D01*
X48430000Y-14581000D01*
X48422000Y-14581000D01*
X48317000Y-14581000D01*
X48309000Y-14581000D01*
X48301000Y-14580000D01*
X48294000Y-14579000D01*
X48286000Y-14578000D01*
X48278000Y-14576000D01*
X48271000Y-14574000D01*
X48264000Y-14571000D01*
X48256000Y-14568000D01*
X48249000Y-14565000D01*
X48242000Y-14561000D01*
X48236000Y-14557000D01*
X48229000Y-14553000D01*
X48223000Y-14548000D01*
X48217000Y-14543000D01*
X48212000Y-14537000D01*
X48206000Y-14532000D01*
X48201000Y-14526000D01*
X48196000Y-14520000D01*
X48192000Y-14513000D01*
X48188000Y-14507000D01*
X48184000Y-14500000D01*
X48181000Y-14493000D01*
X48178000Y-14485000D01*
X48175000Y-14478000D01*
X48173000Y-14471000D01*
X48171000Y-14463000D01*
X48170000Y-14455000D01*
X48169000Y-14448000D01*
X48168000Y-14440000D01*
X48168000Y-14432000D01*
X48168000Y-14057000D01*
X48023000Y-14057000D01*
X48022000Y-14057000D01*
X48022000Y-14058000D01*
X48022000Y-14431000D01*
X48022000Y-14439000D01*
X48021000Y-14447000D01*
X48020000Y-14454000D01*
X48019000Y-14462000D01*
X48017000Y-14470000D01*
X48015000Y-14477000D01*
X48012000Y-14485000D01*
X48009000Y-14492000D01*
X48006000Y-14499000D01*
X48002000Y-14506000D01*
X47998000Y-14513000D01*
X47993000Y-14519000D01*
X47989000Y-14525000D01*
X47983000Y-14531000D01*
X47978000Y-14537000D01*
X47972000Y-14542000D01*
X47966000Y-14548000D01*
X47960000Y-14552000D01*
X47954000Y-14557000D01*
X47947000Y-14561000D01*
X47940000Y-14565000D01*
X47933000Y-14568000D01*
X47926000Y-14571000D01*
X47918000Y-14574000D01*
X47911000Y-14576000D01*
X47903000Y-14578000D01*
X47895000Y-14579000D01*
X47888000Y-14580000D01*
X47880000Y-14581000D01*
X47872000Y-14581000D01*
X47766000Y-14581000D01*
X47758000Y-14581000D01*
X47751000Y-14580000D01*
X47743000Y-14579000D01*
X47735000Y-14578000D01*
X47728000Y-14576000D01*
X47720000Y-14574000D01*
X47713000Y-14571000D01*
X47706000Y-14568000D01*
X47699000Y-14565000D01*
X47692000Y-14561000D01*
X47685000Y-14557000D01*
X47679000Y-14553000D01*
X47673000Y-14548000D01*
X47667000Y-14543000D01*
X47661000Y-14538000D01*
X47656000Y-14532000D01*
X47651000Y-14526000D01*
X47646000Y-14520000D01*
X47642000Y-14514000D01*
X47638000Y-14507000D01*
X47634000Y-14500000D01*
X47631000Y-14493000D01*
X47628000Y-14486000D01*
X47625000Y-14479000D01*
X47623000Y-14471000D01*
X47621000Y-14464000D01*
X47620000Y-14456000D01*
X47619000Y-14448000D01*
X47618000Y-14441000D01*
X47618000Y-14433000D01*
X47618000Y-13657000D01*
X47120000Y-13657000D01*
X47112000Y-13657000D01*
X47104000Y-13656000D01*
X47096000Y-13655000D01*
X47088000Y-13654000D01*
X47081000Y-13652000D01*
X47073000Y-13650000D01*
X47066000Y-13647000D01*
X47058000Y-13644000D01*
X47051000Y-13640000D01*
X47044000Y-13637000D01*
X47037000Y-13632000D01*
X47031000Y-13628000D01*
X47024000Y-13623000D01*
X47018000Y-13618000D01*
X47013000Y-13612000D01*
X47007000Y-13607000D01*
X47002000Y-13601000D01*
X46997000Y-13594000D01*
X46993000Y-13588000D01*
X46988000Y-13581000D01*
X46985000Y-13574000D01*
X46981000Y-13567000D01*
X46978000Y-13559000D01*
X46975000Y-13552000D01*
X46973000Y-13544000D01*
X46971000Y-13537000D01*
X46970000Y-13529000D01*
X46969000Y-13521000D01*
X46968000Y-13513000D01*
X46968000Y-13505000D01*
X46968000Y-10556000D01*
X46968000Y-10548000D01*
X46969000Y-10540000D01*
X46970000Y-10532000D01*
X46971000Y-10524000D01*
X46973000Y-10517000D01*
X46975000Y-10509000D01*
X46978000Y-10502000D01*
X46981000Y-10494000D01*
X46985000Y-10487000D01*
X46988000Y-10480000D01*
X46993000Y-10473000D01*
X46997000Y-10467000D01*
X47002000Y-10460000D01*
X47007000Y-10454000D01*
X47013000Y-10449000D01*
X47018000Y-10443000D01*
X47024000Y-10438000D01*
X47031000Y-10433000D01*
X47037000Y-10429000D01*
X47044000Y-10424000D01*
X47051000Y-10421000D01*
X47058000Y-10417000D01*
X47066000Y-10414000D01*
X47073000Y-10411000D01*
X47081000Y-10409000D01*
X47088000Y-10407000D01*
X47096000Y-10406000D01*
X47104000Y-10405000D01*
X47112000Y-10404000D01*
X47120000Y-10404000D01*
X47617000Y-10404000D01*
X47618000Y-10404000D01*
X47618000Y-10403000D01*
X47618000Y-9630000D01*
X47618000Y-9622000D01*
X47619000Y-9614000D01*
X47620000Y-9606000D01*
X47621000Y-9598000D01*
X47623000Y-9591000D01*
X47625000Y-9583000D01*
X47628000Y-9576000D01*
X47631000Y-9568000D01*
X47635000Y-9561000D01*
X47638000Y-9554000D01*
X47643000Y-9547000D01*
X47647000Y-9541000D01*
X47652000Y-9534000D01*
X47657000Y-9528000D01*
X47663000Y-9523000D01*
X47668000Y-9517000D01*
X47674000Y-9512000D01*
X47681000Y-9507000D01*
X47687000Y-9503000D01*
X47694000Y-9498000D01*
X47701000Y-9495000D01*
X47708000Y-9491000D01*
X47716000Y-9488000D01*
X47723000Y-9485000D01*
X47731000Y-9483000D01*
X47738000Y-9481000D01*
X47746000Y-9480000D01*
X47754000Y-9479000D01*
X47762000Y-9478000D01*
X47770000Y-9478000D01*
X47870000Y-9478000D01*
X47878000Y-9478000D01*
X47886000Y-9479000D01*
G36*
X47886000Y-9479000D02*
G01*
X47894000Y-9480000D01*
X47902000Y-9481000D01*
X47909000Y-9483000D01*
X47917000Y-9485000D01*
X47924000Y-9488000D01*
X47932000Y-9491000D01*
X47939000Y-9495000D01*
X47946000Y-9498000D01*
X47953000Y-9503000D01*
X47959000Y-9507000D01*
X47966000Y-9512000D01*
X47972000Y-9517000D01*
X47977000Y-9523000D01*
X47983000Y-9528000D01*
X47988000Y-9534000D01*
X47993000Y-9541000D01*
X47997000Y-9547000D01*
X48002000Y-9554000D01*
X48005000Y-9561000D01*
X48009000Y-9568000D01*
X48012000Y-9576000D01*
X48015000Y-9583000D01*
X48017000Y-9591000D01*
X48019000Y-9598000D01*
X48020000Y-9606000D01*
X48021000Y-9614000D01*
X48022000Y-9622000D01*
X48022000Y-9630000D01*
X48022000Y-10003000D01*
X48167000Y-10003000D01*
X48168000Y-10003000D01*
X48168000Y-9628000D01*
X48168000Y-9620000D01*
X48169000Y-9612000D01*
X48170000Y-9605000D01*
X48171000Y-9597000D01*
X48173000Y-9589000D01*
X48175000Y-9582000D01*
X48178000Y-9574000D01*
X48181000Y-9567000D01*
X48184000Y-9560000D01*
X48188000Y-9553000D01*
X48192000Y-9546000D01*
X48197000Y-9540000D01*
X48201000Y-9534000D01*
X48207000Y-9528000D01*
X48212000Y-9522000D01*
X48218000Y-9517000D01*
X48224000Y-9511000D01*
X48230000Y-9507000D01*
X48236000Y-9502000D01*
X48243000Y-9498000D01*
X48250000Y-9494000D01*
X48257000Y-9491000D01*
X48264000Y-9488000D01*
X48272000Y-9485000D01*
X48279000Y-9483000D01*
X48287000Y-9481000D01*
X48295000Y-9480000D01*
X48302000Y-9479000D01*
X48310000Y-9478000D01*
X48318000Y-9478000D01*
X48421000Y-9478000D01*
X48429000Y-9478000D01*
X48437000Y-9479000D01*
X48445000Y-9480000D01*
X48452000Y-9481000D01*
X48460000Y-9483000D01*
X48468000Y-9485000D01*
X48475000Y-9488000D01*
X48482000Y-9491000D01*
X48490000Y-9494000D01*
X48496000Y-9498000D01*
X48503000Y-9502000D01*
X48510000Y-9507000D01*
X48516000Y-9512000D01*
X48522000Y-9517000D01*
X48528000Y-9522000D01*
X48533000Y-9528000D01*
X48538000Y-9534000D01*
X48543000Y-9540000D01*
X48548000Y-9547000D01*
X48552000Y-9554000D01*
X48556000Y-9560000D01*
X48559000Y-9568000D01*
X48562000Y-9575000D01*
X48565000Y-9582000D01*
X48567000Y-9590000D01*
X48569000Y-9598000D01*
X48570000Y-9605000D01*
X48571000Y-9613000D01*
X48572000Y-9621000D01*
X48572000Y-9629000D01*
X48572000Y-10403000D01*
X49070000Y-10403000D01*
X49078000Y-10403000D01*
X49086000Y-10404000D01*
X49094000Y-10405000D01*
X49102000Y-10406000D01*
X49109000Y-10408000D01*
X49117000Y-10410000D01*
X49124000Y-10413000D01*
X49132000Y-10416000D01*
X49139000Y-10420000D01*
X49146000Y-10423000D01*
X49153000Y-10428000D01*
X49159000Y-10432000D01*
X49166000Y-10437000D01*
X49172000Y-10442000D01*
X49177000Y-10448000D01*
X49183000Y-10453000D01*
X49188000Y-10459000D01*
X49193000Y-10466000D01*
X49197000Y-10472000D01*
X49202000Y-10479000D01*
X49205000Y-10486000D01*
X49209000Y-10493000D01*
X49212000Y-10501000D01*
X49215000Y-10508000D01*
X49217000Y-10516000D01*
X49219000Y-10523000D01*
X49220000Y-10531000D01*
X49221000Y-10539000D01*
X49222000Y-10547000D01*
X49222000Y-10555000D01*
X49222000Y-13506000D01*
X49222000Y-13514000D01*
X49221000Y-13522000D01*
X49220000Y-13529000D01*
X49219000Y-13537000D01*
X49217000Y-13545000D01*
X49215000Y-13552000D01*
X49212000Y-13560000D01*
X49209000Y-13567000D01*
X49206000Y-13574000D01*
X49202000Y-13581000D01*
X49198000Y-13588000D01*
X49193000Y-13594000D01*
X49189000Y-13600000D01*
X49183000Y-13606000D01*
X49178000Y-13612000D01*
X49172000Y-13617000D01*
X49166000Y-13623000D01*
X49160000Y-13627000D01*
X49154000Y-13632000D01*
X49147000Y-13636000D01*
X49140000Y-13640000D01*
X49133000Y-13643000D01*
X49126000Y-13646000D01*
X49118000Y-13649000D01*
X49111000Y-13651000D01*
X49103000Y-13653000D01*
X49095000Y-13654000D01*
X49088000Y-13655000D01*
X49080000Y-13656000D01*
X49072000Y-13656000D01*
X48573000Y-13656000D01*
X48572000Y-13656000D01*
X48572000Y-13657000D01*
X48572000Y-14431000D01*
X48572000Y-14439000D01*
X48571000Y-14447000D01*
X48570000Y-14454000D01*
X48569000Y-14462000D01*
X48567000Y-14470000D01*
X48565000Y-14477000D01*
X48562000Y-14485000D01*
X48559000Y-14492000D01*
X48556000Y-14499000D01*
X48552000Y-14506000D01*
X48548000Y-14513000D01*
X48543000Y-14519000D01*
X48539000Y-14525000D01*
X48533000Y-14531000D01*
X48528000Y-14537000D01*
X48522000Y-14542000D01*
X48516000Y-14548000D01*
X48510000Y-14552000D01*
X48504000Y-14557000D01*
X48497000Y-14561000D01*
X48490000Y-14565000D01*
X48483000Y-14568000D01*
X48476000Y-14571000D01*
X48468000Y-14574000D01*
X48461000Y-14576000D01*
X48453000Y-14578000D01*
X48445000Y-14579000D01*
X48438000Y-14580000D01*
X48430000Y-14581000D01*
X48422000Y-14581000D01*
X48317000Y-14581000D01*
X48309000Y-14581000D01*
X48301000Y-14580000D01*
X48294000Y-14579000D01*
X48286000Y-14578000D01*
X48278000Y-14576000D01*
X48271000Y-14574000D01*
X48264000Y-14571000D01*
X48256000Y-14568000D01*
X48249000Y-14565000D01*
X48242000Y-14561000D01*
X48236000Y-14557000D01*
X48229000Y-14553000D01*
X48223000Y-14548000D01*
X48217000Y-14543000D01*
X48212000Y-14537000D01*
X48206000Y-14532000D01*
X48201000Y-14526000D01*
X48196000Y-14520000D01*
X48192000Y-14513000D01*
X48188000Y-14507000D01*
X48184000Y-14500000D01*
X48181000Y-14493000D01*
X48178000Y-14485000D01*
X48175000Y-14478000D01*
X48173000Y-14471000D01*
X48171000Y-14463000D01*
X48170000Y-14455000D01*
X48169000Y-14448000D01*
X48168000Y-14440000D01*
X48168000Y-14432000D01*
X48168000Y-14057000D01*
X48023000Y-14057000D01*
X48022000Y-14057000D01*
X48022000Y-14058000D01*
X48022000Y-14431000D01*
X48022000Y-14439000D01*
X48021000Y-14447000D01*
X48020000Y-14454000D01*
X48019000Y-14462000D01*
X48017000Y-14470000D01*
X48015000Y-14477000D01*
X48012000Y-14485000D01*
X48009000Y-14492000D01*
X48006000Y-14499000D01*
X48002000Y-14506000D01*
X47998000Y-14513000D01*
X47993000Y-14519000D01*
X47989000Y-14525000D01*
X47983000Y-14531000D01*
X47978000Y-14537000D01*
X47972000Y-14542000D01*
X47966000Y-14548000D01*
X47960000Y-14552000D01*
X47954000Y-14557000D01*
X47947000Y-14561000D01*
X47940000Y-14565000D01*
X47933000Y-14568000D01*
X47926000Y-14571000D01*
X47918000Y-14574000D01*
X47911000Y-14576000D01*
X47903000Y-14578000D01*
X47895000Y-14579000D01*
X47888000Y-14580000D01*
X47880000Y-14581000D01*
X47872000Y-14581000D01*
X47766000Y-14581000D01*
X47758000Y-14581000D01*
X47751000Y-14580000D01*
X47743000Y-14579000D01*
X47735000Y-14578000D01*
X47728000Y-14576000D01*
X47720000Y-14574000D01*
X47713000Y-14571000D01*
X47706000Y-14568000D01*
X47699000Y-14565000D01*
X47692000Y-14561000D01*
X47685000Y-14557000D01*
X47679000Y-14553000D01*
X47673000Y-14548000D01*
X47667000Y-14543000D01*
X47661000Y-14538000D01*
X47656000Y-14532000D01*
X47651000Y-14526000D01*
X47646000Y-14520000D01*
X47642000Y-14514000D01*
X47638000Y-14507000D01*
X47634000Y-14500000D01*
X47631000Y-14493000D01*
X47628000Y-14486000D01*
X47625000Y-14479000D01*
X47623000Y-14471000D01*
X47621000Y-14464000D01*
X47620000Y-14456000D01*
X47619000Y-14448000D01*
X47618000Y-14441000D01*
X47618000Y-14433000D01*
X47618000Y-13657000D01*
X47120000Y-13657000D01*
X47112000Y-13657000D01*
X47104000Y-13656000D01*
X47096000Y-13655000D01*
X47088000Y-13654000D01*
X47081000Y-13652000D01*
X47073000Y-13650000D01*
X47066000Y-13647000D01*
X47058000Y-13644000D01*
X47051000Y-13640000D01*
X47044000Y-13637000D01*
X47037000Y-13632000D01*
X47031000Y-13628000D01*
X47024000Y-13623000D01*
X47018000Y-13618000D01*
X47013000Y-13612000D01*
X47007000Y-13607000D01*
X47002000Y-13601000D01*
X46997000Y-13594000D01*
X46993000Y-13588000D01*
X46988000Y-13581000D01*
X46985000Y-13574000D01*
X46981000Y-13567000D01*
X46978000Y-13559000D01*
X46975000Y-13552000D01*
X46973000Y-13544000D01*
X46971000Y-13537000D01*
X46970000Y-13529000D01*
X46969000Y-13521000D01*
X46968000Y-13513000D01*
X46968000Y-13505000D01*
X46968000Y-10556000D01*
X46968000Y-10548000D01*
X46969000Y-10540000D01*
X46970000Y-10532000D01*
X46971000Y-10524000D01*
X46973000Y-10517000D01*
X46975000Y-10509000D01*
X46978000Y-10502000D01*
X46981000Y-10494000D01*
X46985000Y-10487000D01*
X46988000Y-10480000D01*
X46993000Y-10473000D01*
X46997000Y-10467000D01*
X47002000Y-10460000D01*
X47007000Y-10454000D01*
X47013000Y-10449000D01*
X47018000Y-10443000D01*
X47024000Y-10438000D01*
X47031000Y-10433000D01*
X47037000Y-10429000D01*
X47044000Y-10424000D01*
X47051000Y-10421000D01*
X47058000Y-10417000D01*
X47066000Y-10414000D01*
X47073000Y-10411000D01*
X47081000Y-10409000D01*
X47088000Y-10407000D01*
X47096000Y-10406000D01*
X47104000Y-10405000D01*
X47112000Y-10404000D01*
X47120000Y-10404000D01*
X47617000Y-10404000D01*
X47618000Y-10404000D01*
X47618000Y-10403000D01*
X47618000Y-9630000D01*
X47618000Y-9622000D01*
X47619000Y-9614000D01*
X47620000Y-9606000D01*
X47621000Y-9598000D01*
X47623000Y-9591000D01*
X47625000Y-9583000D01*
X47628000Y-9576000D01*
X47631000Y-9568000D01*
X47635000Y-9561000D01*
X47638000Y-9554000D01*
X47643000Y-9547000D01*
X47647000Y-9541000D01*
X47652000Y-9534000D01*
X47657000Y-9528000D01*
X47663000Y-9523000D01*
X47668000Y-9517000D01*
X47674000Y-9512000D01*
X47681000Y-9507000D01*
X47687000Y-9503000D01*
X47694000Y-9498000D01*
X47701000Y-9495000D01*
X47708000Y-9491000D01*
X47716000Y-9488000D01*
X47723000Y-9485000D01*
X47731000Y-9483000D01*
X47738000Y-9481000D01*
X47746000Y-9480000D01*
X47754000Y-9479000D01*
X47762000Y-9478000D01*
X47770000Y-9478000D01*
X47870000Y-9478000D01*
X47878000Y-9478000D01*
X47886000Y-9479000D01*
G37*
%TD*%
D11*
%TO.C,U8*%
X25130000Y-45630000D03*
X25130000Y-46900000D03*
X25130000Y-48170000D03*
X25130000Y-49440000D03*
X30080000Y-49440000D03*
X30080000Y-48170000D03*
X30080000Y-46900000D03*
X30080000Y-45630000D03*
%TD*%
%TO.C,U7*%
X25130000Y-39050000D03*
X25130000Y-40320000D03*
X25130000Y-41590000D03*
X25130000Y-42860000D03*
X30080000Y-42860000D03*
X30080000Y-41590000D03*
X30080000Y-40320000D03*
X30080000Y-39050000D03*
%TD*%
D12*
%TO.C,U6*%
X53797500Y-49700000D03*
X53797500Y-50350000D03*
X53797500Y-51000000D03*
X53797500Y-51650000D03*
X56072500Y-51650000D03*
X56072500Y-51000000D03*
X56072500Y-50350000D03*
X56072500Y-49700000D03*
%TD*%
D13*
%TO.C,U5*%
X47345000Y-9880000D03*
X48845000Y-9880000D03*
X47345000Y-14180000D03*
X48845000Y-14180000D03*
D14*
X46445000Y-11780000D03*
X46445000Y-12280000D03*
X46445000Y-12780000D03*
X46445000Y-13280000D03*
X46445000Y-13780000D03*
X46445000Y-11280000D03*
X46445000Y-10780000D03*
X46445000Y-10280000D03*
X49745000Y-11780000D03*
X49745000Y-12280000D03*
X49745000Y-12780000D03*
X49745000Y-13280000D03*
X49745000Y-13780000D03*
X49745000Y-11280000D03*
X49745000Y-10780000D03*
X49745000Y-10280000D03*
D15*
X48095000Y-12030000D03*
D16*
X48095000Y-12555000D03*
X47320000Y-12555000D03*
X48870000Y-12555000D03*
X48095000Y-11505000D03*
X47320000Y-11505000D03*
X48870000Y-11505000D03*
X48095000Y-13305000D03*
X48095000Y-10755000D03*
%TD*%
D17*
%TO.C,U4*%
X58860000Y-49500000D03*
X58860000Y-50150000D03*
X58860000Y-50800000D03*
X60960000Y-50800000D03*
X60960000Y-50150000D03*
X60960000Y-49500000D03*
D18*
X59910000Y-50150000D03*
%TD*%
D19*
%TO.C,U3*%
X47060000Y-26230000D03*
D20*
X44197500Y-23955000D03*
X44197500Y-24605000D03*
X44197500Y-25255000D03*
X44197500Y-25905000D03*
X44197500Y-26555000D03*
X44197500Y-27205000D03*
X44197500Y-27855000D03*
X44197500Y-28505000D03*
X49922500Y-28505000D03*
X49922500Y-27855000D03*
X49922500Y-27205000D03*
X49922500Y-26555000D03*
X49922500Y-25905000D03*
X49922500Y-25255000D03*
X49922500Y-24605000D03*
X49922500Y-23955000D03*
%TD*%
D19*
%TO.C,U2*%
X47060000Y-19590000D03*
D20*
X44197500Y-17315000D03*
X44197500Y-17965000D03*
X44197500Y-18615000D03*
X44197500Y-19265000D03*
X44197500Y-19915000D03*
X44197500Y-20565000D03*
X44197500Y-21215000D03*
X44197500Y-21865000D03*
X49922500Y-21865000D03*
X49922500Y-21215000D03*
X49922500Y-20565000D03*
X49922500Y-19915000D03*
X49922500Y-19265000D03*
X49922500Y-18615000D03*
X49922500Y-17965000D03*
X49922500Y-17315000D03*
%TD*%
D11*
%TO.C,U1*%
X25130000Y-32470000D03*
X25130000Y-33740000D03*
X25130000Y-35010000D03*
X25130000Y-36280000D03*
X30080000Y-36280000D03*
X30080000Y-35010000D03*
X30080000Y-33740000D03*
X30080000Y-32470000D03*
D21*
X27605000Y-34375000D03*
%TD*%
D22*
%TO.C,TP5*%
X33605000Y-46995000D03*
%TD*%
%TO.C,TP4*%
X33605000Y-43445000D03*
%TD*%
%TO.C,TP3*%
X33605000Y-39895000D03*
%TD*%
%TO.C,TP2*%
X33605000Y-36345000D03*
%TD*%
%TO.C,TP1*%
X33605000Y-32795000D03*
%TD*%
D23*
%TO.C,SW1*%
X41845000Y-6025000D03*
D24*
X46645000Y-6025000D03*
X51445000Y-6025000D03*
%TD*%
D25*
%TO.C,R_{SHUNT}1*%
X33492500Y-23645000D03*
X35317500Y-23645000D03*
%TD*%
%TO.C,R_{SDA}1*%
X33492500Y-20695000D03*
X35317500Y-20695000D03*
%TD*%
%TO.C,R_{SCL}1*%
X33492500Y-17745000D03*
X35317500Y-17745000D03*
%TD*%
D26*
%TO.C,R_{PULL_DOWN}1*%
X36590000Y-15015000D03*
X38240000Y-15015000D03*
%TD*%
%TO.C,R_{PROG}2*%
X36590000Y-12505000D03*
X38240000Y-12505000D03*
%TD*%
%TO.C,R_{PROG}1*%
X36590000Y-9995000D03*
X38240000Y-9995000D03*
%TD*%
%TO.C,R_{LIMIT}1*%
X36590000Y-7485000D03*
X38240000Y-7485000D03*
%TD*%
D25*
%TO.C,R_{ILIM}1*%
X29082500Y-29545000D03*
X30907500Y-29545000D03*
%TD*%
%TO.C,R_{FSW}2*%
X29082500Y-26595000D03*
X30907500Y-26595000D03*
%TD*%
%TO.C,R_{FSW}1*%
X29082500Y-23645000D03*
X30907500Y-23645000D03*
%TD*%
%TO.C,R_{FB}2*%
X29082500Y-20695000D03*
X30907500Y-20695000D03*
%TD*%
%TO.C,R_{FB}1*%
X29082500Y-17745000D03*
X30907500Y-17745000D03*
%TD*%
%TO.C,R_{COMP}1*%
X24672500Y-29545000D03*
X26497500Y-29545000D03*
%TD*%
D26*
%TO.C,R9*%
X36590000Y-4975000D03*
X38240000Y-4975000D03*
%TD*%
D27*
%TO.C,R8*%
X40845000Y-13265000D03*
X43945000Y-13265000D03*
%TD*%
%TO.C,R7*%
X40845000Y-9975000D03*
X43945000Y-9975000D03*
%TD*%
D28*
%TO.C,R6*%
X48085000Y-50975000D03*
X50085000Y-50975000D03*
%TD*%
%TO.C,R5*%
X48085000Y-48025000D03*
X50085000Y-48025000D03*
%TD*%
D25*
%TO.C,R4*%
X24672500Y-26595000D03*
X26497500Y-26595000D03*
%TD*%
%TO.C,R3*%
X24672500Y-23645000D03*
X26497500Y-23645000D03*
%TD*%
%TO.C,R2*%
X24672500Y-20695000D03*
X26497500Y-20695000D03*
%TD*%
%TO.C,R1*%
X24672500Y-17745000D03*
X26497500Y-17745000D03*
%TD*%
D29*
%TO.C,Q5*%
X38117500Y-50420000D03*
X38117500Y-52320000D03*
X39992500Y-51370000D03*
%TD*%
D30*
%TO.C,Q4*%
X55307500Y-9795000D03*
X55307500Y-11695000D03*
X57582500Y-10745000D03*
%TD*%
%TO.C,Q3*%
X55307500Y-5170000D03*
X55307500Y-7070000D03*
X57582500Y-6120000D03*
%TD*%
D29*
%TO.C,Q2*%
X38117500Y-45795000D03*
X38117500Y-47695000D03*
X39992500Y-46745000D03*
%TD*%
%TO.C,Q1*%
X38117500Y-41170000D03*
X38117500Y-43070000D03*
X39992500Y-42120000D03*
%TD*%
D31*
%TO.C,L4*%
X32617500Y-15015000D03*
X34192500Y-15015000D03*
%TD*%
%TO.C,L2*%
X32617500Y-12505000D03*
X34192500Y-12505000D03*
%TD*%
D32*
%TO.C,L1*%
X33042500Y-50145000D03*
X35167500Y-50145000D03*
%TD*%
D33*
%TO.C,J3*%
X55335000Y-31925000D03*
D34*
X57335000Y-31925000D03*
%TD*%
D35*
%TO.C,J2*%
X54075000Y-18020000D03*
X54875000Y-18020000D03*
D36*
X56075000Y-18020000D03*
X57075000Y-18020000D03*
X57575000Y-18020000D03*
X58575000Y-18020000D03*
D35*
X59775000Y-18020000D03*
X60575000Y-18020000D03*
X60575000Y-18020000D03*
X59775000Y-18020000D03*
D36*
X59075000Y-18020000D03*
X58075000Y-18020000D03*
X56575000Y-18020000D03*
X55575000Y-18020000D03*
D35*
X54875000Y-18020000D03*
X54075000Y-18020000D03*
D37*
X53005000Y-18935000D03*
D38*
X53005000Y-23115000D03*
D37*
X61645000Y-18935000D03*
D38*
X61645000Y-23115000D03*
%TD*%
D39*
%TO.C,J1*%
X2540000Y-10160000D03*
D40*
X5080000Y-10160000D03*
X2540000Y-12700000D03*
X5080000Y-12700000D03*
X2540000Y-15240000D03*
X5080000Y-15240000D03*
X2540000Y-17780000D03*
X5080000Y-17780000D03*
X2540000Y-20320000D03*
X5080000Y-20320000D03*
X2540000Y-22860000D03*
X5080000Y-22860000D03*
X2540000Y-25400000D03*
X5080000Y-25400000D03*
X2540000Y-27940000D03*
X5080000Y-27940000D03*
X2540000Y-30480000D03*
X5080000Y-30480000D03*
X2540000Y-33020000D03*
X5080000Y-33020000D03*
X2540000Y-35560000D03*
X5080000Y-35560000D03*
X2540000Y-38100000D03*
X5080000Y-38100000D03*
X2540000Y-40640000D03*
X5080000Y-40640000D03*
X2540000Y-43180000D03*
X5080000Y-43180000D03*
X2540000Y-45720000D03*
X5080000Y-45720000D03*
X2540000Y-48260000D03*
X5080000Y-48260000D03*
%TD*%
D41*
%TO.C,D4*%
X54430000Y-46025000D03*
X58430000Y-46025000D03*
%TD*%
%TO.C,D3*%
X54430000Y-41475000D03*
X58430000Y-41475000D03*
%TD*%
D42*
%TO.C,C_{SS}1*%
X43535000Y-52125000D03*
X45435000Y-52125000D03*
%TD*%
D43*
%TO.C,C_{OUT}6*%
X32630000Y-9995000D03*
X34180000Y-9995000D03*
%TD*%
%TO.C,C_{OUT}5*%
X32630000Y-7485000D03*
X34180000Y-7485000D03*
%TD*%
%TO.C,C_{OUT}4*%
X32630000Y-4975000D03*
X34180000Y-4975000D03*
%TD*%
D44*
%TO.C,C_{OUT}3*%
X37960000Y-38045000D03*
X40910000Y-38045000D03*
%TD*%
D45*
%TO.C,C_{OUT}2*%
X48060000Y-44425000D03*
X51010000Y-44425000D03*
%TD*%
%TO.C,C_{OUT}1*%
X48060000Y-40175000D03*
X51010000Y-40175000D03*
%TD*%
D44*
%TO.C,C_{OUT_3.3}3*%
X37960000Y-34695000D03*
X40910000Y-34695000D03*
%TD*%
%TO.C,C_{OUT_3.3}2*%
X37960000Y-31345000D03*
X40910000Y-31345000D03*
%TD*%
%TO.C,C_{OUT_3.3}1*%
X37960000Y-27995000D03*
X40910000Y-27995000D03*
%TD*%
%TO.C,C_{IN}3*%
X37960000Y-24645000D03*
X40910000Y-24645000D03*
%TD*%
D45*
%TO.C,C_{IN}2*%
X48060000Y-35925000D03*
X51010000Y-35925000D03*
%TD*%
%TO.C,C_{IN}1*%
X48060000Y-31675000D03*
X51010000Y-31675000D03*
%TD*%
D42*
%TO.C,C_{IN_5}1*%
X43535000Y-49115000D03*
X45435000Y-49115000D03*
%TD*%
D43*
%TO.C,C_{IN_3.3}3*%
X28620000Y-15015000D03*
X30170000Y-15015000D03*
%TD*%
D44*
%TO.C,C_{IN_3.3}2*%
X37960000Y-21295000D03*
X40910000Y-21295000D03*
%TD*%
%TO.C,C_{IN_3.3}1*%
X37960000Y-17945000D03*
X40910000Y-17945000D03*
%TD*%
D42*
%TO.C,C_{COMP}1*%
X43535000Y-46105000D03*
X45435000Y-46105000D03*
%TD*%
D43*
%TO.C,C_{CHARGE_OUT}1*%
X28620000Y-12505000D03*
X30170000Y-12505000D03*
%TD*%
%TO.C,C_{CHARGE_IN}1*%
X28620000Y-9995000D03*
X30170000Y-9995000D03*
%TD*%
D42*
%TO.C,C_{BY}1*%
X43535000Y-43095000D03*
X45435000Y-43095000D03*
%TD*%
%TO.C,C_{BYPASS}1*%
X43535000Y-40085000D03*
X45435000Y-40085000D03*
%TD*%
%TO.C,C_{BOOT}1*%
X43535000Y-37075000D03*
X45435000Y-37075000D03*
%TD*%
%TO.C,C_{1}1*%
X43535000Y-34065000D03*
X45435000Y-34065000D03*
%TD*%
%TO.C,C10*%
X43535000Y-31055000D03*
X45435000Y-31055000D03*
%TD*%
D43*
%TO.C,C9*%
X28620000Y-7485000D03*
X30170000Y-7485000D03*
%TD*%
%TO.C,C8*%
X28620000Y-4975000D03*
X30170000Y-4975000D03*
%TD*%
%TO.C,C7*%
X24610000Y-15015000D03*
X26160000Y-15015000D03*
%TD*%
%TO.C,C6*%
X24610000Y-12505000D03*
X26160000Y-12505000D03*
%TD*%
%TO.C,C5*%
X24610000Y-9995000D03*
X26160000Y-9995000D03*
%TD*%
%TO.C,C4*%
X24610000Y-7485000D03*
X26160000Y-7485000D03*
%TD*%
%TO.C,C3*%
X24610000Y-4975000D03*
X26160000Y-4975000D03*
%TD*%
M02*
