%TF.GenerationSoftware,KiCad,Pcbnew,9.0.0*%
%TF.CreationDate,2025-04-10T10:58:41+02:00*%
%TF.ProjectId,Micro-Mouse Power Subsystem,4d696372-6f2d-44d6-9f75-736520506f77,rev?*%
%TF.SameCoordinates,Original*%
%TF.FileFunction,Soldermask,Bot*%
%TF.FilePolarity,Negative*%
%FSLAX46Y46*%
G04 Gerber Fmt 4.6, Leading zero omitted, Abs format (unit mm)*
G04 Created by KiCad (PCBNEW 9.0.0) date 2025-04-10 10:58:41*
%MOMM*%
%LPD*%
G01*
G04 APERTURE LIST*
G04 Aperture macros list*
%AMRoundRect*
0 Rectangle with rounded corners*
0 $1 Rounding radius*
0 $2 $3 $4 $5 $6 $7 $8 $9 X,Y pos of 4 corners*
0 Add a 4 corners polygon primitive as box body*
4,1,4,$2,$3,$4,$5,$6,$7,$8,$9,$2,$3,0*
0 Add four circle primitives for the rounded corners*
1,1,$1+$1,$2,$3*
1,1,$1+$1,$4,$5*
1,1,$1+$1,$6,$7*
1,1,$1+$1,$8,$9*
0 Add four rect primitives between the rounded corners*
20,1,$1+$1,$2,$3,$4,$5,0*
20,1,$1+$1,$4,$5,$6,$7,0*
20,1,$1+$1,$6,$7,$8,$9,0*
20,1,$1+$1,$8,$9,$2,$3,0*%
G04 Aperture macros list end*
%ADD10C,0.450000*%
%ADD11R,1.700000X1.700000*%
%ADD12O,1.700000X1.700000*%
%ADD13RoundRect,0.250000X-0.625000X0.350000X-0.625000X-0.350000X0.625000X-0.350000X0.625000X0.350000X0*%
%ADD14O,1.750000X1.200000*%
%ADD15C,0.650000*%
%ADD16O,1.000000X2.100000*%
%ADD17O,1.000000X1.600000*%
%ADD18RoundRect,0.249999X1.025001X1.025001X-1.025001X1.025001X-1.025001X-1.025001X1.025001X-1.025001X0*%
%ADD19C,2.550000*%
G04 APERTURE END LIST*
D10*
%TO.C,U3*%
X108934300Y-109453000D03*
X109709300Y-108703000D03*
X108934300Y-108703000D03*
X108159300Y-108703000D03*
X109709300Y-107653000D03*
X108934300Y-107653000D03*
X108159300Y-107653000D03*
X108934300Y-106903000D03*
%TD*%
D11*
%TO.C,J1*%
X118529300Y-126843000D03*
D12*
X118529300Y-124303000D03*
X121069300Y-126843000D03*
X121069300Y-124303000D03*
X123609300Y-126843000D03*
X123609300Y-124303000D03*
X126149300Y-126843000D03*
X126149300Y-124303000D03*
X128689300Y-126843000D03*
X128689300Y-124303000D03*
X131229300Y-126843000D03*
X131229300Y-124303000D03*
X133769300Y-126843000D03*
X133769300Y-124303000D03*
X136309300Y-126843000D03*
X136309300Y-124303000D03*
X138849300Y-126843000D03*
X138849300Y-124303000D03*
X141389300Y-126843000D03*
X141389300Y-124303000D03*
X143929300Y-126843000D03*
X143929300Y-124303000D03*
X146469300Y-126843000D03*
X146469300Y-124303000D03*
X149009300Y-126843000D03*
X149009300Y-124303000D03*
X151549300Y-126843000D03*
X151549300Y-124303000D03*
X154089300Y-126843000D03*
X154089300Y-124303000D03*
X156629300Y-126843000D03*
X156629300Y-124303000D03*
%TD*%
D13*
%TO.C,J2*%
X128209300Y-103203000D03*
D14*
X128209300Y-105203000D03*
%TD*%
D15*
%TO.C,J3*%
X147999300Y-83553000D03*
X142219300Y-83553000D03*
D16*
X149429300Y-84083000D03*
D17*
X149429300Y-79903000D03*
D16*
X140789300Y-84083000D03*
D17*
X140789300Y-79903000D03*
%TD*%
D18*
%TO.C,SW1*%
X129671800Y-95573000D03*
D19*
X124871800Y-95573000D03*
X120071800Y-95573000D03*
%TD*%
M02*
