M48
; DRILL file {KiCad 9.0.0} date 2025-04-10T10:58:41+0200
; FORMAT={-:-/ absolute / inch / decimal}
; #@! TF.CreationDate,2025-04-10T10:58:41+02:00
; #@! TF.GenerationSoftware,Kicad,Pcbnew,9.0.0
; #@! TF.FileFunction,Plated,1,2,PTH
FMAT,2
INCH
; #@! TA.AperFunction,Plated,PTH,ComponentDrill
T1C0.0079
; #@! TA.AperFunction,Plated,PTH,ViaDrill
T2C0.0157
; #@! TA.AperFunction,Plated,PTH,ComponentDrill
T3C0.0236
; #@! TA.AperFunction,Plated,PTH,ComponentDrill
T4C0.0295
; #@! TA.AperFunction,Plated,PTH,ComponentDrill
T5C0.0394
; #@! TA.AperFunction,Plated,PTH,ComponentDrill
T6C0.0610
; #@! TA.AperFunction,Plated,PTH,ViaDrill
T7C0.1260
%
G90
G05
T1
X4.2582Y-4.2383
X4.2582Y-4.2796
X4.2888Y-4.2088
X4.2888Y-4.2383
X4.2888Y-4.2796
X4.2888Y-4.3092
X4.3193Y-4.2383
X4.3193Y-4.2796
X5.3783Y-4.2041
X5.3783Y-4.2513
X5.3783Y-4.2985
X5.4334Y-4.2041
X5.4334Y-4.2513
X5.4334Y-4.2985
X6.0456Y-4.4135
X6.0456Y-4.4726
X6.1047Y-4.4135
X6.1047Y-4.4726
X6.1638Y-4.4135
X6.1638Y-4.4726
X6.5915Y-4.534
X6.5915Y-4.593
X6.6506Y-4.534
X6.6506Y-4.593
X6.7096Y-4.534
X6.7096Y-4.593
T2
X3.9234Y-3.9898
X4.1122Y-3.8937
X4.1563Y-4.327
X4.1772Y-4.0807
X4.2036Y-4.3576
X4.3887Y-4.1607
X4.6407Y-4.488
X4.8428Y-3.2523
X4.8528Y-4.59
X4.9328Y-4.6702
X5.1909Y-4.189
X5.2244Y-4.7677
X5.2734Y-4.4614
X5.3091Y-3.372
X5.3707Y-4.3427
X5.3938Y-4.1497
X5.4378Y-4.3919
X5.4744Y-3.2538
X5.5092Y-3.4597
X5.5492Y-4.8071
X5.5748Y-5.187
X5.58Y-3.4904
X5.6043Y-3.8937
X5.6202Y-4.4954
X5.6458Y-3.2939
X5.7157Y-3.5284
X5.7185Y-5.0719
X5.7622Y-3.278
X5.7736Y-3.439
X5.7837Y-3.5455
X5.8681Y-4.6122
X5.8799Y-3.5827
X5.9143Y-4.1867
X5.9356Y-4.1069
X5.9829Y-4.73
X6.2426Y-4.2846
X6.3504Y-4.3701
X6.4254Y-4.6822
X6.4254Y-4.8189
X6.6378Y-4.2697
X6.6604Y-4.3366
X6.7Y-3.7381
X6.7402Y-4.3602
X6.7689Y-4.0303
X6.7835Y-4.75
X6.8031Y-5.1358
X6.8406Y-4.689
T4
X5.0476Y-4.0631
X5.0476Y-4.1419
T5
X4.6665Y-4.8938
X4.6665Y-4.9938
X4.7665Y-4.8938
X4.7665Y-4.9938
X4.8665Y-4.8938
X4.8665Y-4.9938
X4.9665Y-4.8938
X4.9665Y-4.9938
X5.0665Y-4.8938
X5.0665Y-4.9938
X5.1665Y-4.8938
X5.1665Y-4.9938
X5.2665Y-4.8938
X5.2665Y-4.9938
X5.3665Y-4.8938
X5.3665Y-4.9938
X5.4665Y-4.8938
X5.4665Y-4.9938
X5.5665Y-4.8938
X5.5665Y-4.9938
X5.6665Y-4.8938
X5.6665Y-4.9938
X5.7665Y-4.8938
X5.7665Y-4.9938
X5.8665Y-4.8938
X5.8665Y-4.9938
X5.9665Y-4.8938
X5.9665Y-4.9938
X6.0665Y-4.8938
X6.0665Y-4.9938
X6.1665Y-4.8938
X6.1665Y-4.9938
T6
X4.7272Y-3.7627
X4.9162Y-3.7627
X5.1052Y-3.7627
T7
X5.3838Y-3.9123
X5.3897Y-3.1304
X5.3897Y-3.5198
T3
G00X5.5429Y-3.1576
M15
G01X5.5429Y-3.134
M16
G05
G00X5.5429Y-3.332
M15
G01X5.5429Y-3.2887
M16
G05
G00X5.883Y-3.1576
M15
G01X5.883Y-3.134
M16
G05
G00X5.883Y-3.332
M15
G01X5.883Y-3.2887
M16
G05
M30
