M48
; DRILL file {KiCad 9.0.0} date 2025-03-28T16:41:01+0200
; FORMAT={-:-/ absolute / inch / decimal}
; #@! TF.CreationDate,2025-03-28T16:41:01+02:00
; #@! TF.GenerationSoftware,Kicad,Pcbnew,9.0.0
; #@! TF.FileFunction,Plated,1,2,PTH
FMAT,2
INCH
; #@! TA.AperFunction,Plated,PTH,ComponentDrill
T1C0.0079
; #@! TA.AperFunction,Plated,PTH,ComponentDrill
T2C0.0236
; #@! TA.AperFunction,Plated,PTH,ComponentDrill
T3C0.0295
; #@! TA.AperFunction,Plated,PTH,ComponentDrill
T4C0.0394
; #@! TA.AperFunction,Plated,PTH,ComponentDrill
T5C0.0610
%
G90
G05
T1
X1.0593Y-1.3061
X1.0593Y-1.3533
X1.0593Y-1.4006
X1.1144Y-1.3061
X1.1144Y-1.3533
X1.1144Y-1.4006
X1.8232Y-0.7122
X1.8232Y-0.7713
X1.8232Y-0.8303
X1.8232Y-0.9736
X1.8232Y-1.0327
X1.8232Y-1.0917
X1.863Y-0.453
X1.863Y-0.4943
X1.8823Y-0.7122
X1.8823Y-0.7713
X1.8823Y-0.8303
X1.8823Y-0.9736
X1.8823Y-1.0327
X1.8823Y-1.0917
X1.8935Y-0.4234
X1.8935Y-0.453
X1.8935Y-0.4943
X1.8935Y-0.5238
X1.924Y-0.453
X1.924Y-0.4943
T3
X2.1785Y-1.2569
X2.2573Y-1.2569
T4
X0.1Y-0.4
X0.1Y-0.5
X0.1Y-0.6
X0.1Y-0.7
X0.1Y-0.8
X0.1Y-0.9
X0.1Y-1.0
X0.1Y-1.1
X0.1Y-1.2
X0.1Y-1.3
X0.1Y-1.4
X0.1Y-1.5
X0.1Y-1.6
X0.1Y-1.7
X0.1Y-1.8
X0.1Y-1.9
X0.2Y-0.4
X0.2Y-0.5
X0.2Y-0.6
X0.2Y-0.7
X0.2Y-0.8
X0.2Y-0.9
X0.2Y-1.0
X0.2Y-1.1
X0.2Y-1.2
X0.2Y-1.3
X0.2Y-1.4
X0.2Y-1.5
X0.2Y-1.6
X0.2Y-1.7
X0.2Y-1.8
X0.2Y-1.9
T5
X1.6474Y-0.2372
X1.8364Y-0.2372
X2.0254Y-0.2372
T2
G00X2.0868Y-0.7238
M15
G01X2.0868Y-0.7671
M16
G05
G00X2.0868Y-0.8982
M15
G01X2.0868Y-0.9219
M16
G05
G00X2.427Y-0.7238
M15
G01X2.427Y-0.7671
M16
G05
G00X2.427Y-0.8982
M15
G01X2.427Y-0.9219
M16
G05
M30
