%TF.GenerationSoftware,KiCad,Pcbnew,9.0.0*%
%TF.CreationDate,2025-04-10T10:58:41+02:00*%
%TF.ProjectId,Micro-Mouse Power Subsystem,4d696372-6f2d-44d6-9f75-736520506f77,rev?*%
%TF.SameCoordinates,Original*%
%TF.FileFunction,Legend,Bot*%
%TF.FilePolarity,Positive*%
%FSLAX46Y46*%
G04 Gerber Fmt 4.6, Leading zero omitted, Abs format (unit mm)*
G04 Created by KiCad (PCBNEW 9.0.0) date 2025-04-10 10:58:41*
%MOMM*%
%LPD*%
G01*
G04 APERTURE LIST*
G04 Aperture macros list*
%AMRoundRect*
0 Rectangle with rounded corners*
0 $1 Rounding radius*
0 $2 $3 $4 $5 $6 $7 $8 $9 X,Y pos of 4 corners*
0 Add a 4 corners polygon primitive as box body*
4,1,4,$2,$3,$4,$5,$6,$7,$8,$9,$2,$3,0*
0 Add four circle primitives for the rounded corners*
1,1,$1+$1,$2,$3*
1,1,$1+$1,$4,$5*
1,1,$1+$1,$6,$7*
1,1,$1+$1,$8,$9*
0 Add four rect primitives between the rounded corners*
20,1,$1+$1,$2,$3,$4,$5,0*
20,1,$1+$1,$4,$5,$6,$7,0*
20,1,$1+$1,$6,$7,$8,$9,0*
20,1,$1+$1,$8,$9,$2,$3,0*%
G04 Aperture macros list end*
%ADD10C,0.150000*%
%ADD11C,0.450000*%
%ADD12R,1.700000X1.700000*%
%ADD13O,1.700000X1.700000*%
%ADD14RoundRect,0.250000X-0.625000X0.350000X-0.625000X-0.350000X0.625000X-0.350000X0.625000X0.350000X0*%
%ADD15O,1.750000X1.200000*%
%ADD16C,0.650000*%
%ADD17O,1.000000X2.100000*%
%ADD18O,1.000000X1.600000*%
%ADD19RoundRect,0.249999X1.025001X1.025001X-1.025001X1.025001X-1.025001X-1.025001X1.025001X-1.025001X0*%
%ADD20C,2.550000*%
G04 APERTURE END LIST*
D10*
X106811904Y-125257505D02*
X106716666Y-125305124D01*
X106716666Y-125305124D02*
X106573809Y-125305124D01*
X106573809Y-125305124D02*
X106430952Y-125257505D01*
X106430952Y-125257505D02*
X106335714Y-125162267D01*
X106335714Y-125162267D02*
X106288095Y-125067029D01*
X106288095Y-125067029D02*
X106240476Y-124876553D01*
X106240476Y-124876553D02*
X106240476Y-124733696D01*
X106240476Y-124733696D02*
X106288095Y-124543220D01*
X106288095Y-124543220D02*
X106335714Y-124447982D01*
X106335714Y-124447982D02*
X106430952Y-124352744D01*
X106430952Y-124352744D02*
X106573809Y-124305124D01*
X106573809Y-124305124D02*
X106669047Y-124305124D01*
X106669047Y-124305124D02*
X106811904Y-124352744D01*
X106811904Y-124352744D02*
X106859523Y-124400363D01*
X106859523Y-124400363D02*
X106859523Y-124733696D01*
X106859523Y-124733696D02*
X106669047Y-124733696D01*
X107288095Y-124305124D02*
X107288095Y-124971791D01*
X107288095Y-124781315D02*
X107335714Y-124876553D01*
X107335714Y-124876553D02*
X107383333Y-124924172D01*
X107383333Y-124924172D02*
X107478571Y-124971791D01*
X107478571Y-124971791D02*
X107573809Y-124971791D01*
X108050000Y-124305124D02*
X107954762Y-124352744D01*
X107954762Y-124352744D02*
X107907143Y-124400363D01*
X107907143Y-124400363D02*
X107859524Y-124495601D01*
X107859524Y-124495601D02*
X107859524Y-124781315D01*
X107859524Y-124781315D02*
X107907143Y-124876553D01*
X107907143Y-124876553D02*
X107954762Y-124924172D01*
X107954762Y-124924172D02*
X108050000Y-124971791D01*
X108050000Y-124971791D02*
X108192857Y-124971791D01*
X108192857Y-124971791D02*
X108288095Y-124924172D01*
X108288095Y-124924172D02*
X108335714Y-124876553D01*
X108335714Y-124876553D02*
X108383333Y-124781315D01*
X108383333Y-124781315D02*
X108383333Y-124495601D01*
X108383333Y-124495601D02*
X108335714Y-124400363D01*
X108335714Y-124400363D02*
X108288095Y-124352744D01*
X108288095Y-124352744D02*
X108192857Y-124305124D01*
X108192857Y-124305124D02*
X108050000Y-124305124D01*
X109240476Y-124971791D02*
X109240476Y-124305124D01*
X108811905Y-124971791D02*
X108811905Y-124447982D01*
X108811905Y-124447982D02*
X108859524Y-124352744D01*
X108859524Y-124352744D02*
X108954762Y-124305124D01*
X108954762Y-124305124D02*
X109097619Y-124305124D01*
X109097619Y-124305124D02*
X109192857Y-124352744D01*
X109192857Y-124352744D02*
X109240476Y-124400363D01*
X109716667Y-124971791D02*
X109716667Y-123971791D01*
X109716667Y-124924172D02*
X109811905Y-124971791D01*
X109811905Y-124971791D02*
X110002381Y-124971791D01*
X110002381Y-124971791D02*
X110097619Y-124924172D01*
X110097619Y-124924172D02*
X110145238Y-124876553D01*
X110145238Y-124876553D02*
X110192857Y-124781315D01*
X110192857Y-124781315D02*
X110192857Y-124495601D01*
X110192857Y-124495601D02*
X110145238Y-124400363D01*
X110145238Y-124400363D02*
X110097619Y-124352744D01*
X110097619Y-124352744D02*
X110002381Y-124305124D01*
X110002381Y-124305124D02*
X109811905Y-124305124D01*
X109811905Y-124305124D02*
X109716667Y-124352744D01*
X111907143Y-124305124D02*
X111335715Y-124305124D01*
X111621429Y-124305124D02*
X111621429Y-125305124D01*
X111621429Y-125305124D02*
X111526191Y-125162267D01*
X111526191Y-125162267D02*
X111430953Y-125067029D01*
X111430953Y-125067029D02*
X111335715Y-125019410D01*
X112764286Y-125305124D02*
X112573810Y-125305124D01*
X112573810Y-125305124D02*
X112478572Y-125257505D01*
X112478572Y-125257505D02*
X112430953Y-125209886D01*
X112430953Y-125209886D02*
X112335715Y-125067029D01*
X112335715Y-125067029D02*
X112288096Y-124876553D01*
X112288096Y-124876553D02*
X112288096Y-124495601D01*
X112288096Y-124495601D02*
X112335715Y-124400363D01*
X112335715Y-124400363D02*
X112383334Y-124352744D01*
X112383334Y-124352744D02*
X112478572Y-124305124D01*
X112478572Y-124305124D02*
X112669048Y-124305124D01*
X112669048Y-124305124D02*
X112764286Y-124352744D01*
X112764286Y-124352744D02*
X112811905Y-124400363D01*
X112811905Y-124400363D02*
X112859524Y-124495601D01*
X112859524Y-124495601D02*
X112859524Y-124733696D01*
X112859524Y-124733696D02*
X112811905Y-124828934D01*
X112811905Y-124828934D02*
X112764286Y-124876553D01*
X112764286Y-124876553D02*
X112669048Y-124924172D01*
X112669048Y-124924172D02*
X112478572Y-124924172D01*
X112478572Y-124924172D02*
X112383334Y-124876553D01*
X112383334Y-124876553D02*
X112335715Y-124828934D01*
X112335715Y-124828934D02*
X112288096Y-124733696D01*
X105192857Y-122695180D02*
X105192857Y-123695180D01*
X105192857Y-123695180D02*
X105526190Y-122980895D01*
X105526190Y-122980895D02*
X105859523Y-123695180D01*
X105859523Y-123695180D02*
X105859523Y-122695180D01*
X106240476Y-123695180D02*
X106907142Y-122695180D01*
X106907142Y-123695180D02*
X106240476Y-122695180D01*
X107288095Y-122695180D02*
X107288095Y-123695180D01*
X107288095Y-123695180D02*
X107859523Y-122695180D01*
X107859523Y-122695180D02*
X107859523Y-123695180D01*
X108669047Y-123218990D02*
X108811904Y-123171371D01*
X108811904Y-123171371D02*
X108859523Y-123123752D01*
X108859523Y-123123752D02*
X108907142Y-123028514D01*
X108907142Y-123028514D02*
X108907142Y-122885657D01*
X108907142Y-122885657D02*
X108859523Y-122790419D01*
X108859523Y-122790419D02*
X108811904Y-122742800D01*
X108811904Y-122742800D02*
X108716666Y-122695180D01*
X108716666Y-122695180D02*
X108335714Y-122695180D01*
X108335714Y-122695180D02*
X108335714Y-123695180D01*
X108335714Y-123695180D02*
X108669047Y-123695180D01*
X108669047Y-123695180D02*
X108764285Y-123647561D01*
X108764285Y-123647561D02*
X108811904Y-123599942D01*
X108811904Y-123599942D02*
X108859523Y-123504704D01*
X108859523Y-123504704D02*
X108859523Y-123409466D01*
X108859523Y-123409466D02*
X108811904Y-123314228D01*
X108811904Y-123314228D02*
X108764285Y-123266609D01*
X108764285Y-123266609D02*
X108669047Y-123218990D01*
X108669047Y-123218990D02*
X108335714Y-123218990D01*
X109335714Y-123695180D02*
X109335714Y-122885657D01*
X109335714Y-122885657D02*
X109383333Y-122790419D01*
X109383333Y-122790419D02*
X109430952Y-122742800D01*
X109430952Y-122742800D02*
X109526190Y-122695180D01*
X109526190Y-122695180D02*
X109716666Y-122695180D01*
X109716666Y-122695180D02*
X109811904Y-122742800D01*
X109811904Y-122742800D02*
X109859523Y-122790419D01*
X109859523Y-122790419D02*
X109907142Y-122885657D01*
X109907142Y-122885657D02*
X109907142Y-123695180D01*
X110383333Y-122695180D02*
X110383333Y-123695180D01*
X110383333Y-123695180D02*
X110716666Y-122980895D01*
X110716666Y-122980895D02*
X111049999Y-123695180D01*
X111049999Y-123695180D02*
X111049999Y-122695180D01*
X111716666Y-123695180D02*
X111811904Y-123695180D01*
X111811904Y-123695180D02*
X111907142Y-123647561D01*
X111907142Y-123647561D02*
X111954761Y-123599942D01*
X111954761Y-123599942D02*
X112002380Y-123504704D01*
X112002380Y-123504704D02*
X112049999Y-123314228D01*
X112049999Y-123314228D02*
X112049999Y-123076133D01*
X112049999Y-123076133D02*
X112002380Y-122885657D01*
X112002380Y-122885657D02*
X111954761Y-122790419D01*
X111954761Y-122790419D02*
X111907142Y-122742800D01*
X111907142Y-122742800D02*
X111811904Y-122695180D01*
X111811904Y-122695180D02*
X111716666Y-122695180D01*
X111716666Y-122695180D02*
X111621428Y-122742800D01*
X111621428Y-122742800D02*
X111573809Y-122790419D01*
X111573809Y-122790419D02*
X111526190Y-122885657D01*
X111526190Y-122885657D02*
X111478571Y-123076133D01*
X111478571Y-123076133D02*
X111478571Y-123314228D01*
X111478571Y-123314228D02*
X111526190Y-123504704D01*
X111526190Y-123504704D02*
X111573809Y-123599942D01*
X111573809Y-123599942D02*
X111621428Y-123647561D01*
X111621428Y-123647561D02*
X111716666Y-123695180D01*
X112669047Y-123695180D02*
X112764285Y-123695180D01*
X112764285Y-123695180D02*
X112859523Y-123647561D01*
X112859523Y-123647561D02*
X112907142Y-123599942D01*
X112907142Y-123599942D02*
X112954761Y-123504704D01*
X112954761Y-123504704D02*
X113002380Y-123314228D01*
X113002380Y-123314228D02*
X113002380Y-123076133D01*
X113002380Y-123076133D02*
X112954761Y-122885657D01*
X112954761Y-122885657D02*
X112907142Y-122790419D01*
X112907142Y-122790419D02*
X112859523Y-122742800D01*
X112859523Y-122742800D02*
X112764285Y-122695180D01*
X112764285Y-122695180D02*
X112669047Y-122695180D01*
X112669047Y-122695180D02*
X112573809Y-122742800D01*
X112573809Y-122742800D02*
X112526190Y-122790419D01*
X112526190Y-122790419D02*
X112478571Y-122885657D01*
X112478571Y-122885657D02*
X112430952Y-123076133D01*
X112430952Y-123076133D02*
X112430952Y-123314228D01*
X112430952Y-123314228D02*
X112478571Y-123504704D01*
X112478571Y-123504704D02*
X112526190Y-123599942D01*
X112526190Y-123599942D02*
X112573809Y-123647561D01*
X112573809Y-123647561D02*
X112669047Y-123695180D01*
X113954761Y-122695180D02*
X113383333Y-122695180D01*
X113669047Y-122695180D02*
X113669047Y-123695180D01*
X113669047Y-123695180D02*
X113573809Y-123552323D01*
X113573809Y-123552323D02*
X113478571Y-123457085D01*
X113478571Y-123457085D02*
X113383333Y-123409466D01*
X105597619Y-122085236D02*
X106169047Y-122085236D01*
X105883333Y-121085236D02*
X105883333Y-122085236D01*
X106502381Y-121085236D02*
X106502381Y-122085236D01*
X106502381Y-122085236D02*
X107073809Y-121085236D01*
X107073809Y-121085236D02*
X107073809Y-122085236D01*
X107454762Y-122085236D02*
X108121428Y-121085236D01*
X108121428Y-122085236D02*
X107454762Y-121085236D01*
X108454762Y-121132856D02*
X108597619Y-121085236D01*
X108597619Y-121085236D02*
X108835714Y-121085236D01*
X108835714Y-121085236D02*
X108930952Y-121132856D01*
X108930952Y-121132856D02*
X108978571Y-121180475D01*
X108978571Y-121180475D02*
X109026190Y-121275713D01*
X109026190Y-121275713D02*
X109026190Y-121370951D01*
X109026190Y-121370951D02*
X108978571Y-121466189D01*
X108978571Y-121466189D02*
X108930952Y-121513808D01*
X108930952Y-121513808D02*
X108835714Y-121561427D01*
X108835714Y-121561427D02*
X108645238Y-121609046D01*
X108645238Y-121609046D02*
X108550000Y-121656665D01*
X108550000Y-121656665D02*
X108502381Y-121704284D01*
X108502381Y-121704284D02*
X108454762Y-121799522D01*
X108454762Y-121799522D02*
X108454762Y-121894760D01*
X108454762Y-121894760D02*
X108502381Y-121989998D01*
X108502381Y-121989998D02*
X108550000Y-122037617D01*
X108550000Y-122037617D02*
X108645238Y-122085236D01*
X108645238Y-122085236D02*
X108883333Y-122085236D01*
X108883333Y-122085236D02*
X109026190Y-122037617D01*
X109454762Y-121085236D02*
X109454762Y-122085236D01*
X109930952Y-121085236D02*
X109930952Y-122085236D01*
X109930952Y-122085236D02*
X110502380Y-121085236D01*
X110502380Y-121085236D02*
X110502380Y-122085236D01*
X111169047Y-122085236D02*
X111264285Y-122085236D01*
X111264285Y-122085236D02*
X111359523Y-122037617D01*
X111359523Y-122037617D02*
X111407142Y-121989998D01*
X111407142Y-121989998D02*
X111454761Y-121894760D01*
X111454761Y-121894760D02*
X111502380Y-121704284D01*
X111502380Y-121704284D02*
X111502380Y-121466189D01*
X111502380Y-121466189D02*
X111454761Y-121275713D01*
X111454761Y-121275713D02*
X111407142Y-121180475D01*
X111407142Y-121180475D02*
X111359523Y-121132856D01*
X111359523Y-121132856D02*
X111264285Y-121085236D01*
X111264285Y-121085236D02*
X111169047Y-121085236D01*
X111169047Y-121085236D02*
X111073809Y-121132856D01*
X111073809Y-121132856D02*
X111026190Y-121180475D01*
X111026190Y-121180475D02*
X110978571Y-121275713D01*
X110978571Y-121275713D02*
X110930952Y-121466189D01*
X110930952Y-121466189D02*
X110930952Y-121704284D01*
X110930952Y-121704284D02*
X110978571Y-121894760D01*
X110978571Y-121894760D02*
X111026190Y-121989998D01*
X111026190Y-121989998D02*
X111073809Y-122037617D01*
X111073809Y-122037617D02*
X111169047Y-122085236D01*
X112121428Y-122085236D02*
X112216666Y-122085236D01*
X112216666Y-122085236D02*
X112311904Y-122037617D01*
X112311904Y-122037617D02*
X112359523Y-121989998D01*
X112359523Y-121989998D02*
X112407142Y-121894760D01*
X112407142Y-121894760D02*
X112454761Y-121704284D01*
X112454761Y-121704284D02*
X112454761Y-121466189D01*
X112454761Y-121466189D02*
X112407142Y-121275713D01*
X112407142Y-121275713D02*
X112359523Y-121180475D01*
X112359523Y-121180475D02*
X112311904Y-121132856D01*
X112311904Y-121132856D02*
X112216666Y-121085236D01*
X112216666Y-121085236D02*
X112121428Y-121085236D01*
X112121428Y-121085236D02*
X112026190Y-121132856D01*
X112026190Y-121132856D02*
X111978571Y-121180475D01*
X111978571Y-121180475D02*
X111930952Y-121275713D01*
X111930952Y-121275713D02*
X111883333Y-121466189D01*
X111883333Y-121466189D02*
X111883333Y-121704284D01*
X111883333Y-121704284D02*
X111930952Y-121894760D01*
X111930952Y-121894760D02*
X111978571Y-121989998D01*
X111978571Y-121989998D02*
X112026190Y-122037617D01*
X112026190Y-122037617D02*
X112121428Y-122085236D01*
X113407142Y-121085236D02*
X112835714Y-121085236D01*
X113121428Y-121085236D02*
X113121428Y-122085236D01*
X113121428Y-122085236D02*
X113026190Y-121942379D01*
X113026190Y-121942379D02*
X112930952Y-121847141D01*
X112930952Y-121847141D02*
X112835714Y-121799522D01*
%LPC*%
D11*
%TO.C,U3*%
X108934300Y-109453000D03*
X109709300Y-108703000D03*
X108934300Y-108703000D03*
X108159300Y-108703000D03*
X109709300Y-107653000D03*
X108934300Y-107653000D03*
X108159300Y-107653000D03*
X108934300Y-106903000D03*
%TD*%
D12*
%TO.C,J1*%
X118529300Y-126843000D03*
D13*
X118529300Y-124303000D03*
X121069300Y-126843000D03*
X121069300Y-124303000D03*
X123609300Y-126843000D03*
X123609300Y-124303000D03*
X126149300Y-126843000D03*
X126149300Y-124303000D03*
X128689300Y-126843000D03*
X128689300Y-124303000D03*
X131229300Y-126843000D03*
X131229300Y-124303000D03*
X133769300Y-126843000D03*
X133769300Y-124303000D03*
X136309300Y-126843000D03*
X136309300Y-124303000D03*
X138849300Y-126843000D03*
X138849300Y-124303000D03*
X141389300Y-126843000D03*
X141389300Y-124303000D03*
X143929300Y-126843000D03*
X143929300Y-124303000D03*
X146469300Y-126843000D03*
X146469300Y-124303000D03*
X149009300Y-126843000D03*
X149009300Y-124303000D03*
X151549300Y-126843000D03*
X151549300Y-124303000D03*
X154089300Y-126843000D03*
X154089300Y-124303000D03*
X156629300Y-126843000D03*
X156629300Y-124303000D03*
%TD*%
D14*
%TO.C,J2*%
X128209300Y-103203000D03*
D15*
X128209300Y-105203000D03*
%TD*%
D16*
%TO.C,J3*%
X147999300Y-83553000D03*
X142219300Y-83553000D03*
D17*
X149429300Y-84083000D03*
D18*
X149429300Y-79903000D03*
D17*
X140789300Y-84083000D03*
D18*
X140789300Y-79903000D03*
%TD*%
D19*
%TO.C,SW1*%
X129671800Y-95573000D03*
D20*
X124871800Y-95573000D03*
X120071800Y-95573000D03*
%TD*%
%LPD*%
M02*
