%TF.GenerationSoftware,KiCad,Pcbnew,9.0.0*%
%TF.CreationDate,2025-04-10T10:58:41+02:00*%
%TF.ProjectId,Micro-Mouse Power Subsystem,4d696372-6f2d-44d6-9f75-736520506f77,rev?*%
%TF.SameCoordinates,Original*%
%TF.FileFunction,Copper,L2,Bot*%
%TF.FilePolarity,Positive*%
%FSLAX46Y46*%
G04 Gerber Fmt 4.6, Leading zero omitted, Abs format (unit mm)*
G04 Created by KiCad (PCBNEW 9.0.0) date 2025-04-10 10:58:41*
%MOMM*%
%LPD*%
G01*
G04 APERTURE LIST*
G04 Aperture macros list*
%AMRoundRect*
0 Rectangle with rounded corners*
0 $1 Rounding radius*
0 $2 $3 $4 $5 $6 $7 $8 $9 X,Y pos of 4 corners*
0 Add a 4 corners polygon primitive as box body*
4,1,4,$2,$3,$4,$5,$6,$7,$8,$9,$2,$3,0*
0 Add four circle primitives for the rounded corners*
1,1,$1+$1,$2,$3*
1,1,$1+$1,$4,$5*
1,1,$1+$1,$6,$7*
1,1,$1+$1,$8,$9*
0 Add four rect primitives between the rounded corners*
20,1,$1+$1,$2,$3,$4,$5,0*
20,1,$1+$1,$4,$5,$6,$7,0*
20,1,$1+$1,$6,$7,$8,$9,0*
20,1,$1+$1,$8,$9,$2,$3,0*%
G04 Aperture macros list end*
%TA.AperFunction,ComponentPad*%
%ADD10C,0.450000*%
%TD*%
%TA.AperFunction,HeatsinkPad*%
%ADD11C,0.500000*%
%TD*%
%TA.AperFunction,HeatsinkPad*%
%ADD12R,3.500000X2.000000*%
%TD*%
%TA.AperFunction,HeatsinkPad*%
%ADD13R,1.900000X2.900000*%
%TD*%
%TA.AperFunction,ComponentPad*%
%ADD14R,1.700000X1.700000*%
%TD*%
%TA.AperFunction,ComponentPad*%
%ADD15O,1.700000X1.700000*%
%TD*%
%TA.AperFunction,ComponentPad*%
%ADD16RoundRect,0.250000X-0.625000X0.350000X-0.625000X-0.350000X0.625000X-0.350000X0.625000X0.350000X0*%
%TD*%
%TA.AperFunction,ComponentPad*%
%ADD17O,1.750000X1.200000*%
%TD*%
%TA.AperFunction,HeatsinkPad*%
%ADD18O,1.000000X2.100000*%
%TD*%
%TA.AperFunction,HeatsinkPad*%
%ADD19O,1.000000X1.600000*%
%TD*%
%TA.AperFunction,ComponentPad*%
%ADD20RoundRect,0.249999X1.025001X1.025001X-1.025001X1.025001X-1.025001X-1.025001X1.025001X-1.025001X0*%
%TD*%
%TA.AperFunction,ComponentPad*%
%ADD21C,2.550000*%
%TD*%
%TA.AperFunction,ViaPad*%
%ADD22C,0.800000*%
%TD*%
%TA.AperFunction,ViaPad*%
%ADD23C,4.800000*%
%TD*%
%TA.AperFunction,Conductor*%
%ADD24C,0.250000*%
%TD*%
%TA.AperFunction,Conductor*%
%ADD25C,0.350000*%
%TD*%
%TA.AperFunction,Conductor*%
%ADD26C,0.500000*%
%TD*%
G04 APERTURE END LIST*
D10*
%TO.P,U3,22,PGND*%
%TO.N,GND*%
X108934300Y-109453000D03*
%TO.P,U3,23,PGND*%
X109709300Y-108703000D03*
%TO.P,U3,24,PGND*%
X108934300Y-108703000D03*
%TO.P,U3,25,PGND*%
X108159300Y-108703000D03*
%TO.P,U3,26,PGND*%
X109709300Y-107653000D03*
%TO.P,U3,27,PGND*%
X108934300Y-107653000D03*
%TO.P,U3,28,PGND*%
X108159300Y-107653000D03*
%TO.P,U3,29,PGND*%
X108934300Y-106903000D03*
%TD*%
D11*
%TO.P,U5,17,GND(PPAD)*%
%TO.N,GND*%
X170425000Y-115162500D03*
X168925000Y-115162500D03*
X167425000Y-115162500D03*
D12*
X168925000Y-115912500D03*
D11*
X170425000Y-116662500D03*
X168925000Y-116662500D03*
X167425000Y-116662500D03*
%TD*%
%TO.P,U6,17,GND(PPAD)*%
%TO.N,GND*%
X156559300Y-112103000D03*
X155059300Y-112103000D03*
X153559300Y-112103000D03*
D12*
X155059300Y-112853000D03*
D11*
X156559300Y-113603000D03*
X155059300Y-113603000D03*
X153559300Y-113603000D03*
%TD*%
%TO.P,U1,9,EPAD*%
%TO.N,GND*%
X136609300Y-106783000D03*
X136609300Y-107983000D03*
X136609300Y-109183000D03*
D13*
X137309300Y-107983000D03*
D11*
X138009300Y-106783000D03*
X138009300Y-107983000D03*
X138009300Y-109183000D03*
%TD*%
D14*
%TO.P,J1,1,Pin_1*%
%TO.N,/MOTOR2_B_OUT*%
X118529300Y-126843000D03*
D15*
%TO.P,J1,2,Pin_2*%
%TO.N,/MOTOR2_A_OUT*%
X118529300Y-124303000D03*
%TO.P,J1,3,Pin_3*%
%TO.N,/MOTOR4_A_OUT*%
X121069300Y-126843000D03*
%TO.P,J1,4,Pin_4*%
%TO.N,/MOTOR2_CTRL1*%
X121069300Y-124303000D03*
%TO.P,J1,5,Pin_5*%
%TO.N,/MOTOR4_B_OUT*%
X123609300Y-126843000D03*
%TO.P,J1,6,Pin_6*%
%TO.N,/MOTOR2_CTRL2*%
X123609300Y-124303000D03*
%TO.P,J1,7,Pin_7*%
%TO.N,/CTRL_EXT_LOAD2*%
X126149300Y-126843000D03*
%TO.P,J1,8,Pin_8*%
%TO.N,/MOTOR4_CTRL1*%
X126149300Y-124303000D03*
%TO.P,J1,9,Pin_9*%
%TO.N,unconnected-(J1-Pin_9-Pad9)*%
X128689300Y-126843000D03*
%TO.P,J1,10,Pin_10*%
%TO.N,/MOTOR4_CTRL2*%
X128689300Y-124303000D03*
%TO.P,J1,11,Pin_11*%
%TO.N,/EXT_LOAD2_OUT*%
X131229300Y-126843000D03*
%TO.P,J1,12,Pin_12*%
%TO.N,/USART2_TX *%
X131229300Y-124303000D03*
%TO.P,J1,13,Pin_13*%
%TO.N,/FAST_CHARGE_CTRL *%
X133769300Y-126843000D03*
%TO.P,J1,14,Pin_14*%
%TO.N,/BATTERY*%
X133769300Y-124303000D03*
%TO.P,J1,15,Pin_15*%
%TO.N,unconnected-(J1-Pin_15-Pad15)*%
X136309300Y-126843000D03*
%TO.P,J1,16,Pin_16*%
%TO.N,/I2C1_SCL *%
X136309300Y-124303000D03*
%TO.P,J1,17,Pin_17*%
%TO.N,/I2C1_SDA *%
X138849300Y-126843000D03*
%TO.P,J1,18,Pin_18*%
%TO.N,/3V3 Out *%
X138849300Y-124303000D03*
%TO.P,J1,19,Pin_19*%
%TO.N,unconnected-(J1-Pin_19-Pad19)*%
X141389300Y-126843000D03*
%TO.P,J1,20,Pin_20*%
%TO.N,/5V_OUT*%
X141389300Y-124303000D03*
%TO.P,J1,21,Pin_21*%
%TO.N,/EXT_LOAD1_OUT*%
X143929300Y-126843000D03*
%TO.P,J1,22,Pin_22*%
%TO.N,/HV (9V)*%
X143929300Y-124303000D03*
%TO.P,J1,23,Pin_23*%
%TO.N,unconnected-(J1-Pin_23-Pad23)*%
X146469300Y-126843000D03*
%TO.P,J1,24,Pin_24*%
%TO.N,/MOTOR3_CTRL1*%
X146469300Y-124303000D03*
%TO.P,J1,25,Pin_25*%
%TO.N,/CTRL_EXT_LOAD1*%
X149009300Y-126843000D03*
%TO.P,J1,26,Pin_26*%
%TO.N,/MOTOR3_CTRL2*%
X149009300Y-124303000D03*
%TO.P,J1,27,Pin_27*%
%TO.N,/MOTOR3_A_OUT*%
X151549300Y-126843000D03*
%TO.P,J1,28,Pin_28*%
%TO.N,/MOTOR1_CTRL1*%
X151549300Y-124303000D03*
%TO.P,J1,29,Pin_29*%
%TO.N,/MOTOR3_B_OUT*%
X154089300Y-126843000D03*
%TO.P,J1,30,Pin_30*%
%TO.N,/MOTOR1_CTRL2*%
X154089300Y-124303000D03*
%TO.P,J1,31,Pin_31*%
%TO.N,/MOTOR1_B_OUT*%
X156629300Y-126843000D03*
%TO.P,J1,32,Pin_32*%
%TO.N,/MOTOR1_A_OUT *%
X156629300Y-124303000D03*
%TD*%
D16*
%TO.P,J2,1,Pin_1*%
%TO.N,GND*%
X128209300Y-103203000D03*
D17*
%TO.P,J2,2,Pin_2*%
%TO.N,/BATTERY*%
X128209300Y-105203000D03*
%TD*%
D18*
%TO.P,J3,S1,SHIELD*%
%TO.N,GND*%
X149429300Y-84083000D03*
D19*
X149429300Y-79903000D03*
D18*
X140789300Y-84083000D03*
D19*
X140789300Y-79903000D03*
%TD*%
D20*
%TO.P,SW1,1,A*%
%TO.N,unconnected-(SW1-A-Pad1)*%
X129671800Y-95573000D03*
D21*
%TO.P,SW1,2,B*%
%TO.N,/BATTERY*%
X124871800Y-95573000D03*
%TO.P,SW1,3,C*%
%TO.N,/SWITCH_OUT*%
X120071800Y-95573000D03*
%TD*%
D22*
%TO.N,GND*%
X125293000Y-118623000D03*
D23*
X136899000Y-89403000D03*
D22*
X150764600Y-104316000D03*
D23*
X136899000Y-79513000D03*
X136749000Y-99373000D03*
D22*
%TO.N,/5V Out *%
X171200000Y-110750000D03*
X161300000Y-111000000D03*
%TO.N,/HV (9V)*%
X149350000Y-91000000D03*
X134850000Y-85650000D03*
%TO.N,/5V_OUT*%
X141600000Y-131750000D03*
X104450000Y-98900000D03*
X106100000Y-103650000D03*
%TO.N,/SWITCH_OUT*%
X111474000Y-105682000D03*
%TO.N,/BATTERY*%
X138119000Y-111553000D03*
X132700000Y-121100000D03*
X123006000Y-82608000D03*
%TO.N,Net-(D1-K)*%
X171931000Y-102370000D03*
X170179000Y-94946600D03*
%TO.N,/MOTOR3_A_OUT*%
X158562000Y-108830000D03*
%TO.N,/MOTOR1_B_OUT*%
X169175000Y-110150000D03*
%TO.N,/MOTOR1_CTRL1*%
X173750000Y-119100000D03*
%TO.N,/MOTOR4_CTRL1*%
X140950000Y-122100000D03*
%TO.N,/MOTOR2_CTRL1*%
X163204000Y-118929000D03*
X163204000Y-122400000D03*
%TO.N,/MOTOR3_CTRL2*%
X151965000Y-120142000D03*
%TO.N,/MOTOR1_CTRL2*%
X172300000Y-120650000D03*
%TO.N,/CTRL_EXT_LOAD1*%
X149050000Y-117150000D03*
%TO.N,Net-(J3-CC1)*%
X146359000Y-83260600D03*
X145179000Y-89621200D03*
%TO.N,/EXT_LOAD1_OUT*%
X142752000Y-114183000D03*
%TO.N,Net-(J3-CC2)*%
X143403000Y-83665800D03*
X141731000Y-88657100D03*
%TO.N,Net-(J3-DN1)*%
X139050000Y-82647000D03*
X139933000Y-87877000D03*
%TO.N,Net-(U3-ILIM)*%
X106771000Y-110682000D03*
X117875000Y-113996000D03*
%TO.N,Net-(U3-COMP)*%
X99654800Y-101342000D03*
X105570000Y-109905000D03*
%TO.N,Net-(U1-PROG)*%
X142350000Y-98900000D03*
X131850000Y-106400000D03*
%TO.N,Net-(U8-VSET)*%
X146907000Y-90056600D03*
X146650000Y-87350000D03*
%TO.N,/MOTOR2_A_OUT*%
X123262000Y-116586000D03*
%TO.N,/MOTOR2_B_OUT*%
X168600000Y-108450000D03*
X172800000Y-130450000D03*
%TO.N,/MOTOR4_B_OUT*%
X150224000Y-106341000D03*
X145250000Y-128826000D03*
%TO.N,/MOTOR4_A_OUT*%
X133944000Y-113319000D03*
%TO.N,/5V_BAT_CHARGE*%
X137003100Y-105401200D03*
X136417000Y-110303900D03*
%TD*%
D24*
%TO.N,GND*%
X156364000Y-112403000D02*
X156364000Y-113153000D01*
X140594000Y-80800000D02*
X140789300Y-80604700D01*
X136554000Y-98923000D02*
X136554000Y-89103000D01*
X136554000Y-89103000D02*
X136576500Y-89080500D01*
X127886700Y-102880300D02*
X125098000Y-105669000D01*
X168330000Y-115815000D02*
X168330000Y-116190000D01*
X137814000Y-107983000D02*
X137814000Y-107533000D01*
X138009300Y-106783000D02*
X137814000Y-106978300D01*
X153364000Y-106915400D02*
X150764600Y-104316000D01*
X149234000Y-80800000D02*
X149429300Y-80604700D01*
X149234000Y-80800000D02*
X149234000Y-82216500D01*
X155059300Y-112853000D02*
X155059300Y-113603000D01*
X155059300Y-112853000D02*
X154864000Y-112853000D01*
X125098000Y-116815000D02*
X125293000Y-117010000D01*
X149429300Y-80604700D02*
X149429300Y-79903000D01*
X136609300Y-106783000D02*
X136609300Y-107983000D01*
X136704000Y-80605000D02*
X136899000Y-80410000D01*
X149234000Y-79453000D02*
X149234000Y-80800000D01*
X168827500Y-115815000D02*
X168925000Y-115912500D01*
X155059300Y-112207700D02*
X155059300Y-112103000D01*
X156559300Y-112207700D02*
X156559300Y-112103000D01*
X168827500Y-115815000D02*
X168827500Y-115260000D01*
X140789300Y-80604700D02*
X140789300Y-79903000D01*
X127886700Y-102880400D02*
X127886700Y-102880300D01*
X136749000Y-99373000D02*
X136554000Y-99178000D01*
X153364000Y-113407700D02*
X153364000Y-113153000D01*
X128209300Y-103203000D02*
X127886700Y-102880400D01*
X154864000Y-112853000D02*
X154864000Y-113153000D01*
X138009300Y-107887700D02*
X138009300Y-107983000D01*
X136704000Y-80605000D02*
X136704000Y-79063000D01*
X125098000Y-105669000D02*
X125098000Y-116815000D01*
X136704000Y-88953000D02*
X136704000Y-80605000D01*
X137814000Y-106978300D02*
X137814000Y-107533000D01*
X140789300Y-84083000D02*
X140594000Y-83887700D01*
X167425000Y-116662500D02*
X167425000Y-115162500D01*
X137814000Y-108733000D02*
X137814000Y-108133000D01*
X156364000Y-113407700D02*
X156364000Y-113153000D01*
X136576500Y-89080500D02*
X136704000Y-88953000D01*
X125293000Y-117010000D02*
X125293000Y-118623000D01*
X138009300Y-108328300D02*
X138009300Y-109183000D01*
X149234000Y-82216500D02*
X149234000Y-83633000D01*
X136899000Y-89403000D02*
X136576500Y-89080500D01*
X153559300Y-112207700D02*
X153559300Y-112103000D01*
X140594000Y-83887700D02*
X140594000Y-83633000D01*
X153559300Y-113603000D02*
X153364000Y-113407700D01*
X153364000Y-111653000D02*
X153364000Y-112403000D01*
X153364000Y-112403000D02*
X153364000Y-113153000D01*
X154864000Y-112403000D02*
X154864000Y-112853000D01*
X156559300Y-113603000D02*
X156364000Y-113407700D01*
X125098000Y-116815000D02*
X125098000Y-118173000D01*
X137814000Y-108133000D02*
X138009300Y-108328300D01*
X137814000Y-107533000D02*
X138089000Y-107808000D01*
X137814000Y-108133000D02*
X137814000Y-107983000D01*
X168827500Y-115260000D02*
X168925000Y-115162500D01*
X168330000Y-115815000D02*
X168827500Y-115815000D01*
X156364000Y-112403000D02*
X156559300Y-112207700D01*
X140594000Y-80800000D02*
X140594000Y-83633000D01*
X138089000Y-107808000D02*
X138009300Y-107887700D01*
X140594000Y-79453000D02*
X140594000Y-80800000D01*
X128014000Y-102753000D02*
X127886700Y-102880300D01*
X168925000Y-116662500D02*
X168925000Y-115912500D01*
X153364000Y-111653000D02*
X153364000Y-106915400D01*
X137309300Y-107983000D02*
X137814000Y-107983000D01*
X154864000Y-112403000D02*
X155059300Y-112207700D01*
X168330000Y-115440000D02*
X168330000Y-115815000D01*
X136554000Y-99178000D02*
X136554000Y-98923000D01*
X149429300Y-82411800D02*
X149429300Y-84083000D01*
X136609300Y-109183000D02*
X136609300Y-107983000D01*
X153364000Y-112403000D02*
X153559300Y-112207700D01*
X149234000Y-82216500D02*
X149429300Y-82411800D01*
X136899000Y-80410000D02*
X136899000Y-79513000D01*
X108934300Y-109453000D02*
X108934300Y-108703000D01*
D25*
%TO.N,/5V Out *%
X170950000Y-111000000D02*
X171200000Y-110750000D01*
X161300000Y-111000000D02*
X170950000Y-111000000D01*
D26*
%TO.N,/HV (9V)*%
X134850000Y-85650000D02*
X134048000Y-84848300D01*
X154150000Y-83150000D02*
X154150000Y-98100000D01*
X149350000Y-91000000D02*
X147165000Y-91000000D01*
X143734000Y-122676000D02*
X144905000Y-121506000D01*
X150380300Y-79380300D02*
X154150000Y-83150000D01*
X143734000Y-123264500D02*
X143734000Y-122676000D01*
X134048000Y-78332100D02*
X135718000Y-76662000D01*
X144905000Y-121506000D02*
X144905000Y-98900000D01*
D24*
X143929300Y-123459800D02*
X143929300Y-124303000D01*
D26*
X145293000Y-92872300D02*
X144905000Y-92872300D01*
X143734000Y-123853000D02*
X143734000Y-123264500D01*
D24*
X143734000Y-123264500D02*
X143929300Y-123459800D01*
D26*
X153350000Y-98900000D02*
X144905000Y-98900000D01*
X149823217Y-78652000D02*
X150380300Y-79209083D01*
X150380300Y-79209083D02*
X150380300Y-79380300D01*
X147662000Y-76662000D02*
X149652000Y-78652000D01*
X149652000Y-78652000D02*
X149823217Y-78652000D01*
X147165000Y-91000000D02*
X145293000Y-92872300D01*
X144905000Y-92872300D02*
X144905000Y-98900000D01*
X134048000Y-84848300D02*
X134048000Y-78332100D01*
X154150000Y-98100000D02*
X153350000Y-98900000D01*
X135718000Y-76662000D02*
X147662000Y-76662000D01*
D25*
%TO.N,/5V_OUT*%
X140213300Y-130363300D02*
X141600000Y-131750000D01*
X140213300Y-125479000D02*
X140100000Y-125592300D01*
X140100000Y-130250000D02*
X140213300Y-130363300D01*
X141389300Y-124303000D02*
X140213300Y-125479000D01*
D24*
X104450000Y-98900000D02*
X104450000Y-102000000D01*
X104450000Y-102000000D02*
X106100000Y-103650000D01*
D25*
X140100000Y-125592300D02*
X140100000Y-130250000D01*
D24*
%TO.N,/SWITCH_OUT*%
X118352400Y-97292400D02*
X120071800Y-95573000D01*
X118352400Y-97292400D02*
X120072000Y-95573000D01*
X111474000Y-105682000D02*
X111474000Y-104170000D01*
X111474000Y-104170000D02*
X118352400Y-97292400D01*
%TO.N,/BATTERY*%
X124676000Y-95123000D02*
X123975000Y-95123000D01*
X128014000Y-105216500D02*
X128014000Y-105680000D01*
X132700000Y-121100000D02*
X132700000Y-116972000D01*
X124676500Y-95123000D02*
X124871800Y-95318300D01*
X124676000Y-95123000D02*
X124676000Y-84023100D01*
X124677000Y-95123000D02*
X124676500Y-95123000D01*
X132700000Y-116972000D02*
X138119000Y-111553000D01*
X128195800Y-105216500D02*
X128209300Y-105203000D01*
X128014000Y-105216500D02*
X128195800Y-105216500D01*
X128014000Y-104753000D02*
X128014000Y-105216500D01*
X124676000Y-84023100D02*
X123261000Y-82608000D01*
X123261000Y-82608000D02*
X123006000Y-82608000D01*
X124871800Y-95318300D02*
X124871800Y-95573000D01*
X124676500Y-95123000D02*
X124676000Y-95123000D01*
%TO.N,Net-(D1-K)*%
X170434100Y-94946600D02*
X171736000Y-96248500D01*
X170179000Y-94946600D02*
X170434100Y-94946600D01*
X171736000Y-96248500D02*
X171736000Y-101920000D01*
%TO.N,/MOTOR3_A_OUT*%
X152913000Y-123158000D02*
X152913000Y-125479000D01*
X152913000Y-125479000D02*
X151549300Y-126842700D01*
X158562000Y-108830000D02*
X158644000Y-108911000D01*
X151549300Y-126842700D02*
X151549000Y-126843000D01*
X158644000Y-117428000D02*
X152913000Y-123158000D01*
X158644000Y-108911000D02*
X158644000Y-117428000D01*
X151549300Y-126842700D02*
X151549300Y-126843000D01*
%TO.N,/MOTOR1_B_OUT*%
X156629300Y-126842700D02*
X162753000Y-126842700D01*
X156629300Y-126842700D02*
X156629300Y-126843000D01*
X169775000Y-109550000D02*
X169175000Y-110150000D01*
X156629000Y-126843000D02*
X156629300Y-126842700D01*
X162753000Y-126842700D02*
X165150000Y-124445700D01*
X172050000Y-109550000D02*
X169775000Y-109550000D01*
X166100000Y-114450000D02*
X166400000Y-114450000D01*
X166400000Y-114450000D02*
X173750000Y-114450000D01*
X165150000Y-124445700D02*
X165150000Y-115400000D01*
X174000000Y-114200000D02*
X174000000Y-111500000D01*
X173750000Y-114450000D02*
X174000000Y-114200000D01*
X165150000Y-115400000D02*
X166100000Y-114450000D01*
X174000000Y-111500000D02*
X172050000Y-109550000D01*
%TO.N,/MOTOR1_CTRL1*%
X151549000Y-124303000D02*
X150867000Y-124985000D01*
X150867000Y-124985000D02*
X150185000Y-125667000D01*
X150185000Y-128485000D02*
X151650000Y-129950000D01*
X150867000Y-124985000D02*
X150867300Y-124985000D01*
X151650000Y-129950000D02*
X167300000Y-129950000D01*
X150185000Y-125667000D02*
X150185000Y-128485000D01*
X167300000Y-129950000D02*
X173750000Y-123500000D01*
X173750000Y-123500000D02*
X173750000Y-119100000D01*
X150867300Y-124985000D02*
X151549300Y-124303000D01*
%TO.N,/MOTOR4_CTRL1*%
X140950000Y-122100000D02*
X128352300Y-122100000D01*
X128352300Y-122100000D02*
X126149300Y-124303000D01*
%TO.N,/MOTOR2_CTRL1*%
X163204000Y-122400000D02*
X163204000Y-118929000D01*
%TO.N,/MOTOR3_CTRL2*%
X151965000Y-121347000D02*
X151965000Y-120142000D01*
X149009300Y-124302700D02*
X149009300Y-124303000D01*
X149009300Y-124302700D02*
X151965000Y-121347000D01*
X149009000Y-124303000D02*
X149009300Y-124302700D01*
%TO.N,/MOTOR1_CTRL2*%
X155850000Y-129200000D02*
X155300000Y-128650000D01*
X154089300Y-124303300D02*
X154089300Y-124303000D01*
X154089000Y-124303000D02*
X154089000Y-124111000D01*
X162150000Y-129200000D02*
X155850000Y-129200000D01*
X155300000Y-128650000D02*
X155300000Y-125514000D01*
X170700000Y-120650000D02*
X162150000Y-129200000D01*
X172300000Y-120650000D02*
X170700000Y-120650000D01*
X155300000Y-125514000D02*
X154089300Y-124303300D01*
X154089300Y-124303300D02*
X154089000Y-124303000D01*
%TO.N,/CTRL_EXT_LOAD1*%
X149050000Y-117150000D02*
X147833000Y-118367000D01*
X147833000Y-118367000D02*
X147833000Y-125667000D01*
X148421000Y-126255000D02*
X148421300Y-126255000D01*
X147833000Y-125667000D02*
X148421000Y-126255000D01*
X148421300Y-126255000D02*
X149009300Y-126843000D01*
X148421000Y-126255000D02*
X149009000Y-126843000D01*
%TO.N,Net-(J3-CC1)*%
X146359000Y-83260600D02*
X145179000Y-84440600D01*
X145179000Y-84440600D02*
X145179000Y-89621200D01*
%TO.N,/EXT_LOAD1_OUT*%
X143340500Y-126254500D02*
X143340800Y-126254500D01*
X143929000Y-126843000D02*
X143340500Y-126254500D01*
X142752000Y-125666000D02*
X142752000Y-114183000D01*
X143340800Y-126254500D02*
X143929300Y-126843000D01*
X143340500Y-126254500D02*
X142752000Y-125666000D01*
%TO.N,Net-(J3-CC2)*%
X143403000Y-86985100D02*
X141731000Y-88657100D01*
X143403000Y-83665800D02*
X143403000Y-86985100D01*
%TO.N,Net-(J3-DN1)*%
X139050000Y-82647000D02*
X139050000Y-86993700D01*
X139050000Y-86993700D02*
X139933000Y-87877000D01*
%TO.N,Net-(U3-ILIM)*%
X114561000Y-110682000D02*
X117875000Y-113996000D01*
X106771000Y-110682000D02*
X114561000Y-110682000D01*
%TO.N,Net-(U3-COMP)*%
X105570000Y-107258000D02*
X105570000Y-109905000D01*
X99654800Y-101342000D02*
X105570000Y-107258000D01*
%TO.N,Net-(U1-PROG)*%
X135300000Y-105700000D02*
X142100000Y-98900000D01*
X132550000Y-105700000D02*
X135300000Y-105700000D01*
X131850000Y-106400000D02*
X132550000Y-105700000D01*
X142100000Y-98900000D02*
X142350000Y-98900000D01*
%TO.N,Net-(U8-VSET)*%
X146650000Y-87350000D02*
X146650000Y-89800000D01*
X146650000Y-89800000D02*
X146907000Y-90056600D01*
%TO.N,/MOTOR2_A_OUT*%
X118334000Y-120869000D02*
X122618000Y-116586000D01*
X118334000Y-123853000D02*
X118334000Y-122361000D01*
X122618000Y-116586000D02*
X123262000Y-116586000D01*
X118334000Y-122361000D02*
X118334000Y-120869000D01*
%TO.N,/MOTOR2_B_OUT*%
X168600000Y-108450000D02*
X168550000Y-108450000D01*
X175950000Y-111550000D02*
X172850000Y-108450000D01*
X172800000Y-130450000D02*
X175950000Y-127300000D01*
X175950000Y-127300000D02*
X175950000Y-111550000D01*
X172850000Y-108450000D02*
X168600000Y-108450000D01*
%TO.N,/MOTOR4_B_OUT*%
X145250000Y-121976000D02*
X147382000Y-119844000D01*
X147382000Y-109183000D02*
X150224000Y-106341000D01*
X147382000Y-119844000D02*
X147382000Y-109183000D01*
X145250000Y-128826000D02*
X145250000Y-121976000D01*
%TO.N,/MOTOR4_A_OUT*%
X121069300Y-126842700D02*
X121069000Y-126843000D01*
X122245000Y-125667000D02*
X121069300Y-126842700D01*
X133944000Y-113319000D02*
X124900000Y-122363000D01*
X124900000Y-124675000D02*
X123908000Y-125667000D01*
X124900000Y-122363000D02*
X124900000Y-124675000D01*
X121069300Y-126842700D02*
X121069300Y-126843000D01*
X123908000Y-125667000D02*
X122245000Y-125667000D01*
D25*
%TO.N,/5V_BAT_CHARGE*%
X135050000Y-109950000D02*
X136063100Y-109950000D01*
X136063100Y-109950000D02*
X136417000Y-110303900D01*
X136548800Y-105401200D02*
X135050000Y-106900000D01*
X135050000Y-106900000D02*
X135050000Y-109950000D01*
X137003100Y-105401200D02*
X136548800Y-105401200D01*
%TD*%
%TA.AperFunction,Conductor*%
%TO.N,GND*%
G36*
X141711875Y-83852685D02*
G01*
X141752223Y-83895000D01*
X141758782Y-83906361D01*
X141758784Y-83906364D01*
X141758785Y-83906365D01*
X141865935Y-84013515D01*
X141966458Y-84071552D01*
X141994769Y-84087898D01*
X141997165Y-84089281D01*
X142143534Y-84128500D01*
X142143536Y-84128500D01*
X142295064Y-84128500D01*
X142295066Y-84128500D01*
X142441435Y-84089281D01*
X142457398Y-84080064D01*
X142458649Y-84079760D01*
X142459556Y-84078847D01*
X142492480Y-84071552D01*
X142525295Y-84063590D01*
X142526513Y-84064011D01*
X142527771Y-84063733D01*
X142559442Y-84075407D01*
X142591323Y-84086440D01*
X142592512Y-84087597D01*
X142593329Y-84087898D01*
X142599626Y-84094516D01*
X142618381Y-84112759D01*
X142620520Y-84115593D01*
X142703536Y-84239835D01*
X142747284Y-84283583D01*
X142752481Y-84290470D01*
X142761891Y-84315406D01*
X142774666Y-84338801D01*
X142776238Y-84353427D01*
X142777149Y-84355840D01*
X142776715Y-84357868D01*
X142777500Y-84365161D01*
X142777500Y-86674648D01*
X142757815Y-86741687D01*
X142741181Y-86762329D01*
X141783229Y-87720281D01*
X141721906Y-87753766D01*
X141695548Y-87756600D01*
X141642306Y-87756600D01*
X141468341Y-87791203D01*
X141468332Y-87791206D01*
X141304459Y-87859083D01*
X141304446Y-87859090D01*
X141156965Y-87957634D01*
X141044093Y-88070507D01*
X140982770Y-88103991D01*
X140913078Y-88099007D01*
X140857145Y-88057135D01*
X140832728Y-87991671D01*
X140833010Y-87970666D01*
X140833500Y-87965693D01*
X140833500Y-87788306D01*
X140833499Y-87788304D01*
X140798896Y-87614341D01*
X140798893Y-87614332D01*
X140798203Y-87612667D01*
X140743635Y-87480925D01*
X140731016Y-87450459D01*
X140731009Y-87450446D01*
X140632464Y-87302965D01*
X140632461Y-87302961D01*
X140507038Y-87177538D01*
X140507034Y-87177535D01*
X140359553Y-87078990D01*
X140359540Y-87078983D01*
X140195667Y-87011106D01*
X140195658Y-87011103D01*
X140021694Y-86976500D01*
X140021691Y-86976500D01*
X139968621Y-86976500D01*
X139939174Y-86967853D01*
X139909175Y-86961322D01*
X139904172Y-86957575D01*
X139901582Y-86956815D01*
X139880925Y-86940166D01*
X139711804Y-86770987D01*
X139678329Y-86709658D01*
X139675500Y-86683321D01*
X139675500Y-85174808D01*
X139695185Y-85107769D01*
X139747989Y-85062014D01*
X139817147Y-85052070D01*
X139880703Y-85081095D01*
X139902602Y-85105917D01*
X140012548Y-85270462D01*
X140012551Y-85270466D01*
X140151833Y-85409748D01*
X140151837Y-85409751D01*
X140315615Y-85519185D01*
X140315628Y-85519192D01*
X140497608Y-85594569D01*
X140539300Y-85602862D01*
X140539300Y-84799988D01*
X140549240Y-84817205D01*
X140605095Y-84873060D01*
X140673504Y-84912556D01*
X140749804Y-84933000D01*
X140828796Y-84933000D01*
X140905096Y-84912556D01*
X140973505Y-84873060D01*
X141029360Y-84817205D01*
X141039300Y-84799988D01*
X141039300Y-85602862D01*
X141080990Y-85594569D01*
X141080992Y-85594569D01*
X141262971Y-85519192D01*
X141262984Y-85519185D01*
X141426762Y-85409751D01*
X141426766Y-85409748D01*
X141566048Y-85270466D01*
X141566051Y-85270462D01*
X141675485Y-85106684D01*
X141675492Y-85106671D01*
X141750869Y-84924693D01*
X141750872Y-84924681D01*
X141789299Y-84731495D01*
X141789300Y-84731492D01*
X141789300Y-84333000D01*
X141089300Y-84333000D01*
X141089300Y-83833000D01*
X141644836Y-83833000D01*
X141711875Y-83852685D01*
G37*
%TD.AperFunction*%
%TA.AperFunction,Conductor*%
G36*
X177042539Y-75370185D02*
G01*
X177088294Y-75422989D01*
X177099500Y-75474500D01*
X177099500Y-133225500D01*
X177079815Y-133292539D01*
X177027011Y-133338294D01*
X176975500Y-133349500D01*
X97224500Y-133349500D01*
X97157461Y-133329815D01*
X97111706Y-133277011D01*
X97100500Y-133225500D01*
X97100500Y-124196713D01*
X117178800Y-124196713D01*
X117178800Y-124409287D01*
X117212054Y-124619243D01*
X117270651Y-124799586D01*
X117277744Y-124821414D01*
X117374251Y-125010820D01*
X117499190Y-125182786D01*
X117612730Y-125296326D01*
X117646215Y-125357649D01*
X117641231Y-125427341D01*
X117599359Y-125483274D01*
X117568383Y-125500189D01*
X117436969Y-125549203D01*
X117436964Y-125549206D01*
X117321755Y-125635452D01*
X117321752Y-125635455D01*
X117235506Y-125750664D01*
X117235502Y-125750671D01*
X117185208Y-125885517D01*
X117178801Y-125945116D01*
X117178800Y-125945135D01*
X117178800Y-127740870D01*
X117178801Y-127740876D01*
X117185208Y-127800483D01*
X117235502Y-127935328D01*
X117235506Y-127935335D01*
X117321752Y-128050544D01*
X117321755Y-128050547D01*
X117436964Y-128136793D01*
X117436971Y-128136797D01*
X117571817Y-128187091D01*
X117571816Y-128187091D01*
X117578744Y-128187835D01*
X117631427Y-128193500D01*
X119427172Y-128193499D01*
X119486783Y-128187091D01*
X119621631Y-128136796D01*
X119736846Y-128050546D01*
X119823096Y-127935331D01*
X119872110Y-127803916D01*
X119913981Y-127747984D01*
X119979445Y-127723566D01*
X120047718Y-127738417D01*
X120075973Y-127759569D01*
X120189513Y-127873109D01*
X120361479Y-127998048D01*
X120361481Y-127998049D01*
X120361484Y-127998051D01*
X120550888Y-128094557D01*
X120753057Y-128160246D01*
X120963013Y-128193500D01*
X120963014Y-128193500D01*
X121175586Y-128193500D01*
X121175587Y-128193500D01*
X121385543Y-128160246D01*
X121587712Y-128094557D01*
X121777116Y-127998051D01*
X121863438Y-127935335D01*
X121949086Y-127873109D01*
X121949088Y-127873106D01*
X121949092Y-127873104D01*
X122099404Y-127722792D01*
X122099406Y-127722788D01*
X122099409Y-127722786D01*
X122224348Y-127550820D01*
X122224347Y-127550820D01*
X122224351Y-127550816D01*
X122228814Y-127542054D01*
X122276788Y-127491259D01*
X122344608Y-127474463D01*
X122410744Y-127496999D01*
X122449786Y-127542056D01*
X122454251Y-127550820D01*
X122579190Y-127722786D01*
X122729513Y-127873109D01*
X122901479Y-127998048D01*
X122901481Y-127998049D01*
X122901484Y-127998051D01*
X123090888Y-128094557D01*
X123293057Y-128160246D01*
X123503013Y-128193500D01*
X123503014Y-128193500D01*
X123715586Y-128193500D01*
X123715587Y-128193500D01*
X123925543Y-128160246D01*
X124127712Y-128094557D01*
X124317116Y-127998051D01*
X124403438Y-127935335D01*
X124489086Y-127873109D01*
X124489088Y-127873106D01*
X124489092Y-127873104D01*
X124639404Y-127722792D01*
X124639406Y-127722788D01*
X124639409Y-127722786D01*
X124764348Y-127550820D01*
X124764347Y-127550820D01*
X124764351Y-127550816D01*
X124768814Y-127542054D01*
X124816788Y-127491259D01*
X124884608Y-127474463D01*
X124950744Y-127496999D01*
X124989786Y-127542056D01*
X124994251Y-127550820D01*
X125119190Y-127722786D01*
X125269513Y-127873109D01*
X125441479Y-127998048D01*
X125441481Y-127998049D01*
X125441484Y-127998051D01*
X125630888Y-128094557D01*
X125833057Y-128160246D01*
X126043013Y-128193500D01*
X126043014Y-128193500D01*
X126255586Y-128193500D01*
X126255587Y-128193500D01*
X126465543Y-128160246D01*
X126667712Y-128094557D01*
X126857116Y-127998051D01*
X126943438Y-127935335D01*
X127029086Y-127873109D01*
X127029088Y-127873106D01*
X127029092Y-127873104D01*
X127179404Y-127722792D01*
X127179406Y-127722788D01*
X127179409Y-127722786D01*
X127304348Y-127550820D01*
X127304347Y-127550820D01*
X127304351Y-127550816D01*
X127308814Y-127542054D01*
X127356788Y-127491259D01*
X127424608Y-127474463D01*
X127490744Y-127496999D01*
X127529786Y-127542056D01*
X127534251Y-127550820D01*
X127659190Y-127722786D01*
X127809513Y-127873109D01*
X127981479Y-127998048D01*
X127981481Y-127998049D01*
X127981484Y-127998051D01*
X128170888Y-128094557D01*
X128373057Y-128160246D01*
X128583013Y-128193500D01*
X128583014Y-128193500D01*
X128795586Y-128193500D01*
X128795587Y-128193500D01*
X129005543Y-128160246D01*
X129207712Y-128094557D01*
X129397116Y-127998051D01*
X129483438Y-127935335D01*
X129569086Y-127873109D01*
X129569088Y-127873106D01*
X129569092Y-127873104D01*
X129719404Y-127722792D01*
X129719406Y-127722788D01*
X129719409Y-127722786D01*
X129844348Y-127550820D01*
X129844347Y-127550820D01*
X129844351Y-127550816D01*
X129848814Y-127542054D01*
X129896788Y-127491259D01*
X129964608Y-127474463D01*
X130030744Y-127496999D01*
X130069786Y-127542056D01*
X130074251Y-127550820D01*
X130199190Y-127722786D01*
X130349513Y-127873109D01*
X130521479Y-127998048D01*
X130521481Y-127998049D01*
X130521484Y-127998051D01*
X130710888Y-128094557D01*
X130913057Y-128160246D01*
X131123013Y-128193500D01*
X131123014Y-128193500D01*
X131335586Y-128193500D01*
X131335587Y-128193500D01*
X131545543Y-128160246D01*
X131747712Y-128094557D01*
X131937116Y-127998051D01*
X132023438Y-127935335D01*
X132109086Y-127873109D01*
X132109088Y-127873106D01*
X132109092Y-127873104D01*
X132259404Y-127722792D01*
X132259406Y-127722788D01*
X132259409Y-127722786D01*
X132384348Y-127550820D01*
X132384347Y-127550820D01*
X132384351Y-127550816D01*
X132388814Y-127542054D01*
X132436788Y-127491259D01*
X132504608Y-127474463D01*
X132570744Y-127496999D01*
X132609786Y-127542056D01*
X132614251Y-127550820D01*
X132739190Y-127722786D01*
X132889513Y-127873109D01*
X133061479Y-127998048D01*
X133061481Y-127998049D01*
X133061484Y-127998051D01*
X133250888Y-128094557D01*
X133453057Y-128160246D01*
X133663013Y-128193500D01*
X133663014Y-128193500D01*
X133875586Y-128193500D01*
X133875587Y-128193500D01*
X134085543Y-128160246D01*
X134287712Y-128094557D01*
X134477116Y-127998051D01*
X134563438Y-127935335D01*
X134649086Y-127873109D01*
X134649088Y-127873106D01*
X134649092Y-127873104D01*
X134799404Y-127722792D01*
X134799406Y-127722788D01*
X134799409Y-127722786D01*
X134924348Y-127550820D01*
X134924347Y-127550820D01*
X134924351Y-127550816D01*
X134928814Y-127542054D01*
X134976788Y-127491259D01*
X135044608Y-127474463D01*
X135110744Y-127496999D01*
X135149786Y-127542056D01*
X135154251Y-127550820D01*
X135279190Y-127722786D01*
X135429513Y-127873109D01*
X135601479Y-127998048D01*
X135601481Y-127998049D01*
X135601484Y-127998051D01*
X135790888Y-128094557D01*
X135993057Y-128160246D01*
X136203013Y-128193500D01*
X136203014Y-128193500D01*
X136415586Y-128193500D01*
X136415587Y-128193500D01*
X136625543Y-128160246D01*
X136827712Y-128094557D01*
X137017116Y-127998051D01*
X137103438Y-127935335D01*
X137189086Y-127873109D01*
X137189088Y-127873106D01*
X137189092Y-127873104D01*
X137339404Y-127722792D01*
X137339406Y-127722788D01*
X137339409Y-127722786D01*
X137464348Y-127550820D01*
X137464347Y-127550820D01*
X137464351Y-127550816D01*
X137468814Y-127542054D01*
X137516788Y-127491259D01*
X137584608Y-127474463D01*
X137650744Y-127496999D01*
X137689786Y-127542056D01*
X137694251Y-127550820D01*
X137819190Y-127722786D01*
X137969513Y-127873109D01*
X138141479Y-127998048D01*
X138141481Y-127998049D01*
X138141484Y-127998051D01*
X138330888Y-128094557D01*
X138533057Y-128160246D01*
X138743013Y-128193500D01*
X138743014Y-128193500D01*
X138955586Y-128193500D01*
X138955587Y-128193500D01*
X139165543Y-128160246D01*
X139262185Y-128128844D01*
X139332022Y-128126850D01*
X139391855Y-128162930D01*
X139422684Y-128225630D01*
X139424500Y-128246776D01*
X139424500Y-130316535D01*
X139450457Y-130447028D01*
X139450459Y-130447036D01*
X139501378Y-130569965D01*
X139501383Y-130569975D01*
X139575303Y-130680604D01*
X139575304Y-130680605D01*
X139575305Y-130680606D01*
X139688605Y-130793906D01*
X140664486Y-131769787D01*
X140697971Y-131831110D01*
X140698422Y-131833276D01*
X140734104Y-132012659D01*
X140734106Y-132012667D01*
X140801983Y-132176540D01*
X140801990Y-132176553D01*
X140900535Y-132324034D01*
X140900538Y-132324038D01*
X141025961Y-132449461D01*
X141025965Y-132449464D01*
X141173446Y-132548009D01*
X141173459Y-132548016D01*
X141296363Y-132598923D01*
X141337334Y-132615894D01*
X141337336Y-132615894D01*
X141337341Y-132615896D01*
X141511304Y-132650499D01*
X141511307Y-132650500D01*
X141511309Y-132650500D01*
X141688693Y-132650500D01*
X141688694Y-132650499D01*
X141746682Y-132638964D01*
X141862658Y-132615896D01*
X141862661Y-132615894D01*
X141862666Y-132615894D01*
X142026547Y-132548013D01*
X142174035Y-132449464D01*
X142299464Y-132324035D01*
X142398013Y-132176547D01*
X142465894Y-132012666D01*
X142465894Y-132012661D01*
X142465896Y-132012658D01*
X142500499Y-131838695D01*
X142500500Y-131838693D01*
X142500500Y-131661306D01*
X142500499Y-131661304D01*
X142465896Y-131487341D01*
X142465893Y-131487332D01*
X142398016Y-131323459D01*
X142398009Y-131323446D01*
X142299464Y-131175965D01*
X142299461Y-131175961D01*
X142174038Y-131050538D01*
X142174034Y-131050535D01*
X142026553Y-130951990D01*
X142026540Y-130951983D01*
X141862667Y-130884106D01*
X141862659Y-130884104D01*
X141683276Y-130848422D01*
X141621365Y-130816037D01*
X141619787Y-130814486D01*
X140811819Y-130006518D01*
X140778334Y-129945195D01*
X140775500Y-129918837D01*
X140775500Y-128234234D01*
X140795185Y-128167195D01*
X140847989Y-128121440D01*
X140917147Y-128111496D01*
X140937804Y-128116299D01*
X141073057Y-128160246D01*
X141283013Y-128193500D01*
X141283014Y-128193500D01*
X141495586Y-128193500D01*
X141495587Y-128193500D01*
X141705543Y-128160246D01*
X141907712Y-128094557D01*
X142097116Y-127998051D01*
X142183438Y-127935335D01*
X142269086Y-127873109D01*
X142269088Y-127873106D01*
X142269092Y-127873104D01*
X142419404Y-127722792D01*
X142419406Y-127722788D01*
X142419409Y-127722786D01*
X142544348Y-127550820D01*
X142544347Y-127550820D01*
X142544351Y-127550816D01*
X142548814Y-127542054D01*
X142596788Y-127491259D01*
X142664608Y-127474463D01*
X142730744Y-127496999D01*
X142769786Y-127542056D01*
X142774251Y-127550820D01*
X142899190Y-127722786D01*
X143049513Y-127873109D01*
X143221479Y-127998048D01*
X143221481Y-127998049D01*
X143221484Y-127998051D01*
X143410888Y-128094557D01*
X143613057Y-128160246D01*
X143823013Y-128193500D01*
X143823014Y-128193500D01*
X144035586Y-128193500D01*
X144035587Y-128193500D01*
X144245543Y-128160246D01*
X144373309Y-128118731D01*
X144443149Y-128116737D01*
X144502982Y-128152817D01*
X144533810Y-128215518D01*
X144525845Y-128284932D01*
X144514728Y-128305554D01*
X144451990Y-128399446D01*
X144451983Y-128399459D01*
X144384106Y-128563332D01*
X144384103Y-128563341D01*
X144349500Y-128737304D01*
X144349500Y-128914695D01*
X144384103Y-129088658D01*
X144384106Y-129088667D01*
X144451983Y-129252540D01*
X144451990Y-129252553D01*
X144550535Y-129400034D01*
X144550538Y-129400038D01*
X144675961Y-129525461D01*
X144675965Y-129525464D01*
X144823446Y-129624009D01*
X144823459Y-129624016D01*
X144890996Y-129651990D01*
X144987334Y-129691894D01*
X144987336Y-129691894D01*
X144987341Y-129691896D01*
X145161304Y-129726499D01*
X145161307Y-129726500D01*
X145161309Y-129726500D01*
X145338693Y-129726500D01*
X145338694Y-129726499D01*
X145396682Y-129714964D01*
X145512658Y-129691896D01*
X145512661Y-129691894D01*
X145512666Y-129691894D01*
X145676547Y-129624013D01*
X145824035Y-129525464D01*
X145949464Y-129400035D01*
X146048013Y-129252547D01*
X146115894Y-129088666D01*
X146150500Y-128914691D01*
X146150500Y-128737309D01*
X146150500Y-128737306D01*
X146150499Y-128737304D01*
X146115896Y-128563341D01*
X146115893Y-128563332D01*
X146108965Y-128546607D01*
X146059518Y-128427228D01*
X146048016Y-128399459D01*
X146048009Y-128399446D01*
X146013391Y-128347637D01*
X145992513Y-128280960D01*
X146010997Y-128213580D01*
X146062976Y-128166889D01*
X146131946Y-128155713D01*
X146148262Y-128159355D01*
X146148322Y-128159109D01*
X146153051Y-128160244D01*
X146153057Y-128160246D01*
X146363013Y-128193500D01*
X146363014Y-128193500D01*
X146575586Y-128193500D01*
X146575587Y-128193500D01*
X146785543Y-128160246D01*
X146987712Y-128094557D01*
X147177116Y-127998051D01*
X147263438Y-127935335D01*
X147349086Y-127873109D01*
X147349088Y-127873106D01*
X147349092Y-127873104D01*
X147499404Y-127722792D01*
X147499406Y-127722788D01*
X147499409Y-127722786D01*
X147624348Y-127550820D01*
X147624347Y-127550820D01*
X147624351Y-127550816D01*
X147628814Y-127542054D01*
X147676788Y-127491259D01*
X147744608Y-127474463D01*
X147810744Y-127496999D01*
X147849786Y-127542056D01*
X147854251Y-127550820D01*
X147979190Y-127722786D01*
X148129513Y-127873109D01*
X148301479Y-127998048D01*
X148301481Y-127998049D01*
X148301484Y-127998051D01*
X148490888Y-128094557D01*
X148693057Y-128160246D01*
X148903013Y-128193500D01*
X148903014Y-128193500D01*
X149115586Y-128193500D01*
X149115587Y-128193500D01*
X149325543Y-128160246D01*
X149397185Y-128136967D01*
X149467022Y-128134973D01*
X149526855Y-128171053D01*
X149557684Y-128233753D01*
X149559500Y-128254899D01*
X149559500Y-128546611D01*
X149583535Y-128667444D01*
X149583540Y-128667461D01*
X149630685Y-128781280D01*
X149630686Y-128781282D01*
X149630688Y-128781286D01*
X149664876Y-128832451D01*
X149699142Y-128883733D01*
X149786267Y-128970858D01*
X149786270Y-128970860D01*
X149793558Y-128978148D01*
X151161016Y-130345606D01*
X151161045Y-130345637D01*
X151251264Y-130435856D01*
X151251267Y-130435858D01*
X151328190Y-130487256D01*
X151353715Y-130504312D01*
X151389159Y-130518993D01*
X151467548Y-130551463D01*
X151512157Y-130560336D01*
X151588391Y-130575499D01*
X151588392Y-130575500D01*
X151588393Y-130575500D01*
X167361608Y-130575500D01*
X167361608Y-130575499D01*
X167437843Y-130560336D01*
X167482452Y-130551463D01*
X167515792Y-130537652D01*
X167596286Y-130504312D01*
X167647509Y-130470084D01*
X167698733Y-130435858D01*
X167785858Y-130348733D01*
X167785858Y-130348731D01*
X167796066Y-130338524D01*
X167796067Y-130338521D01*
X174235857Y-123898734D01*
X174240766Y-123891388D01*
X174304311Y-123796286D01*
X174351463Y-123682452D01*
X174375500Y-123561606D01*
X174375500Y-119799361D01*
X174395185Y-119732322D01*
X174411820Y-119711679D01*
X174449461Y-119674038D01*
X174449464Y-119674035D01*
X174548013Y-119526547D01*
X174615894Y-119362666D01*
X174617312Y-119355540D01*
X174650499Y-119188695D01*
X174650500Y-119188693D01*
X174650500Y-119011306D01*
X174650499Y-119011304D01*
X174615896Y-118837341D01*
X174615893Y-118837332D01*
X174548016Y-118673459D01*
X174548009Y-118673446D01*
X174449464Y-118525965D01*
X174449461Y-118525961D01*
X174324038Y-118400538D01*
X174324034Y-118400535D01*
X174176553Y-118301990D01*
X174176540Y-118301983D01*
X174012667Y-118234106D01*
X174012658Y-118234103D01*
X173838694Y-118199500D01*
X173838691Y-118199500D01*
X173661309Y-118199500D01*
X173661306Y-118199500D01*
X173487341Y-118234103D01*
X173487332Y-118234106D01*
X173323459Y-118301983D01*
X173323446Y-118301990D01*
X173175965Y-118400535D01*
X173175961Y-118400538D01*
X173050538Y-118525961D01*
X173050535Y-118525965D01*
X172951990Y-118673446D01*
X172951983Y-118673459D01*
X172884106Y-118837332D01*
X172884103Y-118837341D01*
X172849500Y-119011304D01*
X172849500Y-119188695D01*
X172884103Y-119362658D01*
X172884106Y-119362667D01*
X172951983Y-119526540D01*
X172951990Y-119526553D01*
X173050535Y-119674034D01*
X173050538Y-119674038D01*
X173088180Y-119711679D01*
X173102885Y-119738609D01*
X173119477Y-119764426D01*
X173120368Y-119770624D01*
X173121666Y-119773001D01*
X173124500Y-119799361D01*
X173124500Y-119901638D01*
X173104815Y-119968677D01*
X173052011Y-120014432D01*
X172982853Y-120024376D01*
X172919297Y-119995351D01*
X172912819Y-119989319D01*
X172874038Y-119950538D01*
X172874034Y-119950535D01*
X172726553Y-119851990D01*
X172726540Y-119851983D01*
X172562667Y-119784106D01*
X172562658Y-119784103D01*
X172388694Y-119749500D01*
X172388691Y-119749500D01*
X172211309Y-119749500D01*
X172211306Y-119749500D01*
X172037341Y-119784103D01*
X172037332Y-119784106D01*
X171873459Y-119851983D01*
X171873446Y-119851990D01*
X171725965Y-119950535D01*
X171725961Y-119950538D01*
X171688321Y-119988180D01*
X171626999Y-120021666D01*
X171600639Y-120024500D01*
X170638389Y-120024500D01*
X170587535Y-120034615D01*
X170587530Y-120034616D01*
X170577971Y-120036518D01*
X170517548Y-120048537D01*
X170470397Y-120068067D01*
X170403715Y-120095688D01*
X170403714Y-120095689D01*
X170381347Y-120110633D01*
X170381344Y-120110635D01*
X170301268Y-120164140D01*
X170257705Y-120207703D01*
X170214142Y-120251267D01*
X165987181Y-124478228D01*
X165925858Y-124511713D01*
X165856166Y-124506729D01*
X165800233Y-124464857D01*
X165775816Y-124399393D01*
X165775500Y-124390547D01*
X165775500Y-117340077D01*
X167100975Y-117340077D01*
X167206236Y-117383678D01*
X167206240Y-117383679D01*
X167351126Y-117412499D01*
X167351129Y-117412500D01*
X167498871Y-117412500D01*
X167498873Y-117412499D01*
X167643760Y-117383679D01*
X167643775Y-117383675D01*
X167749024Y-117340078D01*
X167749024Y-117340077D01*
X168600975Y-117340077D01*
X168706236Y-117383678D01*
X168706240Y-117383679D01*
X168851126Y-117412499D01*
X168851129Y-117412500D01*
X168998871Y-117412500D01*
X168998873Y-117412499D01*
X169143760Y-117383679D01*
X169143775Y-117383675D01*
X169249024Y-117340078D01*
X169249024Y-117340077D01*
X170100975Y-117340077D01*
X170206236Y-117383678D01*
X170206240Y-117383679D01*
X170351126Y-117412499D01*
X170351129Y-117412500D01*
X170498871Y-117412500D01*
X170498873Y-117412499D01*
X170643760Y-117383679D01*
X170643775Y-117383675D01*
X170749024Y-117340078D01*
X170749024Y-117340077D01*
X170425001Y-117016054D01*
X170425000Y-117016054D01*
X170100975Y-117340077D01*
X169249024Y-117340077D01*
X168925001Y-117016054D01*
X168925000Y-117016054D01*
X168600975Y-117340077D01*
X167749024Y-117340077D01*
X167425001Y-117016054D01*
X167425000Y-117016054D01*
X167100975Y-117340077D01*
X165775500Y-117340077D01*
X165775500Y-116588626D01*
X166675000Y-116588626D01*
X166675000Y-116736373D01*
X166703820Y-116881259D01*
X166703822Y-116881267D01*
X166747421Y-116986524D01*
X167071446Y-116662500D01*
X167071446Y-116662499D01*
X167051556Y-116642609D01*
X167325000Y-116642609D01*
X167325000Y-116682391D01*
X167340224Y-116719145D01*
X167368355Y-116747276D01*
X167405109Y-116762500D01*
X167444891Y-116762500D01*
X167481645Y-116747276D01*
X167509776Y-116719145D01*
X167525000Y-116682391D01*
X167525000Y-116662499D01*
X167778554Y-116662499D01*
X167778554Y-116662501D01*
X168102576Y-116986523D01*
X168150807Y-116976930D01*
X168199191Y-116976930D01*
X168247422Y-116986524D01*
X168571446Y-116662500D01*
X168571446Y-116662499D01*
X168551556Y-116642609D01*
X168825000Y-116642609D01*
X168825000Y-116682391D01*
X168840224Y-116719145D01*
X168868355Y-116747276D01*
X168905109Y-116762500D01*
X168944891Y-116762500D01*
X168981645Y-116747276D01*
X169009776Y-116719145D01*
X169025000Y-116682391D01*
X169025000Y-116662499D01*
X169278554Y-116662499D01*
X169278554Y-116662501D01*
X169602576Y-116986523D01*
X169650807Y-116976930D01*
X169699191Y-116976930D01*
X169747422Y-116986524D01*
X170071446Y-116662500D01*
X170071446Y-116662499D01*
X170051556Y-116642609D01*
X170325000Y-116642609D01*
X170325000Y-116682391D01*
X170340224Y-116719145D01*
X170368355Y-116747276D01*
X170405109Y-116762500D01*
X170444891Y-116762500D01*
X170481645Y-116747276D01*
X170509776Y-116719145D01*
X170525000Y-116682391D01*
X170525000Y-116662499D01*
X170778554Y-116662499D01*
X170778554Y-116662501D01*
X171102577Y-116986524D01*
X171102578Y-116986524D01*
X171146175Y-116881275D01*
X171146179Y-116881260D01*
X171174999Y-116736373D01*
X171175000Y-116736371D01*
X171175000Y-116588628D01*
X171174999Y-116588626D01*
X171146179Y-116443740D01*
X171146178Y-116443736D01*
X171102577Y-116338475D01*
X170778554Y-116662499D01*
X170525000Y-116662499D01*
X170525000Y-116642609D01*
X170509776Y-116605855D01*
X170481645Y-116577724D01*
X170444891Y-116562500D01*
X170405109Y-116562500D01*
X170368355Y-116577724D01*
X170340224Y-116605855D01*
X170325000Y-116642609D01*
X170051556Y-116642609D01*
X169747421Y-116338474D01*
X169699190Y-116348068D01*
X169650808Y-116348068D01*
X169602577Y-116338474D01*
X169278554Y-116662499D01*
X169025000Y-116662499D01*
X169025000Y-116642609D01*
X169009776Y-116605855D01*
X168981645Y-116577724D01*
X168944891Y-116562500D01*
X168905109Y-116562500D01*
X168868355Y-116577724D01*
X168840224Y-116605855D01*
X168825000Y-116642609D01*
X168551556Y-116642609D01*
X168247421Y-116338474D01*
X168199190Y-116348068D01*
X168150808Y-116348068D01*
X168102577Y-116338474D01*
X167778554Y-116662499D01*
X167525000Y-116662499D01*
X167525000Y-116642609D01*
X167509776Y-116605855D01*
X167481645Y-116577724D01*
X167444891Y-116562500D01*
X167405109Y-116562500D01*
X167368355Y-116577724D01*
X167340224Y-116605855D01*
X167325000Y-116642609D01*
X167051556Y-116642609D01*
X166747421Y-116338474D01*
X166747420Y-116338474D01*
X166703823Y-116443728D01*
X166703820Y-116443740D01*
X166675000Y-116588626D01*
X165775500Y-116588626D01*
X165775500Y-115840077D01*
X167100974Y-115840077D01*
X167110568Y-115888308D01*
X167110568Y-115936690D01*
X167100974Y-115984921D01*
X167425000Y-116308946D01*
X167425001Y-116308946D01*
X167749024Y-115984922D01*
X167739430Y-115936691D01*
X167739430Y-115928353D01*
X167737540Y-115923550D01*
X167739430Y-115888307D01*
X167749023Y-115840077D01*
X168600974Y-115840077D01*
X168610568Y-115888308D01*
X168610568Y-115936690D01*
X168600974Y-115984921D01*
X168925000Y-116308946D01*
X168925001Y-116308946D01*
X169249024Y-115984922D01*
X169239430Y-115936691D01*
X169239430Y-115928353D01*
X169237540Y-115923550D01*
X169239430Y-115888307D01*
X169249023Y-115840077D01*
X170100974Y-115840077D01*
X170110568Y-115888308D01*
X170110568Y-115936690D01*
X170100974Y-115984921D01*
X170425000Y-116308946D01*
X170425001Y-116308946D01*
X170749024Y-115984922D01*
X170739430Y-115936691D01*
X170739430Y-115888307D01*
X170749023Y-115840076D01*
X170425001Y-115516054D01*
X170425000Y-115516054D01*
X170100974Y-115840077D01*
X169249023Y-115840077D01*
X169249023Y-115840076D01*
X168925001Y-115516054D01*
X168925000Y-115516054D01*
X168600974Y-115840077D01*
X167749023Y-115840077D01*
X167749023Y-115840076D01*
X167425001Y-115516054D01*
X167425000Y-115516054D01*
X167100974Y-115840077D01*
X165775500Y-115840077D01*
X165775500Y-115710452D01*
X165795185Y-115643413D01*
X165811819Y-115622771D01*
X166322771Y-115111819D01*
X166384094Y-115078334D01*
X166410452Y-115075500D01*
X166551000Y-115075500D01*
X166618039Y-115095185D01*
X166663794Y-115147989D01*
X166675000Y-115199500D01*
X166675000Y-115236373D01*
X166703820Y-115381259D01*
X166703822Y-115381267D01*
X166747421Y-115486524D01*
X167122127Y-115111819D01*
X167149054Y-115097115D01*
X167174873Y-115080523D01*
X167181073Y-115079631D01*
X167183450Y-115078334D01*
X167209808Y-115075500D01*
X167286638Y-115075500D01*
X167351525Y-115094553D01*
X167340224Y-115105855D01*
X167325000Y-115142609D01*
X167325000Y-115182391D01*
X167340224Y-115219145D01*
X167368355Y-115247276D01*
X167405109Y-115262500D01*
X167444891Y-115262500D01*
X167481645Y-115247276D01*
X167509776Y-115219145D01*
X167525000Y-115182391D01*
X167525000Y-115142609D01*
X167509776Y-115105855D01*
X167501591Y-115097670D01*
X167502608Y-115097115D01*
X167528427Y-115080523D01*
X167534627Y-115079631D01*
X167537004Y-115078334D01*
X167563362Y-115075500D01*
X167640192Y-115075500D01*
X167707231Y-115095185D01*
X167727873Y-115111819D01*
X168102577Y-115486523D01*
X168150807Y-115476930D01*
X168199191Y-115476930D01*
X168247421Y-115486524D01*
X168622127Y-115111819D01*
X168649054Y-115097115D01*
X168674873Y-115080523D01*
X168681073Y-115079631D01*
X168683450Y-115078334D01*
X168709808Y-115075500D01*
X168786638Y-115075500D01*
X168851525Y-115094553D01*
X168840224Y-115105855D01*
X168825000Y-115142609D01*
X168825000Y-115182391D01*
X168840224Y-115219145D01*
X168868355Y-115247276D01*
X168905109Y-115262500D01*
X168944891Y-115262500D01*
X168981645Y-115247276D01*
X169009776Y-115219145D01*
X169025000Y-115182391D01*
X169025000Y-115142609D01*
X169009776Y-115105855D01*
X169001591Y-115097670D01*
X169002608Y-115097115D01*
X169028427Y-115080523D01*
X169034627Y-115079631D01*
X169037004Y-115078334D01*
X169063362Y-115075500D01*
X169140192Y-115075500D01*
X169207231Y-115095185D01*
X169227873Y-115111819D01*
X169602577Y-115486523D01*
X169650807Y-115476930D01*
X169699191Y-115476930D01*
X169747421Y-115486524D01*
X170122127Y-115111819D01*
X170149054Y-115097115D01*
X170174873Y-115080523D01*
X170181073Y-115079631D01*
X170183450Y-115078334D01*
X170209808Y-115075500D01*
X170286638Y-115075500D01*
X170351525Y-115094553D01*
X170340224Y-115105855D01*
X170325000Y-115142609D01*
X170325000Y-115182391D01*
X170340224Y-115219145D01*
X170368355Y-115247276D01*
X170405109Y-115262500D01*
X170444891Y-115262500D01*
X170481645Y-115247276D01*
X170509776Y-115219145D01*
X170525000Y-115182391D01*
X170525000Y-115142609D01*
X170509776Y-115105855D01*
X170501591Y-115097670D01*
X170502608Y-115097115D01*
X170528427Y-115080523D01*
X170534627Y-115079631D01*
X170537004Y-115078334D01*
X170563362Y-115075500D01*
X170640192Y-115075500D01*
X170707231Y-115095185D01*
X170727873Y-115111819D01*
X171102577Y-115486524D01*
X171102578Y-115486524D01*
X171146175Y-115381275D01*
X171146179Y-115381260D01*
X171174999Y-115236373D01*
X171175000Y-115236371D01*
X171175000Y-115199500D01*
X171194685Y-115132461D01*
X171247489Y-115086706D01*
X171299000Y-115075500D01*
X173811607Y-115075500D01*
X173872029Y-115063481D01*
X173932452Y-115051463D01*
X173965792Y-115037652D01*
X174046286Y-115004312D01*
X174097509Y-114970084D01*
X174148733Y-114935858D01*
X174235858Y-114848733D01*
X174235858Y-114848731D01*
X174246066Y-114838524D01*
X174246066Y-114838522D01*
X174485857Y-114598734D01*
X174486707Y-114597463D01*
X174554311Y-114496286D01*
X174601463Y-114382452D01*
X174625500Y-114261607D01*
X174625500Y-114138394D01*
X174625500Y-111438394D01*
X174625500Y-111438390D01*
X174623730Y-111429494D01*
X174629954Y-111359902D01*
X174672815Y-111304723D01*
X174738704Y-111281476D01*
X174806702Y-111297542D01*
X174833027Y-111317617D01*
X175288181Y-111772771D01*
X175321666Y-111834094D01*
X175324500Y-111860452D01*
X175324500Y-126989547D01*
X175304815Y-127056586D01*
X175288181Y-127077228D01*
X172852229Y-129513181D01*
X172790906Y-129546666D01*
X172764548Y-129549500D01*
X172711306Y-129549500D01*
X172537341Y-129584103D01*
X172537332Y-129584106D01*
X172373459Y-129651983D01*
X172373446Y-129651990D01*
X172225965Y-129750535D01*
X172225961Y-129750538D01*
X172100538Y-129875961D01*
X172100535Y-129875965D01*
X172001990Y-130023446D01*
X172001983Y-130023459D01*
X171934106Y-130187332D01*
X171934103Y-130187341D01*
X171899500Y-130361304D01*
X171899500Y-130538695D01*
X171934103Y-130712658D01*
X171934106Y-130712667D01*
X172001983Y-130876540D01*
X172001990Y-130876553D01*
X172100535Y-131024034D01*
X172100538Y-131024038D01*
X172225961Y-131149461D01*
X172225965Y-131149464D01*
X172373446Y-131248009D01*
X172373459Y-131248016D01*
X172496363Y-131298923D01*
X172537334Y-131315894D01*
X172537336Y-131315894D01*
X172537341Y-131315896D01*
X172711304Y-131350499D01*
X172711307Y-131350500D01*
X172711309Y-131350500D01*
X172888693Y-131350500D01*
X172888694Y-131350499D01*
X172946682Y-131338964D01*
X173062658Y-131315896D01*
X173062661Y-131315894D01*
X173062666Y-131315894D01*
X173226547Y-131248013D01*
X173374035Y-131149464D01*
X173499464Y-131024035D01*
X173598013Y-130876547D01*
X173665894Y-130712666D01*
X173700500Y-130538691D01*
X173700500Y-130485452D01*
X173720185Y-130418413D01*
X173736819Y-130397771D01*
X175085858Y-129048733D01*
X176435858Y-127698733D01*
X176504312Y-127596285D01*
X176551463Y-127482451D01*
X176561826Y-127430352D01*
X176568459Y-127397010D01*
X176571105Y-127383702D01*
X176575500Y-127361606D01*
X176575500Y-111488394D01*
X176574627Y-111484007D01*
X176551463Y-111367549D01*
X176546505Y-111355580D01*
X176524633Y-111302775D01*
X176522465Y-111297542D01*
X176504314Y-111253719D01*
X176504313Y-111253717D01*
X176504312Y-111253714D01*
X176466110Y-111196542D01*
X176435858Y-111151267D01*
X176435856Y-111151264D01*
X176345637Y-111061045D01*
X176345606Y-111061016D01*
X173343172Y-108058582D01*
X173335860Y-108051270D01*
X173335858Y-108051267D01*
X173248733Y-107964142D01*
X173196888Y-107929500D01*
X173190243Y-107925060D01*
X173190241Y-107925058D01*
X173146287Y-107895689D01*
X173146286Y-107895688D01*
X173146283Y-107895686D01*
X173146280Y-107895685D01*
X173066063Y-107862459D01*
X173066060Y-107862458D01*
X173058800Y-107859451D01*
X173032452Y-107848537D01*
X172972029Y-107836518D01*
X172967796Y-107835676D01*
X172967785Y-107835673D01*
X172911610Y-107824500D01*
X172911607Y-107824500D01*
X172911606Y-107824500D01*
X169299361Y-107824500D01*
X169232322Y-107804815D01*
X169211679Y-107788180D01*
X169174038Y-107750538D01*
X169174034Y-107750535D01*
X169026553Y-107651990D01*
X169026540Y-107651983D01*
X168862667Y-107584106D01*
X168862658Y-107584103D01*
X168688694Y-107549500D01*
X168688691Y-107549500D01*
X168511309Y-107549500D01*
X168511306Y-107549500D01*
X168337341Y-107584103D01*
X168337332Y-107584106D01*
X168173459Y-107651983D01*
X168173446Y-107651990D01*
X168025965Y-107750535D01*
X168025961Y-107750538D01*
X167900538Y-107875961D01*
X167900535Y-107875965D01*
X167801990Y-108023446D01*
X167801983Y-108023459D01*
X167734106Y-108187332D01*
X167734103Y-108187341D01*
X167699500Y-108361304D01*
X167699500Y-108538695D01*
X167734103Y-108712658D01*
X167734106Y-108712667D01*
X167801983Y-108876540D01*
X167801990Y-108876553D01*
X167900535Y-109024034D01*
X167900538Y-109024038D01*
X168025961Y-109149461D01*
X168025965Y-109149464D01*
X168173446Y-109248009D01*
X168173459Y-109248016D01*
X168296363Y-109298923D01*
X168337334Y-109315894D01*
X168413101Y-109330965D01*
X168441998Y-109336713D01*
X168503909Y-109369097D01*
X168538483Y-109429813D01*
X168534744Y-109499582D01*
X168505490Y-109546010D01*
X168475535Y-109575965D01*
X168376990Y-109723446D01*
X168376983Y-109723459D01*
X168309106Y-109887332D01*
X168309103Y-109887341D01*
X168274500Y-110061304D01*
X168274500Y-110200500D01*
X168254815Y-110267539D01*
X168202011Y-110313294D01*
X168150500Y-110324500D01*
X161947515Y-110324500D01*
X161880476Y-110304815D01*
X161878624Y-110303602D01*
X161726553Y-110201990D01*
X161726540Y-110201983D01*
X161562667Y-110134106D01*
X161562658Y-110134103D01*
X161388694Y-110099500D01*
X161388691Y-110099500D01*
X161211309Y-110099500D01*
X161211306Y-110099500D01*
X161037341Y-110134103D01*
X161037332Y-110134106D01*
X160873459Y-110201983D01*
X160873446Y-110201990D01*
X160725965Y-110300535D01*
X160725961Y-110300538D01*
X160600538Y-110425961D01*
X160600535Y-110425965D01*
X160501990Y-110573446D01*
X160501983Y-110573459D01*
X160434106Y-110737332D01*
X160434103Y-110737341D01*
X160399500Y-110911304D01*
X160399500Y-111088695D01*
X160434103Y-111262658D01*
X160434106Y-111262667D01*
X160501983Y-111426540D01*
X160501990Y-111426553D01*
X160600535Y-111574034D01*
X160600538Y-111574038D01*
X160725961Y-111699461D01*
X160725965Y-111699464D01*
X160873446Y-111798009D01*
X160873459Y-111798016D01*
X160960561Y-111834094D01*
X161037334Y-111865894D01*
X161037336Y-111865894D01*
X161037341Y-111865896D01*
X161211304Y-111900499D01*
X161211307Y-111900500D01*
X161211309Y-111900500D01*
X161388693Y-111900500D01*
X161388694Y-111900499D01*
X161470435Y-111884240D01*
X161562658Y-111865896D01*
X161562661Y-111865894D01*
X161562666Y-111865894D01*
X161726547Y-111798013D01*
X161874035Y-111699464D01*
X161874034Y-111699464D01*
X161878624Y-111696398D01*
X161945301Y-111675520D01*
X161947515Y-111675500D01*
X171016532Y-111675500D01*
X171016532Y-111675499D01*
X171130235Y-111652882D01*
X171154426Y-111650500D01*
X171288693Y-111650500D01*
X171288694Y-111650499D01*
X171346682Y-111638964D01*
X171462658Y-111615896D01*
X171462661Y-111615894D01*
X171462666Y-111615894D01*
X171626547Y-111548013D01*
X171774035Y-111449464D01*
X171899464Y-111324035D01*
X171998013Y-111176547D01*
X172065894Y-111012666D01*
X172067745Y-111003364D01*
X172100499Y-110838695D01*
X172100500Y-110838693D01*
X172100500Y-110784452D01*
X172120185Y-110717413D01*
X172172989Y-110671658D01*
X172242147Y-110661714D01*
X172305703Y-110690739D01*
X172312181Y-110696771D01*
X173338181Y-111722771D01*
X173371666Y-111784094D01*
X173374500Y-111810452D01*
X173374500Y-113700500D01*
X173354815Y-113767539D01*
X173302011Y-113813294D01*
X173250500Y-113824500D01*
X166038389Y-113824500D01*
X165987535Y-113834615D01*
X165987530Y-113834616D01*
X165977971Y-113836518D01*
X165917548Y-113848537D01*
X165870397Y-113868067D01*
X165803715Y-113895688D01*
X165803714Y-113895689D01*
X165781347Y-113910633D01*
X165781344Y-113910635D01*
X165701268Y-113964140D01*
X165660315Y-114005094D01*
X165614142Y-114051267D01*
X164754186Y-114911222D01*
X164754178Y-114911230D01*
X164751270Y-114914139D01*
X164751267Y-114914142D01*
X164664142Y-115001267D01*
X164632319Y-115048894D01*
X164627846Y-115055587D01*
X164627838Y-115055597D01*
X164595690Y-115103709D01*
X164595685Y-115103718D01*
X164571338Y-115162500D01*
X164562347Y-115184207D01*
X164556823Y-115197543D01*
X164548537Y-115217545D01*
X164548535Y-115217553D01*
X164524500Y-115338389D01*
X164524500Y-124135248D01*
X164504815Y-124202287D01*
X164488181Y-124222929D01*
X162530229Y-126180881D01*
X162468906Y-126214366D01*
X162442548Y-126217200D01*
X157902128Y-126217200D01*
X157835089Y-126197515D01*
X157791644Y-126149496D01*
X157784350Y-126135182D01*
X157659409Y-125963213D01*
X157509086Y-125812890D01*
X157337120Y-125687951D01*
X157336415Y-125687591D01*
X157328354Y-125683485D01*
X157277559Y-125635512D01*
X157260763Y-125567692D01*
X157283299Y-125501556D01*
X157328354Y-125462515D01*
X157337116Y-125458051D01*
X157426854Y-125392853D01*
X157509086Y-125333109D01*
X157509088Y-125333106D01*
X157509092Y-125333104D01*
X157659404Y-125182792D01*
X157659406Y-125182788D01*
X157659409Y-125182786D01*
X157784348Y-125010820D01*
X157784347Y-125010820D01*
X157784351Y-125010816D01*
X157880857Y-124821412D01*
X157946546Y-124619243D01*
X157979800Y-124409287D01*
X157979800Y-124196713D01*
X157946546Y-123986757D01*
X157880857Y-123784588D01*
X157784351Y-123595184D01*
X157784349Y-123595181D01*
X157784348Y-123595179D01*
X157659409Y-123423213D01*
X157509086Y-123272890D01*
X157337120Y-123147951D01*
X157147714Y-123051444D01*
X157147713Y-123051443D01*
X157147712Y-123051443D01*
X156945543Y-122985754D01*
X156945541Y-122985753D01*
X156945540Y-122985753D01*
X156784257Y-122960208D01*
X156735587Y-122952500D01*
X156523013Y-122952500D01*
X156474342Y-122960208D01*
X156313060Y-122985753D01*
X156110885Y-123051444D01*
X155921479Y-123147951D01*
X155749513Y-123272890D01*
X155599190Y-123423213D01*
X155474249Y-123595182D01*
X155469784Y-123603946D01*
X155421809Y-123654742D01*
X155353988Y-123671536D01*
X155287853Y-123648998D01*
X155248816Y-123603946D01*
X155244350Y-123595182D01*
X155119409Y-123423213D01*
X154969086Y-123272890D01*
X154797120Y-123147951D01*
X154607714Y-123051444D01*
X154607713Y-123051443D01*
X154607712Y-123051443D01*
X154405543Y-122985754D01*
X154405541Y-122985753D01*
X154405540Y-122985753D01*
X154280538Y-122965955D01*
X154269904Y-122964270D01*
X154206770Y-122934342D01*
X154169839Y-122875030D01*
X154170837Y-122805168D01*
X154201628Y-122754110D01*
X158116117Y-118840304D01*
X162303500Y-118840304D01*
X162303500Y-119017695D01*
X162338103Y-119191658D01*
X162338106Y-119191667D01*
X162405983Y-119355540D01*
X162405990Y-119355553D01*
X162504535Y-119503034D01*
X162504538Y-119503038D01*
X162542180Y-119540679D01*
X162575666Y-119602001D01*
X162578500Y-119628361D01*
X162578500Y-121700638D01*
X162558815Y-121767677D01*
X162542181Y-121788319D01*
X162504538Y-121825961D01*
X162504535Y-121825965D01*
X162405990Y-121973446D01*
X162405983Y-121973459D01*
X162338106Y-122137332D01*
X162338103Y-122137341D01*
X162303500Y-122311304D01*
X162303500Y-122488695D01*
X162338103Y-122662658D01*
X162338106Y-122662667D01*
X162405983Y-122826540D01*
X162405990Y-122826553D01*
X162504535Y-122974034D01*
X162504538Y-122974038D01*
X162629961Y-123099461D01*
X162629965Y-123099464D01*
X162777446Y-123198009D01*
X162777459Y-123198016D01*
X162854764Y-123230036D01*
X162941334Y-123265894D01*
X162941336Y-123265894D01*
X162941341Y-123265896D01*
X163115304Y-123300499D01*
X163115307Y-123300500D01*
X163115309Y-123300500D01*
X163292693Y-123300500D01*
X163292694Y-123300499D01*
X163350682Y-123288964D01*
X163466658Y-123265896D01*
X163466661Y-123265894D01*
X163466666Y-123265894D01*
X163630547Y-123198013D01*
X163778035Y-123099464D01*
X163903464Y-122974035D01*
X164002013Y-122826547D01*
X164069894Y-122662666D01*
X164081084Y-122606413D01*
X164104499Y-122488695D01*
X164104500Y-122488693D01*
X164104500Y-122311306D01*
X164104499Y-122311304D01*
X164069896Y-122137341D01*
X164069893Y-122137333D01*
X164019425Y-122015490D01*
X164002016Y-121973459D01*
X164002009Y-121973446D01*
X163903464Y-121825965D01*
X163903461Y-121825961D01*
X163865819Y-121788319D01*
X163832334Y-121726996D01*
X163829500Y-121700638D01*
X163829500Y-119628361D01*
X163849185Y-119561322D01*
X163865820Y-119540679D01*
X163903461Y-119503038D01*
X163903464Y-119503035D01*
X164002013Y-119355547D01*
X164069894Y-119191666D01*
X164070486Y-119188693D01*
X164104499Y-119017695D01*
X164104500Y-119017693D01*
X164104500Y-118840306D01*
X164104499Y-118840304D01*
X164069896Y-118666341D01*
X164069893Y-118666332D01*
X164002016Y-118502459D01*
X164002009Y-118502446D01*
X163903464Y-118354965D01*
X163903461Y-118354961D01*
X163778038Y-118229538D01*
X163778034Y-118229535D01*
X163630553Y-118130990D01*
X163630540Y-118130983D01*
X163466667Y-118063106D01*
X163466658Y-118063103D01*
X163292694Y-118028500D01*
X163292691Y-118028500D01*
X163115309Y-118028500D01*
X163115306Y-118028500D01*
X162941341Y-118063103D01*
X162941332Y-118063106D01*
X162777459Y-118130983D01*
X162777446Y-118130990D01*
X162629965Y-118229535D01*
X162629961Y-118229538D01*
X162504538Y-118354961D01*
X162504535Y-118354965D01*
X162405990Y-118502446D01*
X162405983Y-118502459D01*
X162338106Y-118666332D01*
X162338103Y-118666341D01*
X162303500Y-118840304D01*
X158116117Y-118840304D01*
X159042711Y-117913872D01*
X159042733Y-117913858D01*
X159084010Y-117872580D01*
X159128843Y-117827756D01*
X159129788Y-117826836D01*
X159129854Y-117826735D01*
X159129858Y-117826733D01*
X159130388Y-117825940D01*
X159161988Y-117778647D01*
X159161990Y-117778642D01*
X159198286Y-117724334D01*
X159198288Y-117724326D01*
X159198296Y-117724316D01*
X159198304Y-117724294D01*
X159198311Y-117724286D01*
X159220931Y-117669675D01*
X159220933Y-117669673D01*
X159220932Y-117669673D01*
X159220933Y-117669671D01*
X159245447Y-117610504D01*
X159245448Y-117610493D01*
X159245453Y-117610484D01*
X159245459Y-117610464D01*
X159245459Y-117610459D01*
X159245463Y-117610452D01*
X159257177Y-117551556D01*
X159257177Y-117551555D01*
X159257180Y-117551555D01*
X159257180Y-117551540D01*
X159269495Y-117489661D01*
X159269495Y-117489631D01*
X159269500Y-117489606D01*
X159269500Y-117433655D01*
X159269506Y-117366448D01*
X159269505Y-117366445D01*
X159269506Y-117360598D01*
X159269500Y-117360452D01*
X159269500Y-109429623D01*
X159289185Y-109362584D01*
X159290398Y-109360732D01*
X159360013Y-109256547D01*
X159427894Y-109092666D01*
X159462500Y-108918691D01*
X159462500Y-108741309D01*
X159462500Y-108741306D01*
X159462499Y-108741304D01*
X159427896Y-108567341D01*
X159427893Y-108567332D01*
X159360016Y-108403459D01*
X159360009Y-108403446D01*
X159261464Y-108255965D01*
X159261461Y-108255961D01*
X159136038Y-108130538D01*
X159136034Y-108130535D01*
X158988553Y-108031990D01*
X158988540Y-108031983D01*
X158824667Y-107964106D01*
X158824658Y-107964103D01*
X158650694Y-107929500D01*
X158650691Y-107929500D01*
X158473309Y-107929500D01*
X158473306Y-107929500D01*
X158299341Y-107964103D01*
X158299332Y-107964106D01*
X158135459Y-108031983D01*
X158135446Y-108031990D01*
X157987965Y-108130535D01*
X157987961Y-108130538D01*
X157862538Y-108255961D01*
X157862535Y-108255965D01*
X157763990Y-108403446D01*
X157763983Y-108403459D01*
X157696106Y-108567332D01*
X157696103Y-108567341D01*
X157661500Y-108741304D01*
X157661500Y-108918695D01*
X157696103Y-109092658D01*
X157696106Y-109092667D01*
X157763983Y-109256540D01*
X157763990Y-109256553D01*
X157862534Y-109404033D01*
X157862535Y-109404034D01*
X157862536Y-109404035D01*
X157982182Y-109523681D01*
X158015666Y-109585002D01*
X158018500Y-109611361D01*
X158018500Y-117117507D01*
X157998815Y-117184546D01*
X157982174Y-117205196D01*
X152517919Y-122668495D01*
X152517918Y-122668494D01*
X152514276Y-122672135D01*
X152514267Y-122672142D01*
X152484479Y-122701929D01*
X152472993Y-122713414D01*
X152472989Y-122713418D01*
X152427160Y-122759239D01*
X152395013Y-122807350D01*
X152395009Y-122807355D01*
X152358707Y-122861676D01*
X152358695Y-122861696D01*
X152343655Y-122898009D01*
X152336612Y-122915013D01*
X152336492Y-122915302D01*
X152336488Y-122915311D01*
X152311549Y-122975504D01*
X152311539Y-122975534D01*
X152307349Y-122996601D01*
X152274963Y-123058511D01*
X152214247Y-123093085D01*
X152144478Y-123089344D01*
X152129438Y-123082893D01*
X152067717Y-123051445D01*
X152067714Y-123051444D01*
X152067712Y-123051443D01*
X151865543Y-122985754D01*
X151865541Y-122985753D01*
X151865540Y-122985753D01*
X151704257Y-122960208D01*
X151655587Y-122952500D01*
X151543451Y-122952500D01*
X151476412Y-122932815D01*
X151430657Y-122880011D01*
X151420713Y-122810853D01*
X151449738Y-122747297D01*
X151455770Y-122740819D01*
X151670049Y-122526540D01*
X152363729Y-121832860D01*
X152363733Y-121832858D01*
X152450858Y-121745733D01*
X152494971Y-121679714D01*
X152519312Y-121643286D01*
X152552652Y-121562792D01*
X152566463Y-121529452D01*
X152567157Y-121525965D01*
X152585768Y-121432402D01*
X152587872Y-121421818D01*
X152590500Y-121408607D01*
X152590500Y-121285393D01*
X152590500Y-120841361D01*
X152610185Y-120774322D01*
X152626820Y-120753679D01*
X152664461Y-120716038D01*
X152664464Y-120716035D01*
X152763013Y-120568547D01*
X152830894Y-120404666D01*
X152831696Y-120400638D01*
X152854220Y-120287398D01*
X152865500Y-120230691D01*
X152865500Y-120053309D01*
X152865500Y-120053306D01*
X152865499Y-120053304D01*
X152830896Y-119879341D01*
X152830893Y-119879332D01*
X152763016Y-119715459D01*
X152763009Y-119715446D01*
X152664464Y-119567965D01*
X152664461Y-119567961D01*
X152539038Y-119442538D01*
X152539034Y-119442535D01*
X152391553Y-119343990D01*
X152391540Y-119343983D01*
X152227667Y-119276106D01*
X152227658Y-119276103D01*
X152053694Y-119241500D01*
X152053691Y-119241500D01*
X151876309Y-119241500D01*
X151876306Y-119241500D01*
X151702341Y-119276103D01*
X151702332Y-119276106D01*
X151538459Y-119343983D01*
X151538446Y-119343990D01*
X151390965Y-119442535D01*
X151390961Y-119442538D01*
X151265538Y-119567961D01*
X151265535Y-119567965D01*
X151166990Y-119715446D01*
X151166983Y-119715459D01*
X151099106Y-119879332D01*
X151099103Y-119879341D01*
X151064500Y-120053304D01*
X151064500Y-120230695D01*
X151099103Y-120404658D01*
X151099106Y-120404667D01*
X151166983Y-120568540D01*
X151166990Y-120568553D01*
X151265535Y-120716034D01*
X151265538Y-120716038D01*
X151303180Y-120753679D01*
X151317885Y-120780609D01*
X151334477Y-120806426D01*
X151335368Y-120812624D01*
X151336666Y-120815001D01*
X151339500Y-120841361D01*
X151339500Y-121036547D01*
X151319815Y-121103586D01*
X151303181Y-121124228D01*
X149466911Y-122960497D01*
X149405588Y-122993982D01*
X149340912Y-122990747D01*
X149325546Y-122985754D01*
X149166078Y-122960497D01*
X149115587Y-122952500D01*
X148903013Y-122952500D01*
X148863502Y-122958757D01*
X148693059Y-122985753D01*
X148620818Y-123009226D01*
X148550977Y-123011221D01*
X148491144Y-122975140D01*
X148460316Y-122912439D01*
X148458500Y-122891295D01*
X148458500Y-118677452D01*
X148478185Y-118610413D01*
X148494819Y-118589771D01*
X148997771Y-118086819D01*
X149059094Y-118053334D01*
X149085452Y-118050500D01*
X149138693Y-118050500D01*
X149138694Y-118050499D01*
X149196682Y-118038964D01*
X149312658Y-118015896D01*
X149312661Y-118015894D01*
X149312666Y-118015894D01*
X149476547Y-117948013D01*
X149624035Y-117849464D01*
X149749464Y-117724035D01*
X149848013Y-117576547D01*
X149915894Y-117412666D01*
X149915928Y-117412499D01*
X149950499Y-117238695D01*
X149950500Y-117238693D01*
X149950500Y-117061306D01*
X149950499Y-117061304D01*
X149915896Y-116887341D01*
X149915893Y-116887332D01*
X149848016Y-116723459D01*
X149848009Y-116723446D01*
X149749464Y-116575965D01*
X149749461Y-116575961D01*
X149624038Y-116450538D01*
X149624034Y-116450535D01*
X149476553Y-116351990D01*
X149476540Y-116351983D01*
X149312667Y-116284106D01*
X149312658Y-116284103D01*
X149138694Y-116249500D01*
X149138691Y-116249500D01*
X148961309Y-116249500D01*
X148961306Y-116249500D01*
X148787341Y-116284103D01*
X148787332Y-116284106D01*
X148623459Y-116351983D01*
X148623446Y-116351990D01*
X148475965Y-116450535D01*
X148475961Y-116450538D01*
X148350538Y-116575961D01*
X148350535Y-116575965D01*
X148251990Y-116723446D01*
X148251985Y-116723456D01*
X148246061Y-116737759D01*
X148202220Y-116792162D01*
X148135925Y-116814227D01*
X148068226Y-116796948D01*
X148020616Y-116745810D01*
X148007500Y-116690306D01*
X148007500Y-114280577D01*
X153235275Y-114280577D01*
X153340536Y-114324178D01*
X153340540Y-114324179D01*
X153485426Y-114352999D01*
X153485429Y-114353000D01*
X153633171Y-114353000D01*
X153633173Y-114352999D01*
X153778060Y-114324179D01*
X153778075Y-114324175D01*
X153883324Y-114280578D01*
X153883324Y-114280577D01*
X154735275Y-114280577D01*
X154840536Y-114324178D01*
X154840540Y-114324179D01*
X154985426Y-114352999D01*
X154985429Y-114353000D01*
X155133171Y-114353000D01*
X155133173Y-114352999D01*
X155278060Y-114324179D01*
X155278075Y-114324175D01*
X155383324Y-114280578D01*
X155383324Y-114280577D01*
X156235275Y-114280577D01*
X156340536Y-114324178D01*
X156340540Y-114324179D01*
X156485426Y-114352999D01*
X156485429Y-114353000D01*
X156633171Y-114353000D01*
X156633173Y-114352999D01*
X156778060Y-114324179D01*
X156778075Y-114324175D01*
X156883324Y-114280578D01*
X156883324Y-114280577D01*
X156559301Y-113956554D01*
X156559300Y-113956554D01*
X156235275Y-114280577D01*
X155383324Y-114280577D01*
X155059301Y-113956554D01*
X155059300Y-113956554D01*
X154735275Y-114280577D01*
X153883324Y-114280577D01*
X153559301Y-113956554D01*
X153559300Y-113956554D01*
X153235275Y-114280577D01*
X148007500Y-114280577D01*
X148007500Y-113529126D01*
X152809300Y-113529126D01*
X152809300Y-113676873D01*
X152838120Y-113821759D01*
X152838122Y-113821767D01*
X152881721Y-113927024D01*
X153205746Y-113603000D01*
X153205746Y-113602999D01*
X153185856Y-113583109D01*
X153459300Y-113583109D01*
X153459300Y-113622891D01*
X153474524Y-113659645D01*
X153502655Y-113687776D01*
X153539409Y-113703000D01*
X153579191Y-113703000D01*
X153615945Y-113687776D01*
X153644076Y-113659645D01*
X153659300Y-113622891D01*
X153659300Y-113602999D01*
X153912854Y-113602999D01*
X153912854Y-113603001D01*
X154236876Y-113927023D01*
X154285107Y-113917430D01*
X154333491Y-113917430D01*
X154381722Y-113927024D01*
X154705746Y-113603000D01*
X154705746Y-113602999D01*
X154685856Y-113583109D01*
X154959300Y-113583109D01*
X154959300Y-113622891D01*
X154974524Y-113659645D01*
X155002655Y-113687776D01*
X155039409Y-113703000D01*
X155079191Y-113703000D01*
X155115945Y-113687776D01*
X155144076Y-113659645D01*
X155159300Y-113622891D01*
X155159300Y-113602999D01*
X155412854Y-113602999D01*
X155412854Y-113603001D01*
X155736876Y-113927023D01*
X155785107Y-113917430D01*
X155833491Y-113917430D01*
X155881722Y-113927024D01*
X156205746Y-113603000D01*
X156205746Y-113602999D01*
X156185856Y-113583109D01*
X156459300Y-113583109D01*
X156459300Y-113622891D01*
X156474524Y-113659645D01*
X156502655Y-113687776D01*
X156539409Y-113703000D01*
X156579191Y-113703000D01*
X156615945Y-113687776D01*
X156644076Y-113659645D01*
X156659300Y-113622891D01*
X156659300Y-113602999D01*
X156912854Y-113602999D01*
X156912854Y-113603001D01*
X157236877Y-113927024D01*
X157236878Y-113927024D01*
X157280475Y-113821775D01*
X157280479Y-113821760D01*
X157309299Y-113676873D01*
X157309300Y-113676871D01*
X157309300Y-113529128D01*
X157309299Y-113529126D01*
X157280479Y-113384240D01*
X157280478Y-113384236D01*
X157236877Y-113278975D01*
X156912854Y-113602999D01*
X156659300Y-113602999D01*
X156659300Y-113583109D01*
X156644076Y-113546355D01*
X156615945Y-113518224D01*
X156579191Y-113503000D01*
X156539409Y-113503000D01*
X156502655Y-113518224D01*
X156474524Y-113546355D01*
X156459300Y-113583109D01*
X156185856Y-113583109D01*
X155881721Y-113278974D01*
X155833490Y-113288568D01*
X155785108Y-113288568D01*
X155736877Y-113278974D01*
X155412854Y-113602999D01*
X155159300Y-113602999D01*
X155159300Y-113583109D01*
X155144076Y-113546355D01*
X155115945Y-113518224D01*
X155079191Y-113503000D01*
X155039409Y-113503000D01*
X155002655Y-113518224D01*
X154974524Y-113546355D01*
X154959300Y-113583109D01*
X154685856Y-113583109D01*
X154381721Y-113278974D01*
X154333490Y-113288568D01*
X154285108Y-113288568D01*
X154236877Y-113278974D01*
X153912854Y-113602999D01*
X153659300Y-113602999D01*
X153659300Y-113583109D01*
X153644076Y-113546355D01*
X153615945Y-113518224D01*
X153579191Y-113503000D01*
X153539409Y-113503000D01*
X153502655Y-113518224D01*
X153474524Y-113546355D01*
X153459300Y-113583109D01*
X153185856Y-113583109D01*
X152881721Y-113278974D01*
X152881720Y-113278974D01*
X152838123Y-113384228D01*
X152838120Y-113384240D01*
X152809300Y-113529126D01*
X148007500Y-113529126D01*
X148007500Y-112780577D01*
X153235274Y-112780577D01*
X153244868Y-112828808D01*
X153244868Y-112877190D01*
X153235274Y-112925421D01*
X153559300Y-113249446D01*
X153559301Y-113249446D01*
X153883324Y-112925422D01*
X153873730Y-112877191D01*
X153873730Y-112868853D01*
X153871840Y-112864050D01*
X153873730Y-112828807D01*
X153883323Y-112780577D01*
X154735274Y-112780577D01*
X154744868Y-112828808D01*
X154744868Y-112877190D01*
X154735274Y-112925421D01*
X155059300Y-113249446D01*
X155059301Y-113249446D01*
X155383324Y-112925422D01*
X155373730Y-112877191D01*
X155373730Y-112868853D01*
X155371840Y-112864050D01*
X155373730Y-112828807D01*
X155383323Y-112780577D01*
X156235274Y-112780577D01*
X156244868Y-112828808D01*
X156244868Y-112877190D01*
X156235274Y-112925421D01*
X156559300Y-113249446D01*
X156559301Y-113249446D01*
X156883324Y-112925422D01*
X156873730Y-112877191D01*
X156873730Y-112828807D01*
X156883323Y-112780576D01*
X156559301Y-112456554D01*
X156559300Y-112456554D01*
X156235274Y-112780577D01*
X155383323Y-112780577D01*
X155383323Y-112780576D01*
X155059301Y-112456554D01*
X155059300Y-112456554D01*
X154735274Y-112780577D01*
X153883323Y-112780577D01*
X153883323Y-112780576D01*
X153559301Y-112456554D01*
X153559300Y-112456554D01*
X153235274Y-112780577D01*
X148007500Y-112780577D01*
X148007500Y-112029126D01*
X152809300Y-112029126D01*
X152809300Y-112176873D01*
X152838120Y-112321759D01*
X152838122Y-112321767D01*
X152881721Y-112427024D01*
X153205746Y-112103000D01*
X153205746Y-112102999D01*
X153185856Y-112083109D01*
X153459300Y-112083109D01*
X153459300Y-112122891D01*
X153474524Y-112159645D01*
X153502655Y-112187776D01*
X153539409Y-112203000D01*
X153579191Y-112203000D01*
X153615945Y-112187776D01*
X153644076Y-112159645D01*
X153659300Y-112122891D01*
X153659300Y-112102999D01*
X153912854Y-112102999D01*
X153912854Y-112103001D01*
X154236876Y-112427023D01*
X154285107Y-112417430D01*
X154333491Y-112417430D01*
X154381722Y-112427024D01*
X154705746Y-112103000D01*
X154705746Y-112102999D01*
X154685856Y-112083109D01*
X154959300Y-112083109D01*
X154959300Y-112122891D01*
X154974524Y-112159645D01*
X155002655Y-112187776D01*
X155039409Y-112203000D01*
X155079191Y-112203000D01*
X155115945Y-112187776D01*
X155144076Y-112159645D01*
X155159300Y-112122891D01*
X155159300Y-112102999D01*
X155412854Y-112102999D01*
X155412854Y-112103001D01*
X155736876Y-112427023D01*
X155785107Y-112417430D01*
X155833491Y-112417430D01*
X155881722Y-112427024D01*
X156205746Y-112103000D01*
X156205746Y-112102999D01*
X156185856Y-112083109D01*
X156459300Y-112083109D01*
X156459300Y-112122891D01*
X156474524Y-112159645D01*
X156502655Y-112187776D01*
X156539409Y-112203000D01*
X156579191Y-112203000D01*
X156615945Y-112187776D01*
X156644076Y-112159645D01*
X156659300Y-112122891D01*
X156659300Y-112102999D01*
X156912854Y-112102999D01*
X156912854Y-112103001D01*
X157236877Y-112427024D01*
X157236878Y-112427024D01*
X157280475Y-112321775D01*
X157280479Y-112321760D01*
X157309299Y-112176873D01*
X157309300Y-112176871D01*
X157309300Y-112029128D01*
X157309299Y-112029126D01*
X157280479Y-111884240D01*
X157280478Y-111884236D01*
X157236877Y-111778975D01*
X156912854Y-112102999D01*
X156659300Y-112102999D01*
X156659300Y-112083109D01*
X156644076Y-112046355D01*
X156615945Y-112018224D01*
X156579191Y-112003000D01*
X156539409Y-112003000D01*
X156502655Y-112018224D01*
X156474524Y-112046355D01*
X156459300Y-112083109D01*
X156185856Y-112083109D01*
X155881721Y-111778974D01*
X155833490Y-111788568D01*
X155785108Y-111788568D01*
X155736877Y-111778974D01*
X155412854Y-112102999D01*
X155159300Y-112102999D01*
X155159300Y-112083109D01*
X155144076Y-112046355D01*
X155115945Y-112018224D01*
X155079191Y-112003000D01*
X155039409Y-112003000D01*
X155002655Y-112018224D01*
X154974524Y-112046355D01*
X154959300Y-112083109D01*
X154685856Y-112083109D01*
X154381721Y-111778974D01*
X154333490Y-111788568D01*
X154285108Y-111788568D01*
X154236877Y-111778974D01*
X153912854Y-112102999D01*
X153659300Y-112102999D01*
X153659300Y-112083109D01*
X153644076Y-112046355D01*
X153615945Y-112018224D01*
X153579191Y-112003000D01*
X153539409Y-112003000D01*
X153502655Y-112018224D01*
X153474524Y-112046355D01*
X153459300Y-112083109D01*
X153185856Y-112083109D01*
X152881721Y-111778974D01*
X152881720Y-111778974D01*
X152838123Y-111884228D01*
X152838120Y-111884240D01*
X152809300Y-112029126D01*
X148007500Y-112029126D01*
X148007500Y-111425420D01*
X153235274Y-111425420D01*
X153235274Y-111425421D01*
X153559300Y-111749446D01*
X153559301Y-111749446D01*
X153883324Y-111425421D01*
X153883322Y-111425420D01*
X154735274Y-111425420D01*
X154735274Y-111425421D01*
X155059300Y-111749446D01*
X155059301Y-111749446D01*
X155383324Y-111425421D01*
X155383322Y-111425420D01*
X156235274Y-111425420D01*
X156235274Y-111425421D01*
X156559300Y-111749446D01*
X156559301Y-111749446D01*
X156883324Y-111425421D01*
X156778067Y-111381822D01*
X156778059Y-111381820D01*
X156633172Y-111353000D01*
X156485428Y-111353000D01*
X156340540Y-111381820D01*
X156340528Y-111381823D01*
X156235274Y-111425420D01*
X155383322Y-111425420D01*
X155278067Y-111381822D01*
X155278059Y-111381820D01*
X155133172Y-111353000D01*
X154985428Y-111353000D01*
X154840540Y-111381820D01*
X154840528Y-111381823D01*
X154735274Y-111425420D01*
X153883322Y-111425420D01*
X153778067Y-111381822D01*
X153778059Y-111381820D01*
X153633172Y-111353000D01*
X153485428Y-111353000D01*
X153340540Y-111381820D01*
X153340528Y-111381823D01*
X153235274Y-111425420D01*
X148007500Y-111425420D01*
X148007500Y-109493452D01*
X148027185Y-109426413D01*
X148043819Y-109405771D01*
X150171771Y-107277819D01*
X150233094Y-107244334D01*
X150259452Y-107241500D01*
X150312693Y-107241500D01*
X150312694Y-107241499D01*
X150370682Y-107229964D01*
X150486658Y-107206896D01*
X150486661Y-107206894D01*
X150486666Y-107206894D01*
X150650547Y-107139013D01*
X150798035Y-107040464D01*
X150923464Y-106915035D01*
X151022013Y-106767547D01*
X151089894Y-106603666D01*
X151093647Y-106584802D01*
X151114491Y-106480009D01*
X151124500Y-106429691D01*
X151124500Y-106252309D01*
X151124500Y-106252306D01*
X151124499Y-106252304D01*
X151089896Y-106078341D01*
X151089893Y-106078332D01*
X151083054Y-106061822D01*
X151052384Y-105987776D01*
X151022016Y-105914459D01*
X151022009Y-105914446D01*
X150923464Y-105766965D01*
X150923461Y-105766961D01*
X150798038Y-105641538D01*
X150798034Y-105641535D01*
X150650553Y-105542990D01*
X150650540Y-105542983D01*
X150486667Y-105475106D01*
X150486658Y-105475103D01*
X150312694Y-105440500D01*
X150312691Y-105440500D01*
X150135309Y-105440500D01*
X150135306Y-105440500D01*
X149961341Y-105475103D01*
X149961332Y-105475106D01*
X149797459Y-105542983D01*
X149797446Y-105542990D01*
X149649965Y-105641535D01*
X149649961Y-105641538D01*
X149524538Y-105766961D01*
X149524535Y-105766965D01*
X149425990Y-105914446D01*
X149425983Y-105914459D01*
X149358106Y-106078332D01*
X149358103Y-106078341D01*
X149323500Y-106252304D01*
X149323500Y-106305547D01*
X149303815Y-106372586D01*
X149287181Y-106393228D01*
X146896144Y-108784264D01*
X146896138Y-108784272D01*
X146827690Y-108886708D01*
X146827688Y-108886713D01*
X146780540Y-109000538D01*
X146780537Y-109000547D01*
X146775865Y-109024038D01*
X146762215Y-109092667D01*
X146759367Y-109106984D01*
X146759365Y-109106990D01*
X146756500Y-109121390D01*
X146756500Y-119533548D01*
X146736815Y-119600587D01*
X146720181Y-119621229D01*
X145867181Y-120474229D01*
X145805858Y-120507714D01*
X145736166Y-120502730D01*
X145680233Y-120460858D01*
X145655816Y-120395394D01*
X145655500Y-120386548D01*
X145655500Y-99774500D01*
X145675185Y-99707461D01*
X145727989Y-99661706D01*
X145779500Y-99650500D01*
X153423920Y-99650500D01*
X153521462Y-99631096D01*
X153568913Y-99621658D01*
X153705495Y-99565084D01*
X153764737Y-99525500D01*
X153764737Y-99525499D01*
X153764739Y-99525499D01*
X153796576Y-99504226D01*
X153828416Y-99482952D01*
X154732952Y-98578416D01*
X154784500Y-98501267D01*
X154803081Y-98473459D01*
X154815079Y-98455503D01*
X154815080Y-98455500D01*
X154815084Y-98455495D01*
X154871658Y-98318913D01*
X154895205Y-98200538D01*
X154900500Y-98173920D01*
X154900500Y-94857904D01*
X169278500Y-94857904D01*
X169278500Y-95035295D01*
X169313103Y-95209258D01*
X169313106Y-95209267D01*
X169380983Y-95373140D01*
X169380990Y-95373153D01*
X169479535Y-95520634D01*
X169479538Y-95520638D01*
X169604961Y-95646061D01*
X169604965Y-95646064D01*
X169752446Y-95744609D01*
X169752459Y-95744616D01*
X169875363Y-95795523D01*
X169916334Y-95812494D01*
X169916336Y-95812494D01*
X169916341Y-95812496D01*
X170090304Y-95847099D01*
X170090307Y-95847100D01*
X170090309Y-95847100D01*
X170267692Y-95847100D01*
X170282755Y-95844103D01*
X170354756Y-95829781D01*
X170424344Y-95836007D01*
X170466624Y-95863715D01*
X170789799Y-96186889D01*
X171074181Y-96471271D01*
X171107666Y-96532594D01*
X171110500Y-96558952D01*
X171110500Y-101973077D01*
X171101062Y-102020524D01*
X171065106Y-102107334D01*
X171065105Y-102107338D01*
X171065104Y-102107341D01*
X171065103Y-102107341D01*
X171030500Y-102281304D01*
X171030500Y-102458695D01*
X171065103Y-102632658D01*
X171065106Y-102632667D01*
X171132983Y-102796540D01*
X171132990Y-102796553D01*
X171231535Y-102944034D01*
X171231538Y-102944038D01*
X171356961Y-103069461D01*
X171356965Y-103069464D01*
X171504446Y-103168009D01*
X171504459Y-103168016D01*
X171627363Y-103218923D01*
X171668334Y-103235894D01*
X171668336Y-103235894D01*
X171668341Y-103235896D01*
X171842304Y-103270499D01*
X171842307Y-103270500D01*
X171842309Y-103270500D01*
X172019693Y-103270500D01*
X172019694Y-103270499D01*
X172077682Y-103258964D01*
X172193658Y-103235896D01*
X172193661Y-103235894D01*
X172193666Y-103235894D01*
X172357547Y-103168013D01*
X172505035Y-103069464D01*
X172630464Y-102944035D01*
X172729013Y-102796547D01*
X172796894Y-102632666D01*
X172831500Y-102458691D01*
X172831500Y-102281309D01*
X172831500Y-102281306D01*
X172831499Y-102281304D01*
X172796896Y-102107341D01*
X172796893Y-102107333D01*
X172777954Y-102061608D01*
X172729016Y-101943459D01*
X172729009Y-101943446D01*
X172630464Y-101795965D01*
X172630461Y-101795961D01*
X172505038Y-101670538D01*
X172416608Y-101611450D01*
X172371804Y-101557837D01*
X172361500Y-101508348D01*
X172361500Y-96316241D01*
X172361501Y-96316220D01*
X172361501Y-96186891D01*
X172361500Y-96186889D01*
X172337465Y-96066058D01*
X172337463Y-96066051D01*
X172337463Y-96066049D01*
X172334484Y-96058858D01*
X172317932Y-96018897D01*
X172290312Y-95952215D01*
X172221858Y-95849767D01*
X172221855Y-95849763D01*
X171054464Y-94682374D01*
X171027584Y-94642145D01*
X171003689Y-94584457D01*
X170977013Y-94520053D01*
X170977011Y-94520051D01*
X170977011Y-94520049D01*
X170878464Y-94372565D01*
X170878461Y-94372561D01*
X170753038Y-94247138D01*
X170753034Y-94247135D01*
X170605553Y-94148590D01*
X170605540Y-94148583D01*
X170441667Y-94080706D01*
X170441658Y-94080703D01*
X170267694Y-94046100D01*
X170267691Y-94046100D01*
X170090309Y-94046100D01*
X170090306Y-94046100D01*
X169916341Y-94080703D01*
X169916332Y-94080706D01*
X169752459Y-94148583D01*
X169752446Y-94148590D01*
X169604965Y-94247135D01*
X169604961Y-94247138D01*
X169479538Y-94372561D01*
X169479535Y-94372565D01*
X169380990Y-94520046D01*
X169380983Y-94520059D01*
X169313106Y-94683932D01*
X169313103Y-94683941D01*
X169278500Y-94857904D01*
X154900500Y-94857904D01*
X154900500Y-83076079D01*
X154871659Y-82931092D01*
X154871658Y-82931091D01*
X154871658Y-82931087D01*
X154831465Y-82834053D01*
X154815085Y-82794507D01*
X154815084Y-82794505D01*
X154775786Y-82735691D01*
X154775785Y-82735689D01*
X154775784Y-82735687D01*
X154732953Y-82671585D01*
X154732947Y-82671578D01*
X151141075Y-79079707D01*
X151107590Y-79018384D01*
X151107153Y-79016292D01*
X151101958Y-78990170D01*
X151091753Y-78965532D01*
X151045387Y-78853594D01*
X151045380Y-78853581D01*
X150963252Y-78730668D01*
X150926897Y-78694313D01*
X150858716Y-78626132D01*
X150490767Y-78258182D01*
X150301638Y-78069052D01*
X150301631Y-78069046D01*
X150227946Y-78019812D01*
X150227946Y-78019813D01*
X150178708Y-77986913D01*
X150042134Y-77930343D01*
X150042124Y-77930340D01*
X150016081Y-77925160D01*
X149954170Y-77892775D01*
X149952592Y-77891224D01*
X148140421Y-76079052D01*
X148140414Y-76079046D01*
X148066729Y-76029812D01*
X148066729Y-76029813D01*
X148017491Y-75996913D01*
X147880917Y-75940343D01*
X147880907Y-75940340D01*
X147735920Y-75911500D01*
X147735918Y-75911500D01*
X135791905Y-75911500D01*
X135791895Y-75911498D01*
X135732761Y-75911500D01*
X135644082Y-75911500D01*
X135644073Y-75911500D01*
X135644051Y-75911504D01*
X135581683Y-75923912D01*
X135581682Y-75923911D01*
X135581133Y-75924021D01*
X135499087Y-75940342D01*
X135499078Y-75940345D01*
X135499066Y-75940348D01*
X135498232Y-75940693D01*
X135498229Y-75940694D01*
X135431187Y-75968465D01*
X135431188Y-75968466D01*
X135431076Y-75968512D01*
X135430993Y-75968547D01*
X135362505Y-75996916D01*
X135362494Y-75996923D01*
X135362485Y-75996927D01*
X135361945Y-75997287D01*
X135361944Y-75997288D01*
X135304433Y-76035718D01*
X135304432Y-76035719D01*
X135241520Y-76077755D01*
X135241518Y-76077756D01*
X135239584Y-76079049D01*
X135239576Y-76079056D01*
X135239567Y-76079063D01*
X135189344Y-76129288D01*
X135189125Y-76129506D01*
X135189044Y-76129587D01*
X135132375Y-76186256D01*
X135132307Y-76186327D01*
X133869892Y-77448819D01*
X133515256Y-77803476D01*
X133465049Y-77853684D01*
X133465042Y-77853693D01*
X133465034Y-77853702D01*
X133464424Y-77854614D01*
X133464420Y-77854619D01*
X133433101Y-77901497D01*
X133433099Y-77901500D01*
X133382909Y-77976614D01*
X133353408Y-78047837D01*
X133353409Y-78047838D01*
X133326336Y-78113199D01*
X133326336Y-78113200D01*
X133319551Y-78147318D01*
X133314328Y-78173584D01*
X133297498Y-78258189D01*
X133297498Y-78258204D01*
X133297498Y-78258205D01*
X133297500Y-78332122D01*
X133297500Y-84774452D01*
X133297486Y-84774523D01*
X133297500Y-84848440D01*
X133297500Y-84922287D01*
X133311694Y-84993575D01*
X133311698Y-84993596D01*
X133326343Y-85067218D01*
X133326378Y-85067334D01*
X133326382Y-85067345D01*
X133326383Y-85067347D01*
X133354553Y-85135321D01*
X133382916Y-85203795D01*
X133382917Y-85203797D01*
X133382920Y-85203803D01*
X133382983Y-85203922D01*
X133424898Y-85266627D01*
X133424921Y-85266662D01*
X133424924Y-85266665D01*
X133465049Y-85326716D01*
X133465097Y-85326764D01*
X133465138Y-85326825D01*
X133465185Y-85326872D01*
X133465186Y-85326873D01*
X133518607Y-85380275D01*
X133518622Y-85380289D01*
X133569584Y-85431251D01*
X133569639Y-85431287D01*
X133574001Y-85435648D01*
X133574012Y-85435658D01*
X133940842Y-85802351D01*
X133974338Y-85863668D01*
X133974794Y-85865856D01*
X133984104Y-85912661D01*
X133984107Y-85912670D01*
X134051983Y-86076540D01*
X134051990Y-86076553D01*
X134150535Y-86224034D01*
X134150538Y-86224038D01*
X134275961Y-86349461D01*
X134275965Y-86349464D01*
X134423446Y-86448009D01*
X134423459Y-86448016D01*
X134510583Y-86484103D01*
X134587334Y-86515894D01*
X134587336Y-86515894D01*
X134587341Y-86515896D01*
X134761304Y-86550499D01*
X134761307Y-86550500D01*
X134761309Y-86550500D01*
X134938693Y-86550500D01*
X134938694Y-86550499D01*
X134996682Y-86538964D01*
X135112658Y-86515896D01*
X135112661Y-86515894D01*
X135112666Y-86515894D01*
X135276547Y-86448013D01*
X135424035Y-86349464D01*
X135549464Y-86224035D01*
X135648013Y-86076547D01*
X135715894Y-85912666D01*
X135725641Y-85863668D01*
X135750499Y-85738695D01*
X135750500Y-85738693D01*
X135750500Y-85561306D01*
X135750499Y-85561304D01*
X135715896Y-85387341D01*
X135715893Y-85387332D01*
X135648016Y-85223459D01*
X135648009Y-85223446D01*
X135549464Y-85075965D01*
X135549461Y-85075961D01*
X135424038Y-84950538D01*
X135424034Y-84950535D01*
X135276553Y-84851990D01*
X135276540Y-84851983D01*
X135112667Y-84784106D01*
X135112659Y-84784104D01*
X135065502Y-84774724D01*
X135048754Y-84765963D01*
X135030287Y-84761950D01*
X135005216Y-84743189D01*
X135003591Y-84742339D01*
X135002029Y-84740804D01*
X134834835Y-84573671D01*
X134801339Y-84512354D01*
X134798500Y-84485974D01*
X134798500Y-82558304D01*
X138149500Y-82558304D01*
X138149500Y-82735692D01*
X138184103Y-82909658D01*
X138184106Y-82909667D01*
X138251983Y-83073540D01*
X138251990Y-83073553D01*
X138350535Y-83221034D01*
X138350538Y-83221038D01*
X138388180Y-83258679D01*
X138421666Y-83320001D01*
X138424500Y-83346361D01*
X138424500Y-86990659D01*
X138424489Y-87055200D01*
X138424500Y-87055255D01*
X138424500Y-87055306D01*
X138425108Y-87058367D01*
X138425109Y-87058370D01*
X138436247Y-87114367D01*
X138436250Y-87114384D01*
X138448505Y-87176045D01*
X138448536Y-87176147D01*
X138448537Y-87176152D01*
X138472087Y-87233006D01*
X138495638Y-87289891D01*
X138495640Y-87289895D01*
X138495686Y-87289980D01*
X138495689Y-87289986D01*
X138495692Y-87289991D01*
X138495694Y-87289994D01*
X138504361Y-87302965D01*
X138530227Y-87341676D01*
X138564075Y-87392351D01*
X138564111Y-87392387D01*
X138564142Y-87392433D01*
X138564217Y-87392508D01*
X138564220Y-87392512D01*
X138608169Y-87436460D01*
X138608170Y-87436461D01*
X138996196Y-87824619D01*
X139029671Y-87885946D01*
X139032500Y-87912284D01*
X139032500Y-87965695D01*
X139067103Y-88139658D01*
X139067106Y-88139667D01*
X139134983Y-88303540D01*
X139134990Y-88303553D01*
X139233535Y-88451034D01*
X139233538Y-88451038D01*
X139358961Y-88576461D01*
X139358965Y-88576464D01*
X139506446Y-88675009D01*
X139506459Y-88675016D01*
X139629363Y-88725923D01*
X139670334Y-88742894D01*
X139670336Y-88742894D01*
X139670341Y-88742896D01*
X139844304Y-88777499D01*
X139844307Y-88777500D01*
X139844309Y-88777500D01*
X140021693Y-88777500D01*
X140021694Y-88777499D01*
X140079682Y-88765964D01*
X140195658Y-88742896D01*
X140195661Y-88742894D01*
X140195666Y-88742894D01*
X140359547Y-88675013D01*
X140507035Y-88576464D01*
X140619907Y-88463591D01*
X140681228Y-88430108D01*
X140750920Y-88435092D01*
X140806854Y-88476963D01*
X140831271Y-88542427D01*
X140830991Y-88563421D01*
X140830500Y-88568409D01*
X140830500Y-88745795D01*
X140865103Y-88919758D01*
X140865106Y-88919767D01*
X140932983Y-89083640D01*
X140932990Y-89083653D01*
X141031535Y-89231134D01*
X141031538Y-89231138D01*
X141156961Y-89356561D01*
X141156965Y-89356564D01*
X141304446Y-89455109D01*
X141304459Y-89455116D01*
X141427363Y-89506023D01*
X141468334Y-89522994D01*
X141468336Y-89522994D01*
X141468341Y-89522996D01*
X141642304Y-89557599D01*
X141642307Y-89557600D01*
X141642309Y-89557600D01*
X141819693Y-89557600D01*
X141819694Y-89557599D01*
X141877682Y-89546064D01*
X141993658Y-89522996D01*
X141993661Y-89522994D01*
X141993666Y-89522994D01*
X142157547Y-89455113D01*
X142305035Y-89356564D01*
X142430464Y-89231135D01*
X142529013Y-89083647D01*
X142596894Y-88919766D01*
X142631500Y-88745791D01*
X142631500Y-88692551D01*
X142651185Y-88625512D01*
X142667814Y-88604874D01*
X143801729Y-87470960D01*
X143801733Y-87470958D01*
X143888858Y-87383833D01*
X143923084Y-87332609D01*
X143957312Y-87281386D01*
X144000327Y-87177536D01*
X144004463Y-87167552D01*
X144022079Y-87078987D01*
X144028500Y-87046707D01*
X144028500Y-86923493D01*
X144028500Y-84365161D01*
X144048185Y-84298122D01*
X144064820Y-84277479D01*
X144102461Y-84239838D01*
X144102464Y-84239835D01*
X144201013Y-84092347D01*
X144202981Y-84087597D01*
X144233667Y-84013512D01*
X144268894Y-83928466D01*
X144273291Y-83906365D01*
X144298451Y-83779873D01*
X144303500Y-83754491D01*
X144303500Y-83577109D01*
X144303500Y-83577106D01*
X144303499Y-83577104D01*
X144268896Y-83403140D01*
X144268893Y-83403132D01*
X144201016Y-83239259D01*
X144201009Y-83239246D01*
X144102464Y-83091765D01*
X144102461Y-83091761D01*
X143977038Y-82966338D01*
X143977034Y-82966335D01*
X143829553Y-82867790D01*
X143829540Y-82867783D01*
X143665667Y-82799906D01*
X143665658Y-82799903D01*
X143491694Y-82765300D01*
X143491691Y-82765300D01*
X143314309Y-82765300D01*
X143314306Y-82765300D01*
X143140341Y-82799903D01*
X143140332Y-82799906D01*
X142976459Y-82867783D01*
X142976446Y-82867790D01*
X142828965Y-82966335D01*
X142828961Y-82966338D01*
X142722457Y-83072843D01*
X142661134Y-83106328D01*
X142591442Y-83101344D01*
X142572776Y-83092549D01*
X142441437Y-83016720D01*
X142441436Y-83016719D01*
X142441435Y-83016719D01*
X142295066Y-82977500D01*
X142143534Y-82977500D01*
X141997163Y-83016719D01*
X141865935Y-83092485D01*
X141859489Y-83097432D01*
X141857399Y-83094709D01*
X141809517Y-83120466D01*
X141739858Y-83115043D01*
X141684188Y-83072821D01*
X141678599Y-83063976D01*
X141566051Y-82895537D01*
X141566048Y-82895533D01*
X141426766Y-82756251D01*
X141426762Y-82756248D01*
X141262984Y-82646814D01*
X141262971Y-82646807D01*
X141080991Y-82571429D01*
X141080983Y-82571427D01*
X141039300Y-82563135D01*
X141039300Y-83366011D01*
X141029360Y-83348795D01*
X140973505Y-83292940D01*
X140905096Y-83253444D01*
X140828796Y-83233000D01*
X140749804Y-83233000D01*
X140673504Y-83253444D01*
X140605095Y-83292940D01*
X140549240Y-83348795D01*
X140539300Y-83366011D01*
X140539300Y-82563136D01*
X140539299Y-82563135D01*
X140497616Y-82571427D01*
X140497608Y-82571429D01*
X140315628Y-82646807D01*
X140315615Y-82646814D01*
X140146772Y-82759633D01*
X140145858Y-82758265D01*
X140088839Y-82782473D01*
X140019973Y-82770673D01*
X139968419Y-82723514D01*
X139950500Y-82659305D01*
X139950500Y-82558306D01*
X139950499Y-82558304D01*
X139915896Y-82384341D01*
X139915893Y-82384332D01*
X139848016Y-82220459D01*
X139848009Y-82220446D01*
X139749464Y-82072965D01*
X139749461Y-82072961D01*
X139624038Y-81947538D01*
X139624034Y-81947535D01*
X139476553Y-81848990D01*
X139476540Y-81848983D01*
X139312667Y-81781106D01*
X139312658Y-81781103D01*
X139138694Y-81746500D01*
X139138691Y-81746500D01*
X138961309Y-81746500D01*
X138961306Y-81746500D01*
X138787341Y-81781103D01*
X138787332Y-81781106D01*
X138623459Y-81848983D01*
X138623446Y-81848990D01*
X138475965Y-81947535D01*
X138475961Y-81947538D01*
X138350538Y-82072961D01*
X138350535Y-82072965D01*
X138251990Y-82220446D01*
X138251983Y-82220459D01*
X138184106Y-82384332D01*
X138184103Y-82384341D01*
X138149500Y-82558304D01*
X134798500Y-82558304D01*
X134798500Y-79504504D01*
X139789300Y-79504504D01*
X139789300Y-79653000D01*
X140489300Y-79653000D01*
X140489300Y-80153000D01*
X139789300Y-80153000D01*
X139789300Y-80301495D01*
X139827727Y-80494681D01*
X139827730Y-80494693D01*
X139903107Y-80676671D01*
X139903114Y-80676684D01*
X140012548Y-80840462D01*
X140012551Y-80840466D01*
X140151833Y-80979748D01*
X140151837Y-80979751D01*
X140315615Y-81089185D01*
X140315628Y-81089192D01*
X140497608Y-81164569D01*
X140539300Y-81172862D01*
X140539300Y-80369988D01*
X140549240Y-80387205D01*
X140605095Y-80443060D01*
X140673504Y-80482556D01*
X140749804Y-80503000D01*
X140828796Y-80503000D01*
X140905096Y-80482556D01*
X140973505Y-80443060D01*
X141029360Y-80387205D01*
X141039300Y-80369988D01*
X141039300Y-81172862D01*
X141080990Y-81164569D01*
X141080992Y-81164569D01*
X141262971Y-81089192D01*
X141262984Y-81089185D01*
X141426762Y-80979751D01*
X141426766Y-80979748D01*
X141566048Y-80840466D01*
X141566051Y-80840462D01*
X141675485Y-80676684D01*
X141675492Y-80676671D01*
X141750869Y-80494693D01*
X141750872Y-80494681D01*
X141789299Y-80301495D01*
X141789300Y-80301492D01*
X141789300Y-80153000D01*
X141089300Y-80153000D01*
X141089300Y-79653000D01*
X141789300Y-79653000D01*
X141789300Y-79504508D01*
X141789299Y-79504504D01*
X141750872Y-79311318D01*
X141750869Y-79311306D01*
X141675492Y-79129328D01*
X141675485Y-79129315D01*
X141566051Y-78965537D01*
X141566048Y-78965533D01*
X141426766Y-78826251D01*
X141426762Y-78826248D01*
X141262984Y-78716814D01*
X141262971Y-78716807D01*
X141080991Y-78641429D01*
X141080983Y-78641427D01*
X141039300Y-78633135D01*
X141039300Y-79436011D01*
X141029360Y-79418795D01*
X140973505Y-79362940D01*
X140905096Y-79323444D01*
X140828796Y-79303000D01*
X140749804Y-79303000D01*
X140673504Y-79323444D01*
X140605095Y-79362940D01*
X140549240Y-79418795D01*
X140539300Y-79436011D01*
X140539300Y-78633136D01*
X140539299Y-78633135D01*
X140497616Y-78641427D01*
X140497608Y-78641429D01*
X140315628Y-78716807D01*
X140315615Y-78716814D01*
X140151837Y-78826248D01*
X140151833Y-78826251D01*
X140012551Y-78965533D01*
X140012548Y-78965537D01*
X139903114Y-79129315D01*
X139903107Y-79129328D01*
X139827730Y-79311306D01*
X139827727Y-79311318D01*
X139789300Y-79504504D01*
X134798500Y-79504504D01*
X134798500Y-78694313D01*
X134818185Y-78627274D01*
X134834812Y-78606638D01*
X135992562Y-77448820D01*
X136053884Y-77415335D01*
X136080246Y-77412500D01*
X147299770Y-77412500D01*
X147366809Y-77432185D01*
X147387451Y-77448819D01*
X148690677Y-78752045D01*
X148724162Y-78813368D01*
X148719178Y-78883060D01*
X148690678Y-78927406D01*
X148652552Y-78965532D01*
X148652548Y-78965537D01*
X148543114Y-79129315D01*
X148543107Y-79129328D01*
X148467730Y-79311306D01*
X148467727Y-79311318D01*
X148429300Y-79504504D01*
X148429300Y-79653000D01*
X149129300Y-79653000D01*
X149129300Y-80153000D01*
X148429300Y-80153000D01*
X148429300Y-80301495D01*
X148467727Y-80494681D01*
X148467730Y-80494693D01*
X148543107Y-80676671D01*
X148543114Y-80676684D01*
X148652548Y-80840462D01*
X148652551Y-80840466D01*
X148791833Y-80979748D01*
X148791837Y-80979751D01*
X148955615Y-81089185D01*
X148955628Y-81089192D01*
X149137608Y-81164569D01*
X149179300Y-81172862D01*
X149179300Y-80369988D01*
X149189240Y-80387205D01*
X149245095Y-80443060D01*
X149313504Y-80482556D01*
X149389804Y-80503000D01*
X149468796Y-80503000D01*
X149545096Y-80482556D01*
X149613505Y-80443060D01*
X149669360Y-80387205D01*
X149679300Y-80369988D01*
X149679300Y-81172862D01*
X149720990Y-81164569D01*
X149720992Y-81164569D01*
X149902971Y-81089192D01*
X149902984Y-81089185D01*
X150066762Y-80979751D01*
X150066766Y-80979748D01*
X150206048Y-80840466D01*
X150206051Y-80840462D01*
X150315485Y-80676684D01*
X150315490Y-80676674D01*
X150332285Y-80636127D01*
X150376125Y-80581722D01*
X150442418Y-80559656D01*
X150510118Y-80576934D01*
X150534528Y-80595896D01*
X153363181Y-83424549D01*
X153396666Y-83485872D01*
X153399500Y-83512230D01*
X153399500Y-97737770D01*
X153379815Y-97804809D01*
X153363181Y-97825451D01*
X153075451Y-98113181D01*
X153014128Y-98146666D01*
X152987770Y-98149500D01*
X145779500Y-98149500D01*
X145712461Y-98129815D01*
X145666706Y-98077011D01*
X145655500Y-98025500D01*
X145655500Y-93598982D01*
X145657069Y-93593636D01*
X145655972Y-93588176D01*
X145662148Y-93572385D01*
X145663347Y-93555627D01*
X145671382Y-93544893D01*
X145675185Y-93531943D01*
X145679929Y-93526926D01*
X145681424Y-93523107D01*
X145699311Y-93506437D01*
X145703432Y-93502080D01*
X145705219Y-93499694D01*
X145706643Y-93498685D01*
X145706773Y-93498549D01*
X145706802Y-93498528D01*
X145706931Y-93498482D01*
X145710564Y-93495910D01*
X145710631Y-93495866D01*
X145770778Y-93455677D01*
X145771361Y-93455296D01*
X145771407Y-93455256D01*
X145771416Y-93455251D01*
X145771423Y-93455243D01*
X145771450Y-93455220D01*
X145771462Y-93455213D01*
X145771476Y-93455198D01*
X145771567Y-93455122D01*
X145772228Y-93454446D01*
X145821500Y-93405166D01*
X145875951Y-93350716D01*
X145875954Y-93350710D01*
X145880806Y-93345859D01*
X145880878Y-93345777D01*
X147439583Y-91786826D01*
X147500903Y-91753336D01*
X147527271Y-91750500D01*
X148814730Y-91750500D01*
X148881769Y-91770185D01*
X148883622Y-91771399D01*
X148923447Y-91798010D01*
X148923450Y-91798011D01*
X148923453Y-91798013D01*
X149087334Y-91865894D01*
X149087336Y-91865894D01*
X149087341Y-91865896D01*
X149261304Y-91900499D01*
X149261307Y-91900500D01*
X149261309Y-91900500D01*
X149438693Y-91900500D01*
X149438694Y-91900499D01*
X149496682Y-91888964D01*
X149612658Y-91865896D01*
X149612661Y-91865894D01*
X149612666Y-91865894D01*
X149776547Y-91798013D01*
X149924035Y-91699464D01*
X150049464Y-91574035D01*
X150148013Y-91426547D01*
X150215894Y-91262666D01*
X150250500Y-91088691D01*
X150250500Y-90911309D01*
X150250500Y-90911306D01*
X150250499Y-90911304D01*
X150215896Y-90737341D01*
X150215893Y-90737332D01*
X150148016Y-90573459D01*
X150148009Y-90573446D01*
X150049464Y-90425965D01*
X150049461Y-90425961D01*
X149924038Y-90300538D01*
X149924034Y-90300535D01*
X149776553Y-90201990D01*
X149776540Y-90201983D01*
X149612667Y-90134106D01*
X149612658Y-90134103D01*
X149438694Y-90099500D01*
X149438691Y-90099500D01*
X149261309Y-90099500D01*
X149261306Y-90099500D01*
X149087341Y-90134103D01*
X149087332Y-90134106D01*
X148923452Y-90201987D01*
X148923447Y-90201989D01*
X148883622Y-90228601D01*
X148816945Y-90249480D01*
X148814730Y-90249500D01*
X147931500Y-90249500D01*
X147864461Y-90229815D01*
X147818706Y-90177011D01*
X147807500Y-90125500D01*
X147807500Y-89967906D01*
X147807499Y-89967904D01*
X147772896Y-89793941D01*
X147772893Y-89793932D01*
X147705016Y-89630059D01*
X147705009Y-89630046D01*
X147606464Y-89482565D01*
X147606461Y-89482561D01*
X147481038Y-89357138D01*
X147481034Y-89357135D01*
X147330609Y-89256624D01*
X147285804Y-89203012D01*
X147275500Y-89153522D01*
X147275500Y-88049361D01*
X147295185Y-87982322D01*
X147311820Y-87961679D01*
X147349461Y-87924038D01*
X147349464Y-87924035D01*
X147448013Y-87776547D01*
X147515894Y-87612666D01*
X147550500Y-87438691D01*
X147550500Y-87261309D01*
X147550500Y-87261306D01*
X147550499Y-87261304D01*
X147515896Y-87087341D01*
X147515893Y-87087332D01*
X147512436Y-87078987D01*
X147484320Y-87011106D01*
X147448016Y-86923459D01*
X147448009Y-86923446D01*
X147349464Y-86775965D01*
X147349461Y-86775961D01*
X147224038Y-86650538D01*
X147224034Y-86650535D01*
X147076553Y-86551990D01*
X147076540Y-86551983D01*
X146912667Y-86484106D01*
X146912658Y-86484103D01*
X146738694Y-86449500D01*
X146738691Y-86449500D01*
X146561309Y-86449500D01*
X146561306Y-86449500D01*
X146387341Y-86484103D01*
X146387332Y-86484106D01*
X146223459Y-86551983D01*
X146223446Y-86551990D01*
X146075965Y-86650535D01*
X146075961Y-86650538D01*
X146016181Y-86710319D01*
X145954858Y-86743804D01*
X145885166Y-86738820D01*
X145829233Y-86696948D01*
X145804816Y-86631484D01*
X145804500Y-86622638D01*
X145804500Y-84751052D01*
X145824185Y-84684013D01*
X145840819Y-84663371D01*
X146306771Y-84197419D01*
X146331516Y-84183907D01*
X146354581Y-84167685D01*
X146364105Y-84166111D01*
X146368094Y-84163934D01*
X146389276Y-84161208D01*
X146391860Y-84161100D01*
X146447691Y-84161100D01*
X146532079Y-84144314D01*
X146621657Y-84126496D01*
X146621659Y-84126495D01*
X146621666Y-84126494D01*
X146785547Y-84058613D01*
X146933035Y-83960064D01*
X147058464Y-83834635D01*
X147157013Y-83687147D01*
X147188715Y-83610608D01*
X147232555Y-83556207D01*
X147298849Y-83534141D01*
X147366548Y-83551419D01*
X147414159Y-83602556D01*
X147423051Y-83625969D01*
X147423800Y-83628764D01*
X147423800Y-83628766D01*
X147431991Y-83659336D01*
X147463019Y-83775136D01*
X147497371Y-83834634D01*
X147538785Y-83906365D01*
X147645935Y-84013515D01*
X147746458Y-84071552D01*
X147774769Y-84087898D01*
X147777165Y-84089281D01*
X147923534Y-84128500D01*
X147923536Y-84128500D01*
X148075064Y-84128500D01*
X148075066Y-84128500D01*
X148221435Y-84089281D01*
X148352665Y-84013515D01*
X148459815Y-83906365D01*
X148466377Y-83895000D01*
X148516944Y-83846784D01*
X148573764Y-83833000D01*
X149129300Y-83833000D01*
X149129300Y-84333000D01*
X148429300Y-84333000D01*
X148429300Y-84731495D01*
X148467727Y-84924681D01*
X148467730Y-84924693D01*
X148543107Y-85106671D01*
X148543114Y-85106684D01*
X148652548Y-85270462D01*
X148652551Y-85270466D01*
X148791833Y-85409748D01*
X148791837Y-85409751D01*
X148955615Y-85519185D01*
X148955628Y-85519192D01*
X149137608Y-85594569D01*
X149179300Y-85602862D01*
X149179300Y-84799988D01*
X149189240Y-84817205D01*
X149245095Y-84873060D01*
X149313504Y-84912556D01*
X149389804Y-84933000D01*
X149468796Y-84933000D01*
X149545096Y-84912556D01*
X149613505Y-84873060D01*
X149669360Y-84817205D01*
X149679300Y-84799988D01*
X149679300Y-85602862D01*
X149720990Y-85594569D01*
X149720992Y-85594569D01*
X149902971Y-85519192D01*
X149902984Y-85519185D01*
X150066762Y-85409751D01*
X150066766Y-85409748D01*
X150206048Y-85270466D01*
X150206051Y-85270462D01*
X150315485Y-85106684D01*
X150315492Y-85106671D01*
X150390869Y-84924693D01*
X150390872Y-84924681D01*
X150429299Y-84731495D01*
X150429300Y-84731492D01*
X150429300Y-84333000D01*
X149729300Y-84333000D01*
X149729300Y-83833000D01*
X150429300Y-83833000D01*
X150429300Y-83434508D01*
X150429299Y-83434504D01*
X150390872Y-83241318D01*
X150390869Y-83241306D01*
X150315492Y-83059328D01*
X150315485Y-83059315D01*
X150206051Y-82895537D01*
X150206048Y-82895533D01*
X150066766Y-82756251D01*
X150066762Y-82756248D01*
X149902984Y-82646814D01*
X149902971Y-82646807D01*
X149720991Y-82571429D01*
X149720983Y-82571427D01*
X149679300Y-82563135D01*
X149679300Y-83366011D01*
X149669360Y-83348795D01*
X149613505Y-83292940D01*
X149545096Y-83253444D01*
X149468796Y-83233000D01*
X149389804Y-83233000D01*
X149313504Y-83253444D01*
X149245095Y-83292940D01*
X149189240Y-83348795D01*
X149179300Y-83366011D01*
X149179300Y-82563136D01*
X149179299Y-82563135D01*
X149137616Y-82571427D01*
X149137608Y-82571429D01*
X148955628Y-82646807D01*
X148955615Y-82646814D01*
X148791837Y-82756248D01*
X148791833Y-82756251D01*
X148652548Y-82895536D01*
X148539727Y-83064387D01*
X148538303Y-83063435D01*
X148495042Y-83107451D01*
X148426900Y-83122892D01*
X148361227Y-83099041D01*
X148359207Y-83097306D01*
X148359111Y-83097432D01*
X148352667Y-83092487D01*
X148352665Y-83092485D01*
X148287050Y-83054602D01*
X148221436Y-83016719D01*
X148148250Y-82997109D01*
X148075066Y-82977500D01*
X147923534Y-82977500D01*
X147777163Y-83016719D01*
X147645935Y-83092485D01*
X147645932Y-83092487D01*
X147538787Y-83199632D01*
X147538785Y-83199635D01*
X147490887Y-83282596D01*
X147440319Y-83330811D01*
X147371712Y-83344033D01*
X147306847Y-83318065D01*
X147266320Y-83261150D01*
X147259500Y-83220595D01*
X147259500Y-83171906D01*
X147259499Y-83171904D01*
X147224896Y-82997941D01*
X147224893Y-82997932D01*
X147157016Y-82834059D01*
X147157009Y-82834046D01*
X147058464Y-82686565D01*
X147058461Y-82686561D01*
X146933038Y-82561138D01*
X146933034Y-82561135D01*
X146785553Y-82462590D01*
X146785540Y-82462583D01*
X146621667Y-82394706D01*
X146621658Y-82394703D01*
X146447694Y-82360100D01*
X146447691Y-82360100D01*
X146270309Y-82360100D01*
X146270306Y-82360100D01*
X146096341Y-82394703D01*
X146096332Y-82394706D01*
X145932459Y-82462583D01*
X145932446Y-82462590D01*
X145784965Y-82561135D01*
X145784961Y-82561138D01*
X145659538Y-82686561D01*
X145659535Y-82686565D01*
X145560990Y-82834046D01*
X145560983Y-82834059D01*
X145493106Y-82997932D01*
X145493103Y-82997941D01*
X145458500Y-83171904D01*
X145458500Y-83225147D01*
X145438815Y-83292186D01*
X145422181Y-83312828D01*
X144783180Y-83951828D01*
X144783172Y-83951836D01*
X144780270Y-83954739D01*
X144780267Y-83954742D01*
X144693142Y-84041867D01*
X144661461Y-84089281D01*
X144656978Y-84095989D01*
X144656977Y-84095991D01*
X144624687Y-84144314D01*
X144608687Y-84182943D01*
X144599314Y-84205573D01*
X144577538Y-84258144D01*
X144577535Y-84258156D01*
X144553500Y-84378989D01*
X144553500Y-88921838D01*
X144533815Y-88988877D01*
X144517181Y-89009519D01*
X144479538Y-89047161D01*
X144479535Y-89047165D01*
X144380990Y-89194646D01*
X144380983Y-89194659D01*
X144313106Y-89358532D01*
X144313103Y-89358541D01*
X144278500Y-89532504D01*
X144278500Y-89709895D01*
X144313103Y-89883858D01*
X144313106Y-89883867D01*
X144380983Y-90047740D01*
X144380990Y-90047753D01*
X144479535Y-90195234D01*
X144479538Y-90195238D01*
X144604961Y-90320661D01*
X144604965Y-90320664D01*
X144752446Y-90419209D01*
X144752459Y-90419216D01*
X144875363Y-90470123D01*
X144916334Y-90487094D01*
X144916336Y-90487094D01*
X144916341Y-90487096D01*
X145090304Y-90521699D01*
X145090307Y-90521700D01*
X145090309Y-90521700D01*
X145267693Y-90521700D01*
X145267694Y-90521699D01*
X145325682Y-90510164D01*
X145441658Y-90487096D01*
X145441661Y-90487094D01*
X145441666Y-90487094D01*
X145605547Y-90419213D01*
X145753035Y-90320664D01*
X145829505Y-90244193D01*
X145890826Y-90210710D01*
X145960518Y-90215694D01*
X146016452Y-90257565D01*
X146038803Y-90307686D01*
X146041106Y-90319266D01*
X146041106Y-90319267D01*
X146108983Y-90483140D01*
X146108990Y-90483153D01*
X146207535Y-90630634D01*
X146207538Y-90630638D01*
X146252615Y-90675715D01*
X146286100Y-90737038D01*
X146281116Y-90806730D01*
X146252622Y-90851070D01*
X145018417Y-92085474D01*
X144957097Y-92118964D01*
X144930729Y-92121800D01*
X144831080Y-92121800D01*
X144686092Y-92150640D01*
X144686082Y-92150643D01*
X144549511Y-92207212D01*
X144549498Y-92207219D01*
X144426584Y-92289348D01*
X144426580Y-92289351D01*
X144322051Y-92393880D01*
X144322048Y-92393884D01*
X144239919Y-92516798D01*
X144239912Y-92516811D01*
X144183343Y-92653382D01*
X144183340Y-92653392D01*
X144154500Y-92798379D01*
X144154500Y-121143549D01*
X144134815Y-121210588D01*
X144118144Y-121231268D01*
X143589144Y-121759817D01*
X143527806Y-121793275D01*
X143458117Y-121788261D01*
X143402201Y-121746366D01*
X143377812Y-121680891D01*
X143377500Y-121672098D01*
X143377500Y-114882361D01*
X143397185Y-114815322D01*
X143413820Y-114794679D01*
X143451461Y-114757038D01*
X143451464Y-114757035D01*
X143550013Y-114609547D01*
X143617894Y-114445666D01*
X143622492Y-114422553D01*
X143642060Y-114324175D01*
X143652500Y-114271691D01*
X143652500Y-114094309D01*
X143652500Y-114094306D01*
X143652499Y-114094304D01*
X143617896Y-113920341D01*
X143617893Y-113920332D01*
X143613876Y-113910635D01*
X143583177Y-113836518D01*
X143550016Y-113756459D01*
X143550009Y-113756446D01*
X143451464Y-113608965D01*
X143451461Y-113608961D01*
X143326038Y-113483538D01*
X143326034Y-113483535D01*
X143178553Y-113384990D01*
X143178540Y-113384983D01*
X143014667Y-113317106D01*
X143014658Y-113317103D01*
X142840694Y-113282500D01*
X142840691Y-113282500D01*
X142663309Y-113282500D01*
X142663306Y-113282500D01*
X142489341Y-113317103D01*
X142489332Y-113317106D01*
X142325459Y-113384983D01*
X142325446Y-113384990D01*
X142177965Y-113483535D01*
X142177961Y-113483538D01*
X142052538Y-113608961D01*
X142052535Y-113608965D01*
X141953990Y-113756446D01*
X141953983Y-113756459D01*
X141886106Y-113920332D01*
X141886103Y-113920341D01*
X141851500Y-114094304D01*
X141851500Y-114271695D01*
X141886103Y-114445658D01*
X141886106Y-114445667D01*
X141953983Y-114609540D01*
X141953990Y-114609553D01*
X142052535Y-114757034D01*
X142052538Y-114757038D01*
X142090180Y-114794679D01*
X142123666Y-114856001D01*
X142126500Y-114882361D01*
X142126500Y-122960571D01*
X142106815Y-123027610D01*
X142054011Y-123073365D01*
X141984853Y-123083309D01*
X141946205Y-123071056D01*
X141907714Y-123051444D01*
X141907713Y-123051443D01*
X141907712Y-123051443D01*
X141705543Y-122985754D01*
X141705541Y-122985753D01*
X141628400Y-122973535D01*
X141565266Y-122943605D01*
X141528335Y-122884293D01*
X141529333Y-122814431D01*
X141560116Y-122763382D01*
X141649464Y-122674035D01*
X141748013Y-122526547D01*
X141815894Y-122362666D01*
X141850500Y-122188691D01*
X141850500Y-122011309D01*
X141850500Y-122011306D01*
X141850499Y-122011304D01*
X141815896Y-121837341D01*
X141815893Y-121837332D01*
X141748016Y-121673459D01*
X141748009Y-121673446D01*
X141649464Y-121525965D01*
X141649461Y-121525961D01*
X141524038Y-121400538D01*
X141524034Y-121400535D01*
X141376553Y-121301990D01*
X141376540Y-121301983D01*
X141212667Y-121234106D01*
X141212658Y-121234103D01*
X141038694Y-121199500D01*
X141038691Y-121199500D01*
X140861309Y-121199500D01*
X140861306Y-121199500D01*
X140687341Y-121234103D01*
X140687332Y-121234106D01*
X140523459Y-121301983D01*
X140523446Y-121301990D01*
X140375965Y-121400535D01*
X140375961Y-121400538D01*
X140338321Y-121438180D01*
X140276999Y-121471666D01*
X140250639Y-121474500D01*
X133694743Y-121474500D01*
X133627704Y-121454815D01*
X133581949Y-121402011D01*
X133572005Y-121332853D01*
X133573126Y-121326308D01*
X133576235Y-121310681D01*
X133583233Y-121275500D01*
X133600500Y-121188693D01*
X133600500Y-121011306D01*
X133600499Y-121011304D01*
X133565896Y-120837341D01*
X133565893Y-120837332D01*
X133498016Y-120673459D01*
X133498009Y-120673446D01*
X133399464Y-120525965D01*
X133399461Y-120525961D01*
X133361819Y-120488319D01*
X133328334Y-120426996D01*
X133325500Y-120400638D01*
X133325500Y-117282452D01*
X133345185Y-117215413D01*
X133361819Y-117194771D01*
X138066771Y-112489819D01*
X138128094Y-112456334D01*
X138154452Y-112453500D01*
X138207693Y-112453500D01*
X138207694Y-112453499D01*
X138265682Y-112441964D01*
X138381658Y-112418896D01*
X138381661Y-112418894D01*
X138381666Y-112418894D01*
X138545547Y-112351013D01*
X138693035Y-112252464D01*
X138818464Y-112127035D01*
X138917013Y-111979547D01*
X138984894Y-111815666D01*
X138985932Y-111810452D01*
X139019499Y-111641695D01*
X139019500Y-111641693D01*
X139019500Y-111464306D01*
X139019499Y-111464304D01*
X138984896Y-111290341D01*
X138984893Y-111290332D01*
X138917016Y-111126459D01*
X138917009Y-111126446D01*
X138818464Y-110978965D01*
X138818461Y-110978961D01*
X138693038Y-110853538D01*
X138693034Y-110853535D01*
X138545553Y-110754990D01*
X138545540Y-110754983D01*
X138381667Y-110687106D01*
X138381658Y-110687103D01*
X138207694Y-110652500D01*
X138207691Y-110652500D01*
X138030309Y-110652500D01*
X138030306Y-110652500D01*
X137856341Y-110687103D01*
X137856332Y-110687106D01*
X137692459Y-110754983D01*
X137692446Y-110754990D01*
X137544965Y-110853535D01*
X137544961Y-110853538D01*
X137419538Y-110978961D01*
X137419535Y-110978965D01*
X137320990Y-111126446D01*
X137320983Y-111126459D01*
X137253106Y-111290332D01*
X137253103Y-111290341D01*
X137218500Y-111464304D01*
X137218500Y-111517547D01*
X137198815Y-111584586D01*
X137182181Y-111605228D01*
X134970789Y-113816620D01*
X134909466Y-113850105D01*
X134839774Y-113845121D01*
X134783841Y-113803249D01*
X134759424Y-113737785D01*
X134768547Y-113681487D01*
X134792818Y-113622891D01*
X134809894Y-113581666D01*
X134812323Y-113569459D01*
X134841661Y-113421965D01*
X134844500Y-113407691D01*
X134844500Y-113230309D01*
X134844500Y-113230306D01*
X134844499Y-113230304D01*
X134809896Y-113056341D01*
X134809893Y-113056332D01*
X134742016Y-112892459D01*
X134742009Y-112892446D01*
X134643464Y-112744965D01*
X134643461Y-112744961D01*
X134518038Y-112619538D01*
X134518034Y-112619535D01*
X134370553Y-112520990D01*
X134370540Y-112520983D01*
X134206667Y-112453106D01*
X134206658Y-112453103D01*
X134032694Y-112418500D01*
X134032691Y-112418500D01*
X133855309Y-112418500D01*
X133855306Y-112418500D01*
X133681341Y-112453103D01*
X133681332Y-112453106D01*
X133517459Y-112520983D01*
X133517446Y-112520990D01*
X133369965Y-112619535D01*
X133369961Y-112619538D01*
X133244538Y-112744961D01*
X133244535Y-112744965D01*
X133145990Y-112892446D01*
X133145983Y-112892459D01*
X133078106Y-113056332D01*
X133078103Y-113056341D01*
X133043500Y-113230304D01*
X133043500Y-113283547D01*
X133023815Y-113350586D01*
X133007181Y-113371228D01*
X124414144Y-121964264D01*
X124414138Y-121964272D01*
X124345690Y-122066708D01*
X124345688Y-122066713D01*
X124316437Y-122137333D01*
X124316437Y-122137334D01*
X124298538Y-122180545D01*
X124298535Y-122180555D01*
X124274500Y-122301389D01*
X124274500Y-122928466D01*
X124254815Y-122995505D01*
X124202011Y-123041260D01*
X124132853Y-123051204D01*
X124112182Y-123046397D01*
X124085572Y-123037751D01*
X123965873Y-122998858D01*
X123925540Y-122985753D01*
X123764257Y-122960208D01*
X123715587Y-122952500D01*
X123503013Y-122952500D01*
X123454342Y-122960208D01*
X123293060Y-122985753D01*
X123090885Y-123051444D01*
X122901479Y-123147951D01*
X122729513Y-123272890D01*
X122579190Y-123423213D01*
X122454249Y-123595182D01*
X122449784Y-123603946D01*
X122401809Y-123654742D01*
X122333988Y-123671536D01*
X122267853Y-123648998D01*
X122228816Y-123603946D01*
X122224350Y-123595182D01*
X122099409Y-123423213D01*
X121949086Y-123272890D01*
X121777120Y-123147951D01*
X121587714Y-123051444D01*
X121587713Y-123051443D01*
X121587712Y-123051443D01*
X121385543Y-122985754D01*
X121385541Y-122985753D01*
X121385540Y-122985753D01*
X121224257Y-122960208D01*
X121175587Y-122952500D01*
X120963013Y-122952500D01*
X120914342Y-122960208D01*
X120753060Y-122985753D01*
X120550885Y-123051444D01*
X120361479Y-123147951D01*
X120189513Y-123272890D01*
X120039190Y-123423213D01*
X119914249Y-123595182D01*
X119909784Y-123603946D01*
X119861809Y-123654742D01*
X119793988Y-123671536D01*
X119727853Y-123648998D01*
X119688816Y-123603946D01*
X119684350Y-123595182D01*
X119559409Y-123423213D01*
X119409086Y-123272890D01*
X119237120Y-123147951D01*
X119047715Y-123051444D01*
X119046976Y-123051204D01*
X119045177Y-123050619D01*
X119044337Y-123050045D01*
X119043219Y-123049582D01*
X119043316Y-123049346D01*
X118987504Y-123011180D01*
X118960308Y-122946821D01*
X118959500Y-122932690D01*
X118959500Y-121179503D01*
X118979185Y-121112464D01*
X118995829Y-121091812D01*
X119001373Y-121086270D01*
X122685088Y-117403413D01*
X122746415Y-117369936D01*
X122816106Y-117374928D01*
X122831205Y-117381743D01*
X122835449Y-117384010D01*
X122835453Y-117384013D01*
X122999334Y-117451894D01*
X122999336Y-117451894D01*
X122999341Y-117451896D01*
X123173304Y-117486499D01*
X123173307Y-117486500D01*
X123173309Y-117486500D01*
X123350693Y-117486500D01*
X123350694Y-117486499D01*
X123408682Y-117474964D01*
X123524658Y-117451896D01*
X123524661Y-117451894D01*
X123524666Y-117451894D01*
X123688547Y-117384013D01*
X123836035Y-117285464D01*
X123961464Y-117160035D01*
X124060013Y-117012547D01*
X124127894Y-116848666D01*
X124134745Y-116814227D01*
X124160968Y-116682391D01*
X124162500Y-116674691D01*
X124162500Y-116497309D01*
X124162500Y-116497306D01*
X124162499Y-116497304D01*
X124127896Y-116323341D01*
X124127893Y-116323332D01*
X124060016Y-116159459D01*
X124060009Y-116159446D01*
X123961464Y-116011965D01*
X123961461Y-116011961D01*
X123836038Y-115886538D01*
X123836034Y-115886535D01*
X123688553Y-115787990D01*
X123688540Y-115787983D01*
X123524667Y-115720106D01*
X123524658Y-115720103D01*
X123350694Y-115685500D01*
X123350691Y-115685500D01*
X123173309Y-115685500D01*
X123173306Y-115685500D01*
X122999341Y-115720103D01*
X122999332Y-115720106D01*
X122835459Y-115787983D01*
X122835446Y-115787990D01*
X122687968Y-115886533D01*
X122687962Y-115886538D01*
X122650324Y-115924175D01*
X122625490Y-115937734D01*
X122602323Y-115953972D01*
X122592924Y-115955515D01*
X122589000Y-115957659D01*
X122567618Y-115960392D01*
X122565099Y-115960493D01*
X122556466Y-115960492D01*
X122556426Y-115960500D01*
X122556394Y-115960500D01*
X122554237Y-115960928D01*
X122554234Y-115960929D01*
X122511721Y-115969384D01*
X122498589Y-115971997D01*
X122435608Y-115984517D01*
X122435549Y-115984535D01*
X122377643Y-116008520D01*
X122377547Y-116008561D01*
X122321779Y-116031654D01*
X122321747Y-116031675D01*
X122321714Y-116031689D01*
X122321530Y-116031811D01*
X122321527Y-116031813D01*
X122268928Y-116066959D01*
X122219324Y-116100096D01*
X122219300Y-116100119D01*
X122219267Y-116100142D01*
X122218919Y-116100489D01*
X122218916Y-116100492D01*
X122172230Y-116147178D01*
X117939492Y-120378927D01*
X117935295Y-120383122D01*
X117935267Y-120383142D01*
X117892000Y-120426409D01*
X117891989Y-120426420D01*
X117848177Y-120470221D01*
X117848148Y-120470257D01*
X117813673Y-120521853D01*
X117813665Y-120521865D01*
X117779721Y-120572651D01*
X117779695Y-120572698D01*
X117756286Y-120629211D01*
X117756282Y-120629221D01*
X117732553Y-120686490D01*
X117732538Y-120686535D01*
X117720890Y-120745099D01*
X117720888Y-120745112D01*
X117708505Y-120807326D01*
X117708500Y-120807378D01*
X117708500Y-120807394D01*
X117708500Y-120868927D01*
X117708493Y-120930534D01*
X117708500Y-120930569D01*
X117708500Y-123166854D01*
X117688815Y-123233893D01*
X117657385Y-123267172D01*
X117649514Y-123272890D01*
X117649509Y-123272894D01*
X117499190Y-123423213D01*
X117374251Y-123595179D01*
X117277744Y-123784585D01*
X117212053Y-123986760D01*
X117188535Y-124135248D01*
X117178800Y-124196713D01*
X97100500Y-124196713D01*
X97100500Y-101253304D01*
X98754300Y-101253304D01*
X98754300Y-101430695D01*
X98788903Y-101604658D01*
X98788906Y-101604667D01*
X98856783Y-101768540D01*
X98856790Y-101768553D01*
X98955335Y-101916034D01*
X98955338Y-101916038D01*
X99080761Y-102041461D01*
X99080765Y-102041464D01*
X99228246Y-102140009D01*
X99228259Y-102140016D01*
X99330718Y-102182455D01*
X99392134Y-102207894D01*
X99392136Y-102207894D01*
X99392141Y-102207896D01*
X99566104Y-102242499D01*
X99566107Y-102242500D01*
X99566109Y-102242500D01*
X99619281Y-102242500D01*
X99686320Y-102262185D01*
X99706968Y-102278825D01*
X100680381Y-103252370D01*
X104534865Y-107107376D01*
X104908187Y-107480748D01*
X104941668Y-107542073D01*
X104944500Y-107568423D01*
X104944500Y-109205638D01*
X104924815Y-109272677D01*
X104908181Y-109293319D01*
X104870538Y-109330961D01*
X104870535Y-109330965D01*
X104771990Y-109478446D01*
X104771983Y-109478459D01*
X104704106Y-109642332D01*
X104704103Y-109642341D01*
X104669500Y-109816304D01*
X104669500Y-109993695D01*
X104704103Y-110167658D01*
X104704106Y-110167667D01*
X104771983Y-110331540D01*
X104771990Y-110331553D01*
X104870535Y-110479034D01*
X104870538Y-110479038D01*
X104995961Y-110604461D01*
X104995965Y-110604464D01*
X105143446Y-110703009D01*
X105143459Y-110703016D01*
X105226307Y-110737332D01*
X105307334Y-110770894D01*
X105307336Y-110770894D01*
X105307341Y-110770896D01*
X105481304Y-110805499D01*
X105481307Y-110805500D01*
X105481309Y-110805500D01*
X105658692Y-110805500D01*
X105675433Y-110802169D01*
X105747481Y-110787838D01*
X105817071Y-110794065D01*
X105872249Y-110836927D01*
X105893289Y-110885263D01*
X105905104Y-110944659D01*
X105905106Y-110944667D01*
X105972983Y-111108540D01*
X105972990Y-111108553D01*
X106071535Y-111256034D01*
X106071538Y-111256038D01*
X106196961Y-111381461D01*
X106196965Y-111381464D01*
X106344446Y-111480009D01*
X106344459Y-111480016D01*
X106435069Y-111517547D01*
X106508334Y-111547894D01*
X106508336Y-111547894D01*
X106508341Y-111547896D01*
X106682304Y-111582499D01*
X106682307Y-111582500D01*
X106682309Y-111582500D01*
X106859693Y-111582500D01*
X106859694Y-111582499D01*
X106928012Y-111568910D01*
X107033658Y-111547896D01*
X107033661Y-111547894D01*
X107033666Y-111547894D01*
X107197547Y-111480013D01*
X107345035Y-111381464D01*
X107382679Y-111343820D01*
X107444001Y-111310334D01*
X107470361Y-111307500D01*
X114250548Y-111307500D01*
X114317587Y-111327185D01*
X114338229Y-111343819D01*
X116938181Y-113943771D01*
X116971666Y-114005094D01*
X116974500Y-114031452D01*
X116974500Y-114084695D01*
X117009103Y-114258658D01*
X117009106Y-114258667D01*
X117076983Y-114422540D01*
X117076990Y-114422553D01*
X117175535Y-114570034D01*
X117175538Y-114570038D01*
X117300961Y-114695461D01*
X117300965Y-114695464D01*
X117448446Y-114794009D01*
X117448459Y-114794016D01*
X117555913Y-114838524D01*
X117612334Y-114861894D01*
X117612336Y-114861894D01*
X117612341Y-114861896D01*
X117786304Y-114896499D01*
X117786307Y-114896500D01*
X117786309Y-114896500D01*
X117963693Y-114896500D01*
X117963694Y-114896499D01*
X118034772Y-114882361D01*
X118137658Y-114861896D01*
X118137661Y-114861894D01*
X118137666Y-114861894D01*
X118301547Y-114794013D01*
X118449035Y-114695464D01*
X118574464Y-114570035D01*
X118673013Y-114422547D01*
X118740894Y-114258666D01*
X118741461Y-114255819D01*
X118775499Y-114084695D01*
X118775500Y-114084693D01*
X118775500Y-113907306D01*
X118775499Y-113907304D01*
X118740896Y-113733341D01*
X118740893Y-113733332D01*
X118673016Y-113569459D01*
X118673009Y-113569446D01*
X118574464Y-113421965D01*
X118574461Y-113421961D01*
X118449038Y-113296538D01*
X118449034Y-113296535D01*
X118301553Y-113197990D01*
X118301540Y-113197983D01*
X118137667Y-113130106D01*
X118137658Y-113130103D01*
X117963694Y-113095500D01*
X117963691Y-113095500D01*
X117910452Y-113095500D01*
X117843413Y-113075815D01*
X117822771Y-113059181D01*
X115054150Y-110290560D01*
X115046860Y-110283270D01*
X115046858Y-110283267D01*
X114959733Y-110196142D01*
X114908509Y-110161915D01*
X114857286Y-110127688D01*
X114857283Y-110127686D01*
X114857280Y-110127685D01*
X114783603Y-110097168D01*
X114783601Y-110097167D01*
X114776792Y-110094347D01*
X114743452Y-110080537D01*
X114683029Y-110068518D01*
X114678306Y-110067578D01*
X114678304Y-110067578D01*
X114622610Y-110056500D01*
X114622607Y-110056500D01*
X114622606Y-110056500D01*
X109634992Y-110056500D01*
X109567953Y-110036815D01*
X109522198Y-109984011D01*
X109512254Y-109914853D01*
X109531890Y-109863609D01*
X109576783Y-109796421D01*
X109576788Y-109796413D01*
X109631438Y-109664475D01*
X109631440Y-109664467D01*
X109658624Y-109527809D01*
X109691009Y-109465898D01*
X109751724Y-109431324D01*
X109774650Y-109428651D01*
X109774645Y-109428597D01*
X109777702Y-109428295D01*
X109780241Y-109428000D01*
X109780707Y-109428000D01*
X109780710Y-109427999D01*
X109920767Y-109400140D01*
X109920775Y-109400138D01*
X110039191Y-109351088D01*
X109709300Y-109021198D01*
X109312642Y-109417856D01*
X109303008Y-109426532D01*
X109171446Y-109533094D01*
X109144949Y-109544146D01*
X109119757Y-109557903D01*
X109113111Y-109557427D01*
X109106962Y-109559993D01*
X109078700Y-109554966D01*
X109050065Y-109552919D01*
X109043514Y-109548709D01*
X109038171Y-109547759D01*
X109029415Y-109539647D01*
X109005718Y-109524418D01*
X109005010Y-109523710D01*
X109019076Y-109509645D01*
X109034300Y-109472891D01*
X109034300Y-109433109D01*
X109019076Y-109396355D01*
X108990945Y-109368224D01*
X108954191Y-109353000D01*
X108914409Y-109353000D01*
X108877655Y-109368224D01*
X108849524Y-109396355D01*
X108834300Y-109433109D01*
X108834300Y-109472891D01*
X108849524Y-109509645D01*
X108863589Y-109523710D01*
X108862882Y-109524418D01*
X108860728Y-109525593D01*
X108859470Y-109527703D01*
X108830218Y-109542253D01*
X108801559Y-109557903D01*
X108799110Y-109557727D01*
X108796913Y-109558821D01*
X108764455Y-109555249D01*
X108731867Y-109552919D01*
X108729144Y-109551364D01*
X108727462Y-109551179D01*
X108719617Y-109545922D01*
X108697154Y-109533094D01*
X108565592Y-109426532D01*
X108564170Y-109424474D01*
X108555958Y-109417856D01*
X108159301Y-109021198D01*
X108159300Y-109021198D01*
X107829407Y-109351088D01*
X107947824Y-109400138D01*
X107947832Y-109400140D01*
X108087889Y-109427999D01*
X108087893Y-109428000D01*
X108088359Y-109428000D01*
X108088594Y-109428069D01*
X108093955Y-109428597D01*
X108093854Y-109429613D01*
X108155398Y-109447685D01*
X108201153Y-109500489D01*
X108209976Y-109527809D01*
X108237159Y-109664467D01*
X108237161Y-109664475D01*
X108291811Y-109796413D01*
X108291816Y-109796421D01*
X108336710Y-109863609D01*
X108357588Y-109930286D01*
X108339104Y-109997666D01*
X108287125Y-110044357D01*
X108233608Y-110056500D01*
X107470361Y-110056500D01*
X107403322Y-110036815D01*
X107382679Y-110020180D01*
X107345038Y-109982538D01*
X107345034Y-109982535D01*
X107197553Y-109883990D01*
X107197540Y-109883983D01*
X107033667Y-109816106D01*
X107033658Y-109816103D01*
X106859694Y-109781500D01*
X106859691Y-109781500D01*
X106682309Y-109781500D01*
X106682306Y-109781500D01*
X106593518Y-109799161D01*
X106523927Y-109792934D01*
X106468749Y-109750071D01*
X106447710Y-109701735D01*
X106435896Y-109642341D01*
X106435893Y-109642332D01*
X106368016Y-109478459D01*
X106368009Y-109478446D01*
X106269464Y-109330965D01*
X106269461Y-109330961D01*
X106231819Y-109293319D01*
X106198334Y-109231996D01*
X106195500Y-109205638D01*
X106195500Y-108631589D01*
X107434300Y-108631589D01*
X107434300Y-108774410D01*
X107462159Y-108914466D01*
X107462162Y-108914478D01*
X107511209Y-109032890D01*
X107841102Y-108703000D01*
X107821211Y-108683109D01*
X108059300Y-108683109D01*
X108059300Y-108722891D01*
X108074524Y-108759645D01*
X108102655Y-108787776D01*
X108139409Y-108803000D01*
X108179191Y-108803000D01*
X108215945Y-108787776D01*
X108244076Y-108759645D01*
X108259300Y-108722891D01*
X108259300Y-108690500D01*
X108489998Y-108690500D01*
X108934300Y-109134802D01*
X109378602Y-108690500D01*
X109371211Y-108683109D01*
X109609300Y-108683109D01*
X109609300Y-108722891D01*
X109624524Y-108759645D01*
X109652655Y-108787776D01*
X109689409Y-108803000D01*
X109729191Y-108803000D01*
X109765945Y-108787776D01*
X109794076Y-108759645D01*
X109809300Y-108722891D01*
X109809300Y-108702999D01*
X110027498Y-108702999D01*
X110027498Y-108703001D01*
X110357388Y-109032891D01*
X110406438Y-108914475D01*
X110406440Y-108914467D01*
X110434299Y-108774410D01*
X110434300Y-108774407D01*
X110434300Y-108631593D01*
X110434299Y-108631589D01*
X110406440Y-108491532D01*
X110406438Y-108491524D01*
X110357388Y-108373107D01*
X110027498Y-108702999D01*
X109809300Y-108702999D01*
X109809300Y-108683109D01*
X109794076Y-108646355D01*
X109765945Y-108618224D01*
X109729191Y-108603000D01*
X109689409Y-108603000D01*
X109652655Y-108618224D01*
X109624524Y-108646355D01*
X109609300Y-108683109D01*
X109371211Y-108683109D01*
X109321800Y-108633698D01*
X109181080Y-108774418D01*
X109119757Y-108807903D01*
X109050065Y-108802919D01*
X109005718Y-108774418D01*
X109005010Y-108773710D01*
X109019076Y-108759645D01*
X109034300Y-108722891D01*
X109034300Y-108683109D01*
X109019076Y-108646355D01*
X108990945Y-108618224D01*
X108954191Y-108603000D01*
X108914409Y-108603000D01*
X108877655Y-108618224D01*
X108849524Y-108646355D01*
X108834300Y-108683109D01*
X108834300Y-108722891D01*
X108849524Y-108759645D01*
X108863589Y-108773710D01*
X108862882Y-108774418D01*
X108801559Y-108807903D01*
X108731867Y-108802919D01*
X108687520Y-108774418D01*
X108546800Y-108633698D01*
X108489998Y-108690500D01*
X108259300Y-108690500D01*
X108259300Y-108683109D01*
X108244076Y-108646355D01*
X108215945Y-108618224D01*
X108179191Y-108603000D01*
X108139409Y-108603000D01*
X108102655Y-108618224D01*
X108074524Y-108646355D01*
X108059300Y-108683109D01*
X107821211Y-108683109D01*
X107511209Y-108373107D01*
X107462164Y-108491514D01*
X107462159Y-108491530D01*
X107434300Y-108631589D01*
X106195500Y-108631589D01*
X106195500Y-108178000D01*
X107952498Y-108178000D01*
X108159300Y-108384802D01*
X108228602Y-108315500D01*
X108228602Y-108290805D01*
X108224821Y-108283881D01*
X108224761Y-108231440D01*
X108237234Y-108173464D01*
X108843452Y-108173464D01*
X108843452Y-108184782D01*
X108868779Y-108231165D01*
X108864998Y-108284035D01*
X108864998Y-108315500D01*
X108934300Y-108384802D01*
X109003602Y-108315500D01*
X109003602Y-108290805D01*
X108999821Y-108283881D01*
X108999761Y-108231440D01*
X109012234Y-108173464D01*
X109618452Y-108173464D01*
X109618452Y-108184782D01*
X109643779Y-108231165D01*
X109639998Y-108284035D01*
X109639998Y-108315500D01*
X109709300Y-108384802D01*
X109916102Y-108178000D01*
X109709300Y-107971198D01*
X109639998Y-108040500D01*
X109639998Y-108065194D01*
X109643779Y-108072119D01*
X109638795Y-108141811D01*
X109618452Y-108173464D01*
X109012234Y-108173464D01*
X109016231Y-108154888D01*
X108999821Y-108124835D01*
X109003602Y-108071964D01*
X109003602Y-108040500D01*
X108934300Y-107971198D01*
X108864998Y-108040500D01*
X108864998Y-108065194D01*
X108868779Y-108072119D01*
X108863795Y-108141811D01*
X108843452Y-108173464D01*
X108237234Y-108173464D01*
X108241231Y-108154888D01*
X108224821Y-108124835D01*
X108228602Y-108071964D01*
X108228602Y-108040500D01*
X108159300Y-107971198D01*
X107952498Y-108178000D01*
X106195500Y-108178000D01*
X106195500Y-107581589D01*
X107434300Y-107581589D01*
X107434300Y-107724410D01*
X107462159Y-107864466D01*
X107462162Y-107864478D01*
X107511209Y-107982890D01*
X107841102Y-107653000D01*
X107821211Y-107633109D01*
X108059300Y-107633109D01*
X108059300Y-107672891D01*
X108074524Y-107709645D01*
X108102655Y-107737776D01*
X108139409Y-107753000D01*
X108179191Y-107753000D01*
X108215945Y-107737776D01*
X108244076Y-107709645D01*
X108259300Y-107672891D01*
X108259300Y-107665500D01*
X108489998Y-107665500D01*
X108546800Y-107722302D01*
X108687520Y-107581582D01*
X108748843Y-107548097D01*
X108818535Y-107553081D01*
X108862882Y-107581582D01*
X108863589Y-107582289D01*
X108849524Y-107596355D01*
X108834300Y-107633109D01*
X108834300Y-107672891D01*
X108849524Y-107709645D01*
X108877655Y-107737776D01*
X108914409Y-107753000D01*
X108954191Y-107753000D01*
X108990945Y-107737776D01*
X109019076Y-107709645D01*
X109034300Y-107672891D01*
X109034300Y-107633109D01*
X109019076Y-107596355D01*
X109005010Y-107582289D01*
X109005718Y-107581582D01*
X109067041Y-107548097D01*
X109136733Y-107553081D01*
X109181080Y-107581582D01*
X109321800Y-107722302D01*
X109378602Y-107665500D01*
X109346211Y-107633109D01*
X109609300Y-107633109D01*
X109609300Y-107672891D01*
X109624524Y-107709645D01*
X109652655Y-107737776D01*
X109689409Y-107753000D01*
X109729191Y-107753000D01*
X109765945Y-107737776D01*
X109794076Y-107709645D01*
X109809300Y-107672891D01*
X109809300Y-107652999D01*
X110027498Y-107652999D01*
X110027498Y-107653001D01*
X110357388Y-107982891D01*
X110406438Y-107864475D01*
X110406440Y-107864467D01*
X110434299Y-107724410D01*
X110434300Y-107724407D01*
X110434300Y-107581593D01*
X110434299Y-107581589D01*
X110406440Y-107441532D01*
X110406438Y-107441524D01*
X110357388Y-107323107D01*
X110027498Y-107652999D01*
X109809300Y-107652999D01*
X109809300Y-107633109D01*
X109794076Y-107596355D01*
X109765945Y-107568224D01*
X109729191Y-107553000D01*
X109689409Y-107553000D01*
X109652655Y-107568224D01*
X109624524Y-107596355D01*
X109609300Y-107633109D01*
X109346211Y-107633109D01*
X108934300Y-107221198D01*
X108489998Y-107665500D01*
X108259300Y-107665500D01*
X108259300Y-107633109D01*
X108244076Y-107596355D01*
X108215945Y-107568224D01*
X108179191Y-107553000D01*
X108139409Y-107553000D01*
X108102655Y-107568224D01*
X108074524Y-107596355D01*
X108059300Y-107633109D01*
X107821211Y-107633109D01*
X107511209Y-107323107D01*
X107462164Y-107441514D01*
X107462159Y-107441530D01*
X107434300Y-107581589D01*
X106195500Y-107581589D01*
X106195500Y-107264887D01*
X106195505Y-107196436D01*
X106195500Y-107196410D01*
X106195500Y-107196394D01*
X106183991Y-107138532D01*
X106183991Y-107138529D01*
X106179742Y-107117168D01*
X106171895Y-107077706D01*
X106171492Y-107075457D01*
X106171488Y-107075443D01*
X106170401Y-107072984D01*
X106146209Y-107014580D01*
X106146205Y-107014570D01*
X106142204Y-107004909D01*
X107829407Y-107004909D01*
X108159300Y-107334802D01*
X108603602Y-106890500D01*
X108596211Y-106883109D01*
X108834300Y-106883109D01*
X108834300Y-106922891D01*
X108849524Y-106959645D01*
X108877655Y-106987776D01*
X108914409Y-107003000D01*
X108954191Y-107003000D01*
X108990945Y-106987776D01*
X109019076Y-106959645D01*
X109034300Y-106922891D01*
X109034300Y-106890499D01*
X109264998Y-106890499D01*
X109264998Y-106890500D01*
X109709300Y-107334802D01*
X109709301Y-107334802D01*
X110039191Y-107004910D01*
X109920778Y-106955862D01*
X109920766Y-106955859D01*
X109780710Y-106928000D01*
X109780241Y-106928000D01*
X109780005Y-106927930D01*
X109774645Y-106927403D01*
X109774745Y-106926386D01*
X109713202Y-106908315D01*
X109667447Y-106855511D01*
X109658624Y-106828191D01*
X109631440Y-106691532D01*
X109631438Y-106691524D01*
X109582388Y-106573107D01*
X109264998Y-106890499D01*
X109034300Y-106890499D01*
X109034300Y-106883109D01*
X109019076Y-106846355D01*
X108990945Y-106818224D01*
X108954191Y-106803000D01*
X108914409Y-106803000D01*
X108877655Y-106818224D01*
X108849524Y-106846355D01*
X108834300Y-106883109D01*
X108596211Y-106883109D01*
X108286209Y-106573107D01*
X108237164Y-106691514D01*
X108237159Y-106691531D01*
X108209976Y-106828191D01*
X108177591Y-106890102D01*
X108116875Y-106924676D01*
X108093949Y-106927348D01*
X108093955Y-106927403D01*
X108090896Y-106927704D01*
X108088359Y-106928000D01*
X108087889Y-106928000D01*
X107947830Y-106955859D01*
X107947814Y-106955864D01*
X107829407Y-107004909D01*
X106142204Y-107004909D01*
X106129420Y-106974038D01*
X106124332Y-106961752D01*
X106124329Y-106961747D01*
X106124315Y-106961721D01*
X106124312Y-106961716D01*
X106124311Y-106961714D01*
X106088299Y-106907819D01*
X106055884Y-106859300D01*
X106055882Y-106859298D01*
X106055876Y-106859289D01*
X106055853Y-106859261D01*
X106004140Y-106807549D01*
X106004133Y-106807542D01*
X105580048Y-106383399D01*
X105451575Y-106254909D01*
X108604407Y-106254909D01*
X108934300Y-106584802D01*
X108934301Y-106584802D01*
X109264191Y-106254910D01*
X109145778Y-106205862D01*
X109145766Y-106205859D01*
X109005710Y-106178000D01*
X108862889Y-106178000D01*
X108722830Y-106205859D01*
X108722814Y-106205864D01*
X108604407Y-106254909D01*
X105451575Y-106254909D01*
X104871637Y-105674892D01*
X104790060Y-105593304D01*
X110573500Y-105593304D01*
X110573500Y-105770695D01*
X110608103Y-105944658D01*
X110608106Y-105944667D01*
X110675983Y-106108540D01*
X110675990Y-106108553D01*
X110774535Y-106256034D01*
X110774538Y-106256038D01*
X110899961Y-106381461D01*
X110899965Y-106381464D01*
X111047446Y-106480009D01*
X111047459Y-106480016D01*
X111170363Y-106530923D01*
X111211334Y-106547894D01*
X111211336Y-106547894D01*
X111211341Y-106547896D01*
X111385304Y-106582499D01*
X111385307Y-106582500D01*
X111385309Y-106582500D01*
X111562693Y-106582500D01*
X111562694Y-106582499D01*
X111654510Y-106564236D01*
X111736658Y-106547896D01*
X111736661Y-106547894D01*
X111736666Y-106547894D01*
X111900547Y-106480013D01*
X112048035Y-106381464D01*
X112118195Y-106311304D01*
X130949500Y-106311304D01*
X130949500Y-106488695D01*
X130984103Y-106662658D01*
X130984106Y-106662667D01*
X131051983Y-106826540D01*
X131051989Y-106826551D01*
X131150535Y-106974034D01*
X131150538Y-106974038D01*
X131275961Y-107099461D01*
X131275965Y-107099464D01*
X131423446Y-107198009D01*
X131423459Y-107198016D01*
X131528441Y-107241500D01*
X131587334Y-107265894D01*
X131587336Y-107265894D01*
X131587341Y-107265896D01*
X131761304Y-107300499D01*
X131761307Y-107300500D01*
X131761309Y-107300500D01*
X131938693Y-107300500D01*
X131938694Y-107300499D01*
X131996682Y-107288964D01*
X132112658Y-107265896D01*
X132112661Y-107265894D01*
X132112666Y-107265894D01*
X132276547Y-107198013D01*
X132424035Y-107099464D01*
X132549464Y-106974035D01*
X132610292Y-106883000D01*
X132648011Y-106826551D01*
X132648016Y-106826540D01*
X132672454Y-106767540D01*
X132715894Y-106662666D01*
X132716342Y-106660418D01*
X132750499Y-106488695D01*
X132750500Y-106488693D01*
X132750500Y-106449500D01*
X132770185Y-106382461D01*
X132822989Y-106336706D01*
X132874500Y-106325500D01*
X134389464Y-106325500D01*
X134456503Y-106345185D01*
X134502258Y-106397989D01*
X134512202Y-106467147D01*
X134492566Y-106518391D01*
X134451383Y-106580024D01*
X134451378Y-106580034D01*
X134400459Y-106702963D01*
X134400457Y-106702971D01*
X134375877Y-106826545D01*
X134375876Y-106826551D01*
X134374500Y-106833466D01*
X134374500Y-106833469D01*
X134374500Y-110016531D01*
X134374500Y-110016533D01*
X134374499Y-110016533D01*
X134400458Y-110147030D01*
X134400461Y-110147040D01*
X134451376Y-110269961D01*
X134451386Y-110269979D01*
X134525301Y-110380601D01*
X134525307Y-110380609D01*
X134619390Y-110474692D01*
X134619398Y-110474698D01*
X134730020Y-110548613D01*
X134730023Y-110548614D01*
X134730031Y-110548620D01*
X134730037Y-110548622D01*
X134730038Y-110548623D01*
X134773357Y-110566566D01*
X134852964Y-110599540D01*
X134852968Y-110599540D01*
X134852969Y-110599541D01*
X134983466Y-110625500D01*
X134983469Y-110625500D01*
X135116531Y-110625500D01*
X135492662Y-110625500D01*
X135559701Y-110645185D01*
X135605456Y-110697989D01*
X135607223Y-110702047D01*
X135618985Y-110730443D01*
X135618990Y-110730453D01*
X135717535Y-110877934D01*
X135717538Y-110877938D01*
X135842961Y-111003361D01*
X135842965Y-111003364D01*
X135990446Y-111101909D01*
X135990459Y-111101916D01*
X136109598Y-111151264D01*
X136154334Y-111169794D01*
X136154336Y-111169794D01*
X136154341Y-111169796D01*
X136328304Y-111204399D01*
X136328307Y-111204400D01*
X136328309Y-111204400D01*
X136505693Y-111204400D01*
X136505694Y-111204399D01*
X136563682Y-111192864D01*
X136679658Y-111169796D01*
X136679661Y-111169794D01*
X136679666Y-111169794D01*
X136819535Y-111111858D01*
X136843540Y-111101916D01*
X136843540Y-111101915D01*
X136843547Y-111101913D01*
X136991035Y-111003364D01*
X137116464Y-110877935D01*
X137215013Y-110730447D01*
X137282894Y-110566566D01*
X137317500Y-110392591D01*
X137317500Y-110215209D01*
X137317500Y-110215206D01*
X137317499Y-110215204D01*
X137282896Y-110041241D01*
X137282893Y-110041232D01*
X137281063Y-110036815D01*
X137258580Y-109982535D01*
X137215014Y-109877354D01*
X137215012Y-109877350D01*
X137203804Y-109860577D01*
X137685275Y-109860577D01*
X137790536Y-109904178D01*
X137790540Y-109904179D01*
X137935426Y-109932999D01*
X137935429Y-109933000D01*
X138083171Y-109933000D01*
X138083173Y-109932999D01*
X138228060Y-109904179D01*
X138228075Y-109904175D01*
X138333324Y-109860578D01*
X138333324Y-109860577D01*
X138009301Y-109536554D01*
X138009300Y-109536554D01*
X137685275Y-109860577D01*
X137203804Y-109860577D01*
X137116464Y-109729865D01*
X137116461Y-109729861D01*
X136991038Y-109604438D01*
X136991034Y-109604435D01*
X136843553Y-109505890D01*
X136843540Y-109505883D01*
X136679667Y-109438006D01*
X136679659Y-109438004D01*
X136505700Y-109403401D01*
X136488943Y-109394635D01*
X136470465Y-109390616D01*
X136445428Y-109371873D01*
X136443789Y-109371016D01*
X136442211Y-109369465D01*
X136292065Y-109219319D01*
X136235855Y-109163109D01*
X136509300Y-109163109D01*
X136509300Y-109202891D01*
X136524524Y-109239645D01*
X136552655Y-109267776D01*
X136589409Y-109283000D01*
X136629191Y-109283000D01*
X136665945Y-109267776D01*
X136694076Y-109239645D01*
X136709300Y-109202891D01*
X136709300Y-109182999D01*
X136962854Y-109182999D01*
X136962854Y-109183001D01*
X137287229Y-109507376D01*
X137307499Y-109507376D01*
X137316925Y-109505228D01*
X137322862Y-109507376D01*
X137331369Y-109507376D01*
X137655746Y-109183000D01*
X137635855Y-109163109D01*
X137909300Y-109163109D01*
X137909300Y-109202891D01*
X137924524Y-109239645D01*
X137952655Y-109267776D01*
X137989409Y-109283000D01*
X138029191Y-109283000D01*
X138065945Y-109267776D01*
X138094076Y-109239645D01*
X138109300Y-109202891D01*
X138109300Y-109182999D01*
X138362854Y-109182999D01*
X138362854Y-109183001D01*
X138686877Y-109507024D01*
X138686878Y-109507024D01*
X138730475Y-109401775D01*
X138730479Y-109401760D01*
X138759299Y-109256873D01*
X138759300Y-109256871D01*
X138759300Y-109109128D01*
X138759299Y-109109126D01*
X138730479Y-108964240D01*
X138730478Y-108964236D01*
X138686877Y-108858975D01*
X138362854Y-109182999D01*
X138109300Y-109182999D01*
X138109300Y-109163109D01*
X138094076Y-109126355D01*
X138065945Y-109098224D01*
X138029191Y-109083000D01*
X137989409Y-109083000D01*
X137952655Y-109098224D01*
X137924524Y-109126355D01*
X137909300Y-109163109D01*
X137635855Y-109163109D01*
X137331368Y-108858622D01*
X137287230Y-108858622D01*
X136962854Y-109182999D01*
X136709300Y-109182999D01*
X136709300Y-109163109D01*
X136694076Y-109126355D01*
X136665945Y-109098224D01*
X136629191Y-109083000D01*
X136589409Y-109083000D01*
X136552655Y-109098224D01*
X136524524Y-109126355D01*
X136509300Y-109163109D01*
X136235855Y-109163109D01*
X135931721Y-108858974D01*
X135873691Y-108870517D01*
X135804099Y-108864290D01*
X135748922Y-108821426D01*
X135725678Y-108755537D01*
X135725500Y-108748900D01*
X135725500Y-108583000D01*
X136362854Y-108583000D01*
X136609300Y-108829446D01*
X136855746Y-108583000D01*
X137762854Y-108583000D01*
X138009300Y-108829446D01*
X138255746Y-108583000D01*
X138009300Y-108336554D01*
X137762854Y-108583000D01*
X136855746Y-108583000D01*
X136609300Y-108336554D01*
X136362854Y-108583000D01*
X135725500Y-108583000D01*
X135725500Y-108417098D01*
X135745185Y-108350059D01*
X135797989Y-108304304D01*
X135867147Y-108294360D01*
X135873692Y-108295481D01*
X135931721Y-108307024D01*
X136255746Y-107983000D01*
X136255746Y-107982999D01*
X136235856Y-107963109D01*
X136509300Y-107963109D01*
X136509300Y-108002891D01*
X136524524Y-108039645D01*
X136552655Y-108067776D01*
X136589409Y-108083000D01*
X136629191Y-108083000D01*
X136665945Y-108067776D01*
X136694076Y-108039645D01*
X136709300Y-108002891D01*
X136709300Y-107982999D01*
X136962854Y-107982999D01*
X136962854Y-107983001D01*
X137287229Y-108307376D01*
X137331369Y-108307376D01*
X137655746Y-107983000D01*
X137635855Y-107963109D01*
X137909300Y-107963109D01*
X137909300Y-108002891D01*
X137924524Y-108039645D01*
X137952655Y-108067776D01*
X137989409Y-108083000D01*
X138029191Y-108083000D01*
X138065945Y-108067776D01*
X138094076Y-108039645D01*
X138109300Y-108002891D01*
X138109300Y-107982999D01*
X138362854Y-107982999D01*
X138362854Y-107983001D01*
X138686877Y-108307024D01*
X138686878Y-108307024D01*
X138730475Y-108201775D01*
X138730479Y-108201760D01*
X138759299Y-108056873D01*
X138759300Y-108056871D01*
X138759300Y-107909128D01*
X138759299Y-107909126D01*
X138730479Y-107764240D01*
X138730478Y-107764236D01*
X138686877Y-107658975D01*
X138362854Y-107982999D01*
X138109300Y-107982999D01*
X138109300Y-107963109D01*
X138094076Y-107926355D01*
X138065945Y-107898224D01*
X138029191Y-107883000D01*
X137989409Y-107883000D01*
X137952655Y-107898224D01*
X137924524Y-107926355D01*
X137909300Y-107963109D01*
X137635855Y-107963109D01*
X137331368Y-107658622D01*
X137287230Y-107658622D01*
X136962854Y-107982999D01*
X136709300Y-107982999D01*
X136709300Y-107963109D01*
X136694076Y-107926355D01*
X136665945Y-107898224D01*
X136629191Y-107883000D01*
X136589409Y-107883000D01*
X136552655Y-107898224D01*
X136524524Y-107926355D01*
X136509300Y-107963109D01*
X136235856Y-107963109D01*
X135931721Y-107658974D01*
X135873691Y-107670517D01*
X135852707Y-107668639D01*
X135831853Y-107671638D01*
X135818605Y-107665588D01*
X135804099Y-107664290D01*
X135787461Y-107651364D01*
X135768297Y-107642613D01*
X135760422Y-107630360D01*
X135748922Y-107621426D01*
X135741913Y-107601558D01*
X135730523Y-107583835D01*
X135726988Y-107559251D01*
X135725678Y-107555537D01*
X135725500Y-107548900D01*
X135725500Y-107383000D01*
X136362854Y-107383000D01*
X136609300Y-107629446D01*
X136855746Y-107383000D01*
X137762854Y-107383000D01*
X138009300Y-107629446D01*
X138255746Y-107383000D01*
X138009300Y-107136554D01*
X137762854Y-107383000D01*
X136855746Y-107383000D01*
X136609300Y-107136554D01*
X136362854Y-107383000D01*
X135725500Y-107383000D01*
X135725500Y-107231163D01*
X135745185Y-107164124D01*
X135761819Y-107143482D01*
X135773550Y-107131751D01*
X135834873Y-107098266D01*
X135885422Y-107097815D01*
X135931720Y-107107024D01*
X136344841Y-106693903D01*
X136406164Y-106660418D01*
X136475855Y-106665402D01*
X136520203Y-106693903D01*
X136538589Y-106712289D01*
X136524524Y-106726355D01*
X136509300Y-106763109D01*
X136509300Y-106802891D01*
X136524524Y-106839645D01*
X136552655Y-106867776D01*
X136589409Y-106883000D01*
X136629191Y-106883000D01*
X136665945Y-106867776D01*
X136694076Y-106839645D01*
X136709300Y-106802891D01*
X136709300Y-106763109D01*
X136694076Y-106726355D01*
X136680009Y-106712288D01*
X136698394Y-106693904D01*
X136759717Y-106660419D01*
X136829409Y-106665403D01*
X136873757Y-106693904D01*
X137287229Y-107107376D01*
X137331369Y-107107376D01*
X137675637Y-106763109D01*
X137909300Y-106763109D01*
X137909300Y-106802891D01*
X137924524Y-106839645D01*
X137952655Y-106867776D01*
X137989409Y-106883000D01*
X138029191Y-106883000D01*
X138065945Y-106867776D01*
X138094076Y-106839645D01*
X138109300Y-106802891D01*
X138109300Y-106782999D01*
X138362854Y-106782999D01*
X138362854Y-106783001D01*
X138686877Y-107107024D01*
X138686878Y-107107024D01*
X138730475Y-107001775D01*
X138730479Y-107001760D01*
X138759299Y-106856873D01*
X138759300Y-106856871D01*
X138759300Y-106709128D01*
X138759299Y-106709126D01*
X138730479Y-106564240D01*
X138730478Y-106564236D01*
X138686877Y-106458975D01*
X138362854Y-106782999D01*
X138109300Y-106782999D01*
X138109300Y-106763109D01*
X138094076Y-106726355D01*
X138065945Y-106698224D01*
X138029191Y-106683000D01*
X137989409Y-106683000D01*
X137952655Y-106698224D01*
X137924524Y-106726355D01*
X137909300Y-106763109D01*
X137675637Y-106763109D01*
X137794789Y-106643957D01*
X137832523Y-106606223D01*
X138333324Y-106105421D01*
X138228067Y-106061822D01*
X138228059Y-106061820D01*
X138083172Y-106033000D01*
X137935426Y-106033000D01*
X137915963Y-106036871D01*
X137846372Y-106030641D01*
X137791196Y-105987776D01*
X137767954Y-105921886D01*
X137784024Y-105853889D01*
X137788677Y-105846358D01*
X137801109Y-105827753D01*
X137801109Y-105827752D01*
X137801113Y-105827747D01*
X137868994Y-105663866D01*
X137873436Y-105641538D01*
X137894806Y-105534103D01*
X137903600Y-105489891D01*
X137903600Y-105312509D01*
X137903600Y-105312506D01*
X137903599Y-105312504D01*
X137868996Y-105138541D01*
X137868993Y-105138532D01*
X137801116Y-104974659D01*
X137801109Y-104974646D01*
X137702564Y-104827165D01*
X137702561Y-104827161D01*
X137577138Y-104701738D01*
X137577134Y-104701735D01*
X137466410Y-104627751D01*
X137421605Y-104574139D01*
X137412898Y-104504814D01*
X137443053Y-104441786D01*
X137447601Y-104436987D01*
X142066627Y-99817961D01*
X142127948Y-99784478D01*
X142178494Y-99784027D01*
X142245741Y-99797403D01*
X142261308Y-99800500D01*
X142261309Y-99800500D01*
X142438693Y-99800500D01*
X142438694Y-99800499D01*
X142521506Y-99784027D01*
X142612658Y-99765896D01*
X142612661Y-99765894D01*
X142612666Y-99765894D01*
X142776547Y-99698013D01*
X142924035Y-99599464D01*
X143049464Y-99474035D01*
X143148013Y-99326547D01*
X143215894Y-99162666D01*
X143250500Y-98988691D01*
X143250500Y-98811309D01*
X143250500Y-98811306D01*
X143250499Y-98811304D01*
X143215896Y-98637341D01*
X143215893Y-98637332D01*
X143148016Y-98473459D01*
X143148009Y-98473446D01*
X143049464Y-98325965D01*
X143049461Y-98325961D01*
X142924038Y-98200538D01*
X142924034Y-98200535D01*
X142776553Y-98101990D01*
X142776540Y-98101983D01*
X142612667Y-98034106D01*
X142612658Y-98034103D01*
X142438694Y-97999500D01*
X142438691Y-97999500D01*
X142261309Y-97999500D01*
X142261306Y-97999500D01*
X142087341Y-98034103D01*
X142087332Y-98034106D01*
X141923459Y-98101983D01*
X141923446Y-98101990D01*
X141775965Y-98200535D01*
X141775961Y-98200538D01*
X141650538Y-98325961D01*
X141650535Y-98325965D01*
X141551985Y-98473455D01*
X141497807Y-98604253D01*
X141470927Y-98644481D01*
X135077229Y-105038181D01*
X135015906Y-105071666D01*
X134989548Y-105074500D01*
X132488388Y-105074500D01*
X132367555Y-105098535D01*
X132367547Y-105098537D01*
X132253716Y-105145687D01*
X132166202Y-105204163D01*
X132151269Y-105214140D01*
X132151263Y-105214145D01*
X131902228Y-105463181D01*
X131840905Y-105496666D01*
X131814547Y-105499500D01*
X131761306Y-105499500D01*
X131587341Y-105534103D01*
X131587332Y-105534106D01*
X131423459Y-105601983D01*
X131423446Y-105601990D01*
X131275965Y-105700535D01*
X131275961Y-105700538D01*
X131150538Y-105825961D01*
X131150535Y-105825965D01*
X131051990Y-105973446D01*
X131051983Y-105973459D01*
X130984106Y-106137332D01*
X130984103Y-106137341D01*
X130949500Y-106311304D01*
X112118195Y-106311304D01*
X112173464Y-106256035D01*
X112272013Y-106108547D01*
X112339894Y-105944666D01*
X112344426Y-105921886D01*
X112374499Y-105770695D01*
X112374500Y-105770693D01*
X112374500Y-105593306D01*
X112374499Y-105593304D01*
X112339896Y-105419341D01*
X112339893Y-105419332D01*
X112272016Y-105255459D01*
X112272009Y-105255446D01*
X112224554Y-105184424D01*
X112224544Y-105184412D01*
X112179093Y-105116389D01*
X126833800Y-105116389D01*
X126833800Y-105289611D01*
X126860898Y-105460701D01*
X126914427Y-105625445D01*
X126993068Y-105779788D01*
X127094886Y-105919928D01*
X127217372Y-106042414D01*
X127357512Y-106144232D01*
X127511855Y-106222873D01*
X127676599Y-106276402D01*
X127847689Y-106303500D01*
X127942339Y-106303500D01*
X127952394Y-106305500D01*
X128075606Y-106305500D01*
X128085661Y-106303500D01*
X128570911Y-106303500D01*
X128742001Y-106276402D01*
X128906745Y-106222873D01*
X129061088Y-106144232D01*
X129201228Y-106042414D01*
X129323714Y-105919928D01*
X129425532Y-105779788D01*
X129504173Y-105625445D01*
X129557702Y-105460701D01*
X129584800Y-105289611D01*
X129584800Y-105116389D01*
X129557702Y-104945299D01*
X129504173Y-104780555D01*
X129425532Y-104626212D01*
X129323714Y-104486072D01*
X129215808Y-104378166D01*
X129182323Y-104316843D01*
X129187307Y-104247151D01*
X129229179Y-104191218D01*
X129238394Y-104184945D01*
X129302645Y-104145315D01*
X129426615Y-104021345D01*
X129518656Y-103872124D01*
X129518658Y-103872119D01*
X129573805Y-103705697D01*
X129573806Y-103705690D01*
X129584299Y-103602986D01*
X129584300Y-103602973D01*
X129584300Y-103453000D01*
X128489630Y-103453000D01*
X128509375Y-103433255D01*
X128558744Y-103347745D01*
X128584300Y-103252370D01*
X128584300Y-103153630D01*
X128558744Y-103058255D01*
X128509375Y-102972745D01*
X128489630Y-102953000D01*
X129584299Y-102953000D01*
X129584299Y-102803028D01*
X129584298Y-102803013D01*
X129573805Y-102700302D01*
X129518658Y-102533880D01*
X129518656Y-102533875D01*
X129426615Y-102384654D01*
X129302645Y-102260684D01*
X129153424Y-102168643D01*
X129153419Y-102168641D01*
X128986997Y-102113494D01*
X128986990Y-102113493D01*
X128884286Y-102103000D01*
X128459300Y-102103000D01*
X128459300Y-102922670D01*
X128439555Y-102902925D01*
X128354045Y-102853556D01*
X128258670Y-102828000D01*
X128159930Y-102828000D01*
X128064555Y-102853556D01*
X127979045Y-102902925D01*
X127959300Y-102922670D01*
X127959300Y-102103000D01*
X127534328Y-102103000D01*
X127534312Y-102103001D01*
X127431602Y-102113494D01*
X127265180Y-102168641D01*
X127265175Y-102168643D01*
X127115954Y-102260684D01*
X126991984Y-102384654D01*
X126899943Y-102533875D01*
X126899941Y-102533880D01*
X126844794Y-102700302D01*
X126844793Y-102700309D01*
X126834300Y-102803013D01*
X126834300Y-102953000D01*
X127928970Y-102953000D01*
X127909225Y-102972745D01*
X127859856Y-103058255D01*
X127834300Y-103153630D01*
X127834300Y-103252370D01*
X127859856Y-103347745D01*
X127909225Y-103433255D01*
X127928970Y-103453000D01*
X126834301Y-103453000D01*
X126834301Y-103602986D01*
X126844794Y-103705697D01*
X126899941Y-103872119D01*
X126899943Y-103872124D01*
X126991984Y-104021345D01*
X127115956Y-104145317D01*
X127180206Y-104184946D01*
X127226931Y-104236893D01*
X127238154Y-104305856D01*
X127210311Y-104369938D01*
X127202792Y-104378166D01*
X127094885Y-104486073D01*
X126993068Y-104626211D01*
X126914428Y-104780552D01*
X126860897Y-104945302D01*
X126836628Y-105098535D01*
X126833800Y-105116389D01*
X112179093Y-105116389D01*
X112173464Y-105107965D01*
X112130624Y-105065125D01*
X112126074Y-105059346D01*
X112115695Y-105033465D01*
X112102334Y-105008996D01*
X112101033Y-104996904D01*
X112100068Y-104994496D01*
X112100521Y-104992136D01*
X112099500Y-104982638D01*
X112099500Y-104480478D01*
X112119185Y-104413439D01*
X112135824Y-104392792D01*
X112158681Y-104369938D01*
X118745111Y-97784271D01*
X118751129Y-97778258D01*
X118751133Y-97778257D01*
X118752502Y-97776888D01*
X118785520Y-97743870D01*
X118785521Y-97743867D01*
X119279850Y-97249595D01*
X119341173Y-97216115D01*
X119410864Y-97221104D01*
X119414951Y-97222711D01*
X119499860Y-97257882D01*
X119724674Y-97318121D01*
X119955428Y-97348500D01*
X119955435Y-97348500D01*
X120188165Y-97348500D01*
X120188172Y-97348500D01*
X120418926Y-97318121D01*
X120643740Y-97257882D01*
X120805166Y-97191018D01*
X120858760Y-97168819D01*
X120858763Y-97168817D01*
X120858769Y-97168815D01*
X121060332Y-97052442D01*
X121244981Y-96910756D01*
X121409556Y-96746181D01*
X121551242Y-96561532D01*
X121667615Y-96359969D01*
X121756682Y-96144940D01*
X121816921Y-95920126D01*
X121847300Y-95689372D01*
X121847300Y-95456628D01*
X121816921Y-95225874D01*
X121756682Y-95001060D01*
X121697388Y-94857909D01*
X121667619Y-94786039D01*
X121667611Y-94786023D01*
X121551246Y-94584475D01*
X121551242Y-94584468D01*
X121409556Y-94399819D01*
X121409551Y-94399813D01*
X121244986Y-94235248D01*
X121244979Y-94235242D01*
X121060340Y-94093564D01*
X121060338Y-94093562D01*
X121060332Y-94093558D01*
X121060327Y-94093555D01*
X121060324Y-94093553D01*
X120858776Y-93977188D01*
X120858760Y-93977180D01*
X120643747Y-93888120D01*
X120593398Y-93874629D01*
X120418926Y-93827879D01*
X120418925Y-93827878D01*
X120418922Y-93827878D01*
X120188182Y-93797501D01*
X120188177Y-93797500D01*
X120188172Y-93797500D01*
X119955428Y-93797500D01*
X119955422Y-93797500D01*
X119955417Y-93797501D01*
X119724677Y-93827878D01*
X119499852Y-93888120D01*
X119284839Y-93977180D01*
X119284823Y-93977188D01*
X119083275Y-94093553D01*
X119083259Y-94093564D01*
X118898620Y-94235242D01*
X118898613Y-94235248D01*
X118734048Y-94399813D01*
X118734042Y-94399820D01*
X118592364Y-94584459D01*
X118592353Y-94584475D01*
X118475988Y-94786023D01*
X118475980Y-94786039D01*
X118386920Y-95001052D01*
X118326678Y-95225877D01*
X118296301Y-95456617D01*
X118296300Y-95456634D01*
X118296300Y-95689365D01*
X118296301Y-95689382D01*
X118326678Y-95920122D01*
X118386919Y-96144944D01*
X118422093Y-96229861D01*
X118429562Y-96299331D01*
X118398287Y-96361810D01*
X118395213Y-96364995D01*
X117919302Y-96840907D01*
X117919297Y-96840912D01*
X111078648Y-103680763D01*
X111078649Y-103680764D01*
X111075282Y-103684131D01*
X111075267Y-103684142D01*
X111031163Y-103728245D01*
X111009640Y-103749765D01*
X110988150Y-103771253D01*
X110988148Y-103771256D01*
X110953021Y-103823827D01*
X110953019Y-103823831D01*
X110919700Y-103873690D01*
X110919692Y-103873704D01*
X110893895Y-103935982D01*
X110893842Y-103936113D01*
X110872548Y-103987514D01*
X110872545Y-103987528D01*
X110872537Y-103987548D01*
X110872476Y-103987853D01*
X110872474Y-103987859D01*
X110860697Y-104047069D01*
X110860696Y-104047076D01*
X110848501Y-104108360D01*
X110848500Y-104108376D01*
X110848500Y-104108394D01*
X110848500Y-104161162D01*
X110848497Y-104224038D01*
X110848496Y-104237648D01*
X110848500Y-104237729D01*
X110848500Y-104982638D01*
X110828815Y-105049677D01*
X110812181Y-105070319D01*
X110774538Y-105107961D01*
X110774535Y-105107965D01*
X110675990Y-105255446D01*
X110675983Y-105255459D01*
X110608106Y-105419332D01*
X110608103Y-105419341D01*
X110573500Y-105593304D01*
X104790060Y-105593304D01*
X100591613Y-101394288D01*
X100558132Y-101332963D01*
X100555300Y-101306613D01*
X100555300Y-101253306D01*
X100555299Y-101253304D01*
X100520696Y-101079341D01*
X100520693Y-101079332D01*
X100452816Y-100915459D01*
X100452809Y-100915446D01*
X100354264Y-100767965D01*
X100354261Y-100767961D01*
X100228838Y-100642538D01*
X100228834Y-100642535D01*
X100081353Y-100543990D01*
X100081340Y-100543983D01*
X99917467Y-100476106D01*
X99917458Y-100476103D01*
X99743494Y-100441500D01*
X99743491Y-100441500D01*
X99566109Y-100441500D01*
X99566106Y-100441500D01*
X99392141Y-100476103D01*
X99392132Y-100476106D01*
X99228259Y-100543983D01*
X99228246Y-100543990D01*
X99080765Y-100642535D01*
X99080761Y-100642538D01*
X98955338Y-100767961D01*
X98955335Y-100767965D01*
X98856790Y-100915446D01*
X98856783Y-100915459D01*
X98788906Y-101079332D01*
X98788903Y-101079341D01*
X98754300Y-101253304D01*
X97100500Y-101253304D01*
X97100500Y-98811304D01*
X103549500Y-98811304D01*
X103549500Y-98988695D01*
X103584103Y-99162658D01*
X103584106Y-99162667D01*
X103651983Y-99326540D01*
X103651990Y-99326553D01*
X103750535Y-99474034D01*
X103750538Y-99474038D01*
X103788180Y-99511679D01*
X103821666Y-99573001D01*
X103824500Y-99599361D01*
X103824500Y-102061608D01*
X103833595Y-102107329D01*
X103833595Y-102107333D01*
X103833596Y-102107333D01*
X103833596Y-102107334D01*
X103845199Y-102165672D01*
X103848537Y-102182451D01*
X103848538Y-102182455D01*
X103895685Y-102296280D01*
X103895687Y-102296283D01*
X103895688Y-102296286D01*
X103929915Y-102347509D01*
X103964142Y-102398733D01*
X104051267Y-102485858D01*
X104051269Y-102485859D01*
X104061232Y-102495822D01*
X105163181Y-103597771D01*
X105196666Y-103659094D01*
X105199500Y-103685452D01*
X105199500Y-103738695D01*
X105234103Y-103912658D01*
X105234106Y-103912667D01*
X105301983Y-104076540D01*
X105301990Y-104076553D01*
X105400535Y-104224034D01*
X105400538Y-104224038D01*
X105525961Y-104349461D01*
X105525965Y-104349464D01*
X105673446Y-104448009D01*
X105673459Y-104448016D01*
X105765339Y-104486073D01*
X105837334Y-104515894D01*
X105837336Y-104515894D01*
X105837341Y-104515896D01*
X106011304Y-104550499D01*
X106011307Y-104550500D01*
X106011309Y-104550500D01*
X106188693Y-104550500D01*
X106188694Y-104550499D01*
X106246682Y-104538964D01*
X106362658Y-104515896D01*
X106362661Y-104515894D01*
X106362666Y-104515894D01*
X106526547Y-104448013D01*
X106674035Y-104349464D01*
X106799464Y-104224035D01*
X106898013Y-104076547D01*
X106965894Y-103912666D01*
X106973649Y-103873682D01*
X107000499Y-103738695D01*
X107000500Y-103738693D01*
X107000500Y-103561306D01*
X107000499Y-103561304D01*
X106965896Y-103387341D01*
X106965893Y-103387332D01*
X106898016Y-103223459D01*
X106898009Y-103223446D01*
X106799464Y-103075965D01*
X106799461Y-103075961D01*
X106674038Y-102950538D01*
X106674034Y-102950535D01*
X106526553Y-102851990D01*
X106526540Y-102851983D01*
X106362667Y-102784106D01*
X106362658Y-102784103D01*
X106188694Y-102749500D01*
X106188691Y-102749500D01*
X106135453Y-102749500D01*
X106068414Y-102729815D01*
X106047772Y-102713181D01*
X105111819Y-101777228D01*
X105078334Y-101715905D01*
X105075500Y-101689547D01*
X105075500Y-99599361D01*
X105095185Y-99532322D01*
X105111820Y-99511679D01*
X105149461Y-99474038D01*
X105149464Y-99474035D01*
X105248013Y-99326547D01*
X105315894Y-99162666D01*
X105350500Y-98988691D01*
X105350500Y-98811309D01*
X105350500Y-98811306D01*
X105350499Y-98811304D01*
X105315896Y-98637341D01*
X105315893Y-98637332D01*
X105248016Y-98473459D01*
X105248009Y-98473446D01*
X105149464Y-98325965D01*
X105149461Y-98325961D01*
X105024038Y-98200538D01*
X105024034Y-98200535D01*
X104876553Y-98101990D01*
X104876540Y-98101983D01*
X104712667Y-98034106D01*
X104712658Y-98034103D01*
X104538694Y-97999500D01*
X104538691Y-97999500D01*
X104361309Y-97999500D01*
X104361306Y-97999500D01*
X104187341Y-98034103D01*
X104187332Y-98034106D01*
X104023459Y-98101983D01*
X104023446Y-98101990D01*
X103875965Y-98200535D01*
X103875961Y-98200538D01*
X103750538Y-98325961D01*
X103750535Y-98325965D01*
X103651990Y-98473446D01*
X103651983Y-98473459D01*
X103584106Y-98637332D01*
X103584103Y-98637341D01*
X103549500Y-98811304D01*
X97100500Y-98811304D01*
X97100500Y-82519304D01*
X122105500Y-82519304D01*
X122105500Y-82696695D01*
X122140103Y-82870658D01*
X122140106Y-82870667D01*
X122207983Y-83034540D01*
X122207990Y-83034553D01*
X122306535Y-83182034D01*
X122306538Y-83182038D01*
X122431961Y-83307461D01*
X122431965Y-83307464D01*
X122579446Y-83406009D01*
X122579459Y-83406016D01*
X122702363Y-83456923D01*
X122743334Y-83473894D01*
X122743336Y-83473894D01*
X122743341Y-83473896D01*
X122917304Y-83508499D01*
X122917307Y-83508500D01*
X122917309Y-83508500D01*
X123094692Y-83508500D01*
X123112841Y-83504889D01*
X123181644Y-83491203D01*
X123251233Y-83497429D01*
X123293518Y-83525141D01*
X123973902Y-84205573D01*
X124014184Y-84245857D01*
X124047667Y-84307181D01*
X124050500Y-84333535D01*
X124050500Y-93925414D01*
X124030815Y-93992453D01*
X123988501Y-94032801D01*
X123883269Y-94093557D01*
X123883259Y-94093564D01*
X123698620Y-94235242D01*
X123698613Y-94235248D01*
X123534048Y-94399813D01*
X123534042Y-94399820D01*
X123392364Y-94584459D01*
X123392353Y-94584475D01*
X123275988Y-94786023D01*
X123275980Y-94786039D01*
X123186920Y-95001052D01*
X123126678Y-95225877D01*
X123096301Y-95456617D01*
X123096300Y-95456634D01*
X123096300Y-95689365D01*
X123096301Y-95689382D01*
X123126678Y-95920122D01*
X123186920Y-96144947D01*
X123275980Y-96359960D01*
X123275988Y-96359976D01*
X123392353Y-96561524D01*
X123392364Y-96561540D01*
X123534042Y-96746179D01*
X123534048Y-96746186D01*
X123698613Y-96910751D01*
X123698620Y-96910757D01*
X123830103Y-97011647D01*
X123883268Y-97052442D01*
X123883275Y-97052446D01*
X124084823Y-97168811D01*
X124084839Y-97168819D01*
X124299852Y-97257879D01*
X124299854Y-97257879D01*
X124299860Y-97257882D01*
X124524674Y-97318121D01*
X124755428Y-97348500D01*
X124755435Y-97348500D01*
X124988165Y-97348500D01*
X124988172Y-97348500D01*
X125218926Y-97318121D01*
X125443740Y-97257882D01*
X125605166Y-97191018D01*
X125658760Y-97168819D01*
X125658763Y-97168817D01*
X125658769Y-97168815D01*
X125860332Y-97052442D01*
X126044981Y-96910756D01*
X126209556Y-96746181D01*
X126351242Y-96561532D01*
X126467615Y-96359969D01*
X126556682Y-96144940D01*
X126616921Y-95920126D01*
X126647300Y-95689372D01*
X126647300Y-95456628D01*
X126616921Y-95225874D01*
X126556682Y-95001060D01*
X126497388Y-94857909D01*
X126467619Y-94786039D01*
X126467611Y-94786023D01*
X126351246Y-94584475D01*
X126351242Y-94584468D01*
X126284879Y-94497982D01*
X127896300Y-94497982D01*
X127896300Y-96648017D01*
X127906800Y-96750796D01*
X127906801Y-96750798D01*
X127961986Y-96917335D01*
X128054088Y-97066656D01*
X128178144Y-97190712D01*
X128327465Y-97282814D01*
X128494002Y-97337999D01*
X128596790Y-97348500D01*
X128596795Y-97348500D01*
X130746805Y-97348500D01*
X130746810Y-97348500D01*
X130849598Y-97337999D01*
X131016135Y-97282814D01*
X131165456Y-97190712D01*
X131289512Y-97066656D01*
X131381614Y-96917335D01*
X131436799Y-96750798D01*
X131447300Y-96648010D01*
X131447300Y-94497990D01*
X131436799Y-94395202D01*
X131381614Y-94228665D01*
X131289512Y-94079344D01*
X131165456Y-93955288D01*
X131072690Y-93898070D01*
X131016137Y-93863187D01*
X131016132Y-93863185D01*
X130976354Y-93850004D01*
X130849598Y-93808001D01*
X130849596Y-93808000D01*
X130746817Y-93797500D01*
X130746810Y-93797500D01*
X128596790Y-93797500D01*
X128596782Y-93797500D01*
X128494003Y-93808000D01*
X128494002Y-93808001D01*
X128411469Y-93835349D01*
X128327467Y-93863185D01*
X128327462Y-93863187D01*
X128178142Y-93955289D01*
X128054089Y-94079342D01*
X127961987Y-94228662D01*
X127961985Y-94228667D01*
X127934149Y-94312669D01*
X127906801Y-94395202D01*
X127906801Y-94395203D01*
X127906800Y-94395203D01*
X127896300Y-94497982D01*
X126284879Y-94497982D01*
X126209556Y-94399819D01*
X126209551Y-94399813D01*
X126044986Y-94235248D01*
X126044979Y-94235242D01*
X125860340Y-94093564D01*
X125860338Y-94093562D01*
X125860332Y-94093558D01*
X125860327Y-94093555D01*
X125860324Y-94093553D01*
X125658776Y-93977188D01*
X125658760Y-93977180D01*
X125443744Y-93888119D01*
X125443742Y-93888118D01*
X125393404Y-93874629D01*
X125333744Y-93838263D01*
X125303216Y-93775415D01*
X125301500Y-93754855D01*
X125301500Y-84035443D01*
X125301503Y-83961515D01*
X125301500Y-83961499D01*
X125301500Y-83961494D01*
X125289368Y-83900500D01*
X125278115Y-83843922D01*
X125277653Y-83841210D01*
X125277470Y-83840676D01*
X125277469Y-83840670D01*
X125277465Y-83840662D01*
X125277463Y-83840648D01*
X125277448Y-83840613D01*
X125276946Y-83839146D01*
X125275813Y-83836665D01*
X125252289Y-83779873D01*
X125231980Y-83730839D01*
X125230691Y-83727382D01*
X125228987Y-83724833D01*
X125185222Y-83659333D01*
X125161871Y-83624384D01*
X125161869Y-83624381D01*
X125161861Y-83624372D01*
X125161858Y-83624367D01*
X125105187Y-83567696D01*
X125011391Y-83473893D01*
X123881541Y-82343964D01*
X123854664Y-82303738D01*
X123804015Y-82181459D01*
X123804013Y-82181453D01*
X123804011Y-82181451D01*
X123804011Y-82181449D01*
X123705464Y-82033965D01*
X123705461Y-82033961D01*
X123580038Y-81908538D01*
X123580034Y-81908535D01*
X123432553Y-81809990D01*
X123432540Y-81809983D01*
X123268667Y-81742106D01*
X123268658Y-81742103D01*
X123094694Y-81707500D01*
X123094691Y-81707500D01*
X122917309Y-81707500D01*
X122917306Y-81707500D01*
X122743341Y-81742103D01*
X122743332Y-81742106D01*
X122579459Y-81809983D01*
X122579446Y-81809990D01*
X122431965Y-81908535D01*
X122431961Y-81908538D01*
X122306538Y-82033961D01*
X122306535Y-82033965D01*
X122207990Y-82181446D01*
X122207983Y-82181459D01*
X122140106Y-82345332D01*
X122140103Y-82345341D01*
X122105500Y-82519304D01*
X97100500Y-82519304D01*
X97100500Y-75474500D01*
X97120185Y-75407461D01*
X97172989Y-75361706D01*
X97224500Y-75350500D01*
X176975500Y-75350500D01*
X177042539Y-75370185D01*
G37*
%TD.AperFunction*%
%TD*%
M02*
